<?xml version="1.0" encoding="utf-8"?>
<!-- Generator: Adobe Illustrator 27.3.1, SVG Export Plug-In . SVG Version: 6.00 Build 0)  -->
<svg version="1.1" id="Calque_1" xmlns="http://www.w3.org/2000/svg" xmlns:xlink="http://www.w3.org/1999/xlink" x="0px" y="0px"
	 viewBox="0 0 25 25" style="enable-background:new 0 0 25 25;" xml:space="preserve">
<style type="text/css">
	.st0{fill:#F1AF07;stroke:#020203;stroke-miterlimit:10;}
	.st1{fill:#DFA506;}
	.st2{fill:#FEEB1A;}
	.st3{fill:#F1D725;}
	.st4{fill:none;stroke:#020203;stroke-miterlimit:10;}
	.st5{fill:#B47300;}
	.st6{fill:#FFEB13;stroke:#020203;stroke-width:2;stroke-miterlimit:10;}
</style>
<circle class="st0" cx="12.5" cy="12.5" r="12"/>
<path class="st1" d="M21.8,11.3c-3,1.4-4.1,2.2-4.8,1.7c-1.4-0.9-1.7-0.8-3-1.2c-0.8-0.3-1.3-2.4-1.7-2.7c-0.4-0.3-0.3-2.5,0.8-3.5
	c1-0.9,2.1-3.3,3.5-3.5c1.6-0.1,2.1,0.4,2.8,1c2.2,1.7,2.4,2.4,3.4,4c0.5,0.7,0.7,1.3,0.6,2.2c0.3,1.1-0.3,1.3-0.3,1.7
	C23,11.4,22.7,10.9,21.8,11.3z"/>
<ellipse class="st2" cx="12.5" cy="12.5" rx="8.2" ry="8.2"/>
<path class="st3" d="M5.8,11.3c3.1-1.3,4.2-2,4.9-1.5c1.4,1,1.7,0.8,2.9,1.3c0.8,0.3,1.2,2.5,1.6,2.8c0.4,0.4,0.2,2.5-0.9,3.5
	c-1.1,0.9-2.2,3.2-3.7,3.3c-1.6,0.1-1.7-0.4-2.4-1.1c-1.7-1.7-1.8-2-3.2-4.3c-0.4-0.8-0.5-1.6-0.7-2.1c-0.2-1.1,0.2-1.3,0.2-1.7
	C4.6,11.2,4.9,11.7,5.8,11.3z"/>
<ellipse class="st4" cx="12.4" cy="12.6" rx="8.2" ry="8.2"/>
<polygon class="st5" points="6,5.4 4.9,5.6 4.3,5.2 5.4,4.5 6.5,4.8 "/>
<polygon class="st5" points="21.7,18.6 20.6,18.8 20.4,18.1 21.7,17.3 22.2,18 "/>
<polygon class="st5" points="7.4,20.9 8.2,20.7 8.9,20.9 8.4,21.6 7.1,22 "/>
<path class="st6" d="M12.5,16.2c0,2.4,0-9.4,0-7.5"/>
<g>
</g>
<g>
</g>
<g>
</g>
<g>
</g>
<g>
</g>
<g>
</g>
</svg>
