<?xml version="1.0" encoding="utf-8"?>
<!-- Generator: Adobe Illustrator 27.3.1, SVG Export Plug-In . SVG Version: 6.00 Build 0)  -->
<svg version="1.1" id="Calque_1" xmlns="http://www.w3.org/2000/svg" xmlns:xlink="http://www.w3.org/1999/xlink" x="0px" y="0px"
	 viewBox="0 0 90 90" style="enable-background:new 0 0 90 90;" xml:space="preserve">
<style type="text/css">
	.st0{fill:#5E101F;stroke:#000000;stroke-width:2;stroke-miterlimit:10;}
	.st1{fill:#FFFFFF;stroke:#000000;stroke-width:2;stroke-miterlimit:10;}
</style>
<path class="st0" d="M35.3,78.1H42l-0.1-4.9l30.3,5.5c0,0,23.6-2.3-5.4-16.1L63.9,56V14.5H35.3V78.1z"/>
<path class="st1" d="M50.2,66.9l-29.7-2c0,0-6.3-2.9-3-5.4s7.5-4,7.5-4s-12.8-1.7-12.6-4.1c0.3-2.4-2.1-5.5,3.5-5.5
	s10.4-1.6,10.4-1.6l-14.9-4.8c0,0-10.1-6.9-2.1-8.3c7.9-1.4,22.1,3.4,22.1,3.4S56.8,60,50.2,66.9z"/>
<path class="st0" d="M39.4,76.7"/>
</svg>
