<?xml version="1.0" encoding="utf-8"?>
<!-- Generator: Adobe Illustrator 27.3.1, SVG Export Plug-In . SVG Version: 6.00 Build 0)  -->
<svg version="1.1" id="Calque_1" xmlns="http://www.w3.org/2000/svg" xmlns:xlink="http://www.w3.org/1999/xlink" x="0px" y="0px"
	 viewBox="0 0 90 90" style="enable-background:new 0 0 90 90;" xml:space="preserve">
<style type="text/css">
	.st0{enable-background:new    ;}
	.st1{fill:#55130C;stroke:#000000;stroke-miterlimit:10;}
	.st2{fill:#60150D;stroke:#000000;stroke-miterlimit:10;}
	.st3{fill:#67160E;stroke:#000000;stroke-miterlimit:10;}
	.st4{fill:#9B2215;stroke:#000000;stroke-miterlimit:10;}
	.st5{fill:#0C5A22;stroke:#000000;stroke-miterlimit:10;}
	.st6{fill:#0A4B1C;stroke:#000000;stroke-miterlimit:10;}
	.st7{fill:#0C5721;stroke:#000000;stroke-miterlimit:10;}
	.st8{fill:#128833;stroke:#000000;stroke-miterlimit:10;}
</style>
<g>
	<g>
		<g class="st0">
			<g>
				<polygon class="st1" points="65.5,45.7 45.8,41.1 45.3,34.2 64.9,38.7 				"/>
			</g>
			<g>
				<polygon class="st1" points="63.8,24.6 44.1,20.1 43.5,12.8 63.2,17.3 				"/>
			</g>
			<g>
				<polygon class="st2" points="34.5,42.9 14.9,38.3 20.8,30.3 40.4,34.9 				"/>
			</g>
			<g>
				<polygon class="st3" points="33.4,28.8 13.8,24.2 44.1,20.1 63.8,24.6 				"/>
			</g>
			<g>
				<polygon class="st1" points="40.4,34.9 20.8,30.3 13.8,24.2 33.4,28.8 				"/>
			</g>
			<g>
				<polygon class="st4" points="63.2,17.3 83.4,29.5 65.5,45.7 64.9,38.7 34.5,42.9 40.4,34.9 33.4,28.8 63.8,24.6 				"/>
			</g>
		</g>
	</g>
</g>
<g>
	<g>
		<g class="st0">
			<g>
				<polygon class="st5" points="44.7,55.9 25.1,51.3 55.4,47 75.1,51.6 				"/>
			</g>
			<g>
				<polygon class="st6" points="46.5,77.2 26.9,72.7 6.6,60.6 26.3,65.2 				"/>
			</g>
			<g>
				<polygon class="st7" points="26.3,65.2 6.6,60.6 24.5,44.3 44.1,48.9 				"/>
			</g>
			<g>
				<polygon class="st8" points="44.1,48.9 44.7,55.9 75.1,51.6 69.4,59.7 76.3,65.7 45.9,70 46.5,77.2 26.3,65.2 				"/>
			</g>
		</g>
	</g>
</g>
</svg>
