<?xml version="1.0" encoding="utf-8"?>
<!-- Generator: Adobe Illustrator 27.3.1, SVG Export Plug-In . SVG Version: 6.00 Build 0)  -->
<svg version="1.1" id="Calque_1" xmlns="http://www.w3.org/2000/svg" xmlns:xlink="http://www.w3.org/1999/xlink" x="0px" y="0px"
	 viewBox="0 0 150 300" style="enable-background:new 0 0 150 300;" xml:space="preserve">
<style type="text/css">
	.st0{fill:#C84828;stroke:#030304;stroke-width:3;stroke-miterlimit:10;}
	.st1{fill:#946137;stroke:#030304;stroke-width:3;stroke-miterlimit:10;}
	.st2{fill:#F9B00D;stroke:#030304;stroke-width:3;stroke-miterlimit:10;}
	.st3{fill:#E63125;stroke:#030304;stroke-width:3;stroke-miterlimit:10;}
	.st4{fill:none;stroke:#1CA638;stroke-width:7;stroke-miterlimit:10;}
</style>
<rect x="77.2" y="268.6" class="st0" width="35.8" height="23.7"/>
<polygon class="st1" points="77.2,282 112.3,282 112.3,287.3 126,287.3 126,298.7 77.2,298.7 "/>
<rect x="32.7" y="268.6" class="st0" width="35.8" height="23.7"/>
<path class="st2" d="M85.6,129.4l-37.5-2.7C26.7,125,10.6,103.6,12,78.9v-1c1.3-25.4,19.4-44.5,40.5-43.5l37.1,2.7
	c21.1,1.7,37.5,23.1,36.1,47.8v1C124.4,111.4,106.3,130.4,85.6,129.4z"/>
<path class="st1" d="M59.8,1.3c0,0-56.2,45.2-63.2,39.5S208.3,87,133.4,44.5S58.5,2.7,58.5,2.7"/>
<path class="st0" d="M125.4,267.2h-105c-4.3,0-8.4-4.7-8.4-10V134.1c0-5.4,3.7-10,8.4-10h105c4.3,0,8.4,4.7,8.4,10v122.8
	C133.4,262.6,129.7,267.2,125.4,267.2z"/>
<path class="st3" d="M86.2,64.9c0,0,27.1,0,22.1,6.4c-4.3,6.4-4.3,6.4-4.3,6.4L86.2,64.9z"/>
<path class="st2" d="M113.3,110c0,0-21.1,7-23.4-11.7"/>
<path class="st1" d="M48.4,17.4c11,10.7,52.2,21.4,52.2,21.4"/>
<path class="st1" d="M43.4,32.8c0,0,40.8,18.1,56.5,16.4"/>
<g>
	<polygon class="st0" points="83.5,242.5 59.1,242.2 53.4,150.5 77.9,150.8 	"/>
	<polygon class="st2" points="57.5,217.7 81.9,217.4 83.5,242.5 59.1,242.2 	"/>
</g>
<polygon class="st1" points="32.7,282 67.8,282 67.8,287.3 81.9,287.3 81.9,298.7 32.7,298.7 "/>
<rect x="3.7" y="3.8" class="st4" width="142.8" height="292.7"/>
</svg>
