<?xml version="1.0" encoding="utf-8"?>
<!-- Generator: Adobe Illustrator 27.3.1, SVG Export Plug-In . SVG Version: 6.00 Build 0)  -->
<svg version="1.1" id="Calque_1" xmlns="http://www.w3.org/2000/svg" xmlns:xlink="http://www.w3.org/1999/xlink" x="0px" y="0px"
	 viewBox="0 0 100 100" style="enable-background:new 0 0 100 100;" xml:space="preserve">
<style type="text/css">
	.st0{stroke:#000000;stroke-width:7;stroke-miterlimit:10;}
	.st1{fill:#1C0000;stroke:#000000;stroke-width:7;stroke-miterlimit:10;}
</style>
<path class="st0" d="M75.2,96.5H24.8C13.1,96.5,3.5,87,3.5,75.2V24.8C3.5,13,13.1,3.5,24.8,3.5h50.3c11.8,0,21.3,9.6,21.3,21.3v50.3
	C96.5,87,87,96.5,75.2,96.5z"/>
<path class="st1" d="M-67.2,114.1h-55.6c-12.9,0-23.5-10.5-23.5-23.4V35.2c0-13,10.6-23.4,23.5-23.4h55.5c13,0,23.5,10.6,23.5,23.4
	v55.3C-43.7,103.6-54.2,114.1-67.2,114.1z"/>
</svg>
