<?xml version="1.0" encoding="utf-8"?>
<!-- Generator: Adobe Illustrator 27.3.1, SVG Export Plug-In . SVG Version: 6.00 Build 0)  -->
<svg version="1.1" id="Calque_1" xmlns="http://www.w3.org/2000/svg" xmlns:xlink="http://www.w3.org/1999/xlink" x="0px" y="0px"
	 viewBox="0 0 41 90" style="enable-background:new 0 0 41 90;" xml:space="preserve">
<style type="text/css">
	.st0{fill:#0EA038;stroke:#030304;stroke-miterlimit:10;}
	.st1{fill:#EB5885;stroke:#030304;stroke-miterlimit:10;}
	.st2{fill:#020203;stroke:#030304;stroke-miterlimit:10;}
	.st3{fill:#C5B084;stroke:#030405;stroke-miterlimit:10;}
	.st4{fill:#4D5B65;stroke:#030405;stroke-miterlimit:10;}
</style>
<path class="st0" d="M33.5,82.4v-6.5H22.6v6.3v3.4v1.9h13.7c0.6,0,1.2-0.5,1.2-1.2V85c0-0.7-0.5-1.2-1.2-1.2L33.5,82.4z"/>
<path class="st0" d="M17.6,83.4v-5.8H6.7v5.7v3.4v1.9h13.7c0.7,0,1.2-0.6,1.2-1.2v-1.1c0-0.7-0.6-1.2-1.2-1.2L17.6,83.4z"/>
<g>
	<path class="st0" d="M34.9,12.2C33,4.7,27.3,0,20.5,0.8L10,3.1c-6,1.9-9.2,8.7-7.3,16.5l0.1,0.3c1.5,6.1,6,10.7,11,11.4l2.5,9.2
		l17.2-4.6l-2.2-8.3c1.4-0.9,2.5-2.4,3.1-4.7c0.2-0.5-6.9-4.2-6.8-4.8c0.2-0.6,8.1-1.1,8.1-1.7c0-1.8-0.1-2-0.6-4L34.9,12.2z"/>
	<path class="st1" d="M18,11.7c-0.9-2.1,1.1-4.3,1.3-4.5c1.9-2,5.5-2.7,7.5-0.6c1,1.1,1.5,3,1.1,4.4c-0.8,2.6-3.9,3.2-5.7,3
		C21.5,14.1,18.7,13.9,18,11.7z"/>
	<path class="st2" d="M24.1,9.3c0.3-0.4,1.1-0.4,1.3,0c0.3,0.3,0.2,0.9,0.2,1.2c0,0.1-0.2,0.9-0.6,1c-0.5,0.1-1.1-0.5-1.1-1.1
		C23.8,10.1,23.8,9.5,24.1,9.3z"/>
</g>
<path class="st3" d="M38.5,30.9l-7-2.5c-0.2-0.1-0.4-0.1-0.5-0.1L28,29l-7.7,3.4l-6.7-4H9.1c-0.2,0,0.2-0.1,0,0l-6.6,2.8
	c-0.6,0.3-1.1,0.9-1.1,1.7v40.8c0,0,6,4.6,6.4,4.8s26.3-0.6,26.3-0.6s6-0.2,6-1.1l-0.5-44.4C39.4,31.6,39.1,31.1,38.5,30.9z"/>
<g>
	<polygon class="st4" points="1.1,18.4 8.6,15.3 22.6,42.9 15,46 	"/>
	<polygon class="st0" points="12.3,22.6 4.8,25.9 1.1,18.4 8.6,15.3 	"/>
</g>
</svg>
