<?xml version="1.0" encoding="utf-8"?>
<!-- Generator: Adobe Illustrator 27.3.1, SVG Export Plug-In . SVG Version: 6.00 Build 0)  -->
<svg version="1.1" id="Calque_1" xmlns="http://www.w3.org/2000/svg" xmlns:xlink="http://www.w3.org/1999/xlink" x="0px" y="0px"
	 viewBox="0 0 50 50" style="enable-background:new 0 0 50 50;" xml:space="preserve">
<style type="text/css">
	.st0{fill:#E3BE82;}
	.st1{fill:#7D6B49;stroke:#000000;stroke-miterlimit:10;}
</style>
<rect class="st0" width="50" height="50"/>
<g>
	<polyline class="st1" points="-9.6,17.8 27.5,-10 24.5,-2.4 -3.9,18.8 	"/>
</g>
<g>
	<polyline class="st1" points="-3.7,28.7 37,-1.7 42.2,-0.3 -4.8,34.8 	"/>
</g>
<g>
	<polyline class="st1" points="-7,46.9 50.9,3.7 50.8,9 -3.5,49.6 	"/>
</g>
<g>
	<polyline class="st1" points="6.8,51.9 51.2,18.8 51.5,23.8 15.5,50.8 	"/>
</g>
<g>
	<polyline class="st1" points="50.8,40.5 50.5,35.1 29.1,51.1 36.6,50.8 50.8,40.2 	"/>
</g>
<g>
	<polyline class="st1" points="59.6,17.9 22.5,-9.9 25.6,-2.3 53.9,18.9 	"/>
</g>
<g>
	<polyline class="st1" points="53.7,28.8 13,-1.6 7.8,-0.2 54.8,34.9 	"/>
</g>
<g>
	<polyline class="st1" points="57,47 -0.9,3.7 -0.8,9.1 53.5,49.7 	"/>
</g>
<g>
	<polyline class="st1" points="43.2,52 -1.2,18.9 -1.5,23.9 34.5,50.8 	"/>
</g>
<g>
	<polyline class="st1" points="-0.8,40.6 -0.5,35.2 20.9,51.2 13.4,50.8 -0.8,40.3 	"/>
</g>
</svg>
