<?xml version="1.0" encoding="utf-8"?>
<!-- Generator: Adobe Illustrator 27.3.1, SVG Export Plug-In . SVG Version: 6.00 Build 0)  -->
<svg version="1.1" id="Calque_1" xmlns="http://www.w3.org/2000/svg" xmlns:xlink="http://www.w3.org/1999/xlink" x="0px" y="0px"
	 viewBox="0 0 50 80" style="enable-background:new 0 0 50 80;" xml:space="preserve">
<style type="text/css">
	.st0{fill:#F9B000;stroke:#000000;stroke-width:2;stroke-miterlimit:10;}
	.st1{fill:#936037;stroke:#000000;stroke-width:2;stroke-miterlimit:10;}
	.st2{fill:#C64827;stroke:#000000;stroke-width:2;stroke-miterlimit:10;}
	.st3{fill:#C64827;stroke:#000000;stroke-width:2;stroke-miterlimit:10.0003;}
	.st4{fill:#E62D22;stroke:#000000;stroke-miterlimit:10;}
	.st5{fill:#936037;stroke:#000000;stroke-width:0.2;stroke-miterlimit:10;}
	.st6{fill:#936037;stroke:#000000;stroke-miterlimit:10;}
	.st7{fill:#F9B000;stroke:#000000;stroke-width:2;stroke-miterlimit:10.0003;}
</style>
<path class="st0" d="M28.8,33.3L17,32.7c-6.7-0.4-11.8-6-11.4-12.5v-0.3C6,13.2,11.7,8.2,18.4,8.5l11.7,0.7
	c6.7,0.4,11.8,6,11.4,12.5V22C41.1,28.6,35.4,33.6,28.8,33.3z"/>
<path class="st1" d="M20.8,0.8c0,0-17.8,11.8-20,10.4s66.9,12.1,43.2,1S20.3,1.1,20.3,1.1"/>
<path class="st2" d="M41.4,71.6H8.2c-1.4,0-2.6-1.2-2.6-2.7V36.7c0-1.4,1.2-2.7,2.6-2.7h33.2c1.4,0,2.6,1.2,2.6,2.7v32.2
	C44,70.3,42.8,71.6,41.4,71.6z"/>
<rect x="19.4" y="71.6" class="st3" width="11.3" height="6.2"/>
<path class="st4" d="M29,18.6c0,0,8.5,0,7,1.6c-1.4,1.6-1.4,1.6-1.4,1.6L29,18.6z"/>
<path class="st0" d="M37.6,30.4c0,0-6.7,1.8-7.4-3"/>
<path class="st5" d="M17.1,5c3.5,2.8,16.5,5.6,16.5,5.6"/>
<path class="st5" d="M15.5,9c0,0,12.9,4.7,17.9,4.3"/>
<polygon class="st6" points="18.8,75.1 31,75.1 31,76.5 35.7,76.5 35.7,79.5 18.8,79.5 "/>
<g>
	<polygon class="st3" points="31.3,63.4 23.8,65.4 15.8,42.7 23.3,40.8 	"/>
	<polygon class="st7" points="21.7,59.3 29.1,57.2 31.3,63.4 23.8,65.4 	"/>
</g>
</svg>
