<?xml version="1.0" encoding="utf-8"?>
<!-- Generator: Adobe Illustrator 27.3.1, SVG Export Plug-In . SVG Version: 6.00 Build 0)  -->
<svg version="1.1" id="Calque_1" xmlns="http://www.w3.org/2000/svg" xmlns:xlink="http://www.w3.org/1999/xlink" x="0px" y="0px"
	 viewBox="0 0 40 35" style="enable-background:new 0 0 40 35;" xml:space="preserve">
<style type="text/css">
	.st0{fill:url(#SVGID_1_);stroke:#030405;stroke-miterlimit:10;}
	.st1{fill:#45AC3C;}
</style>
<linearGradient id="SVGID_1_" gradientUnits="userSpaceOnUse" x1="19.9052" y1="33.8871" x2="19.9655" y2="-0.5069" gradientTransform="matrix(1 0 0 -1 0 36)">
	<stop  offset="0" style="stop-color:#69B42D"/>
	<stop  offset="1" style="stop-color:#008D36"/>
</linearGradient>
<path class="st0" d="M34.8,19.9c-0.4,0-0.9,0.1-1.3,0.3c0.1-0.7,0.1-1.4,0.1-2.1c0-9.7-4.7-17.5-10.4-17.5c-4.4,0-8.1,4.5-9.6,10.9
	c-0.5-0.2-1-0.3-1.5-0.3c-3.3,0-6.1,3.7-7,8.7c-2.5,0.1-4.6,3.6-4.6,7.8s2,7.6,4.4,7.8l0,0h29.8c2.6,0,4.7-3.5,4.7-7.9
	S37.4,19.9,34.8,19.9z"/>
<path class="st1" d="M-3.3,10.8c-0.5,1-1.7,6.6-1.7,6.6c-1-1.1-1.2-8.5-1.1-11c0.1-1.7-3.2,9.1-3.2,9.1c-1.1-6.9-4.8-7.4-4.8-7.4
	c2.5,0.3,1.2,9.2,1.2,9.2c-1.8-6.3-4-3-4-3c2.9,0.4,1.2,8.2,1.2,8.2H0.9c0,0,0.3-8.4-0.5-6.5c-1.2,2.8-2.6,2.1-2.6,2.1
	S-0.5,5.4-3.3,10.8z"/>
</svg>
