<?xml version="1.0" encoding="utf-8"?>
<!-- Generator: Adobe Illustrator 27.3.1, SVG Export Plug-In . SVG Version: 6.00 Build 0)  -->
<svg version="1.1" id="Calque_1" xmlns="http://www.w3.org/2000/svg" xmlns:xlink="http://www.w3.org/1999/xlink" x="0px" y="0px"
	 viewBox="0 0 1400 1000" style="enable-background:new 0 0 1400 1000;" xml:space="preserve">
<style type="text/css">
	.st0{fill:#47C1F0;stroke:#000000;stroke-miterlimit:10;}
	.st1{fill:#FFED00;stroke:#000000;stroke-width:4;stroke-miterlimit:10;}
	.st2{fill:#FFFFFE;stroke:#000000;stroke-width:4;stroke-miterlimit:10;}
</style>
<rect class="st0" width="1400" height="1000"/>
<path class="st0" d="M280.88,215.7c-1.1,0.28-2.22,0.56-3.36,0.82c-1.35,0.31-2.77-0.31-3.42-1.54c-0.32-0.59-0.6-1.19-0.86-1.78
	c-1-2.29,1-4.78,3.45-4.31c1.29,0.25,2.6,0.48,3.91,0.69C283.94,210.12,284.17,214.85,280.88,215.7z"/>
<circle class="st1" cx="175.83" cy="111.21" r="77.48"/>
<path class="st0" d="M280.88,215.7c-1.1,0.28-2.22,0.56-3.36,0.82c-1.35,0.31-2.77-0.31-3.42-1.54c-0.32-0.59-0.6-1.19-0.86-1.78
	c-1-2.29,1-4.78,3.45-4.31c1.29,0.25,2.6,0.48,3.91,0.69C283.94,210.12,284.17,214.85,280.88,215.7z"/>
<path class="st2" d="M315.37,203.62c0.37,0.37,0.49,0.93,0.25,1.39c-7.19,13.78-34.99,24.06-68.19,24.06
	c-20.65,0-39.21-3.97-52.02-10.3c-0.4-0.2-0.87-0.15-1.23,0.11c-8.5,6.3-20.08,10.18-32.86,10.18c-26.08,0-47.22-16.17-47.22-36.11
	c0-16.74,14.89-30.82,35.1-34.91c0.65-0.13,1.07-0.76,0.95-1.42c-0.33-1.76-0.49-3.54-0.49-5.34c0-28.84,42.53-52.22,95-52.22
	c48.18,0,87.97,19.72,94.16,45.26c0.16,0.67,0.83,1.08,1.5,0.89c6.48-1.82,13.59-2.82,21.02-2.82c30.99,0,56.11,17.41,56.11,38.89
	s-25.12,38.89-56.11,38.89c-18.24,0-34.44-6.03-44.69-15.37c-0.38-0.34-0.48-0.89-0.29-1.37"/>
<path class="st2" d="M925.08,150.77c-0.49,0.37-0.64,0.93-0.32,1.39c9.45,13.78,45.99,24.06,89.63,24.06
	c27.14,0,51.53-3.97,68.37-10.3c0.53-0.2,1.14-0.15,1.62,0.11c11.17,6.3,26.39,10.18,43.19,10.18c34.28,0,62.06-16.17,62.06-36.11
	c0-16.74-19.57-30.82-46.13-34.91c-0.86-0.13-1.4-0.76-1.24-1.42c0.43-1.76,0.65-3.54,0.65-5.34c0-28.84-55.9-52.22-124.86-52.22
	c-63.32,0-115.62,19.72-123.75,45.26c-0.21,0.67-1.09,1.08-1.97,0.89c-8.52-1.82-17.86-2.82-27.62-2.82
	c-40.73,0-73.75,17.41-73.75,38.89s33.02,38.89,73.75,38.89c23.97,0,45.26-6.03,58.73-15.37c0.5-0.34,0.63-0.89,0.38-1.37"/>
<path class="st2" d="M689.81,284.15c0.29,0.16,0.38,0.4,0.19,0.6c-5.66,5.95-27.52,10.38-53.63,10.38
	c-16.24,0-30.83-1.71-40.91-4.44c-0.32-0.09-0.68-0.07-0.97,0.05c-6.68,2.72-15.79,4.39-25.84,4.39c-20.51,0-37.13-6.98-37.13-15.58
	c0-7.23,11.71-13.3,27.6-15.07c0.51-0.06,0.84-0.33,0.74-0.61c-0.26-0.76-0.39-1.53-0.39-2.31c0-12.45,33.45-22.54,74.71-22.54
	c37.89,0,69.18,8.51,74.04,19.53c0.13,0.29,0.65,0.46,1.18,0.38c5.1-0.79,10.69-1.22,16.53-1.22c24.37,0,44.12,7.51,44.12,16.78
	c0,9.27-19.75,16.78-44.12,16.78c-14.34,0-27.08-2.6-35.14-6.63c-0.3-0.15-0.37-0.38-0.23-0.59"/>
</svg>
