<?xml version="1.0" encoding="utf-8"?>
<!-- Generator: Adobe Illustrator 27.3.1, SVG Export Plug-In . SVG Version: 6.00 Build 0)  -->
<svg version="1.1" id="Calque_1" xmlns="http://www.w3.org/2000/svg" xmlns:xlink="http://www.w3.org/1999/xlink" x="0px" y="0px"
	 viewBox="0 0 45 90" style="enable-background:new 0 0 45 90;" xml:space="preserve">
<style type="text/css">
	.st0{opacity:0.7;fill:#C74827;stroke:#020203;stroke-miterlimit:10;}
	.st1{opacity:0.7;fill:#946137;stroke:#020203;stroke-miterlimit:10;}
	.st2{opacity:0.7;fill:#E62F24;stroke:#020203;stroke-miterlimit:10;}
	.st3{opacity:0.7;fill:none;stroke:#020203;stroke-miterlimit:10;}
	.st4{opacity:0.7;}
	.st5{fill:#C74827;stroke:#020203;stroke-miterlimit:10;}
	.st6{fill:#F9B006;stroke:#020203;stroke-miterlimit:10;}
</style>
<rect x="26.7" y="75.9" class="st0" width="10.7" height="7.1"/>
<polygon class="st1" points="26.7,79.9 37.2,79.9 37.2,81.5 41.3,81.5 41.3,84.9 26.7,84.9 "/>
<rect x="7.6" y="77.9" class="st0" width="10.7" height="7.1"/>
<path class="st1" d="M17.7,0.5c0,0-16.8,13.5-18.9,11.8s63.3,13.8,40.9,1.1S17.3,0.9,17.3,0.9"/>
<path class="st2" d="M27.2,20.5c0,0,8.1,0,6.6,1.9c-1.3,1.9-1.3,1.9-1.3,1.9L27.2,20.5z"/>
<path class="st3" d="M32,34.9c0,0-6.3,2.1-7-3.5"/>
<path class="st1" d="M14.3,5.3c3.3,3.2,15.6,6.4,15.6,6.4"/>
<path class="st1" d="M12.8,9.9c0,0,12.2,5.4,16.9,4.9"/>
<g class="st4">
	<polygon class="st5" points="26.6,72 19.3,72.4 15.6,45.2 22.9,44.8 	"/>
	<polygon class="st6" points="18.3,65.2 25.5,64.5 26.6,72 19.3,72.4 	"/>
</g>
<polygon class="st1" points="7.6,81.9 18.1,81.9 18.1,83.5 22.3,83.5 22.3,86.9 7.6,86.9 "/>
</svg>
