<?xml version="1.0" encoding="utf-8"?>
<!-- Generator: Adobe Illustrator 27.3.1, SVG Export Plug-In . SVG Version: 6.00 Build 0)  -->
<svg version="1.1" id="Calque_1" xmlns="http://www.w3.org/2000/svg" xmlns:xlink="http://www.w3.org/1999/xlink" x="0px" y="0px"
	 viewBox="0 0 90 90" style="enable-background:new 0 0 90 90;" xml:space="preserve">
<style type="text/css">
	.st0{fill:#E52916;stroke:#1D1D1B;stroke-width:2;stroke-miterlimit:10;}
	.st1{fill:#FFFFFF;stroke:#1D1D1B;stroke-width:2;stroke-miterlimit:10;}
	.st2{fill:#9B9F91;stroke:#1D1D1B;stroke-width:2;stroke-miterlimit:10;}
	.st3{fill:#0C100A;stroke:#1D1D1B;stroke-width:2;stroke-miterlimit:10;}
</style>
<path class="st0" d="M62.9,41c0,0,14.2-1.2,15.2,1.3c1,2.4,2.7,12.2,0,18s-60.5,2.1-63.9,1.2s-4.8-17.4,0.2-21c0,0,6.2-0.7,7.3,0.1
	c0,0-1.3-21.4,19.7-22C62.4,18.1,62.6,37.4,62.9,41z"/>
<path class="st1" d="M57.7,40.9c0.7-20.2-14.5-17.7-14.5-17.7L44,40.9H57.7z"/>
<path class="st1" d="M40.2,23.4c-14.6-1.7-13.3,17.4-13.3,17.4h13.3V23.4z"/>
<path class="st2" d="M36.1,61.2c0,0,1-10.5-8.2-10.2c-9.2,0.3-10.4,10.2-10.4,10.2s1.2,7.8,9.3,7.8S36.1,61.2,36.1,61.2z"/>
<path class="st2" d="M64.4,51.3c0,0-10.2,1.4-9.5,11.8c0,0,0.7,5.2,8.8,5.5s9.5-7.9,9.5-7.9S73.7,51.3,64.4,51.3z"/>
<path class="st3" d="M64.7,58.8c0,0-1.7,0.2-1.6,2c0,0,0.1,0.9,1.5,0.9c1.4,0,1.6-1.3,1.6-1.3S66.2,58.8,64.7,58.8z"/>
<path class="st3" d="M27.4,59.2c0,0-1.7,0.2-1.6,2c0,0,0.1,0.9,1.5,0.9c1.4,0,1.6-1.3,1.6-1.3S29,59.2,27.4,59.2z"/>
<path class="st3" d="M5.5,66.9"/>
<path class="st3" d="M12,69c1,0.2,68.3,0,68.3,0"/>
</svg>
