<?xml version="1.0" encoding="utf-8"?>
<!-- Generator: Adobe Illustrator 27.3.1, SVG Export Plug-In . SVG Version: 6.00 Build 0)  -->
<svg version="1.1" id="Calque_1" xmlns="http://www.w3.org/2000/svg" xmlns:xlink="http://www.w3.org/1999/xlink" x="0px" y="0px"
	 viewBox="0 0 400 500" style="enable-background:new 0 0 400 500;" xml:space="preserve">
<style type="text/css">
	.st0{fill:url(#SVGID_1_);stroke:#442A19;stroke-width:8;stroke-miterlimit:10;}
</style>
<linearGradient id="SVGID_1_" gradientUnits="userSpaceOnUse" x1="6.2174" y1="250.9452" x2="393.0869" y2="250.9452">
	<stop  offset="5.618000e-03" style="stop-color:#B27E41"/>
	<stop  offset="0.191" style="stop-color:#8B5F3B"/>
	<stop  offset="0.3427" style="stop-color:#B47F41"/>
	<stop  offset="0.4888" style="stop-color:#B27E41"/>
	<stop  offset="0.6348" style="stop-color:#8B5F3B"/>
	<stop  offset="0.9663" style="stop-color:#B47F41"/>
</linearGradient>
<path class="st0" d="M354.3,494.5H45c-21.4,0-38.8-38.8-38.8-86.7V291.9l17.5-5.4L6.2,220.7V94.1c0-21,3.4-40.4,8.9-55.4
	c0.7-1.8,33.6-2.6,33.6-2.6S28.7,15.4,29.1,15c0,0,10.3-7.6,15.9-7.6h309.3c21.4,0,38.8,38.8,38.8,86.7v252.2l-22.7,6l22.7,55.5
	C393,455.7,375.7,494.5,354.3,494.5z"/>
<g>
</g>
<g>
</g>
<g>
</g>
<g>
</g>
<g>
</g>
<g>
</g>
</svg>
