<?xml version="1.0" encoding="utf-8"?>
<!-- Generator: Adobe Illustrator 27.3.1, SVG Export Plug-In . SVG Version: 6.00 Build 0)  -->
<svg version="1.1" id="Calque_1" xmlns="http://www.w3.org/2000/svg" xmlns:xlink="http://www.w3.org/1999/xlink" x="0px" y="0px"
	 viewBox="0 0 50 140" style="enable-background:new 0 0 50 140;" xml:space="preserve">
<style type="text/css">
	.st0{fill:#7F5026;}
	.st1{fill:none;stroke:#714B29;stroke-width:4;stroke-miterlimit:10;}
	.st2{fill:#7D6C5A;}
	.st3{fill:#945422;}
	.st4{fill:none;stroke:#AA6834;stroke-width:2;stroke-miterlimit:10;}
	.st5{fill:#9D9D9C;stroke:#000000;stroke-miterlimit:10;}
	.st6{fill:#575756;stroke:#000000;stroke-miterlimit:10;}
	.st7{opacity:0.25;fill:#C64E17;stroke:#000000;stroke-width:0.25;stroke-miterlimit:10;}
	.st8{fill:#1D1D1B;stroke:#000000;stroke-width:0.25;stroke-miterlimit:10;}
</style>
<rect y="90" class="st0" width="50" height="50"/>
<path class="st1" d="M27,104.5c-4,2.2-16.2,3.5-17.7,6.9s-5.5,4.6-4.2,7.1"/>
<polygon class="st2" points="27.4,114.5 23.1,113.5 20.7,115.4 25.1,118.1 29.3,116.7 "/>
<path class="st3" d="M30.3,99c0,0,0.7,16.7,4.1,11.5S31.1,96.6,30.3,99z"/>
<polygon class="st2" points="45.4,103.3 40.7,103.3 41.5,107.8 45.4,107.8 "/>
<path class="st4" d="M7.8,127c0,0-0.6-2,14.7,1.4c12.9,2.9,7.8-4.6,14.1-11.6c4.1-4.6,9.5,2.4,9.5,2.4"/>
<rect y="90" class="st5" width="50" height="14.7"/>
<polygon class="st6" points="0,104.7 14.4,90.3 0,90 "/>
<polygon class="st6" points="50,104.7 35.5,90.2 50,90 "/>
<path class="st7" d="M0,90C0,90,0,0,25,0s25,90,25,90H0z"/>
<polygon class="st8" points="24.1,41 22.3,26.8 27.7,26.8 25.9,41 "/>
<circle class="st8" cx="25" cy="44.1" r="1.4"/>
</svg>
