<?xml version="1.0" encoding="utf-8"?>
<!-- Generator: Adobe Illustrator 27.3.1, SVG Export Plug-In . SVG Version: 6.00 Build 0)  -->
<svg version="1.1" id="Calque_1" xmlns="http://www.w3.org/2000/svg" xmlns:xlink="http://www.w3.org/1999/xlink" x="0px" y="0px"
	 viewBox="0 0 312 142" style="enable-background:new 0 0 312 142;" xml:space="preserve">
<style type="text/css">
	.st0{fill:#6A710E;stroke:#432918;stroke-width:12;stroke-miterlimit:10;}
	.st1{fill:none;stroke:#432918;stroke-width:10;stroke-miterlimit:10;}
</style>
<g>
	<path class="st0" d="M264.4,135.8H47.1c-22.9,0-41.4-18.5-41.4-41.4V47.2c0-22.9,18.5-41.4,41.4-41.4h217.2
		c22.9,0,41.4,18.5,41.4,41.4v47.2C305.8,117.3,287.2,135.8,264.4,135.8z"/>
	<path class="st1" d="M38,106.6V34.3c0,0,23.7-2.6,23.7,11.2S41.3,70.3,41.3,70.3l16.4,36.3"/>
	<polyline class="st1" points="77.5,106.6 77.5,70.3 77.5,34.1 104.4,38.9 	"/>
	<line class="st1" x1="104.4" y1="70.3" x2="80.7" y2="72.4"/>
	<line class="st1" x1="80.7" y1="104" x2="97.2" y2="104"/>
	<path class="st1" d="M149.8,44.8c0,0-26.9-17.1-33.2,0c-6.3,17.1,16.6,33.6,16.6,33.6s16.6,17.8,5.4,25.7s-22,2.6-22,2.6"/>
	<path class="st1" d="M162.3,44.8c0,0-10.5,65.1,9.9,61.8c20.4-3.3,19.7-61.8,19.7-61.8"/>
	<path class="st1" d="M211,104l-4.6-56.6c0,0,13.8,21.5,16.1,22.9l12.2-22.9l4.6,48"/>
	<polyline class="st1" points="280.1,100 257.1,104 249.8,44.8 280.1,44.8 	"/>
	<line class="st1" x1="277.5" y1="74.4" x2="256.4" y2="75.8"/>
</g>
<g>
</g>
<g>
</g>
<g>
</g>
<g>
</g>
<g>
</g>
<g>
</g>
</svg>
