<?xml version="1.0" encoding="utf-8"?>
<!-- Generator: Adobe Illustrator 27.3.1, SVG Export Plug-In . SVG Version: 6.00 Build 0)  -->
<svg version="1.1" id="Calque_1" xmlns="http://www.w3.org/2000/svg" xmlns:xlink="http://www.w3.org/1999/xlink" x="0px" y="0px"
	 viewBox="0 0 41 90" style="enable-background:new 0 0 41 90;" xml:space="preserve">
<style type="text/css">
	.st0{fill:#039EB2;stroke:#000000;stroke-miterlimit:10;}
	.st1{fill:#3D35AC;stroke:#000000;stroke-miterlimit:10;}
	.st2{fill:#03A4B8;stroke:#030304;stroke-miterlimit:10;}
	.st3{fill:#A98881;stroke:#000000;stroke-miterlimit:10;}
	.st4{fill:#7C563F;}
	.st5{fill:#F3987F;stroke:#000000;stroke-width:2;stroke-miterlimit:10;}
	.st6{fill:#937269;stroke:#030304;stroke-miterlimit:10;}
	.st7{fill:#5C626E;stroke:#000000;stroke-miterlimit:10;}
	.st8{fill:#EFF4F8;stroke:#000000;stroke-miterlimit:10;}
	.st9{fill:#48398E;stroke:#000000;stroke-miterlimit:10;}
	.st10{fill:#271B0F;stroke:#000000;stroke-miterlimit:10;}
	.st11{fill:#038698;}
	.st12{fill:#332D8D;}
</style>
<rect x="0.7" y="25.8" class="st0" width="39.7" height="49.3"/>
<rect x="7.4" y="75.2" class="st1" width="13.4" height="12.1"/>
<rect x="22.7" y="75.2" class="st1" width="13.4" height="12.1"/>
<rect x="12.1" y="35.9" class="st2" width="8.9" height="30.2"/>
<rect x="7.4" y="0.7" class="st3" width="26.2" height="25.1"/>
<polygon class="st4" points="32.6,20.6 25.9,20.6 25.9,18.1 22,18.1 22,22.9 24.7,22.9 24.7,23.8 33,23.8 33,20.5 "/>
<line class="st5" x1="25.9" y1="20.1" x2="33.6" y2="20.1"/>
<rect x="12.1" y="48.6" class="st6" width="8.9" height="17.6"/>
<rect x="7.4" y="85.3" class="st7" width="13.4" height="4"/>
<rect x="22.7" y="85.3" class="st7" width="13.4" height="4"/>
<rect x="25" y="9.5" class="st8" width="6.4" height="3.7"/>
<rect x="27.7" y="9.5" class="st9" width="3.7" height="3.7"/>
<polygon class="st10" points="7.4,7.5 11.3,7.5 11.3,4.6 15.3,4.6 15.3,2.9 29,2.9 29,5.2 33.6,5.2 33.6,0.7 7.4,0.7 "/>
<polygon class="st11" points="28.5,40 28.5,44.8 30.5,44.8 30.5,50 35,50 35,41.6 35,38.9 28.5,38.9 "/>
<polygon class="st11" points="26.9,62.7 26.9,66.1 24.3,66.1 24.3,68 26.2,68 29.9,68 29.9,62.7 "/>
<polygon class="st11" points="7.3,30 12.8,30 12.8,31.9 16.1,31.9 16.1,33.7 8.8,33.7 8.9,36.8 5.3,36.8 5.3,30 "/>
<polygon class="st11" points="4,65.2 4,69.3 9.6,69.3 9.6,64 7.3,64 7.3,61 4,61 "/>
<polygon class="st11" points="35.6,57.4 37.4,57.4 37.4,63.1 34.8,63.1 34.8,57.4 "/>
<rect x="25.6" y="80.7" class="st12" width="7.7" height="1.6"/>
<rect x="10.2" y="80.7" class="st12" width="7.7" height="1.6"/>
</svg>
