<?xml version="1.0" encoding="utf-8"?>
<!-- Generator: Adobe Illustrator 27.3.1, SVG Export Plug-In . SVG Version: 6.00 Build 0)  -->
<svg version="1.1" id="Calque_1" xmlns="http://www.w3.org/2000/svg" xmlns:xlink="http://www.w3.org/1999/xlink" x="0px" y="0px"
	 viewBox="0 0 38 90" style="enable-background:new 0 0 38 90;" xml:space="preserve">
<style type="text/css">
	.st0{fill:#4B5A64;stroke:#030304;stroke-miterlimit:10;}
	.st1{fill:#944E45;stroke:#030304;stroke-miterlimit:10;}
	.st2{fill:#F1AF0E;stroke:#030304;stroke-miterlimit:10;}
	.st3{fill:#DFA508;}
	.st4{fill:#FEEB27;}
	.st5{fill:#F0D627;}
	.st6{fill:none;stroke:#030304;stroke-miterlimit:10;}
	.st7{fill:#B47314;}
	.st8{fill:#FFEB1F;stroke:#030304;stroke-width:4;stroke-miterlimit:10;}
	.st9{fill:#FEEB27;stroke:#030304;stroke-miterlimit:10;}
</style>
<rect x="20.08" y="77.23" transform="matrix(0.9737 -0.2279 0.2279 0.9737 -18.0999 7.9223)" class="st0" width="10.34" height="10.2"/>
<polygon class="st1" points="20.67,85.45 30.55,83.14 30.92,84.7 34.77,83.8 35.55,87.11 21.81,90.32 "/>
<rect x="7.19" y="77.22" transform="matrix(0.1619 -0.9868 0.9868 0.1619 -71.7182 80.3381)" class="st0" width="8.49" height="10.34"/>
<polygon class="st1" points="6.15,82.68 16.16,84.32 15.9,85.9 19.91,86.56 19.36,89.91 5.34,87.62 "/>
<circle class="st2" cx="18.89" cy="17.42" r="16.77"/>
<path class="st3" d="M31.89,15.74c-4.19,1.96-5.73,3.07-6.71,2.38c-1.96-1.26-2.38-1.12-4.19-1.68c-1.12-0.42-1.82-3.35-2.38-3.77
	c-0.56-0.42-0.42-3.49,1.12-4.89c1.4-1.26,2.94-4.61,4.89-4.89c2.24-0.14,2.94,0.56,3.91,1.4c3.07,2.38,3.35,3.35,4.75,5.59
	c0.7,0.98,0.98,1.82,0.84,3.07c0.42,1.54-0.42,1.82-0.42,2.38C33.56,15.88,33.14,15.18,31.89,15.74z"/>
<ellipse class="st4" cx="18.89" cy="17.42" rx="11.46" ry="11.46"/>
<path class="st5" d="M9.52,15.74c4.33-1.82,5.87-2.8,6.85-2.1c1.96,1.4,2.38,1.12,4.05,1.82c1.12,0.42,1.68,3.49,2.24,3.91
	c0.56,0.56,0.28,3.49-1.26,4.89c-1.54,1.26-3.07,4.47-5.17,4.61c-2.24,0.14-2.38-0.56-3.35-1.54c-2.38-2.38-2.52-2.8-4.47-6.01
	c-0.56-1.12-0.7-2.24-0.98-2.94c-0.28-1.54,0.28-1.82,0.28-2.38C7.85,15.6,8.26,16.3,9.52,15.74z"/>
<ellipse class="st6" cx="18.75" cy="17.56" rx="11.46" ry="11.46"/>
<polygon class="st7" points="9.8,7.5 8.26,7.78 7.43,7.22 8.96,6.24 10.5,6.66 "/>
<polygon class="st7" points="31.75,25.95 30.21,26.23 29.93,25.25 31.75,24.13 32.44,25.11 "/>
<polygon class="st7" points="11.76,29.16 12.88,28.88 13.86,29.16 13.16,30.14 11.34,30.7 "/>
<path class="st8" d="M22.93,21.85c0,2.79,0-10.93,0-8.72"/>
<path class="st0" d="M35.9,33.97l-6.59-2.35c-0.17-0.06-0.35-0.09-0.52-0.09H8c-0.21,0-0.42,0.05-0.62,0.13l-5.74,2.58
	c-0.59,0.26-0.97,0.89-0.97,1.59v38.73c0,0,0.12,4.18,0.49,4.34s34.74,0,34.74,0s1.46-0.64,1.46-1.45l-0.52-42.1
	C36.82,34.72,36.45,34.17,35.9,33.97z"/>
<g>
	<polygon class="st0" points="30.2,67.92 22.74,70.27 11.82,42.97 19.28,40.62 	"/>
	<polygon class="st9" points="19.79,63.01 27.18,60.46 30.2,67.92 22.74,70.27 	"/>
</g>
</svg>
