<?xml version="1.0" encoding="utf-8"?>
<!-- Generator: Adobe Illustrator 27.3.1, SVG Export Plug-In . SVG Version: 6.00 Build 0)  -->
<svg version="1.1" id="Calque_1" xmlns="http://www.w3.org/2000/svg" xmlns:xlink="http://www.w3.org/1999/xlink" x="0px" y="0px"
	 viewBox="0 0 45 90" style="enable-background:new 0 0 45 90;" xml:space="preserve">
<style type="text/css">
	.st0{fill:#8C7BA3;stroke:#020203;stroke-miterlimit:10;}
	.st1{fill:#E9B142;stroke:#020203;stroke-miterlimit:10;}
	.st2{fill:#F39200;stroke:#000000;stroke-miterlimit:10;}
	.st3{fill:#E94E1B;stroke:#000000;stroke-miterlimit:10;}
	.st4{fill:#EE7184;stroke:#000000;stroke-miterlimit:10;}
	.st5{stroke:#000000;stroke-miterlimit:10;}
	.st6{fill:#FCEA10;stroke:#000000;stroke-miterlimit:10;}
	.st7{fill:#FFFFFF;stroke:#000000;stroke-miterlimit:10;}
</style>
<rect x="25.02" y="77.04" transform="matrix(0.9707 -0.2402 0.2402 0.9707 -18.8047 9.8583)" class="st0" width="12.04" height="10.04"/>
<path class="st1" d="M25.9,84.97l10.81-2.67c0.18-0.04,0.36,0.06,0.41,0.23l0.27,1.09c0.04,0.17,0.22,0.28,0.41,0.23l3.82-0.95
	c0.18-0.04,0.36,0.06,0.41,0.23l0.75,3.03c0.04,0.17-0.07,0.35-0.25,0.39l-15.28,3.78c-0.18,0.04-0.36-0.06-0.41-0.23l-1.18-4.75
	C25.61,85.19,25.72,85.01,25.9,84.97z"/>
<rect x="9.5" y="74.96" transform="matrix(0.216 -0.9764 0.9764 0.216 -67.4558 77.9454)" class="st0" width="10.62" height="12.04"/>
<path class="st1" d="M9.02,81.62l10.54,2.33c0.27,0.06,0.45,0.32,0.39,0.58l-0.17,0.79c-0.06,0.26,0.12,0.52,0.39,0.58l3.62,0.8
	c0.27,0.06,0.45,0.32,0.39,0.58l-0.6,2.73c-0.06,0.26-0.33,0.42-0.6,0.36L7.83,87.03c-0.27-0.06-0.45-0.32-0.39-0.58l0.99-4.46
	C8.48,81.72,8.75,81.56,9.02,81.62z"/>
<path class="st2" d="M43.39,26.01c-5.8,9.93-35.91,9.31-40.89-0.09c-3.72-7.03,6.35-19.5,9.25-18.98c1.54,0.35,1.45,4.22,2.63,4.22
	c1.81,0,2.09-10.39,4.54-10.57c2.81-0.26,5.44,11.27,9.06,11.09c2.63-0.09,2.9-6.33,5.53-6.59C37.77,4.48,47.92,18.28,43.39,26.01z"
	/>
<path class="st3" d="M5.19,25.66c-2.68-2.64-1.02-8.08,1.02-11.33c0.65-0.97,2.03-3.25,3.51-3.07c1.29,0.18,1.48,1.93,3.23,2.28
	c1.29,0.26,2.58-0.53,2.95-0.88c1.29-0.88,2.4-2.46,2.4-4.04c0-1.49-0.26-2.04,0.01-3.62c0.18-0.88,1.2-1.91,1.57-1.91
	c0.65,0-0.47,1.84,1.1,4.22c0.55,0.88,0.65,0.7,1.66,2.11c2.12,2.72,1.94,3.25,2.95,4.04c0.28,0.18,2.22,1.41,4.25,0.79
	s2.77-2.81,2.86-2.81c0.46-1.41-0.18-2.37,0.37-2.72c0.92-0.61,3.32,1.49,3.6,1.84c0.92,0.79,1.38,1.41,1.75,1.84
	c0.92,1.23,1.29,2.46,2.12,4.66c0.55,1.49,0.74,2.37,0.83,3.25c0,0.61,0.09,1.05-0.09,1.84c-0.09,0.53-0.46,1.58-1.85,2.81
	c-1.38,1.41-3.14,2.11-6.55,3.51c-1.57,0.7-2.49,0.97-3.05,1.05c-2.22,0.53-2.95-0.09-6.09,0.18c-2.12,0.18-2.12,0.44-3.79,0.35
	c-1.66,0-3.05-0.26-4.15-0.53c-1.38-0.44-1.2-0.61-3.14-1.23c-2.77-0.88-3.51-0.61-5.54-1.49C6.3,26.45,5.74,26.18,5.19,25.66z"/>
<path class="st4" d="M25.59,19.07c0.55-1.14,1.75-2.02,3.05-2.11c1.11-0.09,1.94,0.53,3.05,1.23c1.02,0.7,2.12,1.41,2.03,2.46
	c-0.09,0.61-0.55,0.97-1.29,1.49c-0.83,0.61-1.57,1.23-2.95,1.32c-1.2,0.09-2.95-0.35-3.69-1.49c-0.18-0.18-0.55-0.88-0.55-1.67
	C25.32,19.68,25.5,19.24,25.59,19.07z"/>
<path class="st5" d="M29.2,19.68c0.37-0.18,0.92-0.09,1.02,0.26c0.18,0.35,0,0.7-0.09,0.88c0,0.09-0.28,0.7-0.74,0.7
	c-0.46,0-0.74-0.61-0.74-1.05C28.92,20.3,28.92,19.86,29.2,19.68z"/>
<g>
	<path class="st6" d="M10.82,20.03c-0.28-1.93,1.94-3.25,2.12-3.34c2.03-1.14,5.26-0.97,6.46,1.14c0.65,1.05,0.65,2.72-0.09,3.78
		c-1.2,1.93-4.06,1.76-5.54,1.14C13.31,22.67,11.01,21.88,10.82,20.03z"/>
	<path class="st5" d="M16.64,19.33c0.37-0.26,1.02-0.09,1.11,0.26c0.18,0.35,0,0.79-0.09,0.97c0,0.09-0.37,0.7-0.74,0.7
		c-0.46,0-0.83-0.7-0.74-1.14C16.18,19.95,16.27,19.51,16.64,19.33z"/>
</g>
<path class="st7" d="M18.41,24.78c-0.46,0.61,0.8,1.76,2.05,2.28c2.51,0.97,5.7-0.53,5.7-1.14C26.05,24.78,19.21,23.72,18.41,24.78z
	"/>
<path class="st0" d="M42.75,34.62l-7.67-2.37c-0.2-0.06-0.4-0.09-0.61-0.09H10.26c-0.25,0-0.49,0.05-0.72,0.13l-6.69,2.6
	c-0.69,0.27-1.13,0.9-1.13,1.6v22.8l-1.03,2.96l1.03,7.69v5.6c0,0,0.14,4.22,0.57,4.38c0.04,0.02,4.04-2.53,4.04-2.53l4.58,2.6
	l5.61-2.77l6.53,2.76l4.75-2.42l5.92,2.39l3.67-2.5l5.34,2.47c0,0,1.7-0.65,1.7-1.46l-0.45-31.51l-3.17-3.24l3.09-2.58l-0.07-5.13
	C43.82,35.38,43.39,34.82,42.75,34.62z"/>
<path class="st0" d="M13.5,64.73l-2.58-1.1c-1.29-0.55-1.97-1.95-1.56-3.22l5.97-18.44c0.47-1.44,2.12-2.14,3.58-1.52l2.58,1.1
	c1.29,0.55,1.97,1.95,1.56,3.22l-5.97,18.44C16.61,64.65,14.96,65.36,13.5,64.73z"/>
<path class="st2" d="M17.36,64.93c-0.24-2.81-6.51-5.23-8.45-3.46c-1.44,1.32-1.82,5.34-1.17,5.47c0.35,0.05,1.95-1.11,2.2-1.01
	c0.37,0.15,0.51,2.08,1,2.33c0.55,0.3,1.76-2.29,2.5-1.94c0.53,0.24,0.82,1.47,1.34,1.75C15.59,68.56,17.55,67.12,17.36,64.93z"/>
</svg>
