<?xml version="1.0" encoding="utf-8"?>
<!-- Generator: Adobe Illustrator 27.3.1, SVG Export Plug-In . SVG Version: 6.00 Build 0)  -->
<svg version="1.1" id="Calque_1" xmlns="http://www.w3.org/2000/svg" xmlns:xlink="http://www.w3.org/1999/xlink" x="0px" y="0px"
	 viewBox="0 0 45 90" style="enable-background:new 0 0 45 90;" xml:space="preserve">
<style type="text/css">
	.st0{fill:#FFE108;stroke:#030304;stroke-miterlimit:10;}
	.st1{fill:#D288B9;stroke:#030304;stroke-miterlimit:10;}
	.st2{fill:#CF378C;stroke:#030304;stroke-miterlimit:10;}
	.st3{fill:#50B4E7;stroke:#030304;stroke-miterlimit:10;}
	.st4{fill:#E20D1D;stroke:#030304;stroke-miterlimit:10;}
	.st5{fill:#FFED00;stroke:#030304;stroke-miterlimit:10;}
</style>
<path class="st0" d="M38.8,31.3V31c0.4-6.8-4.2-12.7-10.3-13.1l-10.5-0.7c-6-0.3-11.2,5-11.5,11.9v0.3C6,36.2,10.6,42.1,16.7,42.5
	l10.6,0.7C33.3,43.5,38.4,38.2,38.8,31.3z"/>
<path class="st1" d="M18.4,5.8c0,0,0,0,21.8,14.1s-41.6-3.2-39.6-1.3c2,1.9,18.3-13.3,18.3-13.3"/>
<path class="st2" d="M34.8,80.2V43.9c0-1.6-0.7-3-1.6-3H12.8c-0.9,0-1.6,1.4-1.6,3v36.3c0,1.6,0.7,3,1.6,3h20.5
	C34.1,83.2,34.8,81.8,34.8,80.2z"/>
<g>
	<rect x="6.8" y="83.3" class="st0" width="11.6" height="6.4"/>
	<rect x="16.4" y="87.4" class="st0" width="0.1" height="1.7"/>
	<rect x="14.1" y="87.4" class="st0" width="0.1" height="1.7"/>
	<rect x="12" y="87.4" class="st0" width="0.2" height="1.7"/>
</g>
<g>
	<rect x="25.6" y="83.3" class="st0" width="11.4" height="5.8"/>
	<rect x="35.1" y="87" class="st0" width="0.1" height="1.6"/>
	<rect x="32.9" y="87" class="st0" width="0.1" height="1.6"/>
	<rect x="30.8" y="87" class="st0" width="0.2" height="1.6"/>
</g>
<path class="st3" d="M31.7,30c0,0,0,0,1.2-1.4c1.3-1.4-6-1.4-6-1.4L31.7,30z"/>
<path class="st4" d="M28.2,34.6c0.6,3.8,6.4,2.4,6.4,2.4"/>
<polyline class="st2" points="34.8,61.4 41.5,83.8 3.9,83.1 11.2,57.8 "/>
<g>
	<polygon class="st5" points="25.4,49.7 19.4,47.2 10.9,74.4 16.9,76.9 	"/>
	<polygon class="st2" points="12.6,69.1 18.6,71.3 25.4,49.7 19.4,47.2 	"/>
</g>
<g>
</g>
<g>
</g>
<g>
</g>
<g>
</g>
<g>
</g>
<g>
</g>
</svg>
