<?xml version="1.0" encoding="utf-8"?>
<!-- Generator: Adobe Illustrator 27.3.1, SVG Export Plug-In . SVG Version: 6.00 Build 0)  -->
<svg version="1.1" id="Calque_1" xmlns="http://www.w3.org/2000/svg" xmlns:xlink="http://www.w3.org/1999/xlink" x="0px" y="0px"
	 viewBox="0 0 100 100" style="enable-background:new 0 0 100 100;" xml:space="preserve">
<style type="text/css">
	.st0{fill:#F9B00D;stroke:#030304;stroke-miterlimit:10;}
	.st1{fill:#946137;stroke:#030304;stroke-miterlimit:10;}
	.st2{fill:#C84828;stroke:#030304;stroke-miterlimit:10;}
	.st3{fill:#E63125;stroke:#030304;stroke-miterlimit:10;}
	.st4{fill:none;stroke:#006827;stroke-width:4;stroke-miterlimit:10;}
</style>
<path class="st0" d="M56.5,67.5L40,66.3c-9.5-0.7-16.5-10.2-16-21.1v-0.4c0.6-11.2,8.6-19.6,17.9-19.2l16.4,1.2
	c9.3,0.7,16.5,10.2,15.9,21.1v0.4C73.6,59.5,65.7,68,56.5,67.5z"/>
<path class="st1" d="M45.1,11c0,0-24.8,19.9-27.9,17.4s93.5,20.4,60.4,1.6S44.5,11.6,44.5,11.6"/>
<path class="st2" d="M74.1,106.3H27.7c-1.9,0-3.7-1.3-3.7-2.9V68c0-1.5,1.6-2.9,3.7-2.9h46.4c1.9,0,3.7,1.3,3.7,2.9v35.3
	C77.6,105,76,106.3,74.1,106.3z"/>
<path class="st3" d="M56.8,39c0,0,12,0,9.7,2.8c-1.9,2.8-1.9,2.8-1.9,2.8L56.8,39z"/>
<path class="st0" d="M68.8,59c0,0-9.3,3.1-10.3-5.2"/>
<path class="st1" d="M40.1,18c4.9,4.7,23,9.5,23,9.5"/>
<path class="st1" d="M37.9,24.8c0,0,18,8,25,7.2"/>
<polygon class="st2" points="55.6,105.2 44.8,105.1 42.3,76.8 53.1,76.9 "/>
<rect x="12.5" y="11" class="st4" width="75.8" height="92.6"/>
</svg>
