<?xml version="1.0" encoding="utf-8"?>
<!-- Generator: Adobe Illustrator 27.3.1, SVG Export Plug-In . SVG Version: 6.00 Build 0)  -->
<svg version="1.1" id="Calque_1" xmlns="http://www.w3.org/2000/svg" xmlns:xlink="http://www.w3.org/1999/xlink" x="0px" y="0px"
	 viewBox="0 0 50 30" style="enable-background:new 0 0 50 30;" xml:space="preserve">
<style type="text/css">
	.st0{fill:#A9A9A9;stroke:#000000;stroke-miterlimit:10;}
	.st1{fill:#777776;stroke:#000000;stroke-width:0.5;stroke-miterlimit:10;}
</style>
<polyline class="st0" points="0,30 0.8,23.9 3.4,27 3.4,11.3 8.1,22.6 12.4,9.7 12.4,20.6 17.1,3.5 18,19.3 21.1,23 20.1,5.8 
	27.1,21.4 29,15.7 30.6,22.4 33.1,1.5 33,22.8 35.6,16.3 39.1,21.1 45.1,3.4 46,22.1 49.4,16.3 49.4,30 "/>
<polyline class="st1" points="1,30 1.3,27.8 3.5,30 4.9,30 4.5,18.5 7.9,26.8 10.4,20.6 10.9,27.2 11.8,29.1 15.7,15.4 16.9,21.9 
	21,27.6 22.6,27.5 22.3,16.7 26.3,24.8 27.8,25.9 28.8,23.4 29.9,26.8 31.3,27.5 31.8,25 32.1,28.1 33.9,27.5 36.8,21.6 38.2,23.8 
	40.1,25.9 43.8,18.4 44.5,27.6 47.6,24.4 47.6,30 "/>
</svg>
