<?xml version="1.0" encoding="utf-8"?>
<!-- Generator: Adobe Illustrator 27.3.1, SVG Export Plug-In . SVG Version: 6.00 Build 0)  -->
<svg version="1.1" id="Calque_1" xmlns="http://www.w3.org/2000/svg" xmlns:xlink="http://www.w3.org/1999/xlink" x="0px" y="0px"
	 viewBox="0 0 45 90" style="enable-background:new 0 0 45 90;" xml:space="preserve">
<style type="text/css">
	.st0{fill:#D68A95;stroke:#020203;stroke-miterlimit:10;}
	.st1{fill:#D54A30;stroke:#020203;stroke-miterlimit:10;}
	.st2{fill:#F3D1BB;stroke:#020203;stroke-miterlimit:10;}
	.st3{fill:#E73A30;stroke:#020203;stroke-miterlimit:10;}
	.st4{fill:none;stroke:#020203;stroke-miterlimit:10;}
	.st5{fill:#946137;stroke:#020203;stroke-miterlimit:10;}
	.st6{fill:#FCD3B5;stroke:#020203;stroke-miterlimit:10;}
</style>
<rect x="23" y="77.1" transform="matrix(0.9864 -0.1644 0.1644 0.9864 -13.145 5.7803)" class="st0" width="10.7" height="10.4"/>
<polygon class="st1" points="23.4,85.2 33.8,83.5 34.1,85.1 38.1,84.4 38.7,87.8 24.3,90.2 "/>
<rect x="9.6" y="77.4" transform="matrix(0.1873 -0.9823 0.9823 0.1873 -69.9075 80.9518)" class="st0" width="8.8" height="10.7"/>
<path class="st2" d="M25.4,38.8L14.2,38C7.8,37.5,3,31.1,3.4,23.7v-0.3c0.4-7.6,5.8-13.3,12.1-13l11.1,0.8
	c6.3,0.5,11.2,6.9,10.8,14.3v0.3C37,33.4,31.6,39.1,25.4,38.8z"/>
<path class="st1" d="M17.7,0.5c0,0-16.8,13.5-18.9,11.8s63.3,13.8,40.9,1.1S17.3,0.9,17.3,0.9"/>
<path class="st0" d="M37.3,80H5.9c-1.3,0-2.5-1.4-2.5-3V40.2c0-1.6,1.1-3,2.5-3h31.4c1.3,0,2.5,1.4,2.5,3v36.7
	C39.7,78.6,38.6,80,37.3,80z"/>
<path class="st3" d="M25.6,19.5c0,0,7.9,0,6.4,1.9c-1.3,1.9-1.3,1.9-1.3,1.9L25.6,19.5z"/>
<path class="st4" d="M33.7,33c0,0-6.3,2.1-7-3.5"/>
<path class="st5" d="M14.3,5.3c3.3,3.2,15.6,6.4,15.6,6.4"/>
<path class="st5" d="M12.8,9.9c0,0,12.2,5.4,16.9,4.9"/>
<g>
	<polygon class="st0" points="14,71.8 7.6,68.4 18.3,43.2 24.8,46.6 	"/>
	<polygon class="st6" points="10.3,61.7 17,64.9 14,71.8 7.6,68.4 	"/>
</g>
<polygon class="st1" points="8.5,83 18.8,85 18.5,86.6 22.6,87.4 22,90.7 7.5,87.9 "/>
</svg>
