<?xml version="1.0" encoding="utf-8"?>
<!-- Generator: Adobe Illustrator 27.3.1, SVG Export Plug-In . SVG Version: 6.00 Build 0)  -->
<svg version="1.1" id="Calque_1" xmlns="http://www.w3.org/2000/svg" xmlns:xlink="http://www.w3.org/1999/xlink" x="0px" y="0px"
	 viewBox="0 0 35 35" style="enable-background:new 0 0 35 35;" xml:space="preserve">
<style type="text/css">
	.st0{fill:#F1AF0E;stroke:#030304;stroke-miterlimit:10;}
	.st1{fill:#DFA508;}
	.st2{fill:#FEEB27;}
	.st3{fill:#F0D627;}
	.st4{fill:none;stroke:#030304;stroke-miterlimit:10;}
	.st5{fill:#B47314;}
	.st6{fill:#FFEB1F;stroke:#030304;stroke-width:2;stroke-miterlimit:10;}
</style>
<ellipse class="st0" cx="17.5" cy="17.5" rx="16.9" ry="16.9"/>
<path class="st1" d="M30.6,15.8c-4.2,2-5.8,3.1-6.8,2.4c-2-1.3-2.4-1.1-4.2-1.7c-1.1-0.4-1.8-3.4-2.4-3.8c-0.6-0.4-0.4-3.5,1.1-4.9
	c1.4-1.3,3-4.6,4.9-4.9c2.3-0.1,3,0.6,3.9,1.4c3.1,2.4,3.4,3.4,4.8,5.6c0.7,1,1,1.8,0.8,3.1c0.4,1.5-0.4,1.8-0.4,2.4
	C32.3,16,31.9,15.3,30.6,15.8z"/>
<ellipse class="st2" cx="17.5" cy="17.5" rx="11.6" ry="11.5"/>
<path class="st3" d="M8.1,15.8C12.4,14,14,13,15,13.7c2,1.4,2.4,1.1,4.1,1.8c1.1,0.4,1.7,3.5,2.3,3.9c0.6,0.6,0.3,3.5-1.3,4.9
	c-1.5,1.3-3.1,4.5-5.2,4.6c-2.3,0.1-2.4-0.6-3.4-1.5c-2.4-2.4-2.5-2.8-4.5-6c-0.6-1.1-0.7-2.2-1-3c-0.3-1.5,0.3-1.8,0.3-2.4
	C6.4,15.7,6.8,16.4,8.1,15.8z"/>
<ellipse class="st4" cx="17.4" cy="17.7" rx="11.6" ry="11.5"/>
<polygon class="st5" points="8.3,7.5 6.8,7.8 5.9,7.3 7.5,6.3 9,6.7 "/>
<polygon class="st5" points="30.5,26.1 28.9,26.4 28.6,25.4 30.5,24.3 31.2,25.2 "/>
<polygon class="st5" points="10.3,29.3 11.4,29 12.4,29.3 11.7,30.3 9.9,30.9 "/>
<path class="st6" d="M17.5,22.7c0,3.4,0-13.2,0-10.5"/>
<g>
</g>
<g>
</g>
<g>
</g>
<g>
</g>
<g>
</g>
<g>
</g>
</svg>
