<?xml version="1.0" encoding="utf-8"?>
<!-- Generator: Adobe Illustrator 27.3.1, SVG Export Plug-In . SVG Version: 6.00 Build 0)  -->
<svg version="1.1" id="Calque_1" xmlns="http://www.w3.org/2000/svg" xmlns:xlink="http://www.w3.org/1999/xlink" x="0px" y="0px"
	 viewBox="0 0 180 100" style="enable-background:new 0 0 180 100;" xml:space="preserve">
<style type="text/css">
	.st0{fill:#C94818;stroke:#000000;stroke-width:7;stroke-miterlimit:10;}
	.st1{fill:none;stroke:#000000;stroke-width:7;stroke-miterlimit:10;}
</style>
<path class="st0" d="M159.5,3.5H21C11.7,3.5,4.2,11,4.2,20.3v59.3c0,9.3,7.5,16.8,16.8,16.8h138.5c9.3,0,16.8-7.5,16.8-16.8V20.3
	C176.4,11,168.9,3.5,159.5,3.5z"/>
<line class="st1" x1="112.3" y1="83.3" x2="112.3" y2="19.5"/>
<g>
	<polyline class="st1" points="45,80.5 20.4,80.5 21.3,49 22.1,19.5 46.6,19.5 	"/>
	<line class="st1" x1="46.6" y1="51.4" x2="22.2" y2="51.4"/>
</g>
<g>
	<line class="st1" x1="57.8" y1="81.9" x2="92.1" y2="20.2"/>
	<line class="st1" x1="59.4" y1="20.2" x2="89.4" y2="82.6"/>
</g>
<line class="st1" x1="126" y1="22.7" x2="165.9" y2="22"/>
<line class="st1" x1="146.6" y1="22" x2="146.7" y2="84.4"/>
</svg>
