<?xml version="1.0" encoding="utf-8"?>
<!-- Generator: Adobe Illustrator 27.3.1, SVG Export Plug-In . SVG Version: 6.00 Build 0)  -->
<svg version="1.1" id="Calque_1" xmlns="http://www.w3.org/2000/svg" xmlns:xlink="http://www.w3.org/1999/xlink" x="0px" y="0px"
	 viewBox="0 0 100 100" style="enable-background:new 0 0 100 100;" xml:space="preserve">
<style type="text/css">
	.st0{fill:#BFB31B;stroke:#20150D;stroke-width:7;stroke-miterlimit:10;}
	.st1{opacity:0.6;fill:none;stroke:#000000;stroke-width:7;stroke-miterlimit:10;enable-background:new    ;}
	.st2{fill:#FFEE00;stroke:#20150D;stroke-width:7;stroke-miterlimit:10;}
</style>
<path class="st0" d="M75.2,96.5H24.8C13.1,96.5,3.5,87,3.5,75.2V24.8C3.5,13,13.1,3.5,24.8,3.5h50.3c11.8,0,21.3,9.6,21.3,21.3v50.3
	C96.5,87,87,96.5,75.2,96.5z"/>
<line class="st1" x1="10.3" y1="90.8" x2="90.8" y2="10.3"/>
<line class="st1" x1="10.3" y1="10.3" x2="48.1" y2="48.1"/>
<line class="st1" x1="53" y1="53" x2="90" y2="90"/>
<path class="st2" d="M219.8,99.2h-55.6c-12.9,0-23.5-10.5-23.5-23.4V20.3c0-13,10.6-23.4,23.5-23.4h55.5c13,0,23.5,10.6,23.5,23.4
	v55.3C243.3,88.8,232.8,99.2,219.8,99.2z"/>
</svg>
