<?xml version="1.0" encoding="utf-8"?>
<!-- Generator: Adobe Illustrator 27.3.1, SVG Export Plug-In . SVG Version: 6.00 Build 0)  -->
<svg version="1.1" id="Calque_1" xmlns="http://www.w3.org/2000/svg" xmlns:xlink="http://www.w3.org/1999/xlink" x="0px" y="0px"
	 viewBox="0 0 41 90" style="enable-background:new 0 0 41 90;" xml:space="preserve">
<style type="text/css">
	.st0{fill:#6D181C;stroke:#020203;stroke-miterlimit:10;}
	.st1{fill:#D9BA8F;stroke:#020203;stroke-miterlimit:10;}
	.st2{fill:#91622E;stroke:#000000;stroke-miterlimit:10;}
	.st3{fill:#91622E;stroke:#010200;stroke-miterlimit:10;}
	.st4{fill:#39342F;}
	.st5{fill:#E2667C;stroke:#020203;stroke-miterlimit:10;}
	.st6{fill:none;stroke:#E1D300;stroke-width:1.5;stroke-miterlimit:10;}
	.st7{fill:#FFFFFF;}
</style>
<rect x="21.6" y="77.5" transform="matrix(0.975 -0.2222 0.2222 0.975 -17.642 8.101)" class="st0" width="11.2" height="9.9"/>
<polygon class="st1" points="22.1,85.4 32.8,83 33.2,84.6 37.4,83.6 38.2,87.1 23.3,90.5 "/>
<rect x="7" y="75" transform="matrix(0.2226 -0.9749 0.9749 0.2226 -68.5605 75.2654)" class="st0" width="11.8" height="11.2"/>
<path class="st0" d="M36.5,79.7H3.6C2.3,79.7,1,78.4,1,77V44.2c0-1.4,1.2-2.7,2.6-2.7h32.9c1.4,0,2.6,1.2,2.6,2.7v32.7
	C39,78.4,37.9,79.7,36.5,79.7z"/>
<g>
	<polygon class="st0" points="11.3,73.1 4.5,69.5 15.9,43.1 22.7,46.6 	"/>
	<polygon class="st2" points="7.5,62.4 14.4,65.8 11.3,73.1 4.5,69.5 	"/>
</g>
<polygon class="st1" points="6.9,82 17.6,84.4 17.2,86.1 21.5,87 20.7,90.5 5.7,87.1 "/>
<path class="st3" d="M4.5,41.2V20.9C4.5,20.9,8.8,9,20.5,9s15.2,10.6,15.2,10.6v21.6"/>
<ellipse class="st4" cx="29.8" cy="22.7" rx="1.4" ry="4.5"/>
<ellipse class="st5" cx="34" cy="32.7" rx="5.6" ry="3.1"/>
<path class="st6" d="M18.6,11.4c0,0-2-10.1-5-8.7"/>
<path class="st6" d="M20.4,11.4c0,0,0-9.6,1.2-9.8"/>
<path class="st6" d="M22.5,11.4c0,0,0.2-6.2,2.9-4.9"/>
<circle class="st7" cx="30.1" cy="20.7" r="0.8"/>
</svg>
