<?xml version="1.0" encoding="utf-8"?>
<!-- Generator: Adobe Illustrator 27.3.1, SVG Export Plug-In . SVG Version: 6.00 Build 0)  -->
<svg version="1.1" id="Calque_1" xmlns="http://www.w3.org/2000/svg" xmlns:xlink="http://www.w3.org/1999/xlink" x="0px" y="0px"
	 viewBox="0 0 100 100" style="enable-background:new 0 0 100 100;" xml:space="preserve">
<style type="text/css">
	.st0{fill:#F1B013;stroke:#030405;stroke-miterlimit:10;}
	.st1{fill:#DFA508;}
	.st2{fill:#FEEB2D;}
	.st3{fill:#F0D629;}
	.st4{fill:none;stroke:#030405;stroke-miterlimit:10;}
	.st5{fill:#B47316;}
	.st6{fill:#FEEB26;stroke:#030405;stroke-width:4;stroke-miterlimit:10;}
	.st7{fill:#4D5B65;stroke:#030405;stroke-miterlimit:10;}
</style>
<circle class="st0" cx="49.8" cy="41.63" r="26.51"/>
<path class="st1" d="M70.35,38.98c-6.62,3.1-9.06,4.85-10.61,3.76c-3.1-1.99-3.76-1.77-6.62-2.66c-1.77-0.66-2.88-5.3-3.76-5.96
	c-0.89-0.66-0.66-5.52,1.77-7.73c2.21-1.99,4.65-7.29,7.73-7.73c3.54-0.22,4.65,0.89,6.18,2.21c4.85,3.76,5.3,5.3,7.51,8.84
	c1.11,1.55,1.55,2.88,1.33,4.85c0.66,2.43-0.66,2.88-0.66,3.76C72.99,39.2,72.33,38.09,70.35,38.98z"/>
<ellipse class="st2" cx="49.8" cy="41.63" rx="18.12" ry="18.12"/>
<path class="st3" d="M34.99,38.98c6.84-2.88,9.28-4.43,10.83-3.32c3.1,2.21,3.76,1.77,6.4,2.88c1.77,0.66,2.66,5.52,3.54,6.18
	c0.89,0.89,0.44,5.52-1.99,7.73c-2.43,1.99-4.85,7.07-8.17,7.29c-3.54,0.22-3.76-0.89-5.3-2.43c-3.76-3.76-3.98-4.43-7.07-9.5
	c-0.89-1.77-1.11-3.54-1.55-4.65c-0.44-2.43,0.44-2.88,0.44-3.76C32.35,38.76,33,39.86,34.99,38.98z"/>
<ellipse class="st4" cx="49.58" cy="41.85" rx="18.12" ry="18.12"/>
<polygon class="st5" points="35.43,25.95 33,26.39 31.69,25.51 34.1,23.96 36.54,24.62 "/>
<polygon class="st5" points="70.13,55.12 67.7,55.56 67.25,54.01 70.13,52.24 71.22,53.79 "/>
<polygon class="st5" points="38.53,60.19 40.3,59.75 41.85,60.19 40.74,61.74 37.87,62.63 "/>
<path class="st6" d="M56.19,48.64c0,4.41,0-17.28,0-13.78"/>
<path class="st7" d="M76.69,66.07l-10.42-2.05c-0.27-0.05-0.55-0.08-0.82-0.08H32.59c-0.33,0-0.66,0.04-0.98,0.11l-9.07,2.25
	C21.6,66.53,21,67.08,21,67.69v33.81c0,0,0.19,3.65,0.77,3.79s54.92,0,54.92,0s2.31-0.56,2.31-1.27l-0.82-36.75
	C78.15,66.72,77.56,66.24,76.69,66.07z"/>
<polygon class="st7" points="54.61,105.34 42.25,105.25 39.37,79.79 51.73,79.89 "/>
</svg>
