<?xml version="1.0" encoding="utf-8"?>
<!-- Generator: Adobe Illustrator 27.3.1, SVG Export Plug-In . SVG Version: 6.00 Build 0)  -->
<svg version="1.1" id="Calque_1" xmlns="http://www.w3.org/2000/svg" xmlns:xlink="http://www.w3.org/1999/xlink" x="0px" y="0px"
	 viewBox="0 0 31 44" style="enable-background:new 0 0 31 44;" xml:space="preserve">
<style type="text/css">
	.st0{fill:#656464;}
	.st1{fill:none;stroke:#020203;stroke-miterlimit:10;}
	.st2{fill:none;stroke:#20150D;stroke-miterlimit:10;}
</style>
<g>
	<g>
		<path class="st0" d="M2.3,21.6c0.1,0,0.2,0.1,0.3,0.1c-0.4-0.2-0.7-0.4-1.1-0.6c0.4-1.8,0.3-2.2-0.3-1.2C1.1,20.1,1,20.3,1,20.5
			c-0.1,0.5-0.1,1.1,0,1.6C1,23.2,1,24.2,1.1,25.3c0.1,2,0.1,4.1,0.2,6.1c1.6-0.2,3.3-0.4,4.9-0.7c-0.1-0.3-0.3-0.7-0.3-1.1
			C4.3,29.4,2.6,29.2,1,29c0,1.8,0.1,3.5,0.1,5.3c0,0.8,0,1.6,0,2.4c0,0.5,0.1,1.3-0.1,1.8c1.4,0,2.9,0,4.3,0
			c-0.1-0.1-0.1-0.2-0.2-0.3c0.1,0.4,0.2,0.8,0.3,1.3c0-0.1,0-0.2,0-0.3c-1.6,0.2-3.3,0.4-4.9,0.7c0,0.1,0,0.2,0,0.3
			c0-0.4,0-0.9,0-1.3c0,0.1-0.1,0.2-0.1,0.3c0.2-0.4,0.4-0.7,0.6-1.1C1.1,37.9,1,38,1,38c-1.4,1.4-0.5,4.6,1.8,4.3
			c4.1-0.5,8.4-0.4,12.6-0.4c4.4-0.1,8.8-0.1,13.2,0.1c2.5,0.1,3.4-3.5,1.3-4.7c-0.1,0-0.2-0.1-0.2-0.1c0.3,0.3,0.6,0.6,0.9,0.9
			c0.1,0.1,0-0.3,0-0.5c0-0.5-0.1-1-0.1-1.4c0-0.8,0-1.6,0-2.4c0-1.8,0.2-3.6,0.3-5.5c0.2-3.4,0-6.8-0.4-10.2
			c-0.2-1.8-2.4-2.1-3.7-1.5C24,17.7,20.7,17,18,16.9c-1.5-0.1-3-0.1-4.5-0.3c-1.6-0.2-3.2-0.5-4.9-0.4C7.1,16.3,4.9,16.5,4,18
			c-1,1.6,0.2,3.5,0.9,5c0.5,1,1,2,1.1,3.2c0.2,1.7-0.1,3.4-0.3,5c-0.4,2.8-1,6.8,1.9,8.5c1.3,0.8,2.9,0.8,4.1,0
			c1.4-0.9,2.1-2.8,2.4-4.3c0.7-3.2-1.3-6.4-2.5-9.2c-0.2-0.4-0.4-1.6-0.8-1.9c0,0,0,0,0-0.1c-0.8,0.9-0.9,1.1-0.3,0.8c0,0,0,0,0,0
			c-0.1,0.1,0,0.1,0.4,0c1.4-0.4,2.8-1.5,4.2-1.7c1.4-0.2,2.8,0.3,4.1,0.8c1.3,0.5,1.7,1.2,1.7,2.6c0.1,1.5-0.4,3-0.8,4.4
			c-0.3,0.9-0.5,1.7-0.8,2.6c-0.2,0.7-0.3,1.5-0.6,2.2c1.4,0,2.9,0,4.3,0c0-0.1-0.1-0.2-0.1-0.3c0.1,0.4,0.2,0.8,0.3,1.3
			c-0.1-1.2,0.1-2.4,0.2-3.6c0.1-1.1,0.2-2.2,0.4-3.3c0.4-2.3,1.6-4,2.9-5.9c-1.6-0.4-3.1-0.8-4.7-1.3c0.1,2.5,0,4.9-0.4,7.4
			c-0.2,1.2-0.4,2.4-0.6,3.6c-0.2,1.3-0.5,2.6-0.2,4c0.9,3.1,5.7,1.8,4.8-1.3c-0.2-0.7,0.3-2,0.4-2.8c0.2-1.2,0.4-2.5,0.6-3.7
			c0.3-2.4,0.5-4.8,0.4-7.1c-0.2-2.6-3.2-3.2-4.7-1.3c-1.8,2.4-3.1,4.8-3.6,7.8c-0.2,1.5-0.4,2.9-0.5,4.4c-0.2,1.7-0.4,3.1,0.3,4.7
			c0.7,1.8,3.5,1.5,4.3,0c0.6-1,0.8-2.1,1.1-3.2c0.3-1.2,0.7-2.4,1.1-3.6c0.7-2.3,1-4.6,0.5-7c-0.6-2.4-2-4.1-4.3-5
			c-2.3-0.9-4.7-1.6-7.1-1.2c-1.1,0.2-2,0.6-3,1.1c-1,0.5-2.1,0.6-3.1,1.1c-2.2,1.2-2.7,3.5-1.8,5.7c0.9,2.3,2.2,4.6,2.9,7
			c0.3,0.9-0.3,1.4-0.4,2.2c-0.1,0.1-0.1,0.2-0.2,0.3c0.4-0.1,0.8-0.3,1.3-0.4c-0.2,0,0.6,0.3,0.5,0.4c0,0,0-1.4,0-1.5
			c0.1-2.7,0.8-5.3,0.6-8.1c-0.1-1.5-0.5-2.8-1.1-4.2c-0.4-1-1.1-2-1.4-3.1c0,0.4,0,0.9,0,1.3c0-0.1,0-0.2,0.1-0.3
			c-0.4,0.5-0.8,1-1.1,1.5c1.2-0.7,3.4-0.3,4.6-0.1c2.1,0.3,4.1,0.4,6.2,0.5c3.7,0.2,7.3,0.6,10.8-1c-1.2-0.5-2.4-1-3.7-1.5
			c0.5,3.7,0.4,7.3,0.1,11c-0.1,1.9-0.2,3.8-0.2,5.7c0.1,1.9-0.1,4.4,1.9,5.5c0.4-1.6,0.8-3.1,1.3-4.7c-4.4-0.2-8.8-0.2-13.2-0.1
			c-4.2,0.1-8.5-0.1-12.6,0.4c0.6,1.4,1.2,2.8,1.8,4.3c0.9-0.9,1.1-1.9,0.9-3.1c-0.5-2.8-5.1-2.1-4.9,0.7c0,0.7,0.2,1.3,0.5,1.9
			c1,1.5,3.4,1.7,4.3,0c1-1.8,0.8-3.8,0.8-5.8C6.1,33.1,6,31.1,6,29c0-1.2-0.9-2.3-2.2-2.5c-1.1-0.1-2.6,0.5-2.7,1.8
			c-0.2,1.3-0.2,2.5,0.3,3.8c0.4,1.2,1.5,2,2.7,1.8c1.2-0.2,2.2-1.2,2.2-2.5C6.2,28,6.1,24.5,5.9,21.1c-0.2,0.6-0.5,1.2-0.7,1.8
			c0.9-0.9,1.4-2.2,1.1-3.5c-0.3-1.3-1.3-2.1-2.6-2.6c-1.2-0.5-2.7,0.6-3.1,1.7C0.2,20,1.1,21.1,2.3,21.6L2.3,21.6z"/>
	</g>
</g>
<path class="st0" d="M7.2,17.4l4-0.1c0,0,0.9-12.1,4-11.9c3.2,0.2,5.1,11.9,5.1,11.9h3.5c0,0-1.2-16.4-8.3-16.3S7.2,17.4,7.2,17.4z"
	/>
<path class="st1" d="M0.6,42h29.7V16.7h-6.5c0,0-1.3-15.7-8.3-15.7S7.2,16.8,7.2,16.8L0.6,17V42z"/>
<path class="st2" d="M11.2,16.7c0,0,0.8-12,4.3-11.4s4.8,11.4,4.8,11.4H11.2z"/>
<g>
	<g>
		<path class="st0" d="M20.1,32.7c0,0-0.1,0-0.1,0c0.4,0.1,0.8,0.2,1.3,0.3c0,0,0,0,0,0c0.2,0.1,0.3,0.3,0.5,0.4c0,0,0,0,0,0
			c0.1,0.2,0.3,0.3,0.4,0.5c0,0,0,0,0,0c0.1,0.2,0.2,0.4,0.3,0.6c0-0.1,0-0.1,0-0.2c0,0.2,0.1,0.4,0.1,0.7c0,0,0-0.1,0-0.1
			c0-0.3-0.1-0.7-0.2-1c-0.1-0.3-0.3-0.6-0.5-0.8c-0.2-0.1-0.3-0.3-0.5-0.4c-0.3-0.2-0.6-0.3-0.9-0.3c-0.2-0.1-0.4-0.1-0.7,0
			c-0.3,0-0.6,0.1-0.9,0.3c-0.2,0.1-0.3,0.3-0.5,0.4c-0.3,0.3-0.5,0.7-0.6,1.1c-0.1,0.4-0.1,0.9-0.2,1.3c0,0.2,0,0.5,0,0.7
			c0-0.2,0.1-0.4,0.1-0.7c0,0.2-0.1,0.3-0.1,0.5c0.1-0.2,0.2-0.4,0.3-0.6c0,0,0,0.1,0,0.1c0.1-0.2,0.3-0.3,0.4-0.5
			c0,0,0,0.1-0.1,0.1c0.2-0.1,0.3-0.3,0.5-0.4c-0.2,0.1-0.4,0.3-0.6,0.3c0.2-0.1,0.4-0.2,0.6-0.3c-0.1,0-0.2,0.1-0.3,0.1
			c0.2,0,0.4-0.1,0.7-0.1c-0.6,0.1-1.2,0.1-1.8,0.5c-0.3,0.2-0.5,0.4-0.7,0.6c-0.2,0.2-0.4,0.5-0.4,0.9c-0.1,0.3-0.1,0.7,0,1
			c0,0.3,0.1,0.6,0.3,0.9c0.3,0.5,0.9,1,1.5,1.1c0.2,0,0.4,0.1,0.7,0.1c0.5,0,0.9-0.1,1.3-0.3c0,0,0,0,0.1,0
			c-0.2,0.1-0.4,0.2-0.6,0.3c0.1,0,0.1,0,0.2,0c-0.2,0-0.4,0.1-0.7,0.1c0.3,0,0.7-0.1,1-0.1c0.1,0,0.1,0,0.2-0.1
			c0.2-0.1,0.5-0.2,0.7-0.3c0.1-0.1,0.2-0.1,0.3-0.2c0.4-0.3,0.9-0.6,1.1-1.1c0,0,0,0,0-0.1c0.1-0.2,0.2-0.4,0.3-0.7
			c0-0.1,0-0.1,0.1-0.2c0-0.1,0-0.1,0-0.2c0-0.3,0.1-0.6,0.1-0.8c0-0.3,0-0.6,0-0.9c0,0.2-0.1,0.4-0.1,0.7c0-0.1,0-0.2,0-0.3
			c-1.6-0.2-3.3-0.4-4.9-0.7c0,0.3,0,0.6,0.1,0.8c0,0,0,0.1,0,0.1c0.1,0.2,0.2,0.5,0.3,0.6c0.1,0.2,0.3,0.3,0.4,0.5c0,0,0,0,0,0
			c0.2,0.1,0.3,0.3,0.5,0.4c0,0,0,0,0,0c0.2,0.1,0.4,0.2,0.6,0.3c0.2,0.1,0.5,0.1,0.7,0.1c0,0,0.1,0,0.1,0c0.3,0,0.7-0.1,1-0.2
			c0.3-0.1,0.6-0.3,0.8-0.5c0.2-0.2,0.4-0.5,0.5-0.8c0.2-0.3,0.2-0.6,0.2-1c0-0.2-0.1-0.4-0.1-0.7c-0.1-0.4-0.3-0.8-0.6-1.1
			c-0.2-0.1-0.3-0.3-0.5-0.4C21,32.8,20.5,32.7,20.1,32.7L20.1,32.7z"/>
	</g>
</g>
<g>
	<g>
		<path class="st0" d="M16.5,35.5c-0.5,0-1,0.1-1.5,0c0.2,0,0.4,0.1,0.7,0.1c-0.2,0-0.4-0.1-0.6-0.1c-0.3,0-0.6-0.1-0.9-0.1
			c-0.1,0-0.2,0-0.3,0c0.2,0,0.4,0.1,0.7,0.1c0,0,0,0,0,0c0.2,0.1,0.4,0.2,0.6,0.3c0,0,0,0,0,0c0.2,0.1,0.3,0.3,0.5,0.4c0,0,0,0,0,0
			c0.1,0.2,0.3,0.3,0.4,0.5c-0.1-0.2-0.3-0.4-0.5-0.6c-0.2-0.2-0.5-0.4-0.8-0.5c-0.3-0.2-0.6-0.2-1-0.2c-0.3,0-0.7,0.1-1,0.2
			c-0.3,0.1-0.6,0.3-0.8,0.5c-0.4,0.5-0.8,1.1-0.7,1.8c0,0.2,0.1,0.4,0.1,0.7c0.1,0.4,0.3,0.8,0.6,1.1c0,0,0,0,0,0
			c-0.1-0.2-0.3-0.3-0.4-0.5c0.1,0.2,0.3,0.4,0.4,0.5c0.1,0.1,0.4,0.3,0.5,0.4c0.2,0.1,0.4,0.2,0.6,0.3c0.2,0,0.4,0.1,0.7,0.1
			c0,0,0,0,0,0c0.2,0,0.3,0,0.5,0c-0.2,0-0.4-0.1-0.7-0.1c0.2,0,0.4,0.1,0.5,0.1c0.4,0.1,0.8,0.1,1.1,0.1c0.4,0,0.7,0,1.1,0
			c0.3,0,0.7-0.1,1-0.2c0.3-0.1,0.6-0.3,0.8-0.5c0.2-0.2,0.4-0.5,0.5-0.8c0.2-0.3,0.2-0.6,0.2-1c0-0.6-0.2-1.3-0.7-1.8
			C17.8,35.8,17.2,35.4,16.5,35.5L16.5,35.5z"/>
	</g>
</g>
<g>
	<g>
		<path class="st0" d="M14.3,35.9c0.1-0.2,0.3-0.5,0.3-0.8c0-0.3,0.1-0.6,0.1-0.9c0-0.2,0-0.3,0-0.5c0-0.3,0-0.7,0-1
			c0-0.3-0.1-0.7-0.2-1c-0.1-0.3-0.3-0.6-0.5-0.8c-0.2-0.2-0.5-0.4-0.8-0.5c-0.3-0.2-0.6-0.2-1-0.2c-0.2,0-0.4,0.1-0.7,0.1
			c-0.4,0.1-0.8,0.3-1.1,0.6c-0.1,0.2-0.3,0.3-0.4,0.5c-0.2,0.4-0.3,0.8-0.3,1.3c0,0.3,0,0.6,0,0.8c0,0.3,0,0.6,0,0.8
			c0-0.2,0.1-0.4,0.1-0.7c0,0.1,0,0.1,0,0.2c0.1-0.2,0.2-0.4,0.3-0.6c0,0,0,0,0,0c-0.2,0.3-0.3,0.6-0.3,0.9c-0.1,0.3-0.1,0.7,0,1
			c0.1,0.3,0.2,0.6,0.4,0.9c0.2,0.3,0.4,0.5,0.7,0.6c0.2,0.1,0.4,0.2,0.6,0.3c0.4,0.1,0.9,0.1,1.3,0c0.2-0.1,0.4-0.2,0.6-0.3
			C13.8,36.6,14.1,36.3,14.3,35.9L14.3,35.9z"/>
	</g>
</g>
<g>
	<g>
		<path class="st0" d="M14.1,29.7c0-0.1-0.1-0.1-0.2-0.2c-0.2-0.2-0.4-0.4-0.7-0.5c-0.1-0.1-0.2-0.1-0.4-0.2
			c0.2,0.1,0.3,0.3,0.5,0.4c-0.1-0.1-0.2-0.1-0.2-0.2c0.1,0.2,0.3,0.3,0.4,0.5c0,0,0,0,0-0.1c0.1,0.2,0.2,0.4,0.3,0.6c0,0,0,0,0,0
			c0,0.2,0.1,0.4,0.1,0.7c0-0.1,0-0.1,0-0.2c0-0.3-0.1-0.7-0.2-1c-0.1-0.3-0.3-0.6-0.5-0.8c-0.2-0.2-0.5-0.4-0.8-0.5
			c-0.3-0.2-0.6-0.2-1-0.2C11.2,28,11,28,10.7,28c-0.4,0.1-0.8,0.3-1.1,0.6c-0.1,0.2-0.3,0.3-0.4,0.5C9,29.6,8.9,30,8.9,30.5
			c0,0.1,0,0.1,0,0.2c0,0,0,0,0,0c0,0.2,0.1,0.4,0.1,0.7c0,0,0,0,0,0c0-0.1,0.2,0.5,0.3,0.6c0.2,0.2,0.4,0.5,0.6,0.7
			c0.2,0.1,0.4,0.3,0.5,0.4c0,0,0,0,0.1,0c0,0,0.1,0.1,0.1,0.1c0.1,0.1,0.2,0.1,0.3,0.2c-0.2-0.1-0.3-0.3-0.5-0.4
			c0.1,0.1,0.1,0.1,0.2,0.2c0.2,0.2,0.5,0.4,0.8,0.5c0.3,0.2,0.6,0.2,1,0.2c0.3,0,0.7-0.1,1-0.2c0.3-0.1,0.6-0.3,0.8-0.5
			c0.1-0.2,0.3-0.3,0.4-0.5c0.2-0.4,0.3-0.8,0.3-1.3c0-0.2-0.1-0.4-0.1-0.7C14.7,30.4,14.4,30,14.1,29.7L14.1,29.7z"/>
	</g>
</g>
<g>
	<g>
		<path class="st0" d="M13,27.6c0-0.1,0-0.2-0.1-0.3c-0.1-0.3-0.2-0.6-0.4-0.8c-0.1-0.2-0.2-0.3-0.3-0.5c0.1,0.2,0.2,0.4,0.3,0.6
			c0-0.1-0.1-0.2-0.1-0.2c-0.1-0.3-0.2-0.6-0.4-0.9c-0.2-0.3-0.4-0.5-0.7-0.6c-0.3-0.2-0.6-0.3-0.9-0.3c-0.3-0.1-0.7-0.1-1,0
			c-0.2,0.1-0.4,0.2-0.6,0.3c-0.4,0.2-0.7,0.5-0.9,0.9c-0.1,0.2-0.2,0.4-0.3,0.6c-0.1,0.4-0.1,0.9,0,1.3C7.7,28,7.9,28.3,8,28.5
			c0,0.1,0.1,0.2,0.1,0.2c0.1,0.2,0.2,0.3,0.3,0.5c-0.1-0.2-0.2-0.4-0.3-0.6c0,0.1,0.1,0.2,0.1,0.3c0.1,0.3,0.2,0.6,0.4,0.9
			c0.2,0.3,0.4,0.5,0.7,0.6c0.3,0.2,0.6,0.3,0.9,0.3c0.3,0.1,0.7,0.1,1,0c0.2-0.1,0.4-0.2,0.6-0.3c0.4-0.2,0.7-0.5,0.9-0.9
			c0.1-0.2,0.2-0.4,0.3-0.6C13.1,28.5,13.1,28.1,13,27.6L13,27.6z"/>
	</g>
</g>
<g>
	<g>
		<path class="st0" d="M13.1,24.4c0,0,0-0.1,0-0.1c-0.1,0.2-0.2,0.4-0.3,0.6c0-0.1,0.1-0.1,0.1-0.2c-0.1,0.2-0.3,0.3-0.4,0.5
			c0.1-0.1,0.2-0.2,0.3-0.3c-0.2,0.1-0.3,0.3-0.5,0.4c0.3-0.2,0.5-0.3,0.8-0.5c0.3-0.2,0.6-0.4,0.9-0.6c0.1-0.1,0.2-0.2,0.3-0.3
			c-0.2,0.1-0.3,0.3-0.5,0.4c0.1,0,0.1-0.1,0.2-0.1c-0.2,0.1-0.4,0.2-0.6,0.3c0,0,0,0,0,0c0.3-0.1,0.6-0.2,0.9-0.4
			c0.3-0.2,0.5-0.4,0.6-0.7c0.2-0.3,0.3-0.6,0.3-0.9c0.1-0.3,0.1-0.7,0-1c-0.1-0.2-0.2-0.4-0.3-0.6c-0.2-0.4-0.5-0.7-0.9-0.9
			c-0.2-0.1-0.4-0.2-0.6-0.3c-0.4-0.1-0.9-0.1-1.3,0c-0.2,0.1-0.5,0.2-0.7,0.3c0,0,0,0-0.1,0c-0.2,0.1-0.4,0.3-0.6,0.5
			c-0.1,0.1-0.2,0.2-0.3,0.3c0.2-0.1,0.3-0.3,0.5-0.4c-0.3,0.2-0.7,0.4-1,0.6c-0.2,0.2-0.5,0.4-0.7,0.5c-0.1,0.1-0.1,0.1-0.2,0.2
			c-0.4,0.4-0.7,0.9-0.9,1.5c-0.1,0.3-0.1,0.7,0,1c0,0.3,0.1,0.6,0.3,0.9c0.2,0.3,0.4,0.5,0.6,0.7c0.2,0.2,0.5,0.4,0.9,0.4
			c0.2,0,0.4,0.1,0.7,0.1c0.5,0,0.9-0.1,1.3-0.3c0.2-0.1,0.3-0.3,0.5-0.4C12.8,25.2,13,24.9,13.1,24.4L13.1,24.4z"/>
	</g>
</g>
<g>
	<g>
		<path class="st0" d="M16.8,24.1c0.1,0,0.2,0,0.3-0.1c-0.2,0-0.4,0.1-0.7,0.1c0.6-0.1,1.2,0,1.8,0c-0.2,0-0.4-0.1-0.7-0.1
			c0,0,0,0,0.1,0c-0.2-0.1-0.4-0.2-0.6-0.3c0,0,0.1,0,0.1,0c-0.2-0.1-0.3-0.3-0.5-0.4c0.4,0.3,0.8,0.7,1.2,1
			c0.4,0.3,0.9,0.4,1.4,0.6c-0.2-0.1-0.4-0.2-0.6-0.3c0.1,0,0.1,0.1,0.2,0.1c0.3,0.2,0.6,0.3,0.9,0.3c0.3,0.1,0.7,0.1,1,0
			c0.6-0.2,1.2-0.6,1.5-1.1c0.3-0.6,0.5-1.3,0.3-1.9c-0.1-0.2-0.2-0.4-0.3-0.6c-0.2-0.4-0.5-0.7-0.9-0.9c-0.4-0.3-0.9-0.4-1.3-0.6
			c0.2,0.1,0.4,0.2,0.6,0.3c-0.1,0-0.2-0.1-0.3-0.2c0.2,0.1,0.3,0.3,0.5,0.4c-0.2-0.2-0.4-0.4-0.6-0.5c-0.4-0.3-0.8-0.6-1.3-0.8
			c-0.3-0.1-0.7-0.1-1.1-0.1c-0.8,0-1.6-0.1-2.4,0.1c-0.6,0.2-1.2,0.6-1.5,1.1c-0.3,0.5-0.4,1.3-0.3,1.9c0.2,0.6,0.6,1.2,1.1,1.5
			C15.5,24.1,16.2,24.3,16.8,24.1L16.8,24.1z"/>
	</g>
</g>
<g>
	<g>
		<path class="st0" d="M18.9,26.3C18.9,26.3,18.9,26.3,18.9,26.3c0-0.2-0.1-0.4-0.1-0.6c0,0.3,0,0.6,0,0.9c0-0.2,0.1-0.4,0.1-0.7
			c-0.1,0.6-0.2,1.2-0.1,1.8c0,0.3,0.1,0.7,0.2,1c0.1,0.3,0.3,0.6,0.5,0.8c0.2,0.2,0.5,0.4,0.8,0.5c0.3,0.2,0.6,0.2,1,0.2
			c0.2,0,0.4-0.1,0.7-0.1c0.4-0.1,0.8-0.3,1.1-0.6c0.1-0.2,0.3-0.3,0.4-0.5c0.2-0.4,0.3-0.8,0.3-1.3c0-0.3,0-0.7,0-1
			c0,0.2-0.1,0.4-0.1,0.7c0.1-0.4,0.1-0.8,0.1-1.2c0-0.4,0-0.8-0.1-1.2c-0.1-0.3-0.2-0.6-0.4-0.9c-0.2-0.3-0.4-0.5-0.7-0.6
			c-0.3-0.2-0.6-0.3-0.9-0.3c-0.3-0.1-0.7-0.1-1,0c-0.2,0.1-0.4,0.2-0.6,0.3c-0.4,0.2-0.7,0.5-0.9,0.9c-0.1,0.2-0.2,0.4-0.3,0.6
			C18.8,25.4,18.8,25.9,18.9,26.3L18.9,26.3z"/>
	</g>
</g>
<g>
	<g>
		<path class="st0" d="M18.2,28.9c0,0,0,0.1-0.1,0.1c0.1-0.2,0.2-0.4,0.3-0.6C18.3,28.6,18.3,28.7,18.2,28.9
			C18.1,29,18,29.1,18,29.2c0,0.1-0.1,0.1-0.1,0.2c-0.1,0.2-0.2,0.5-0.3,0.8c-0.1,0.3-0.1,0.6-0.1,0.8c0,0.1,0,0.1,0,0.2
			c0,0.3,0.1,0.7,0.2,1c0.1,0.3,0.3,0.6,0.5,0.8c0.2,0.2,0.5,0.4,0.8,0.5c0.3,0.2,0.6,0.2,1,0.2c0.2,0,0.4-0.1,0.7-0.1
			c0.4-0.1,0.8-0.3,1.1-0.6c0.1-0.2,0.3-0.3,0.4-0.5c0.2-0.4,0.3-0.8,0.3-1.3c0-0.1,0-0.1,0-0.2c0,0.2-0.1,0.4-0.1,0.7
			c0-0.1,0-0.2,0.1-0.3c-0.1,0.2-0.2,0.4-0.3,0.6c0.1-0.2,0.2-0.3,0.3-0.5c0.1-0.1,0.1-0.2,0.2-0.3c0.1-0.3,0.3-0.6,0.4-0.9
			c0.1-0.3,0.1-0.7,0-1c0-0.3-0.1-0.6-0.3-0.9c-0.2-0.3-0.4-0.5-0.6-0.7c-0.2-0.2-0.5-0.4-0.9-0.4c-0.2,0-0.4-0.1-0.7-0.1
			c-0.5,0-0.9,0.1-1.3,0.3c-0.2,0.1-0.3,0.3-0.5,0.4C18.5,28.1,18.3,28.5,18.2,28.9L18.2,28.9z"/>
	</g>
</g>
<g>
	<g>
		<path class="st0" d="M22.2,32.8C22.2,32.8,22.2,32.7,22.2,32.8c0,0.2,0.1,0.4,0.1,0.6c0,0,0-0.1,0-0.1c0-0.3-0.1-0.7-0.2-1
			c-0.1-0.3-0.3-0.6-0.5-0.8c-0.2-0.2-0.5-0.4-0.8-0.5c-0.3-0.2-0.6-0.2-1-0.2c-0.2,0-0.4,0.1-0.7,0.1c-0.4,0.1-0.8,0.3-1.1,0.6
			c-0.1,0.2-0.3,0.3-0.4,0.5c-0.2,0.4-0.3,0.8-0.3,1.3c0,0,0,0,0,0.1c0,0,0,0,0,0c0,0.2,0.1,0.4,0.1,0.7c0,0,0,0,0,0c0,0,0,0,0,0
			c0,0,0,0,0,0c0.1,0.3,0.2,0.6,0.4,0.9c0.2,0.3,0.4,0.5,0.7,0.6c0.3,0.2,0.6,0.3,0.9,0.3c0.3,0.1,0.7,0.1,1,0
			c0.2-0.1,0.4-0.2,0.6-0.3c0.4-0.2,0.7-0.5,0.9-0.9c0.1-0.2,0.2-0.4,0.3-0.6C22.4,33.7,22.4,33.2,22.2,32.8L22.2,32.8z"/>
	</g>
</g>
<path class="st2" d="M15,30.7c0,0-6-6.7,0.8-6.7c7,0,1.5,6.6,1.5,6.6L17,35.6h-2.2L15,30.7z"/>
</svg>
