<?xml version="1.0" encoding="utf-8"?>
<!-- Generator: Adobe Illustrator 27.3.1, SVG Export Plug-In . SVG Version: 6.00 Build 0)  -->
<svg version="1.1" id="Calque_1" xmlns="http://www.w3.org/2000/svg" xmlns:xlink="http://www.w3.org/1999/xlink" x="0px" y="0px"
	 viewBox="0 0 45 90" style="enable-background:new 0 0 45 90;" xml:space="preserve">
<style type="text/css">
	.st0{fill:#C74827;stroke:#020203;stroke-width:1;stroke-miterlimit:10.0005;}
	.st1{fill:#946137;stroke:#020203;stroke-miterlimit:10;}
	.st2{fill:#C74827;stroke:#020203;stroke-width:1;stroke-miterlimit:10.0003;}
	.st3{fill:#F9B006;stroke:#020203;stroke-miterlimit:10;}
	.st4{fill:#C74827;stroke:#020203;stroke-miterlimit:10;}
	.st5{fill:#E62F24;stroke:#020203;stroke-miterlimit:10;}
	.st6{fill:none;stroke:#1CA638;stroke-width:2;stroke-miterlimit:10;}
</style>
<rect x="23.6" y="76" transform="matrix(0.9899 -0.1421 0.1421 0.9899 -11.3149 4.9427)" class="st0" width="10.7" height="11.4"/>
<polygon class="st1" points="24,85.1 34.4,83.6 34.7,85.2 38.7,84.7 39.2,88 24.7,90.1 "/>
<rect x="8.2" y="74.2" transform="matrix(0.2006 -0.9797 0.9797 0.2006 -65.9142 78.3761)" class="st2" width="13.7" height="10.7"/>
<path class="st3" d="M25.4,38.8L14.2,38C7.8,37.5,3,31.1,3.4,23.7v-0.3c0.4-7.6,5.8-13.3,12.1-13l11.1,0.8
	c6.3,0.5,11.2,6.9,10.8,14.3v0.3C37,33.4,31.6,39.1,25.4,38.8z"/>
<path class="st1" d="M17.7,0.5c0,0-16.8,13.5-18.9,11.8s63.3,13.8,40.9,1.1S17.3,0.9,17.3,0.9"/>
<path class="st4" d="M37.3,80H5.9c-1.3,0-2.5-1.4-2.5-3V40.2c0-1.6,1.1-3,2.5-3h31.4c1.3,0,2.5,1.4,2.5,3v36.7
	C39.7,78.6,38.6,80,37.3,80z"/>
<path class="st5" d="M25.6,19.5c0,0,8.1,0,6.6,1.9c-1.3,1.9-1.3,1.9-1.3,1.9L25.6,19.5z"/>
<path class="st3" d="M33.7,33c0,0-6.3,2.1-7-3.5"/>
<path class="st1" d="M14.3,5.3c3.3,3.2,15.6,6.4,15.6,6.4"/>
<path class="st1" d="M12.8,9.9c0,0,12.2,5.4,16.9,4.9"/>
<g>
	<polygon class="st4" points="18,73.2 10.9,71.3 16,44.3 23.1,46.2 	"/>
	<polygon class="st3" points="12.3,64 19.4,65.8 18,73.2 10.9,71.3 	"/>
</g>
<polygon class="st1" points="9,82.2 19.3,84.3 19,85.9 23.1,86.8 22.4,90.1 8,87.1 "/>
<rect x="1" y="1" class="st6" width="42.9" height="87.9"/>
</svg>
