<?xml version="1.0" encoding="utf-8"?>
<!-- Generator: Adobe Illustrator 27.3.1, SVG Export Plug-In . SVG Version: 6.00 Build 0)  -->
<svg version="1.1" id="Calque_1" xmlns="http://www.w3.org/2000/svg" xmlns:xlink="http://www.w3.org/1999/xlink" x="0px" y="0px"
	 viewBox="0 0 90 90" style="enable-background:new 0 0 90 90;" xml:space="preserve">
<style type="text/css">
	.st0{fill:#FFED00;stroke:#000000;stroke-width:2;stroke-miterlimit:10.0001;}
	.st1{fill:#FFFFFF;stroke:#000000;stroke-width:2;stroke-miterlimit:10;}
	.st2{fill:#E30613;stroke:#000000;stroke-width:2;stroke-miterlimit:10;}
	.st3{stroke:#000000;stroke-width:2;stroke-miterlimit:10;}
	.st4{fill:#FFF37C;stroke:#000000;stroke-width:2;stroke-miterlimit:10;}
</style>
<ellipse transform="matrix(0.712 -0.7022 0.7022 0.712 -17.6495 42.4746)" class="st0" cx="43" cy="42.8" rx="28.2" ry="25.5"/>
<path class="st1" d="M66.9,21.7c0,0-8-9.6-18.6-1.6s-1.8,19.6-1.8,19.6s11.7,9.8,18.5,2.4S66.9,21.7,66.9,21.7z"/>
<path class="st2" d="M68.3,54.9c7.9-2.5,13.7-5.3,13.2-7.4c-0.4-2-8.6-1.6-16.3,0.4c-2.4,0.6-3.2,1-5.1,1.8l5.2-2.2
	c7.8-1.8,13.4-5.2,13-7.3c-0.4-2-7.1-2.1-14.9-0.3c-7.8,1.8-13.7,5.1-13.3,7.1v0.3c-0.1,2.2,0.5,4.6,1.8,6.2c0.7,1,1.8,1.6,3,1.7
	C57.7,55.7,64.6,56,68.3,54.9z"/>
<path class="st3" d="M62.4,24.4c0.6,4.6,0.3,7.6-2.2,7.2c0,0-2.7-1.2-2.2-5.5S62.2,23,62.4,24.4z"/>
<path class="st4" d="M40.9,49c0,0-1.6-12.9-16.5-12.8C9.4,36.3,6.4,47.6,6.4,47.6S5.7,65,22.6,62.7C39.4,60.4,40.9,49,40.9,49z"/>
</svg>
