<?xml version="1.0" encoding="utf-8"?>
<!-- Generator: Adobe Illustrator 27.3.1, SVG Export Plug-In . SVG Version: 6.00 Build 0)  -->
<svg version="1.1" id="Calque_1" xmlns="http://www.w3.org/2000/svg" xmlns:xlink="http://www.w3.org/1999/xlink" x="0px" y="0px"
	 viewBox="0 0 500 100" style="enable-background:new 0 0 500 100;" xml:space="preserve">
<style type="text/css">
	.st0{fill:url(#SVGID_1_);stroke:#442A19;stroke-width:6;stroke-miterlimit:10;}
</style>
<linearGradient id="SVGID_1_" gradientUnits="userSpaceOnUse" x1="251.2158" y1="101.4226" x2="248.4763" y2="-4.6727" gradientTransform="matrix(1 0 0 -1 0 101)">
	<stop  offset="0" style="stop-color:#F9AF28"/>
	<stop  offset="1" style="stop-color:#B89630"/>
</linearGradient>
<path class="st0" d="M447,96.7H52.7c-27.3,0-49.5-7.4-49.5-16.6V57.9l17.5-6.3L3.3,44.2V20c0-4,4.3-7.7,11.4-10.6
	c0.9-0.3,23,1.5,23,1.5s-5.8-6-5.3-6c0,0,13.1-1.5,20.3-1.5H447c27.3,0,49.5,7.4,49.5,16.6v48.4l-18,8.9l18,2.9
	C496.5,89.3,474.4,96.7,447,96.7z"/>
<g>
</g>
<g>
</g>
<g>
</g>
<g>
</g>
<g>
</g>
<g>
</g>
</svg>
