<?xml version="1.0" encoding="utf-8"?>
<!-- Generator: Adobe Illustrator 27.3.1, SVG Export Plug-In . SVG Version: 6.00 Build 0)  -->
<svg version="1.1" id="Calque_1" xmlns="http://www.w3.org/2000/svg" xmlns:xlink="http://www.w3.org/1999/xlink" x="0px" y="0px"
	 viewBox="0 0 50 50" style="enable-background:new 0 0 50 50;" xml:space="preserve">
<style type="text/css">
	.st0{fill:#AC6530;}
	.st1{fill:#A75C23;}
	.st2{fill:#A07D64;}
	.st3{fill:none;stroke:#B66E38;stroke-width:2;stroke-miterlimit:10;}
	.st4{fill:#935B2D;}
	.st5{fill:#9F5A25;}
	.st6{fill:none;stroke:#825630;stroke-width:4;stroke-miterlimit:10;}
	.st7{fill:#8A7764;}
	.st8{fill:#75B847;stroke:#000000;stroke-miterlimit:10;}
	.st9{fill:#AD5D21;}
	.st10{fill:#A57F65;}
	.st11{fill:#80BA27;stroke:#000000;stroke-miterlimit:10;}
</style>
<rect class="st0" width="50" height="50"/>
<path class="st1" d="M15,23.2c0,0,7,5.3,5.6,7.5s-7.9,0.4-8,0s3.3-5.5,0-6.1S15,23.2,15,23.2z"/>
<path class="st1" d="M30.3,9c0,0,0.7,16.7,4.1,11.5S31.1,6.6,30.3,9z"/>
<path class="st1" d="M27.5,44.9c0,0,18-6.2,17,1.1"/>
<polyline class="st2" points="18.1,18.9 18.8,19.3 22.9,18 21.1,15.8 16.8,14.8 14.4,16.6 18.1,18.9 "/>
<polygon class="st2" points="45,5.1 40.3,5.1 41.1,9.7 45,9.7 "/>
<path class="st3" d="M5.2,35.6c0,0-0.6-2.3,16.8,1.6C36.6,40.5,30.9,32,38,24c4.7-5.3,10.8,2.7,10.8,2.7"/>
<rect x="65.3" y="-2.6" class="st4" width="50" height="50"/>
<path class="st5" d="M95.6,6.4c0,0,0.7,16.7,4.1,11.5S96.4,4,95.6,6.4z"/>
<path class="st6" d="M92.3,11.9c-4,2.2-16.2,3.5-17.7,6.9s-5.5,4.6-4.2,7.1"/>
<path class="st5" d="M93.7,43.2c0,0,18-6.2,17,1.1"/>
<polygon class="st7" points="92.7,21.9 88.4,20.9 86,22.8 90.4,25.5 94.6,24.1 "/>
<polygon class="st7" points="78.9,43.9 76,38.2 73.1,41.8 76,43.9 "/>
<polygon class="st7" points="110.7,10.7 106,10.7 106.8,15.2 110.7,15.2 "/>
<path class="st3" d="M73.1,34.4c0,0-0.6-2,14.7,1.4c12.9,2.9,7.8-4.6,14.1-11.6c4.1-4.6,9.5,2.4,9.5,2.4"/>
<g>
	<path class="st8" d="M111.7,5.9c1.3-0.8,2.8-1.6,4.2-2.2v-6.1H64.8v6.8c4.4-3.2,6.6,0.8,9.5,3c4.3,3,7.8-1.3,7.8-5.4
		c0.3,1.2,0.6,2.3,1.2,3.4l0.1-0.3c0.1-0.5,0.6-0.6,0.9-1.2c1,1,2,2,3.1,3C89.3,4,92,3.2,94.9,5.4H95c3.5-3.1,6.5-1.1,8.9,2.3
		c0.6-1.4,0.9-5.6,2.7-6.1c1.3-0.4,4.1,3.4,5.2,4.5"/>
</g>
<rect x="-65.9" class="st0" width="50" height="50"/>
<path class="st1" d="M-35.6,9c0,0,0.7,16.7,4.1,11.5S-34.8,6.6-35.6,9z"/>
<path class="st9" d="M-37.5,45.7c0,0,18-6.2,17,1.1"/>
<polygon class="st10" points="-51.4,24.7 -54.3,19 -57.2,22.5 -54.3,24.7 "/>
<polygon class="st2" points="-20.5,13.3 -25.2,13.3 -24.4,17.8 -20.5,17.8 "/>
<path class="st3" d="M-58.1,37c0,0-0.6-2,14.7,1.4c12.9,2.9,7.8-4.6,14.1-11.6c4.1-4.6,9.5,2.4,9.5,2.4"/>
<g>
	<path class="st11" d="M-19.5,8.5c1.3-0.8,2.8-1.6,4.2-2.2V0.2h-51.1V7c4.4-3.2,6.6,0.8,9.5,3c4.3,3,7.8-1.3,7.8-5.4
		c0.3,1.2,0.6,2.3,1.2,3.4l0.1-0.3c0.1-0.5,0.6-0.6,0.9-1.2c1,1,2,2,3.1,3c1.9-2.9,4.6-3.7,7.5-1.5h0.1c3.5-3.1,6.5-1.1,8.9,2.3
		c0.6-1.4,0.9-5.6,2.7-6.1c1.3-0.4,4.1,3.4,5.2,4.5"/>
</g>
</svg>
