<?xml version="1.0" encoding="utf-8"?>
<!-- Generator: Adobe Illustrator 27.3.1, SVG Export Plug-In . SVG Version: 6.00 Build 0)  -->
<svg version="1.1" id="Calque_1" xmlns="http://www.w3.org/2000/svg" xmlns:xlink="http://www.w3.org/1999/xlink" x="0px" y="0px"
	 viewBox="0 0 250 100" style="enable-background:new 0 0 250 100;" xml:space="preserve">
<style type="text/css">
	.st0{fill:#F49739;stroke:#000000;stroke-width:6;stroke-miterlimit:10;}
	.st1{fill:none;stroke:#000000;stroke-width:6;stroke-miterlimit:10;}
</style>
<path class="st0" d="M199.9,96.9H50.2c-25.9,0-47-21-47-47l0,0c0-25.9,21-47,47-47h149.7c25.9,0,47,21,47,47l0,0
	C246.9,75.9,225.8,96.9,199.9,96.9z"/>
<path class="st1" d="M26.8,81V21.5c0,0,22.2,3.6,19,18.3c-3.2,14.7-17.3,9.9-17.3,9.9l14.2,28.4"/>
<polyline class="st1" points="76.9,78.3 60,76.2 60,21.5 76.9,27 "/>
<line class="st1" x1="62.1" y1="47.8" x2="74.4" y2="51"/>
<path class="st1" d="M106.5,28.9c0,0-15.1-13.5-17.9,0c-1.9,9.3,4.8,18,9.2,22.6c2.7,2.8,4.5,6.9,5.2,11.5
	c0.9,6.1,1.1,13.5-3.3,13.8c-7.5,0.6-12.3,0-12.3,0"/>
<line class="st1" x1="116" y1="24.2" x2="138.9" y2="28.1"/>
<line class="st1" x1="126.6" y1="28.1" x2="125.3" y2="83.1"/>
<path class="st1" d="M140.9,84.1c0,0,11.3-61.5,13.2-61s11.3,59.2,11.3,59.2"/>
<line class="st1" x1="148.5" y1="54.8" x2="160.7" y2="52.5"/>
<path class="st1" d="M179.5,82c0,0-3.6-59-1.9-59c1.7,0,24,2,18.8,15.5c-5.2,13.5-15.4,13.8-15.4,13.8l12.6,27.4"/>
<line class="st1" x1="220.1" y1="83.1" x2="218.3" y2="27.2"/>
<line class="st1" x1="202.3" y1="27.6" x2="230.8" y2="27.2"/>
</svg>
