<?xml version="1.0" encoding="utf-8"?>
<!-- Generator: Adobe Illustrator 27.3.1, SVG Export Plug-In . SVG Version: 6.00 Build 0)  -->
<svg version="1.1" id="Calque_1" xmlns="http://www.w3.org/2000/svg" xmlns:xlink="http://www.w3.org/1999/xlink" x="0px" y="0px"
	 viewBox="0 0 110 110" style="enable-background:new 0 0 110 110;" xml:space="preserve">
<style type="text/css">
	.st0{stroke:#000000;stroke-width:7;stroke-miterlimit:10;}
</style>
<path class="st0" d="M82.9,106.2H27.3c-12.9,0-23.5-10.5-23.5-23.4V27.3c0-13,10.6-23.4,23.5-23.4h55.5c13,0,23.5,10.6,23.5,23.4
	v55.3C106.4,95.7,95.9,106.2,82.9,106.2z"/>
<path class="st0" d="M-80.8,66.2h-50.4c-11.7,0-21.3-9.5-21.3-21.3V-5.5c0-11.8,9.6-21.3,21.3-21.3h50.3c11.8,0,21.3,9.6,21.3,21.3
	v50.3C-59.5,56.7-69,66.2-80.8,66.2z"/>
</svg>
