<?xml version="1.0" encoding="utf-8"?>
<!-- Generator: Adobe Illustrator 27.3.1, SVG Export Plug-In . SVG Version: 6.00 Build 0)  -->
<svg version="1.1" id="Calque_1" xmlns="http://www.w3.org/2000/svg" xmlns:xlink="http://www.w3.org/1999/xlink" x="0px" y="0px"
	 viewBox="0 0 20 20" style="enable-background:new 0 0 20 20;" xml:space="preserve">
<style type="text/css">
	.st0{fill:#80BA27;stroke:#000000;stroke-miterlimit:10;}
	.st1{fill:#AC6530;}
	.st2{fill:#A75C23;}
	.st3{fill:#AD5D21;}
	.st4{fill:#A57F65;}
	.st5{fill:#A07D64;}
	.st6{fill:none;stroke:#B66E38;stroke-width:2;stroke-miterlimit:10;}
</style>
<path class="st0" d="M15.5,6.6c-0.5,1-2.2,5.9-2.2,5.9c-1-1.1-1.1-7.5-1-10c0.1-1.7-3.3,9-3.3,9C8,4.6,4.8,3.3,4.8,3.3
	c1,2.2,0.6,9.3,0.6,9.3C3.5,6.3,1.2,10,1.2,10c2.9,0.4,1.2,10.7,1.2,10.7H19c0,0,0.3-8.4-0.5-6.5c-1.2,2.8-2.1,0.3-2.1,0.3
	S18.3,1.2,15.5,6.6z"/>
<rect x="-51.1" y="-14.4" class="st1" width="50" height="50"/>
<path class="st2" d="M-20.8-5.3c0,0,0.7,16.7,4.1,11.5S-20-7.8-20.8-5.3z"/>
<path class="st3" d="M-22.7,31.4c0,0,18-6.2,17,1.1"/>
<polygon class="st4" points="-36.5,10.4 -39.4,4.7 -42.3,8.2 -39.4,10.4 "/>
<polygon class="st5" points="-5.7,-1 -10.4,-1 -9.6,3.4 -5.7,3.4 "/>
<path class="st6" d="M-43.3,22.6c0,0-0.6-2,14.7,1.4c12.9,2.9,7.8-4.6,14.1-11.6c4.1-4.6,9.5,2.4,9.5,2.4"/>
<g>
	<path class="st0" d="M-4.7-5.8c1.3-0.8,2.8-1.6,4.2-2.2v-6.1h-51.1v6.8c4.4-3.2,6.6,0.8,9.5,3c4.3,3,7.8-1.3,7.8-5.4
		c0.3,1.2,0.6,2.3,1.2,3.4l0.1-0.3c0.1-0.5,0.6-0.6,0.9-1.2c1,1,2,2,3.1,3c1.9-2.9,4.6-3.7,7.5-1.5h0.1c3.5-3.1,6.5-1.1,8.9,2.3
		c0.6-1.4,0.9-5.6,2.7-6.1c1.3-0.4,4.1,3.4,5.2,4.5"/>
</g>
</svg>
