<?xml version="1.0" encoding="utf-8"?>
<!-- Generator: Adobe Illustrator 27.3.1, SVG Export Plug-In . SVG Version: 6.00 Build 0)  -->
<svg version="1.1" id="Calque_1" xmlns="http://www.w3.org/2000/svg" xmlns:xlink="http://www.w3.org/1999/xlink" x="0px" y="0px"
	 viewBox="0 0 100 100" style="enable-background:new 0 0 100 100;" xml:space="preserve">
<style type="text/css">
	.st0{fill:#F9B00D;stroke:#030304;stroke-miterlimit:10;}
	.st1{fill:#946137;stroke:#030304;stroke-miterlimit:10;}
	.st2{fill:#C84828;stroke:#030304;stroke-miterlimit:10;}
	.st3{fill:#E63125;stroke:#030304;stroke-miterlimit:10;}
</style>
<path class="st0" d="M56.51,67.52l-16.54-1.18c-9.45-0.74-16.54-10.19-15.95-21.11v-0.44c0.59-11.22,8.56-19.64,17.87-19.19
	l16.39,1.18c9.3,0.74,16.54,10.19,15.95,21.11v0.44C73.64,59.54,65.66,67.96,56.51,67.52z"/>
<path class="st1" d="M45.14,10.96c0,0-24.81,19.93-27.91,17.42s93.46,20.38,60.39,1.62S44.55,11.56,44.55,11.56"/>
<path class="st2" d="M74.08,106.35H27.72c-1.92,0-3.69-1.35-3.69-2.89V68.04c0-1.54,1.62-2.89,3.69-2.89h46.36
	c1.92,0,3.69,1.35,3.69,2.89v35.32C77.62,105,76,106.35,74.08,106.35z"/>
<path class="st3" d="M56.81,39.02c0,0,11.96,0,9.74,2.81c-1.92,2.81-1.92,2.81-1.92,2.81L56.81,39.02z"/>
<path class="st0" d="M68.76,58.95c0,0-9.3,3.1-10.34-5.17"/>
<path class="st1" d="M40.12,18.05c4.87,4.72,23.03,9.45,23.03,9.45"/>
<path class="st1" d="M37.91,24.84c0,0,18.01,7.97,24.95,7.23"/>
<polygon class="st2" points="55.62,105.15 44.85,105.05 42.34,76.82 53.11,76.92 "/>
</svg>
