<?xml version="1.0" encoding="utf-8"?>
<!-- Generator: Adobe Illustrator 27.3.1, SVG Export Plug-In . SVG Version: 6.00 Build 0)  -->
<svg version="1.1" id="Calque_1" xmlns="http://www.w3.org/2000/svg" xmlns:xlink="http://www.w3.org/1999/xlink" x="0px" y="0px"
	 viewBox="0 0 300 100" style="enable-background:new 0 0 300 100;" xml:space="preserve">
<style type="text/css">
	.st0{fill:#3390BB;stroke:#000000;stroke-width:7;stroke-miterlimit:10;}
	.st1{fill:none;stroke:#000000;stroke-width:7;stroke-miterlimit:10;}
</style>
<path class="st0" d="M279.7,3.5h-259C11.4,3.5,3.8,11,3.8,20.3v59.3c0,9.3,7.5,16.8,16.8,16.8h259c9.3,0,16.8-7.5,16.8-16.8V20.3
	C296.5,11,289,3.5,279.7,3.5z"/>
<polyline class="st1" points="22.3,84.2 22.3,30 46.5,73.3 46.3,20.4 "/>
<line class="st1" x1="67.6" y1="83.2" x2="67.6" y2="19.4"/>
<polyline class="st1" points="81.1,19.4 99.1,73.4 117.1,19.4 "/>
<polyline class="st1" points="153.7,82 129.1,82 130,50.5 130.8,21 155.3,21 "/>
<line class="st1" x1="155.3" y1="52.9" x2="130.8" y2="52.9"/>
<polyline class="st1" points="164.9,87 179.1,26.6 196.6,86.4 "/>
<line class="st1" x1="188.2" y1="57.6" x2="171.2" y2="58.9"/>
<path class="st1" d="M206.5,19.4c0,0-7.2,62.8,12.9,63.1c19,0.2,14.9-60.7,14.9-60.7"/>
<line class="st1" x1="245.2" y1="81.8" x2="279.4" y2="20"/>
<line class="st1" x1="246.7" y1="20" x2="276.7" y2="82.4"/>
</svg>
