<?xml version="1.0" encoding="utf-8"?>
<!-- Generator: Adobe Illustrator 27.3.1, SVG Export Plug-In . SVG Version: 6.00 Build 0)  -->
<svg version="1.1" id="Calque_1" xmlns="http://www.w3.org/2000/svg" xmlns:xlink="http://www.w3.org/1999/xlink" x="0px" y="0px"
	 viewBox="0 0 150 300" style="enable-background:new 0 0 150 300;" xml:space="preserve">
<style type="text/css">
	.st0{fill:#8C7BA3;stroke:#020203;stroke-width:3;stroke-miterlimit:10;}
	.st1{fill:#E9B142;stroke:#020203;stroke-width:3;stroke-miterlimit:10;}
	.st2{fill:#F39200;stroke:#000000;stroke-width:3;stroke-miterlimit:10;}
	.st3{fill:#E94E1B;stroke:#000000;stroke-width:3;stroke-miterlimit:10;}
	.st4{fill:#EE7184;stroke:#000000;stroke-width:3;stroke-miterlimit:10;}
	.st5{stroke:#000000;stroke-width:3;stroke-miterlimit:10;}
	.st6{fill:#FCEA10;stroke:#000000;stroke-width:3;stroke-miterlimit:10;}
	.st7{fill:#FFFFFF;stroke:#000000;stroke-width:3;stroke-miterlimit:10;}
</style>
<rect x="80.95" y="257.79" class="st0" width="40.23" height="33.55"/>
<path class="st1" d="M82.08,279.88h37.19c0.63,0,1.14,0.47,1.14,1.07v3.78c0,0.6,0.5,1.07,1.14,1.07h13.13
	c0.63,0,1.14,0.47,1.14,1.07v10.42c0,0.6-0.5,1.07-1.14,1.07H82.08c-0.63,0-1.14-0.47-1.14-1.07v-16.37
	C80.95,280.35,81.48,279.88,82.08,279.88z"/>
<rect x="30.96" y="255.86" class="st0" width="40.23" height="35.48"/>
<path class="st1" d="M32.67,279.88h36.05c0.94,0,1.7,0.74,1.7,1.6v2.71c0,0.9,0.77,1.6,1.7,1.6h12.4c0.94,0,1.7,0.74,1.7,1.6v9.36
	c0,0.9-0.77,1.6-1.7,1.6H32.67c-0.94,0-1.7-0.74-1.7-1.6v-15.27C30.96,280.61,31.73,279.88,32.67,279.88z"/>
<path class="st2" d="M144.43,86.59c-19.38,33.18-119.98,31.11-136.62-0.3C-4.62,62.8,29.03,21.14,38.72,22.88
	c5.15,1.17,4.84,14.1,8.79,14.1c6.05,0,6.98-34.71,15.17-35.32c9.39-0.87,18.18,37.65,30.27,37.05c8.79-0.3,9.69-21.15,18.48-22.02
	C125.65,14.66,159.57,60.76,144.43,86.59z"/>
<path class="st3" d="M16.8,85.42c-8.95-8.82-3.41-27,3.41-37.86c2.17-3.24,6.78-10.86,11.73-10.26c4.31,0.6,4.94,6.45,10.79,7.62
	c4.31,0.87,8.62-1.77,9.86-2.94c4.31-2.94,8.02-8.22,8.02-13.5c0-4.98-0.87-6.82,0.03-12.1c0.6-2.94,4.01-6.38,5.25-6.38
	c2.17,0-1.57,6.15,3.68,14.1c1.84,2.94,2.17,2.34,5.55,7.05c7.08,9.09,6.48,10.86,9.86,13.5c0.94,0.6,7.42,4.71,14.2,2.64
	c6.78-2.07,9.26-9.39,9.56-9.39c1.54-4.71-0.6-7.92,1.24-9.09c3.07-2.04,11.09,4.98,12.03,6.15c3.07,2.64,4.61,4.71,5.85,6.15
	c3.07,4.11,4.31,8.22,7.08,15.57c1.84,4.98,2.47,7.92,2.77,10.86c0,2.04,0.3,3.51-0.3,6.15c-0.3,1.77-1.54,5.28-6.18,9.39
	c-4.61,4.71-10.49,7.05-21.88,11.73c-5.25,2.34-8.32,3.24-10.19,3.51c-7.42,1.77-9.86-0.3-20.35,0.6c-7.08,0.6-7.08,1.47-12.66,1.17
	c-5.55,0-10.19-0.87-13.87-1.77c-4.61-1.47-4.01-2.04-10.49-4.11c-9.26-2.94-11.73-2.04-18.51-4.98
	C20.51,88.06,18.63,87.16,16.8,85.42z"/>
<path class="st4" d="M84.96,63.4c1.84-3.81,5.85-6.75,10.19-7.05c3.71-0.3,6.48,1.77,10.19,4.11c3.41,2.34,7.08,4.71,6.78,8.22
	c-0.3,2.04-1.84,3.24-4.31,4.98c-2.77,2.04-5.25,4.11-9.86,4.41c-4.01,0.3-9.86-1.17-12.33-4.98c-0.6-0.6-1.84-2.94-1.84-5.58
	C84.05,65.44,84.66,63.97,84.96,63.4z"/>
<path class="st5" d="M97.02,65.44c1.24-0.6,3.07-0.3,3.41,0.87c0.6,1.17,0,2.34-0.3,2.94c0,0.3-0.94,2.34-2.47,2.34
	c-1.54,0-2.47-2.04-2.47-3.51C96.08,67.51,96.08,66.04,97.02,65.44z"/>
<g>
	<path class="st6" d="M35.61,66.61c-0.94-6.45,6.48-10.86,7.08-11.16c6.78-3.81,17.57-3.24,21.58,3.81
		c2.17,3.51,2.17,9.09-0.3,12.63c-4.01,6.45-13.57,5.88-18.51,3.81C43.93,75.43,36.24,72.79,35.61,66.61z"/>
	<path class="st5" d="M55.05,64.27c1.24-0.87,3.41-0.3,3.71,0.87c0.6,1.17,0,2.64-0.3,3.24c0,0.3-1.24,2.34-2.47,2.34
		c-1.54,0-2.77-2.34-2.47-3.81C53.52,66.34,53.82,64.87,55.05,64.27z"/>
</g>
<path class="st7" d="M60.97,82.48c-1.54,2.04,2.67,5.88,6.85,7.62c8.39,3.24,19.04-1.77,19.04-3.81
	C86.49,82.48,63.64,78.94,60.97,82.48z"/>
<path class="st0" d="M142.29,115.36l-25.63-7.92c-0.67-0.2-1.34-0.3-2.04-0.3H33.74c-0.84,0-1.64,0.17-2.41,0.43l-22.35,8.69
	c-2.31,0.9-3.78,3.01-3.78,5.35v76.18l-3.44,9.89l3.44,25.69v18.71c0,0,0.47,14.1,1.9,14.63c0.13,0.07,13.5-8.45,13.5-8.45
	l15.3,8.69l18.74-9.26l21.82,9.22l15.87-8.09l19.78,7.99l12.26-8.35l17.84,8.25c0,0,5.68-2.17,5.68-4.88l-1.5-105.28l-10.59-10.83
	l10.32-8.62l-0.23-17.14C145.87,117.9,144.43,116.03,142.29,115.36z"/>
<path class="st0" d="M72.26,217.13l-9.39-0.1c-4.71-0.07-8.55-3.51-8.92-7.95l-5.05-64.58c-0.4-5.05,3.81-9.32,9.12-9.26l9.39,0.1
	c4.71,0.07,8.55,3.51,8.92,7.95l5.05,64.55C81.78,212.92,77.54,217.2,72.26,217.13z"/>
<path class="st2" d="M84.42,212.82c-4.34-8.35-26.8-7.85-30.5,0.07c-2.77,5.91,1.2,18.81,3.37,18.38c1.14-0.3,4.61-5.91,5.48-5.91
	c1.34,0,4.21,5.78,6.05,5.91c2.1,0.23,2.54-9.32,5.25-9.19c1.97,0.07,4.41,3.47,6.38,3.71C83.62,226.29,87.8,219.34,84.42,212.82z"
	/>
</svg>
