<?xml version="1.0" encoding="utf-8"?>
<!-- Generator: Adobe Illustrator 27.3.1, SVG Export Plug-In . SVG Version: 6.00 Build 0)  -->
<svg version="1.1" id="Calque_1" xmlns="http://www.w3.org/2000/svg" xmlns:xlink="http://www.w3.org/1999/xlink" x="0px" y="0px"
	 viewBox="0 0 50 100" style="enable-background:new 0 0 50 100;" xml:space="preserve">
<style type="text/css">
	.st0{fill:#350D04;stroke:#000000;stroke-miterlimit:10;}
	.st1{fill:#4C2F11;}
	.st2{fill:#512F0D;}
	.st3{fill:none;stroke:#523619;stroke-width:4;stroke-miterlimit:10;}
	.st4{fill:#5B340E;}
	.st5{fill:#3E362B;}
	.st6{fill:#3B3429;}
	.st7{fill:none;stroke:#573614;stroke-width:2;stroke-miterlimit:10;}
</style>
<path class="st0" d="M22,100c0,0-24.5-56.3-13.3-73.9C8.7,26.1,39.7,91.4,22,100"/>
<path class="st0" d="M34.3,100.5c0,0-16.2-62.5,3.8-98.5c0,0,16.3,89.3-1.4,98"/>
<path class="st0" d="M42.6,16.2c-6.5,2.1-10.1,52.9-10.1,52.9c-3-6.7-3.6-51.5-3.2-66.9c0.2-10.1-8.9,40.9-8.9,40.9
	C16.5,7.3,6.7,7.5,6.7,7.5c7.2,2.1,2.4,56.2,2.4,56.2C4,25.7,2.2,24.3,2.2,24.3c-0.1,2.2-0.7,31.5-0.2,38c0.1,1.4,0.2,2.9,0.3,4.4
	C2.9,81.3,0.9,100,0.9,100h48.5l-1.3-56.1c-3.3,12.4-8.2,28.3-7.9,29.3L42.6,16.2z"/>
<path class="st0" d="M19.3,100c0,0-5.5-5.6-2.5-49.6l3.6-23.6c0,0,21.7,57.9,9.2,73.2C29.2,100.5,19.7,99.6,19.3,100z"/>
<path class="st0" d="M40.4,37c0,0,12,53-4.2,63.1c-1.3,0.8-9.7,0-9.7,0S18.2,72.7,40.4,37z"/>
<path class="st0" d="M9.1,100c0,0-7.3-15.8-8.2-56.3c0,0,30.7,40.9,18.4,56.3"/>
<rect x="-62.1" y="38" class="st1" width="50" height="50"/>
<path class="st2" d="M-31.8,47c0,0,0.7,16.7,4.1,11.5S-31,44.6-31.8,47z"/>
<path class="st3" d="M-35.1,52.5c-4,2.2-16.2,3.5-17.7,6.9c-1.5,3.4-5.5,4.6-4.2,7.1"/>
<path class="st4" d="M-33.7,83.8c0,0,18-6.2,17,1.1"/>
<polygon class="st5" points="-34.7,62.5 -39,61.5 -41.4,63.4 -37,66.2 -32.8,64.8 "/>
<polygon class="st6" points="-48.5,84.6 -51.4,78.8 -54.3,82.3 -51.4,84.6 "/>
<polygon class="st5" points="-16.7,51.3 -21.4,51.3 -20.6,55.8 -16.7,55.8 "/>
<path class="st7" d="M-54.3,75.1c0,0-0.6-2,14.7,1.4c12.9,2.9,7.8-4.6,14.1-11.6c4.1-4.6,9.5,2.4,9.5,2.4"/>
<g>
	<path class="st0" d="M-15.7,46.5c1.3-0.8,2.8-1.6,4.2-2.2v-6.1h-51.1V45c4.4-3.2,6.6,0.8,9.5,3c4.3,3,7.8-1.3,7.8-5.4
		c0.3,1.2,0.6,2.3,1.2,3.4l0.1-0.3c0.1-0.5,0.6-0.6,0.9-1.2c1,1,2,2,3.1,3c1.9-2.9,4.6-3.7,7.5-1.5h0.1c3.5-3.1,6.5-1.1,8.9,2.3
		c0.6-1.4,0.9-5.6,2.7-6.1c1.3-0.4,4.1,3.4,5.2,4.5"/>
</g>
</svg>
