<?xml version="1.0" encoding="utf-8"?>
<!-- Generator: Adobe Illustrator 27.3.1, SVG Export Plug-In . SVG Version: 6.00 Build 0)  -->
<svg version="1.1" id="Calque_1" xmlns="http://www.w3.org/2000/svg" xmlns:xlink="http://www.w3.org/1999/xlink" x="0px" y="0px"
	 viewBox="0 0 250 100" style="enable-background:new 0 0 250 100;" xml:space="preserve">
<style type="text/css">
	.st0{fill:#ED6969;stroke:#000000;stroke-width:6;stroke-miterlimit:10;}
	.st1{fill:none;stroke:#000000;stroke-width:6;stroke-miterlimit:10;}
</style>
<path class="st0" d="M199.9,96.9H50.2c-25.9,0-47-21-47-47l0,0c0-25.9,21-47,47-47h149.7c25.9,0,47,21,47,47l0,0
	C246.9,75.9,225.8,96.9,199.9,96.9z"/>
<path class="st1" d="M37,18.7l1.3,64.2c0,0,30.5-0.3,30.5-20.3c0-6.8-23-11.7-23-11.7s23-8.3,21.9-15.4C65.3,18.4,37,18.7,37,18.7z"
	/>
<polyline class="st1" points="84.1,84.5 95.3,24.5 118.3,83.6 "/>
<line class="st1" x1="92.2" y1="55.1" x2="105.5" y2="56.1"/>
<path class="st1" d="M162.8,76.5c0,5.8-9.5,5.7-9.5,5.7s-24.9,1.8-25.1-30.3c-0.2-32.1,26.2-32.6,26.2-32.6s8.4,0,8.4,4.4"/>
<line class="st1" x1="181.8" y1="19.4" x2="181.8" y2="82.3"/>
<line class="st1" x1="183.6" y1="48.6" x2="211.3" y2="21.2"/>
<line class="st1" x1="181.8" y1="49.6" x2="211.3" y2="79.9"/>
</svg>
