<?xml version="1.0" encoding="utf-8"?>
<!-- Generator: Adobe Illustrator 27.3.1, SVG Export Plug-In . SVG Version: 6.00 Build 0)  -->
<svg version="1.1" id="Calque_1" xmlns="http://www.w3.org/2000/svg" xmlns:xlink="http://www.w3.org/1999/xlink" x="0px" y="0px"
	 viewBox="0 0 50 80" style="enable-background:new 0 0 50 80;" xml:space="preserve">
<style type="text/css">
	.st0{fill:url(#SVGID_1_);stroke:#000000;stroke-miterlimit:10;}
	.st1{fill:#784F2B;}
	.st2{fill:#7A4C17;}
	.st3{fill:#7D4E24;stroke:#000000;stroke-miterlimit:10;}
	.st4{fill:none;stroke:#000000;stroke-miterlimit:10;}
	.st5{fill:#5C3D1C;stroke:#000000;stroke-miterlimit:10;}
	.st6{fill:#623E1F;}
	.st7{fill:#623E1F;stroke:#000000;stroke-miterlimit:10;}
</style>
<linearGradient id="SVGID_1_" gradientUnits="userSpaceOnUse" x1="24.7848" y1="15.5072" x2="25.274" y2="73.3225">
	<stop  offset="0" style="stop-color:#894F27"/>
	<stop  offset="1" style="stop-color:#603A13"/>
</linearGradient>
<path class="st0" d="M49.4,79.4V14.3c0,0-5.5-13.5-24.3-13.5c-18,0-24.4,13.5-24.4,13.5v65.1H49.4z"/>
<path class="st1" d="M25.1,0.8C7,0.8,0.6,14.3,0.6,14.3h48.8C39.9-1.1,25.1,0.8,25.1,0.8z"/>
<path class="st2" d="M7.6,14.3c7.1,0.9,10.1,0.8,10.8,2.4c1.5,3.3,2.3,3.4,4.1,5.6c1.2,1.5-0.4,5.9,0,6.9c0.4,1.1-2.3,5-5.5,5.6
	c-3,0.5-7.1,4.6-9.9,3.2c-3.1-1.6-5.3-1.3-5.3-3.4c0-5,0.1-7.7,0-13.6c0-1.9-0.3-4,0-5.2c0.7-2.3,1.7-0.9,2.2-1.5
	C4.3,13.8,5.5,14.1,7.6,14.3z"/>
<ellipse class="st3" cx="40.2" cy="42.6" rx="4.3" ry="4.3"/>
<polyline class="st4" points="6.6,7.2 11.2,14.3 17.1,14.3 19,1.7 23.4,0.9 26.5,14.3 31.5,14.3 36.4,2.8 40.5,4.7 40.5,14.3 
	43.5,14.3 46.6,10 "/>
<rect x="0.6" y="74.4" class="st5" width="48.7" height="5"/>
<path class="st6" d="M28.4,53.1c2-1.3,5.5-0.9,7.3,0.9c3.5,3.2-0.3,3.3,1.7,4.2c1.8,0.7,5.1,2.4,7.9,3.1c1.9,0.5,3.2,3.4,2.6,5.5
	c-0.8,2.6-4.7,3.4-8.5,4.2c-2,0.4-5.6,1-10-0.1c-2.7-0.7-6.6-1.7-7.4-4.5c-0.4-1.2,0.4-2.9,1.8-6.2c0.3-0.7,1.2-2.6,2.7-4.9
	C27.4,54,27.9,53.4,28.4,53.1z"/>
<path class="st4" d="M0.6,14.3h48.8c0,0-4.9-13.5-24.3-13.5C5.9,0.8,0.6,14.3,0.6,14.3z"/>
<line class="st7" x1="0.7" y1="69.6" x2="4.3" y2="74.4"/>
<line class="st7" x1="0.7" y1="19.1" x2="4.3" y2="14.3"/>
</svg>
