<?xml version="1.0" encoding="utf-8"?>
<!-- Generator: Adobe Illustrator 27.3.1, SVG Export Plug-In . SVG Version: 6.00 Build 0)  -->
<svg version="1.1" id="Calque_1" xmlns="http://www.w3.org/2000/svg" xmlns:xlink="http://www.w3.org/1999/xlink" x="0px" y="0px"
	 viewBox="0 0 100 100" style="enable-background:new 0 0 100 100;" xml:space="preserve">
<style type="text/css">
	.st0{fill:#6D181C;stroke:#020203;stroke-miterlimit:10;}
	.st1{fill:#91622E;stroke:#010200;stroke-miterlimit:10;}
	.st2{fill:#39342F;}
	.st3{fill:#E2667C;stroke:#020203;stroke-miterlimit:10;}
	.st4{fill:none;stroke:#E1D300;stroke-width:1.5;stroke-miterlimit:10;}
	.st5{fill:#FFFFFF;}
</style>
<path class="st0" d="M77.1,103.6h-55c-2.3,0-4.4-0.9-4.4-1.9V77.9c0-1,1.9-1.9,4.4-1.9h55c2.3,0,4.4,0.9,4.4,1.9v23.7
	C81.3,102.7,79.3,103.6,77.1,103.6z"/>
<polygon class="st0" points="55.2,103.6 42.4,103.5 39.4,80.7 52.2,80.8 "/>
<path class="st1" d="M23.5,75.2V41.4c0,0,7.2-19.9,26.8-19.9s25.5,17.6,25.5,17.6v36.1"/>
<ellipse class="st2" cx="65.9" cy="42.8" rx="2.3" ry="7.6"/>
<ellipse class="st3" cx="72.9" cy="59.5" rx="9.4" ry="5.3"/>
<path class="st4" d="M47.2,25.5c0,0-3.3-16.9-8.3-14.6"/>
<path class="st4" d="M50.2,25.5c0,0,0.1-16,2.1-16.4"/>
<path class="st4" d="M53.7,25.5c0,0,0.3-10.3,4.9-8.2"/>
<circle class="st5" cx="66.4" cy="39.5" r="1.3"/>
</svg>
