<?xml version="1.0" encoding="utf-8"?>
<!-- Generator: Adobe Illustrator 27.3.1, SVG Export Plug-In . SVG Version: 6.00 Build 0)  -->
<svg version="1.1" id="Calque_1" xmlns="http://www.w3.org/2000/svg" xmlns:xlink="http://www.w3.org/1999/xlink" x="0px" y="0px"
	 viewBox="0 0 1400 1000" style="enable-background:new 0 0 1400 1000;" xml:space="preserve">
<style type="text/css">
	.st0{fill:#4EB4E7;stroke:#000000;stroke-width:26;stroke-miterlimit:10;}
	.st1{font-family:'BerlinSansFBDemi-Bold';}
	.st2{font-size:171.5826px;}
	.st3{fill:#F9B006;stroke:#020203;stroke-width:2;stroke-miterlimit:10;}
	.st4{fill:#946137;stroke:#020203;stroke-width:2;stroke-miterlimit:10;}
	.st5{fill:#C74827;stroke:#020203;stroke-width:2;stroke-miterlimit:10;}
	.st6{fill:#E62F24;stroke:#020203;stroke-width:2;stroke-miterlimit:10;}
	.st7{fill:#946137;stroke:#020203;stroke-width:0.2;stroke-miterlimit:10;}
	.st8{fill:#C74827;stroke:#020203;stroke-width:2;stroke-miterlimit:10.0003;}
	.st9{fill:#F9B006;stroke:#020203;stroke-width:2;stroke-miterlimit:10.0003;}
	.st10{fill:#C74827;stroke:#020203;stroke-width:2;stroke-miterlimit:10.0005;}
	.st11{fill:#F9B006;stroke:#020203;stroke-width:2;stroke-miterlimit:10.0005;}
	.st12{fill:#FFE100;stroke:#020203;stroke-width:2;stroke-miterlimit:10;}
	.st13{fill:#D388B9;stroke:#020203;stroke-width:2;stroke-miterlimit:10;}
	.st14{fill:#D0358B;stroke:#020203;stroke-width:2;stroke-miterlimit:10;}
	.st15{fill:#4EB4E7;stroke:#020203;stroke-width:2;stroke-miterlimit:10;}
	.st16{fill:#E3061B;stroke:#020203;stroke-width:2;stroke-miterlimit:10;}
	.st17{fill:#B41917;stroke:#020203;stroke-width:5;stroke-miterlimit:10;}
	.st18{fill:#B41917;stroke:#020203;stroke-miterlimit:10;}
</style>
<rect width="1400" height="1000"/>
<path class="st0" d="M1302,984.6H98c-45,0-81.6-36.5-81.6-81.6V96.9c0-45,36.5-81.6,81.6-81.6H1302c45,0,81.6,36.5,81.6,81.6v806.2
	C1383.6,948.1,1347.1,984.6,1302,984.6z"/>
<text transform="matrix(0.4837 0 0 1 73.2671 300.563)" class="st1 st2">DOAN’S BIZARRE ADVENTURE</text>
<path class="st3" d="M323.6,731l-61.9-4.1c-35.2-2.4-61.9-35.9-59.8-74.8v-1.8c2.1-39.5,32-69.5,67.2-67.7l61.4,4.1
	c35.2,2.4,61.9,35.9,59.8,74.8v1.8C388.2,702.7,358.3,732.7,323.6,731z"/>
<path class="st4" d="M282.7,520c0,0-94.5,86.9-106,76.2S532,684.8,406,603.6s-125.9-81.3-125.9-81.3"/>
<path class="st5" d="M389.8,933.7H215.5c-7.3,0-13.6-6.8-13.6-14.8V741.1c0-8,6.3-14.8,13.6-14.8h174.2c7.3,0,13.6,6.8,13.6,14.8
	V919C403.4,926.9,397.1,933.7,389.8,933.7z"/>
<g>
	<rect x="224.8" y="934" class="st3" width="60.4" height="37.5"/>
	<rect x="274.7" y="957.8" class="st3" width="0.5" height="10.2"/>
	<rect x="262.8" y="957.8" class="st3" width="0.5" height="10.2"/>
	<rect x="252.1" y="957.8" class="st3" width="1" height="10.2"/>
</g>
<g>
	<rect x="323.1" y="934" class="st3" width="59.3" height="37.4"/>
	<rect x="372.4" y="957.8" class="st3" width="0.5" height="10.2"/>
	<rect x="360.8" y="957.8" class="st3" width="0.5" height="10.2"/>
	<rect x="350" y="957.8" class="st3" width="1" height="10.2"/>
</g>
<path class="st6" d="M329.4,641.6c0,0,38.3,0,31.5,8c-6.3,8-6.3,8-6.3,8L329.4,641.6z"/>
<path class="st3" d="M369.8,708.1c0,0-30.4,8-33.6-13.1"/>
<path class="st7" d="M263.3,550.7c18.4,20.5,87.6,40.9,87.6,40.9"/>
<path class="st7" d="M254.9,580.3c0,0,68.7,34.7,95,31.3"/>
<g>
	<polygon class="st8" points="427,889.3 398.8,892.7 384.6,757.8 412.8,754.3 	"/>
	<polygon class="st9" points="416.5,877 417.6,876.8 418.6,887 417.6,887.1 	"/>
	<polygon class="st9" points="407.6,878.1 408.7,878 409.7,888.1 408.7,888.3 	"/>
</g>
<g>
	<polygon class="st10" points="193.3,757.9 221.5,761.6 206.3,896.4 178.2,892.7 	"/>
	<polygon class="st11" points="188.1,891.1 187,890.9 188.2,880.8 189.2,880.9 	"/>
	<polygon class="st11" points="196.9,892.3 195.9,892.1 197,882 198.1,882.1 	"/>
</g>
<path class="st12" d="M986.6,675.7v-1.5c-1.9-33.4,22.1-62.3,53.6-64.3l55-3.5c31.5-1.5,58.3,24.3,60.2,58.2v1.5
	c1.9,33.4-22.1,62.3-53.6,64.3l-55.5,3.5C1015.3,735.4,988.5,709.6,986.6,675.7z"/>
<path class="st13" d="M1098,539c0,0,0,0-125.9,76.9s240.9-17.2,229.3-7c-11.5,10.2-106-72.1-106-72.1"/>
<path class="st14" d="M1006.5,923.7V745.8c0-8,4.2-14.8,9.1-14.8H1132c4.9,0,9.1,6.8,9.1,14.8v177.9c0,8-4.2,14.8-9.1,14.8h-116.4
	C1010.7,938.5,1006.5,931.6,1006.5,923.7z"/>
<g>
	<rect x="1093" y="938.7" class="st12" width="60.4" height="31.7"/>
	<rect x="1102.9" y="958.8" class="st12" width="0.5" height="8.6"/>
	<rect x="1114.8" y="958.8" class="st12" width="0.5" height="8.6"/>
	<rect x="1124.9" y="958.8" class="st12" width="1" height="8.6"/>
</g>
<g>
	<rect x="995.7" y="938.7" class="st12" width="59.3" height="31.6"/>
	<rect x="1005.2" y="958.8" class="st12" width="0.5" height="8.6"/>
	<rect x="1016.8" y="958.8" class="st12" width="0.5" height="8.6"/>
	<rect x="1027.1" y="958.8" class="st12" width="1" height="8.6"/>
</g>
<path class="st15" d="M1023.5,670.1c0,0,0,0-6.3-7.1c-6.8-7.1,31.5-7.1,31.5-7.1L1023.5,670.1z"/>
<path class="st16" d="M1041.9,703.5c-3.1,18.7-33.6,11.6-33.6,11.6"/>
<polyline class="st14" points="1006.8,831.2 968.4,941.2 1182.2,937.9 1140.8,814 "/>
<g>
	<polygon class="st14" points="991.4,762.7 1019.6,766.2 1005.4,901.1 977.2,897.6 	"/>
	<polygon class="st14" points="986.6,895.5 985.6,895.4 986.6,885.2 987.7,885.3 	"/>
	<polygon class="st14" points="995.5,896.6 994.5,896.5 995.5,886.3 996.6,886.5 	"/>
</g>
<g>
	<polygon class="st14" points="1172.1,893.3 1144,897 1128.8,762.2 1157,758.5 	"/>
	<polygon class="st14" points="1161.1,881.5 1162.1,881.3 1163.3,891.5 1162.2,891.6 	"/>
	<polygon class="st14" points="1152.2,882.7 1153.3,882.5 1154.4,892.7 1153.4,892.8 	"/>
</g>
<path class="st17" d="M694.6,922.6l-104.5-119c-12.5-17,1.2-70,16-85.1c22.8-23.3,78.7,47.7,78.7,47.7s20.9-30.6,25.5-44.7
	c7-21.9,37.5-20.9,62.7,0c17.3,14.4,17,73.3,5.3,92.5L694.6,922.6z"/>
<path class="st18" d="M753.4,684.9"/>
</svg>
