<?xml version="1.0" encoding="utf-8"?>
<!-- Generator: Adobe Illustrator 27.3.1, SVG Export Plug-In . SVG Version: 6.00 Build 0)  -->
<svg version="1.1" id="Calque_1" xmlns="http://www.w3.org/2000/svg" xmlns:xlink="http://www.w3.org/1999/xlink" x="0px" y="0px"
	 viewBox="0 0 150 300" style="enable-background:new 0 0 150 300;" xml:space="preserve">
<style type="text/css">
	.st0{fill:#FFE10E;stroke:#030405;stroke-width:3;stroke-miterlimit:10;}
	.st1{fill:#D289B9;stroke:#030405;stroke-width:3;stroke-miterlimit:10;}
	.st2{fill:#CF398D;stroke:#030405;stroke-width:3;stroke-miterlimit:10;}
	.st3{fill:#52B4E7;stroke:#030405;stroke-width:3;stroke-miterlimit:10;}
	.st4{fill:#E2141F;stroke:#030405;stroke-width:3;stroke-miterlimit:10;}
	.st5{fill:#FEEB1A;stroke:#030405;stroke-width:3;stroke-miterlimit:10;}
</style>
<path class="st0" d="M128.2,102.6v-1c1.3-22.8-14.1-42.6-34.5-43.9l-35.2-2.3c-20.1-1-37.5,16.8-38.5,39.9v1
	c-1.7,22.8,13.7,42.6,34.2,43.9l35.5,2.3C109.8,143.5,126.9,125.7,128.2,102.6z"/>
<path class="st1" d="M59.8,17.1c0,0,0,0,73.1,47.3S-6.5,53.7,0.2,60c6.7,6.4,61.3-44.6,61.3-44.6"/>
<path class="st2" d="M114.8,266.5V144.8c0-5.4-2.3-10.1-5.4-10.1H41c-3,0-5.4,4.7-5.4,10.1v121.7c0,5.4,2.3,10.1,5.4,10.1h68.7
	C112.4,276.6,114.8,271.9,114.8,266.5z"/>
<g>
	<rect x="20.9" y="276.9" class="st0" width="38.9" height="21.5"/>
	<rect x="53.1" y="290.6" class="st0" width="0.3" height="5.7"/>
	<rect x="45.4" y="290.6" class="st0" width="0.3" height="5.7"/>
	<rect x="38.4" y="290.6" class="st0" width="0.7" height="5.7"/>
</g>
<g>
	<rect x="83.9" y="276.9" class="st0" width="38.2" height="21.5"/>
	<rect x="115.8" y="290.6" class="st0" width="0.3" height="6"/>
	<rect x="108.4" y="290.6" class="st0" width="0.3" height="6"/>
	<rect x="101.4" y="290.6" class="st0" width="0.7" height="6"/>
</g>
<path class="st3" d="M104.4,98.3c0,0,0,0,4-4.7c4.4-4.7-20.1-4.7-20.1-4.7L104.4,98.3z"/>
<path class="st4" d="M92.7,113.7c2,12.7,21.5,8,21.5,8"/>
<polyline class="st2" points="114.8,203.5 137.2,278.6 11.2,276.2 35.7,191.4 "/>
<g>
	<polygon class="st5" points="80.9,159.9 59.5,158.9 62.8,254.1 84.6,255.1 	"/>
	<polygon class="st2" points="62.2,235.3 83.6,235.7 80.9,159.9 59.5,158.9 	"/>
</g>
<g>
</g>
<g>
</g>
<g>
</g>
<g>
</g>
<g>
</g>
<g>
</g>
</svg>
