<?xml version="1.0" encoding="utf-8"?>
<!-- Generator: Adobe Illustrator 27.3.1, SVG Export Plug-In . SVG Version: 6.00 Build 0)  -->
<svg version="1.1" id="Calque_1" xmlns="http://www.w3.org/2000/svg" xmlns:xlink="http://www.w3.org/1999/xlink" x="0px" y="0px"
	 viewBox="0 0 50 50" style="enable-background:new 0 0 50 50;" xml:space="preserve">
<style type="text/css">
	.st0{opacity:0.9;fill:#4C2F11;}
	.st1{opacity:0.9;fill:#512F0D;}
	.st2{opacity:0.9;fill:none;stroke:#523619;stroke-width:4;stroke-miterlimit:10;}
	.st3{opacity:0.9;fill:#5B340E;}
	.st4{opacity:0.9;fill:#3E362B;}
	.st5{opacity:0.9;fill:#3B3429;}
	.st6{opacity:0.9;fill:none;stroke:#573614;stroke-width:2;stroke-miterlimit:10;}
	.st7{opacity:0.9;}
	.st8{fill:#350D04;stroke:#000000;stroke-miterlimit:10;}
	.st9{fill:#350D04;}
</style>
<rect class="st0" width="50" height="50"/>
<path class="st1" d="M30.3,9c0,0,0.7,16.7,4.1,11.5S31.1,6.6,30.3,9z"/>
<path class="st2" d="M27,14.5c-4,2.2-16.2,3.5-17.7,6.9S3.8,26,5.1,28.5"/>
<path class="st3" d="M28.4,45.7c0,0,18-6.2,17,1.1"/>
<polygon class="st4" points="27.4,24.5 23.1,23.5 20.7,25.4 25.1,28.1 29.3,26.7 "/>
<polygon class="st5" points="13.6,46.5 10.7,40.8 7.8,44.3 10.7,46.5 "/>
<polygon class="st4" points="45.4,13.3 40.7,13.3 41.5,17.8 45.4,17.8 "/>
<path class="st6" d="M7.8,37c0,0-0.6-2,14.7,1.4c12.9,2.9,7.8-4.6,14.1-11.6c4.1-4.6,9.5,2.4,9.5,2.4"/>
<g class="st7">
	<path class="st8" d="M46.4,8.5c1.3-0.8,2.8-1.6,4.2-2.2V0.2H-0.5V7C3.9,3.8,6.1,7.8,9,10c4.3,3,7.8-1.3,7.8-5.4
		C17.1,5.8,17.4,6.9,18,8l0.1-0.3c0.1-0.5,0.6-0.6,0.9-1.2c1,1,2,2,3.1,3C24,6.6,26.7,5.8,29.6,8h0.1c3.5-3.1,6.5-1.1,8.9,2.3
		c0.6-1.4,0.9-5.6,2.7-6.1c1.3-0.4,4.1,3.4,5.2,4.5"/>
</g>
<path class="st9" d="M-42.2,12.6c0,0-0.2-7.5-0.9-6.1c0,0,2.4-0.7,2.8,2.5l0.7,3.6l2.9-7.8c0,0,0.4,4,0,6c-0.4,1.8-0.4,1.8-0.4,1.8
	l3.2-7.9l1.6,7.8l2.9-2.8l1.5,2.8c0,0,2.5-4.9,2.7-4s1.4,4,1.4,4s2.1-9.9,2.7-7c0.6,2.8,0.8,7,0.8,7l2.7-1.3l1.2,1.3L-42.2,12.6z"/>
</svg>
