<?xml version="1.0" encoding="utf-8"?>
<!-- Generator: Adobe Illustrator 27.3.1, SVG Export Plug-In . SVG Version: 6.00 Build 0)  -->
<svg version="1.1" id="Calque_1" xmlns="http://www.w3.org/2000/svg" xmlns:xlink="http://www.w3.org/1999/xlink" x="0px" y="0px"
	 viewBox="0 0 100 100" style="enable-background:new 0 0 100 100;" xml:space="preserve">
<style type="text/css">
	.st0{fill:#F3D1BB;stroke:#020203;stroke-miterlimit:10;}
	.st1{fill:#D54A30;stroke:#020203;stroke-miterlimit:10;}
	.st2{fill:#D68A95;stroke:#020203;stroke-miterlimit:10;}
	.st3{fill:#E73A30;stroke:#020203;stroke-miterlimit:10;}
	.st4{fill:none;stroke:#020203;stroke-miterlimit:10;}
	.st5{fill:#946137;stroke:#020203;stroke-miterlimit:10;}
</style>
<path class="st0" d="M55.8,69.1l-16.8-1.2c-9.6-0.8-16.8-10.4-16.2-21.5V46c0.6-11.4,8.7-20,18.2-19.5l16.7,1.2
	C67,28.4,74.4,38,73.8,49.2v0.5C73.2,61,65.1,69.6,55.8,69.1z"/>
<path class="st1" d="M44.2,11.6c0,0-25.2,20.3-28.4,17.7s95.1,20.7,61.5,1.7S43.6,12.2,43.6,12.2"/>
<path class="st2" d="M73.6,103.8H26.5c-2,0-3.8-1.2-3.8-2.6V69.3c0-1.4,1.7-2.6,3.8-2.6h47.2c2,0,3.8,1.2,3.8,2.6v31.8
	C77.3,102.6,75.6,103.8,73.6,103.8z"/>
<path class="st3" d="M56.1,40.1c0,0,12.2,0,9.9,2.9c-2,2.9-2,2.9-2,2.9L56.1,40.1z"/>
<path class="st4" d="M68.2,60.4c0,0-9.5,3.2-10.5-5.3"/>
<path class="st5" d="M39.1,18.8c5,4.8,23.4,9.6,23.4,9.6"/>
<path class="st4" d="M36.8,25.7c0,0,18.3,8.1,25.4,7.4"/>
<polygon class="st2" points="54.9,102.5 43.9,102.4 41.3,78.6 52.3,78.7 "/>
</svg>
