<?xml version="1.0" encoding="utf-8"?>
<!-- Generator: Adobe Illustrator 27.3.1, SVG Export Plug-In . SVG Version: 6.00 Build 0)  -->
<svg version="1.1" id="Calque_1" xmlns="http://www.w3.org/2000/svg" xmlns:xlink="http://www.w3.org/1999/xlink" x="0px" y="0px"
	 viewBox="0 0 50 50" style="enable-background:new 0 0 50 50;" xml:space="preserve">
<style type="text/css">
	.st0{fill:#9D9D9C;}
	.st1{fill:#9D9D9C;stroke:#000000;stroke-miterlimit:10;}
	.st2{fill:#858584;}
	.st3{fill:#AEAEAE;}
	.st4{fill:#98838E;}
	.st5{fill:#8F8D77;}
</style>
<rect class="st0" width="50" height="50"/>
<path class="st1" d="M59.2,5"/>
<path class="st2" d="M8.3,9.7c0,0,6.8-2.2,5.9,1.2s-0.4,7.2-2.9,5.8c-2.5-1.5-4.7-4-3.9-5.5S8.3,9.7,8.3,9.7z"/>
<path class="st2" d="M27.2,42.4c0,0-3.1-5.6-4.7-2.6s-4.5,5.6-1.9,6s5.8-0.2,6.2-1.8C27.2,42.4,27.2,42.4,27.2,42.4z"/>
<path class="st3" d="M37.5,7.4c0,0,1.7,6.5-2.9,6.8c-4.7,0.4,3.7,2.7,3.7,2.7s7.4-5.6,3.3-7.6S37.5,7.4,37.5,7.4z"/>
<path class="st4" d="M15.3,25c0,0-9.2,3.7-8,4.7c1.2,1,4.5,3.7,4,5.6s5.5,1.7,5.3-1.2S15.3,25,15.3,25z"/>
<path class="st5" d="M37.3,25.7c0,0-9.2,1.2-6.3,2.6s4,6,4,6s7.4-2.4,5-4.3S37.3,25.7,37.3,25.7z"/>
<g>
</g>
<g>
</g>
<g>
</g>
<g>
</g>
<g>
</g>
<g>
</g>
</svg>
