<?xml version="1.0" encoding="utf-8"?>
<!-- Generator: Adobe Illustrator 27.3.1, SVG Export Plug-In . SVG Version: 6.00 Build 0)  -->
<svg version="1.1" id="Calque_1" xmlns="http://www.w3.org/2000/svg" xmlns:xlink="http://www.w3.org/1999/xlink" x="0px" y="0px"
	 viewBox="0 0 50 40" style="enable-background:new 0 0 50 40;" xml:space="preserve">
<style type="text/css">
	.st0{fill:#F39200;stroke:#000000;stroke-miterlimit:10;}
	.st1{fill:#E94E1B;stroke:#000000;stroke-miterlimit:10;}
	.st2{fill:#EE7184;stroke:#000000;stroke-miterlimit:10;}
	.st3{stroke:#000000;stroke-miterlimit:10;}
	.st4{fill:#FCEA10;stroke:#000000;stroke-miterlimit:10;}
	.st5{fill:#FFFFFF;stroke:#000000;stroke-miterlimit:10;}
</style>
<path class="st0" d="M47.4,30.7C41,42,7.8,41.3,2.3,30.6c-4.1-8,7-22.2,10.2-21.6c1.7,0.4,1.6,4.8,2.9,4.8c2,0,2.6-12.5,5.3-12.7
	c3.1-0.3,5.7,13.5,9.7,13.3c2.9-0.1,3.2-7.2,6.1-7.5C41.2,6.2,52.4,21.9,47.4,30.7z"/>
<path class="st1" d="M5.2,30.3c-2.9-3-1.1-9.2,1.1-12.9c0.7-1.1,2.2-3.7,3.8-3.5c1.4,0.2,1.6,2.2,3.5,2.6c1.4,0.3,2.8-0.6,3.2-1
	c1.4-1,2.6-2.8,2.6-4.6c0-1.7-1-2.3-0.7-4.1c0.2-1,0.8-2.2,1.2-2.2c0.7,0,0.7,2.1,2.4,4.8c0.6,1,0.7,0.8,1.8,2.4
	c2.3,3.1,2.1,3.7,3.2,4.6c0.3,0.2,2.4,1.6,4.6,0.9s3-3.2,3.1-3.2c0.5-1.6-0.2-2.7,0.4-3.1c1-0.7,3.6,1.7,3.9,2.1
	c1,0.9,1.5,1.6,1.9,2.1c1,1.4,1.4,2.8,2.3,5.3c0.6,1.7,0.8,2.7,0.9,3.7c0,0.7,0.1,1.2-0.1,2.1c-0.1,0.6-0.5,1.8-2,3.2
	c-1.5,1.6-3.4,2.4-7.1,4c-1.7,0.8-2.7,1.1-3.3,1.2c-2.4,0.6-3.2-0.1-6.6,0.2c-2.3,0.2-2.3,0.5-4.1,0.4c-1.8,0-3.3-0.3-4.5-0.6
	c-1.5-0.5-1.3-0.7-3.4-1.4c-3-1-3.8-0.7-6-1.7C6.4,31.2,5.8,30.9,5.2,30.3z"/>
<path class="st2" d="M27.3,22.8c0.6-1.3,1.9-2.3,3.3-2.4c1.2-0.1,2.1,0.6,3.3,1.4c1.1,0.8,2.3,1.6,2.2,2.8c-0.1,0.7-0.6,1.1-1.4,1.7
	c-0.9,0.7-1.7,1.4-3.2,1.5c-1.3,0.1-3.2-0.4-4-1.7c-0.2-0.2-0.6-1-0.6-1.9C27,23.5,27.2,23,27.3,22.8z"/>
<path class="st3" d="M29.9,23.5c0.4-0.2,1-0.1,1.1,0.3c0.2,0.4,0,0.8-0.1,1c0,0.1-0.3,0.8-0.8,0.8s-0.8-0.7-0.8-1.2
	C29.6,24.2,29.6,23.7,29.9,23.5z"/>
<g>
	<path class="st4" d="M11.3,23.9c-0.3-2.2,2.1-3.7,2.3-3.8c2.2-1.3,5.7-1.1,7,1.3c0.7,1.2,0.7,3.1-0.1,4.3c-1.3,2.2-4.4,2-6,1.3
		C14,26.9,11.5,26,11.3,23.9z"/>
	<path class="st3" d="M17.6,23.1c0.4-0.3,1.1-0.1,1.2,0.3c0.2,0.4,0,0.9-0.1,1.1c0,0.1-0.4,0.8-0.8,0.8c-0.5,0-0.9-0.8-0.8-1.3
		C17.1,23.8,17.2,23.3,17.6,23.1z"/>
</g>
<path class="st5" d="M19.5,29.3c-0.4,0.7,0.7,2,1.8,2.6c2.2,1.1,5-0.6,5-1.3C26.2,29.3,20.2,28.1,19.5,29.3z"/>
</svg>
