<?xml version="1.0" encoding="utf-8"?>
<!-- Generator: Adobe Illustrator 27.3.1, SVG Export Plug-In . SVG Version: 6.00 Build 0)  -->
<svg version="1.1" id="Calque_1" xmlns="http://www.w3.org/2000/svg" xmlns:xlink="http://www.w3.org/1999/xlink" x="0px" y="0px"
	 viewBox="0 0 41 90" style="enable-background:new 0 0 41 90;" xml:space="preserve">
<style type="text/css">
	.st0{fill:#0EA038;stroke:#030304;stroke-miterlimit:10;}
	.st1{fill:#EB5885;stroke:#030304;stroke-miterlimit:10;}
	.st2{fill:#020203;stroke:#030304;stroke-miterlimit:10;}
	.st3{fill:#C5B084;stroke:#030405;stroke-miterlimit:10;}
	.st4{fill:#4D5B65;stroke:#030405;stroke-miterlimit:10;}
</style>
<path class="st0" d="M37.5,16c0.2-7.8-4.1-13.8-10.9-14.8L15.9,0.7C9.6,1,4.7,6.7,4.5,14.7l0,0.3c-0.1,6.3,3,11.9,7.6,13.9v9.5h17.8
	v-8.6c1.6-0.5,3-1.7,4.2-3.7c0.3-0.4-5.6-5.9-5.3-6.4c0.3-0.5,8.1,1.1,8.3,0.5c0.5-1.7,0.4-2,0.5-4L37.5,16z"/>
<path class="st0" d="M32.7,84.2v-6.5H21.8V84v3.4v1.9h13.7c0.6,0,1.2-0.5,1.2-1.2v-1.3c0-0.7-0.5-1.2-1.2-1.2L32.7,84.2z"/>
<path class="st0" d="M19.2,84.1v-5.8H8.3V84v3.4v1.9h13.7c0.7,0,1.2-0.6,1.2-1.2V87c0-0.7-0.6-1.2-1.2-1.2L19.2,84.1z"/>
<path class="st1" d="M21.3,11.1c-0.3-2.3,2.2-3.9,2.4-4c2.3-1.4,6-1.2,7.4,1.4c0.7,1.3,0.7,3.3-0.1,4.5c-1.4,2.3-4.6,2.1-6.3,1.4
	C24.1,14.3,21.5,13.4,21.3,11.1z"/>
<path class="st2" d="M27.9,10.3c0.4-0.3,1.2-0.1,1.3,0.3c0.2,0.4,0,0.9-0.1,1.2c0,0.1-0.4,0.8-0.8,0.8c-0.5,0-0.9-0.8-0.8-1.4
	C27.4,11,27.5,10.5,27.9,10.3z"/>
<path class="st3" d="M38.5,30.9l-7-2.5c-0.2-0.1-0.4-0.1-0.5-0.1l-3,0.7l-7.7,3.4l-6.7-4H9.1c-0.2,0,0.2-0.1,0,0l-6.6,2.8
	c-0.6,0.3-1.1,0.9-1.1,1.7v40.8c0,0,6,4.6,6.4,4.8s26.3-0.6,26.3-0.6s6-0.2,6-1.1l-0.5-44.4C39.4,31.6,39.1,31.1,38.5,30.9z"/>
<polygon class="st4" points="23.7,69.9 15.5,69.8 13.6,38.9 21.8,39 "/>
<polygon class="st0" points="15,61.6 23.2,61.5 23.7,69.9 15.5,69.8 "/>
</svg>
