<?xml version="1.0" encoding="utf-8"?>
<!-- Generator: Adobe Illustrator 27.3.1, SVG Export Plug-In . SVG Version: 6.00 Build 0)  -->
<svg version="1.1" id="Calque_1" xmlns="http://www.w3.org/2000/svg" xmlns:xlink="http://www.w3.org/1999/xlink" x="0px" y="0px"
	 viewBox="0 0 150 300" style="enable-background:new 0 0 150 300;" xml:space="preserve">
<style type="text/css">
	.st0{fill:#84A982;stroke:#020203;stroke-width:3;stroke-miterlimit:10;}
	.st1{fill:#FFD700;stroke:#020203;stroke-width:3;stroke-miterlimit:10;}
	.st2{fill:#944700;stroke:#020203;stroke-width:3;stroke-miterlimit:10;}
	.st3{fill:#FEC902;stroke:#020203;stroke-width:3;stroke-miterlimit:10;}
	.st4{fill:#FF2F24;stroke:#020203;stroke-width:3;stroke-miterlimit:10;}
	.st5{fill:none;stroke:#020203;stroke-width:3;stroke-miterlimit:10;}
	.st6{fill:#946137;stroke:#020203;stroke-width:3;stroke-miterlimit:10;}
</style>
<rect x="79.5" y="269.2" class="st0" width="36" height="23.9"/>
<polygon class="st1" points="79.5,282.7 114.8,282.7 114.8,288 128.6,288 128.6,299.5 79.5,299.5 "/>
<rect x="34.8" y="269.2" class="st0" width="36" height="23.9"/>
<path class="st2" d="M87.9,129.3l-37.7-2.7c-21.5-1.7-37.7-23.2-36.3-48.1v-1C15.3,52,33.4,32.8,54.6,33.8l37.3,2.7
	c21.2,1.7,37.7,23.2,36.3,48.1v1C126.9,111.2,108.7,130.3,87.9,129.3z"/>
<path class="st3" d="M62,0.5c0,0-56.5,45.4-63.6,39.7S211.3,86.6,136,43.9s-75.3-42-75.3-42"/>
<path class="st0" d="M127.9,267.9H22.3c-4.4,0-8.4-4.7-8.4-10.1V134c0-5.4,3.7-10.1,8.4-10.1h105.6c4.4,0,8.4,4.7,8.4,10.1v123.4
	C136,263.2,132.3,267.9,127.9,267.9z"/>
<path class="st4" d="M88.6,64.4c0,0,27.2,0,22.2,6.4c-4.4,6.4-4.4,6.4-4.4,6.4L88.6,64.4z"/>
<path class="st5" d="M115.8,109.8c0,0-21.2,7.1-23.5-11.8"/>
<path class="st6" d="M50.6,16.7C61.7,27.4,103,38.2,103,38.2"/>
<path class="st6" d="M45.5,32.1c0,0,41,18.2,56.8,16.5"/>
<polygon class="st0" points="85.9,243 61.3,242.6 55.6,150.5 80.2,150.8 "/>
<polygon class="st2" points="59.6,218.1 84.2,217.8 85.9,243 61.3,242.6 "/>
<polygon class="st1" points="34.8,282.7 70.1,282.7 70.1,288 84.2,288 84.2,299.5 34.8,299.5 "/>
</svg>
