<?xml version="1.0" encoding="utf-8"?>
<!-- Generator: Adobe Illustrator 27.3.1, SVG Export Plug-In . SVG Version: 6.00 Build 0)  -->
<svg version="1.1" id="Calque_1" xmlns="http://www.w3.org/2000/svg" xmlns:xlink="http://www.w3.org/1999/xlink" x="0px" y="0px"
	 viewBox="0 0 90 90" style="enable-background:new 0 0 90 90;" xml:space="preserve">
<style type="text/css">
	.st0{fill:#EC7843;stroke:#000000;stroke-width:0.75;stroke-miterlimit:10;}
	.st1{fill:#FFFFFF;stroke:#000000;stroke-width:0.75;stroke-miterlimit:10;}
	.st2{stroke:#000000;stroke-width:0.75;stroke-miterlimit:10;}
	.st3{fill:#FFFFFF;}
	.st4{fill:none;stroke:#221100;stroke-width:0.75;stroke-miterlimit:10;}
</style>
<polygon class="st0" points="45.8,86 57,83.6 56.5,80.9 54.8,79.9 46.3,82.1 "/>
<polygon class="st0" points="28.9,79.6 39.8,77.2 38.5,73.8 29.5,76 "/>
<polygon class="st1" points="45.5,70.7 80.6,62.4 80.6,43.7 70.3,46.1 70.1,16.2 45.5,22.4 "/>
<polygon class="st1" points="45.5,70.7 27.8,64.5 27.8,16.2 45.5,22.4 "/>
<polygon class="st1" points="45.5,22.4 70.1,16.2 52.2,9.7 27.8,16.2 "/>
<polygon class="st0" points="43.9,19.7 59.4,15.4 59.4,5.5 43.9,10.3 "/>
<polygon class="st0" points="43.9,10.3 37.9,6.9 37.9,17 43.9,19.7 "/>
<polygon class="st0" points="43.9,10.3 59.4,5.5 53.4,2.1 37.9,6.9 "/>
<polygon class="st0" points="41.4,46 33,48.2 33,38.6 28.6,39.8 28.6,30.4 41.4,27 "/>
<polygon class="st0" points="33,48.2 26.1,45.6 26.1,38.5 28.6,39.8 33,38.6 "/>
<polygon class="st0" points="28.6,39.8 21.9,36.5 21.9,27 28.6,30.4 "/>
<polygon class="st0" points="35.1,24.2 21.9,27 28.6,30.4 41.4,27 "/>
<polygon class="st1" points="63,56.4 66.9,63.3 77.9,54.6 73.8,47.5 "/>
<polygon class="st1" points="73.8,47.5 69.7,47.5 58.4,56.9 63,56.4 "/>
<polygon class="st1" points="63,56.4 58.4,56.9 62.4,63.8 66.9,63.3 "/>
<polygon class="st2" points="50,26.5 50,38.5 58.4,36.6 58.4,24.6 "/>
<polygon class="st0" points="71.5,79.9 52.1,84.4 50.4,83.1 56.5,80.9 54.8,79.9 46.3,82.1 42.6,80.9 62.1,75.8 "/>
<polygon class="st0" points="54.8,73.8 36.6,78.7 34,77.3 39.6,75.8 38.5,73.8 29.5,75.8 27.5,75.1 43.3,70.6 45.4,71.3 47.4,71.1 
	"/>
<polygon class="st0" points="71.5,79.9 71.5,84.4 53,88.3 52.1,84.4 "/>
<polygon class="st0" points="54.8,73.8 54.8,77.7 36.6,82.6 36.6,78.7 "/>
<polygon class="st0" points="33.8,77.6 34,81.4 36.6,82.6 36.6,78.7 "/>
<polygon class="st0" points="29.5,76 28.9,79.6 26.4,78.5 27.2,75.3 "/>
<polygon class="st0" points="52.1,84.4 53,88.3 49.3,87.2 50.2,83.3 "/>
<polygon class="st0" points="46.3,82.1 45.8,86 42.6,85.5 42.9,81.2 "/>
<polygon class="st0" points="65.1,66.5 65.1,79.2 61.3,79.9 61.3,67.4 "/>
<polygon class="st0" points="61.3,79.9 58.2,78.7 58.2,68.2 61.3,67.4 "/>
<polygon class="st0" points="49.3,70.3 49.3,73.2 45.5,73.8 45.5,71.1 "/>
<polygon class="st0" points="45.5,73.8 41.7,73.2 41.7,69.9 45.5,71.1 "/>
<polygon class="st1" points="80.6,43.7 70.3,37.8 70.3,46.1 "/>
<polygon class="st3" points="53.8,32.7 51.2,33.1 51.6,36.7 54.2,36.2 "/>
<path class="st4" d="M9.3,59.8l-3.5-5.5c0,0,2.2-2.2,3.5-0.2c1.3,2-1.6,2.7-1.6,2.7"/>
<line class="st4" x1="10.7" y1="52" x2="13.8" y2="57.8"/>
<path class="st4" d="M17.8,52.9c0,0-1-2.9-2.9-2.2c-2.3,0.8-1,3.2-1,3.2s1.5,3.7,3.2,2.9C19.3,55.9,17.8,52.9,17.8,52.9z"/>
<path class="st4" d="M18.4,49.5c0,0,2,5.6,4.4,4.5c2.4-1.1-0.6-5.8-0.6-5.8"/>
</svg>
