<?xml version="1.0" encoding="utf-8"?>
<!-- Generator: Adobe Illustrator 27.3.1, SVG Export Plug-In . SVG Version: 6.00 Build 0)  -->
<svg version="1.1" id="Calque_1" xmlns="http://www.w3.org/2000/svg" xmlns:xlink="http://www.w3.org/1999/xlink" x="0px" y="0px"
	 viewBox="0 0 50 50" style="enable-background:new 0 0 50 50;" xml:space="preserve">
<style type="text/css">
	.st0{fill:#805127;}
	.st1{fill:#955522;}
	.st2{fill:none;stroke:#724C2A;stroke-width:4;stroke-miterlimit:10;}
	.st3{fill:#7E6D5B;}
	.st4{fill:none;stroke:#AB6934;stroke-width:2;stroke-miterlimit:10;}
	.st5{fill:none;stroke:#432918;stroke-width:0.5;stroke-miterlimit:10;}
	.st6{fill:url(#SVGID_1_);stroke:#432918;stroke-width:0.5;stroke-miterlimit:10;}
	.st7{fill:#66440F;stroke:#432918;stroke-width:0.5;stroke-miterlimit:10;}
	.st8{fill:#894D14;stroke:#432918;stroke-width:0.5;stroke-miterlimit:10;}
	.st9{fill:#937314;stroke:#432918;stroke-width:0.5;stroke-miterlimit:10;}
	.st10{fill:#A05716;stroke:#634E42;stroke-width:0.5;stroke-miterlimit:10;}
	.st11{fill:#42AC3A;stroke:#432918;stroke-width:0.5;stroke-miterlimit:10;}
	.st12{fill:url(#SVGID_00000007416915753212258090000008924116459514986405_);stroke:#432918;stroke-miterlimit:10;}
	.st13{fill:url(#SVGID_00000013195421812389716670000004257869155730833547_);stroke:#432918;stroke-miterlimit:10;}
	.st14{fill:#683C11;stroke:#432918;stroke-miterlimit:10;}
	.st15{fill:#42AC3A;}
	.st16{fill:none;stroke:#432918;stroke-miterlimit:10;}
</style>
<rect x="-38.6" y="14.2" class="st0" width="32.6" height="32.6"/>
<path class="st1" d="M-18.8,20.1c0,0,0.4,11,2.7,7.5C-13.9,24.3-18.3,18.6-18.8,20.1z"/>
<path class="st2" d="M-21,23.7c-2.6,1.5-10.6,2.2-11.5,4.6c-0.9,2.2-3.7,2.9-2.7,4.6"/>
<path class="st1" d="M-20.1,44c0,0,11.7-4,11.2,0.7"/>
<polygon class="st3" points="-20.6,30.3 -23.6,29.6 -25,30.8 -22.3,32.5 -19.6,31.6 "/>
<polygon class="st3" points="-29.8,44.6 -31.6,40.9 -33.5,43.1 -31.6,44.6 "/>
<polygon class="st3" points="-8.9,23 -12.1,23 -11.5,25.9 -8.9,25.9 "/>
<path class="st4" d="M-33.5,38.3c0,0-0.4-1.3,9.5,0.9c8.4,1.8,5.1-2.9,9.1-7.5c2.7-2.9,6.2,1.6,6.2,1.6"/>
<line class="st5" x1="-35.9" y1="8.2" x2="-34.2" y2="7.3"/>
<line class="st5" x1="-10.1" y1="7.9" x2="-8.2" y2="8.1"/>
<linearGradient id="SVGID_1_" gradientUnits="userSpaceOnUse" x1="-21.3744" y1="57.1516" x2="-21.6275" y2="43.8092" gradientTransform="matrix(1 0 0 -1 0 52)">
	<stop  offset="0" style="stop-color:#C1880E"/>
	<stop  offset="1" style="stop-color:#5E4214"/>
</linearGradient>
<path class="st6" d="M-34.9,8.4c0,0,2.3-10.3,2.1-15.4c2.8,0.8,12.3,2.2,21.7,0c0,0,0.2,15.6,2.4,15.5c0.1,0,0.2-0.1,0.3-0.1"/>
<path class="st7" d="M-25.6-1.9c0,0-3.5-0.5-3.3,2.4c0,0-0.3,3,2.8,2.4c0,0,2.7-0.2,2.3-2.4C-23.8,0.6-23.4-2.2-25.6-1.9z"/>
<path class="st8" d="M-33.9,8.4c0,0,2.4-6.9,2-7.6"/>
<path class="st8" d="M-10.7,8.7c0,0-1.6-5.2-1.8-7.2"/>
<path class="st9" d="M-31.9-7.1c0,0,14.3-0.6,19.6-0.1C-12.3-7.2-24.3-3.9-31.9-7.1z"/>
<path class="st10" d="M-26.8-9.7"/>
<path class="st5" d="M-28.3,3.6c0,0,3.5,1.1,5.1-1.2"/>
<polyline class="st11" points="-35.3,8.3 -29.4,7.5 -27.1,8 -24.4,7.2 -20.5,7.9 -18.4,7.4 -15.7,7.7 -13.9,7.8 -11.9,7.5 -8.5,8.3 
	"/>
<linearGradient id="SVGID_00000157273144120264271730000010031078894356006016_" gradientUnits="userSpaceOnUse" x1="24.5003" y1="5.7624" x2="23.7381" y2="50.5784">
	<stop  offset="0" style="stop-color:#C1880E"/>
	<stop  offset="1" style="stop-color:#5E4214"/>
</linearGradient>
<polygon style="fill:url(#SVGID_00000157273144120264271730000010031078894356006016_);stroke:#432918;stroke-miterlimit:10;" points="
	19,50 19,39.1 19.9,37 19,35.2 19,6.8 21.4,6.8 22.3,8.2 23.9,6.8 28.7,6.8 28.7,37.2 29.3,40.5 28.7,42.7 28.7,50 "/>
<linearGradient id="SVGID_00000137810302712143444480000017637818829363464362_" gradientUnits="userSpaceOnUse" x1="24.892" y1="7.7049" x2="24.237" y2="45.5339" gradientTransform="matrix(0.9998 2.090431e-02 -2.090431e-02 0.9998 0.4197 -0.5183)">
	<stop  offset="0" style="stop-color:#C1880E"/>
	<stop  offset="1" style="stop-color:#5E4214"/>
</linearGradient>
<path style="fill:url(#SVGID_00000137810302712143444480000017637818829363464362_);stroke:#432918;stroke-miterlimit:10;" d="
	M5.5,9.9l37.7-0.7c0.4,0,0.7,0.3,0.7,0.7l-0.3,6.9l-1.8,2.9l2,1.2l0.7,8.4c0,0.4-0.3,0.7-0.7,0.7l-35,0.8c-0.5,0-0.9-0.5-0.7-1l0,0
	c0.1-0.4-0.1-0.8-0.4-0.9l-2.1-0.7c-0.3-0.1-0.5-0.4-0.5-0.7L4.8,10.7C4.8,10.3,5.1,9.9,5.5,9.9z"/>
<polygon class="st14" points="14.9,17.9 15.2,23.1 21.4,22.9 22,22.3 22.6,22.8 27.3,22.6 27.3,24.8 33.7,20.3 27,15.5 27.3,17.7 
	18.2,17.8 17.5,18.5 16.8,17.8 "/>
<path class="st15" d="M12.8,50c0,0-0.2-5-0.8-4.1c0,0,2-0.5,2.4,1.7L15,50l2.5-5.2c0,0,0.3,2.7,0,4C17.2,50,17.2,50,17.2,50l2.7-5.3
	l1.4,5.2l2.5-1.9l1.3,1.9c0,0,2.1-3.3,2.3-2.7s1.2,2.7,1.2,2.7s1.8-6.6,2.3-4.7s0.7,4.7,0.7,4.7l2.3-0.9l1,0.9L12.8,50z"/>
<polyline class="st16" points="4.9,13.3 6.5,15.5 9.3,14.2 "/>
<polyline class="st16" points="38.6,30.2 35.9,28.3 34.6,28.8 33.7,27.8 "/>
<g>
</g>
<g>
</g>
<g>
</g>
<g>
</g>
<g>
</g>
<g>
</g>
</svg>
