<?xml version="1.0" encoding="utf-8"?>
<!-- Generator: Adobe Illustrator 27.3.1, SVG Export Plug-In . SVG Version: 6.00 Build 0)  -->
<svg version="1.1" id="Calque_1" xmlns="http://www.w3.org/2000/svg" xmlns:xlink="http://www.w3.org/1999/xlink" x="0px" y="0px"
	 viewBox="0 0 1000 500" style="enable-background:new 0 0 1000 500;" xml:space="preserve">
<style type="text/css">
	.st0{fill:url(#SVGID_1_);stroke:#432918;stroke-width:8;stroke-miterlimit:10;}
	.st1{fill:none;stroke:#432918;stroke-width:8;stroke-miterlimit:10;}
	.st2{fill:none;stroke:#432918;stroke-width:11;stroke-miterlimit:10;}
</style>
<linearGradient id="SVGID_1_" gradientUnits="userSpaceOnUse" x1="506.9552" y1="4.2187" x2="493.6082" y2="521.1311">
	<stop  offset="0" style="stop-color:#C1880E"/>
	<stop  offset="1" style="stop-color:#5E4214"/>
</linearGradient>
<path class="st0" d="M892.4,492.5H108.8c-54.3,0-98.3-38.6-98.3-86.3V290.9l34.8-32.5L10.5,220V94c0-20.9,8.5-40.2,22.6-55.1
	c1.7-1.8,45.8,7.8,45.8,7.8s-11.5-31-10.5-31.4c0,0,26-7.6,40.3-7.6h783.7c54.3,0,98.3,38.6,98.3,86.3v251L955,391.3l35.8,14.9
	C990.7,453.9,946.7,492.5,892.4,492.5z"/>
<polyline class="st1" points="990.7,209.1 925.8,179.6 873.1,216.1 849.5,179.3 "/>
<polyline class="st1" points="157.5,492.5 179.9,446.5 240.5,461.2 267.4,438.6 "/>
<path class="st2" d="M364.7,94.5l-12.1-54.2c0,0,51-5.9,39.8,10.8S365.6,62,365.6,62"/>
<polyline class="st2" points="413.5,94.5 418.3,75.4 427.4,39.4 453.3,94.5 "/>
<line class="st2" x1="437.8" y1="74.8" x2="423.9" y2="74.8"/>
<path class="st2" d="M477.6,26.6c0,0-3.6,64,17.2,60.1c20.8-3.9,26-26.6,20.8-55.2"/>
<path class="st2" d="M582.7,39.9c0,0-34.6-17.7-35.5,0s8.7,28.1,17.7,34.5c9.9,7.1,15.2,27.7-24.7,17.3"/>
<polyline class="st2" points="640.2,92.1 605.6,94.5 605.6,63.3 605.6,32 640.2,32 "/>
<path class="st2" d="M630.7,67.7c0,0-21.6-9.5-25.1,0"/>
<g>
</g>
<g>
</g>
<g>
</g>
<g>
</g>
<g>
</g>
<g>
</g>
</svg>
