<?xml version="1.0" encoding="utf-8"?>
<!-- Generator: Adobe Illustrator 27.3.1, SVG Export Plug-In . SVG Version: 6.00 Build 0)  -->
<svg version="1.1" id="Calque_1" xmlns="http://www.w3.org/2000/svg" xmlns:xlink="http://www.w3.org/1999/xlink" x="0px" y="0px"
	 viewBox="0 0 90 90" style="enable-background:new 0 0 90 90;" xml:space="preserve">
<style type="text/css">
	.st0{fill:#FBBC25;stroke:#1D1D1B;stroke-width:2;stroke-miterlimit:10;}
	.st1{fill:#1D1D1B;stroke:#1D1D1B;stroke-width:2;stroke-miterlimit:10;}
</style>
<path class="st0" d="M46.6,54.8l-6.2,19.9c0,0,11-0.1,11.7,5.4H34.4l-2.1-4.7L39,56.7c0,0-3.7,2.2-6.1-2.6
	c-2.1-4.3-13.9,15.7-13.9,15.7s-5.9,7.6-8.9,5.9c-3-1.7-4.8-5.1-4.8-5.1s3,0.6,6.2-0.3c3.3-0.9,5.5-6.5,15.4-20.8
	c0,0,4.4-21.7,29.6-27c0,0,11.6,0.4,13.1-4.7c0,0-3.7-6.5-1.9-7.7s6.4,4.9,6.4,4.9l10.2,5.6c0,0-3.7,5.7-7.1,5.2
	C77.4,25.8,55.9,50.4,46.6,54.8z"/>
<path class="st0" d="M64.5,35l8.8,8.5c0,0-1.6,4.5-5.7,5s-0.1-4.2-0.1-4.2l-6.7-8"/>
<ellipse class="st1" cx="74.4" cy="19.2" rx="0.9" ry="0.9"/>
</svg>
