<?xml version="1.0" encoding="utf-8"?>
<!-- Generator: Adobe Illustrator 27.3.1, SVG Export Plug-In . SVG Version: 6.00 Build 0)  -->
<svg version="1.1" id="Calque_1" xmlns="http://www.w3.org/2000/svg" xmlns:xlink="http://www.w3.org/1999/xlink" x="0px" y="0px"
	 viewBox="0 0 50 50" style="enable-background:new 0 0 50 50;" xml:space="preserve">
<style type="text/css">
	.st0{fill:#7E4F25;}
	.st1{fill:#935322;}
	.st2{fill:none;stroke:#714A28;stroke-width:4;stroke-miterlimit:10;}
	.st3{fill:#7C6B59;}
	.st4{fill:none;stroke:#A96734;stroke-width:2;stroke-miterlimit:10;}
	.st5{fill:#3AAA35;stroke:#000000;stroke-miterlimit:10;}
</style>
<rect class="st0" width="50" height="50"/>
<path class="st1" d="M30.3,9c0,0,0.7,16.7,4.1,11.5S31.1,6.6,30.3,9z"/>
<path class="st2" d="M27,14.5c-4,2.2-16.2,3.5-17.7,6.9S3.8,26,5.1,28.5"/>
<path class="st1" d="M28.4,45.7c0,0,18-6.2,17,1.1"/>
<polygon class="st3" points="27.4,24.5 23.1,23.5 20.7,25.4 25.1,28.1 29.3,26.7 "/>
<polygon class="st3" points="13.6,46.5 10.7,40.8 7.8,44.3 10.7,46.5 "/>
<polygon class="st3" points="45.4,13.3 40.7,13.3 41.5,17.8 45.4,17.8 "/>
<path class="st4" d="M7.8,37c0,0-0.6-2,14.7,1.4c12.9,2.9,7.8-4.6,14.1-11.6c4.1-4.6,9.5,2.4,9.5,2.4"/>
<g>
	<path class="st5" d="M46.4,8.5c1.3-0.8,2.8-1.6,4.2-2.2V0.2H-0.5V7c4.4-3.2,6.6,0.8,9.5,3c4.3,3,7.8-1.3,7.8-5.4
		C17.1,5.8,17.4,6.9,18,8l0.1-0.3c0.1-0.5,0.6-0.6,0.9-1.2c1,1,2,2,3.1,3c1.9-2.9,4.6-3.7,7.5-1.5l0.1,0c3.5-3.1,6.5-1.1,8.9,2.3
		c0.6-1.4,0.9-5.6,2.7-6.1c1.3-0.4,4.1,3.4,5.2,4.5"/>
</g>
</svg>
