<?xml version="1.0" encoding="utf-8"?>
<!-- Generator: Adobe Illustrator 27.3.1, SVG Export Plug-In . SVG Version: 6.00 Build 0)  -->
<svg version="1.1" id="Calque_1" xmlns="http://www.w3.org/2000/svg" xmlns:xlink="http://www.w3.org/1999/xlink" x="0px" y="0px"
	 viewBox="0 0 50 50" style="enable-background:new 0 0 50 50;" xml:space="preserve">
<style type="text/css">
	.st0{fill:none;stroke:#432918;stroke-width:0.5;stroke-miterlimit:10;}
	.st1{fill:url(#SVGID_1_);stroke:#432918;stroke-width:0.5;stroke-miterlimit:10;}
	.st2{fill:#66440F;stroke:#432918;stroke-width:0.5;stroke-miterlimit:10;}
	.st3{fill:#894D14;stroke:#432918;stroke-width:0.5;stroke-miterlimit:10;}
	.st4{fill:#937314;stroke:#432918;stroke-width:0.5;stroke-miterlimit:10;}
	.st5{fill:#A05716;stroke:#634E42;stroke-width:0.5;stroke-miterlimit:10;}
	.st6{fill:#42AC3A;stroke:#432918;stroke-width:0.5;stroke-miterlimit:10;}
	.st7{fill:url(#SVGID_00000140004282835912895150000013758591137776971419_);stroke:#432918;stroke-miterlimit:10;}
	.st8{fill:#350D04;}
</style>
<line class="st0" x1="-35.9" y1="8.2" x2="-34.2" y2="7.3"/>
<line class="st0" x1="-10.1" y1="7.9" x2="-8.2" y2="8.1"/>
<linearGradient id="SVGID_1_" gradientUnits="userSpaceOnUse" x1="-21.3929" y1="9.152" x2="-21.646" y2="-4.1904" gradientTransform="matrix(1 0 0 -1 0 4)">
	<stop  offset="0" style="stop-color:#C1880E"/>
	<stop  offset="1" style="stop-color:#5E4214"/>
</linearGradient>
<path class="st1" d="M-34.9,8.4c0,0,2.3-10.3,2.1-15.4c2.8,0.8,12.3,2.2,21.7,0c0,0,0.2,15.6,2.4,15.5c0.1,0,0.2-0.1,0.3-0.1"/>
<path class="st2" d="M-25.6-1.9c0,0-3.5-0.5-3.3,2.4c0,0-0.3,3,2.8,2.4c0,0,2.7-0.2,2.3-2.4C-23.8,0.6-23.4-2.2-25.6-1.9z"/>
<path class="st3" d="M-33.9,8.4c0,0,2.4-6.9,2-7.6"/>
<path class="st3" d="M-10.7,8.7c0,0-1.6-5.2-1.8-7.2"/>
<path class="st4" d="M-31.9-7.1c0,0,14.3-0.6,19.6-0.1C-12.3-7.2-24.3-3.9-31.9-7.1z"/>
<path class="st5" d="M-26.8-9.7"/>
<path class="st0" d="M-28.3,3.6c0,0,3.5,1.1,5.1-1.2"/>
<polyline class="st6" points="-35.3,8.3 -29.4,7.5 -27.1,8 -24.4,7.2 -20.5,7.9 -18.4,7.4 -15.7,7.7 -13.9,7.8 -11.9,7.5 -8.5,8.3 
	"/>
<linearGradient id="SVGID_00000013190372416043873280000007034369162813006494_" gradientUnits="userSpaceOnUse" x1="22.4953" y1="57.2165" x2="21.7931" y2="98.5061" gradientTransform="matrix(1 0 0 1 0 -48)">
	<stop  offset="0" style="stop-color:#C1880E"/>
	<stop  offset="1" style="stop-color:#5E4214"/>
</linearGradient>
<polygon style="fill:url(#SVGID_00000013190372416043873280000007034369162813006494_);stroke:#432918;stroke-miterlimit:10;" points="
	19,50 19,39.9 19.9,38 19,36.3 19,32.9 24.1,29.7 15.1,17.2 15.1,10.1 18.3,10.1 19.6,11.5 21,10.1 24.5,10.1 24.5,11.3 21.6,13.7 
	25,16.2 28.7,29.7 28.7,38.2 29.3,41.2 28.7,43.3 28.7,50 "/>
<path class="st8" d="M12.9,50.5c0,0-0.2-7.5-0.9-6.1c0,0,2.4-0.7,2.8,2.5l0.7,3.6l2.9-7.8c0,0,0.4,4,0,6c-0.4,1.8-0.4,1.8-0.4,1.8
	l3.2-7.9l1.6,7.8l2.9-2.8l1.5,2.8c0,0,2.5-4.9,2.7-4c0.2,0.9,1.4,4,1.4,4s2.1-9.9,2.7-7c0.6,2.8,0.8,7,0.8,7l2.7-1.3l1.2,1.3
	L12.9,50.5z"/>
</svg>
