<?xml version="1.0" encoding="utf-8"?>
<!-- Generator: Adobe Illustrator 27.3.1, SVG Export Plug-In . SVG Version: 6.00 Build 0)  -->
<svg version="1.1" id="Calque_1" xmlns="http://www.w3.org/2000/svg" xmlns:xlink="http://www.w3.org/1999/xlink" x="0px" y="0px"
	 viewBox="0 0 45 90" style="enable-background:new 0 0 45 90;" xml:space="preserve">
<style type="text/css">
	.st0{opacity:0.7;fill:#C74827;stroke:#020203;stroke-miterlimit:10;}
	.st1{opacity:0.7;fill:#946137;stroke:#020203;stroke-miterlimit:10;}
	.st2{opacity:0.7;fill:#E62F24;stroke:#020203;stroke-miterlimit:10;}
	.st3{opacity:0.7;fill:none;stroke:#020203;stroke-miterlimit:10;}
	.st4{opacity:0.7;}
	.st5{fill:#C74827;stroke:#020203;stroke-miterlimit:10;}
	.st6{fill:#F9B006;stroke:#020203;stroke-miterlimit:10;}
</style>
<rect x="24.3" y="74.9" class="st0" width="10.7" height="7.1"/>
<polygon class="st1" points="24.3,78.9 34.8,78.9 34.8,80.6 38.9,80.6 38.9,83.9 24.3,83.9 "/>
<rect x="10.9" y="78.5" class="st0" width="10.7" height="7.1"/>
<path class="st1" d="M15.8,3.9c0,0-13.7,16.6-16.1,15.4C-2.7,18.1,64.5,20,40,12.1S15.5,4.4,15.5,4.4"/>
<path class="st2" d="M24.9,20.3c0,0,8.1,0,6.6,1.9c-1.3,1.9-1.3,1.9-1.3,1.9L24.9,20.3z"/>
<path class="st3" d="M28.4,31.1c0,0-6.3,2.1-7-3.5"/>
<path class="st1" d="M13.5,9.3c3.9,2.5,16.6,3.1,16.6,3.1"/>
<path class="st1" d="M12.9,14.1c0,0,13,2.8,17.5,1.4"/>
<g class="st4">
	<polygon class="st5" points="1.1,33.5 6.8,29 25.3,49.3 19.6,53.8 	"/>
	<polygon class="st6" points="11.8,34.4 6.2,39 1.1,33.5 6.8,29 	"/>
</g>
<polygon class="st1" points="10.9,82.5 21.5,82.5 21.5,84.1 25.6,84.1 25.6,87.5 10.9,87.5 "/>
</svg>
