<?xml version="1.0" encoding="utf-8"?>
<!-- Generator: Adobe Illustrator 27.3.1, SVG Export Plug-In . SVG Version: 6.00 Build 0)  -->
<svg version="1.1" id="Calque_1" xmlns="http://www.w3.org/2000/svg" xmlns:xlink="http://www.w3.org/1999/xlink" x="0px" y="0px"
	 viewBox="0 0 150 300" style="enable-background:new 0 0 150 300;" xml:space="preserve">
<style type="text/css">
	.st0{fill:#6D181C;stroke:#020203;stroke-width:3;stroke-miterlimit:10;}
	.st1{fill:#D9BA8F;stroke:#020203;stroke-width:3;stroke-miterlimit:10;}
	.st2{fill:#91622E;stroke:#000000;stroke-width:3;stroke-miterlimit:10;}
	.st3{fill:#91622E;stroke:#010200;stroke-width:3;stroke-miterlimit:10;}
	.st4{fill:#39342F;}
	.st5{fill:#E2667C;stroke:#020203;stroke-width:3;stroke-miterlimit:10;}
	.st6{fill:none;stroke:#E1D300;stroke-width:4.5;stroke-miterlimit:10;}
	.st7{fill:#FFFFFF;}
</style>
<rect x="78.8" y="266.6" class="st0" width="37.8" height="25.1"/>
<polygon class="st1" points="78.8,280.8 115.9,280.8 115.9,286.4 130.4,286.4 130.4,298.4 78.8,298.4 "/>
<rect x="31.8" y="266.6" class="st0" width="37.8" height="25.1"/>
<path class="st0" d="M129.7,265.2h-111c-4.6,0-8.8-4.2-8.8-9V145.7c0-4.8,3.9-9,8.8-9h111c4.6,0,8.8,4.2,8.8,9v110.2
	C138.2,261,134.3,265.2,129.7,265.2z"/>
<g>
	<polygon class="st0" points="85.5,243.7 59.7,243.3 53.7,146.5 79.5,146.8 	"/>
	<polygon class="st2" points="57.9,217.5 83.7,217.2 85.5,243.7 59.7,243.3 	"/>
</g>
<polygon class="st1" points="31.8,280.8 68.9,280.8 68.9,286.4 83.7,286.4 83.7,298.4 31.8,298.4 "/>
<path class="st3" d="M21.5,135.3V67c0,0,14.5-40.1,54.2-40.1s51.4,35.6,51.4,35.6v72.8"/>
<ellipse class="st4" cx="107.1" cy="69.8" rx="4.7" ry="15.3"/>
<ellipse class="st5" cx="121.3" cy="103.5" rx="18.9" ry="10.6"/>
<path class="st6" d="M69.3,34.8c0,0-6.7-34.1-16.8-29.5"/>
<path class="st6" d="M75.4,34.8c0,0,0.1-32.3,4.2-33.2"/>
<path class="st6" d="M82.4,34.8c0,0,0.5-20.7,10-16.6"/>
<circle class="st7" cx="108" cy="63.1" r="2.7"/>
</svg>
