<?xml version="1.0" encoding="utf-8"?>
<!-- Generator: Adobe Illustrator 27.3.1, SVG Export Plug-In . SVG Version: 6.00 Build 0)  -->
<svg version="1.1" id="Calque_1" xmlns="http://www.w3.org/2000/svg" xmlns:xlink="http://www.w3.org/1999/xlink" x="0px" y="0px"
	 viewBox="0 0 90 90" style="enable-background:new 0 0 90 90;" xml:space="preserve">
<style type="text/css">
	.st0{fill:#F9B006;stroke:#020203;stroke-width:2;stroke-miterlimit:10;}
	.st1{fill:#E62F24;stroke:#020203;stroke-width:2;stroke-miterlimit:10;}
	.st2{fill:#946137;stroke:#020203;stroke-width:2;stroke-miterlimit:10;}
	.st3{fill:#63952F;stroke:#020203;stroke-width:2;stroke-miterlimit:10;}
	.st4{fill:none;stroke:#020203;stroke-width:2;stroke-miterlimit:10;}
	.st5{fill:#93C11F;stroke:#66A52A;stroke-width:2;stroke-miterlimit:10;}
	.st6{fill:#93C11F;stroke:#64A32A;stroke-width:2;stroke-miterlimit:10;}
</style>
<path class="st0" d="M50.4,70.7l-15-1.1c-8.6-0.7-15-9.3-14.5-19.2V50c0.5-10.2,7.8-17.9,16.2-17.4l14.9,1c8.5,0.7,15,9.3,14.5,19.2
	v0.4C66,63.4,58.7,71.1,50.4,70.7z"/>
<path class="st1" d="M50.7,47.4c0,0,13,0,10.6,2.8c-2,2.8-2,2.8-2,2.8L50.7,47.4z"/>
<path class="st0" d="M61.6,62.9c0,0-8.5,2.8-9.4-4.7"/>
<path class="st2" d="M39.3,17.8c0,0-26.4,21.2-29.7,18.6s99.6,21.7,64.4,1.7S38.6,18.4,38.6,18.4"/>
<path class="st2" d="M33.9,25.3c5.2,5,24.5,10.1,24.5,10.1"/>
<path class="st2" d="M31.6,32.5c0,0,19.2,8.5,26.6,7.7"/>
<polyline class="st3" points="64.7,69.8 70.1,82.9 78.5,80.1 74.1,69.9 "/>
<polyline class="st4" points="63.5,66.8 70.1,82.9 78.5,80.1 71.4,63.7 "/>
<line class="st5" x1="74.3" y1="59" x2="71.1" y2="61.6"/>
<line class="st6" x1="70.6" y1="55.9" x2="68.6" y2="59.5"/>
</svg>
