<?xml version="1.0" encoding="utf-8"?>
<!-- Generator: Adobe Illustrator 27.3.1, SVG Export Plug-In . SVG Version: 6.00 Build 0)  -->
<svg version="1.1" id="Calque_1" xmlns="http://www.w3.org/2000/svg" xmlns:xlink="http://www.w3.org/1999/xlink" x="0px" y="0px"
	 viewBox="0 0 90 90" style="enable-background:new 0 0 90 90;" xml:space="preserve">
<style type="text/css">
	.st0{fill:#F9B006;stroke:#020203;stroke-width:2;stroke-miterlimit:10;}
	.st1{fill:#E62F24;stroke:#020203;stroke-width:2;stroke-miterlimit:10;}
	.st2{fill:none;stroke:#020203;stroke-width:2;stroke-miterlimit:10;}
	.st3{fill:#946137;stroke:#020203;stroke-width:2;stroke-miterlimit:10;}
	.st4{fill:none;stroke:#20150D;stroke-width:2;stroke-miterlimit:10;}
	.st5{fill:#63952F;stroke:#020203;stroke-width:2;stroke-miterlimit:10;}
	.st6{fill:#FFE108;stroke:#030304;stroke-width:2;stroke-miterlimit:10;}
	.st7{fill:#7F4D12;stroke:#020203;stroke-width:2;stroke-miterlimit:10;}
	.st8{fill:#D288B9;stroke:#030304;stroke-width:2;stroke-miterlimit:10;}
	.st9{fill:#50B4E7;stroke:#030304;stroke-width:2;stroke-miterlimit:10;}
	.st10{fill:#E20D1D;stroke:#030304;stroke-width:2;stroke-miterlimit:10;}
	.st11{fill:#E52D17;stroke:#020203;stroke-width:2;stroke-miterlimit:10;}
</style>
<path class="st0" d="M-114.3,37.8l-12.7-0.9c-7.2-0.6-12.7-7.8-12.2-16.2v-0.3c0.5-8.6,6.6-15,13.7-14.7l12.5,0.9
	c7.1,0.6,12.7,7.8,12.2,16.2v0.3C-101.1,31.7-107.2,38.2-114.3,37.8z"/>
<path class="st1" d="M-115.9,20.8c0,0,10.1-7,9.6-3c-0.2,3.8-0.2,3.8-0.2,3.8L-115.9,20.8z"/>
<g>
	<line class="st2" x1="-81.8" y1="25.8" x2="-97.1" y2="25.8"/>
	<polyline class="st2" points="-91.2,21.6 -97.1,25.8 -92.1,30.1 	"/>
</g>
<g>
	<line class="st2" x1="-156.2" y1="24.5" x2="-142.5" y2="24.5"/>
	<polyline class="st2" points="-147.8,20.3 -142.5,24.5 -147,28.8 	"/>
</g>
<path class="st0" d="M-105.8,28.3c0,0-10.9-2.9-12,4.9"/>
<path class="st3" d="M-129.9-8.2c5.2,5,24.5,10.1,24.5,10.1"/>
<path class="st3" d="M-132.2-1c0,0,19.2,8.5,26.6,7.7"/>
<path class="st3" d="M-127-10.3c0,0-21.2,26.4-25,24.5c-3.8-1.8,101.9-0.2,63.3-12.2s-38.8-11.6-38.8-11.6"/>
<path class="st3" d="M-130.6-1.8c6.2,3.8,26.1,4.6,26.1,4.6"/>
<path class="st3" d="M-131.3,5.7c0,0,20.6,4.2,27.6,1.8"/>
<polyline class="st4" points="-87.3,36.3 -98.9,46.8 -94.7,52.7 -80,45 "/>
<polyline class="st5" points="-98.9,46.8 -98.9,46.8 -94.7,52.7 -86.8,48.6 "/>
<path class="st6" d="M74.3,53v-0.5c0.7-12.3-7.6-22.9-18.6-23.6l-18.9-1.3c-10.8-0.5-20.2,9-20.7,21.5v0.5
	c-0.9,12.3,7.4,22.9,18.4,23.6l19.1,1.3C64.4,75,73.6,65.5,74.3,53z"/>
<polyline class="st7" points="20.6,32.9 23.1,38.1 28.6,36 36.8,38.1 44.8,38.1 50,41.3 56,38.1 60.8,41.3 65.2,38.1 69.1,41.3 
	70,36 "/>
<path class="st8" d="M37.5,16.3c0,0,0,0,27.7,12.8s-49,3.1-46.3,5S38,15.6,38,15.6"/>
<path class="st9" d="M65.4,46.7c0,0,0,0,1.3,4.6c1.5,4.7-14.1-0.4-14.1-0.4L65.4,46.7z"/>
<path class="st10" d="M51.1,70C52.4,58,65,62.4,65,62.4"/>
<polyline class="st2" points="77.8,66.4 66.8,79.2 73.3,85.2 84,73.1 "/>
<polyline class="st11" points="66.8,79.2 68.6,80.9 73.3,85.2 78.5,79.2 "/>
<g>
	<line class="st2" x1="11" y1="52.6" x2="3.8" y2="52.6"/>
	<polyline class="st2" points="6.5,48.4 3.8,52.6 6.1,56.9 	"/>
</g>
<g>
	<line class="st2" x1="78.5" y1="53.2" x2="86.6" y2="53.2"/>
	<polyline class="st2" points="83.5,49 86.6,53.2 83.9,57.5 	"/>
</g>
</svg>
