<?xml version="1.0" encoding="utf-8"?>
<!-- Generator: Adobe Illustrator 27.3.1, SVG Export Plug-In . SVG Version: 6.00 Build 0)  -->
<svg version="1.1" id="Calque_1" xmlns="http://www.w3.org/2000/svg" xmlns:xlink="http://www.w3.org/1999/xlink" x="0px" y="0px"
	 viewBox="0 0 100 35" style="enable-background:new 0 0 100 35;" xml:space="preserve">
<style type="text/css">
	.st0{fill:#EB5C42;stroke:#000000;stroke-width:4;stroke-miterlimit:10;}
	.st1{fill:none;stroke:#000000;stroke-width:4;stroke-miterlimit:10;}
</style>
<path class="st0" d="M88.84,32.7H11.02c-4.74,0-8.59-3.84-8.59-8.59V10.89c0-4.74,3.84-8.59,8.59-8.59h77.82
	c4.74,0,8.59,3.84,8.59,8.59v13.22C97.42,28.85,93.58,32.7,88.84,32.7z"/>
<polyline class="st1" points="31.26,28.88 38.82,11.01 48.51,28.45 "/>
<line class="st1" x1="35.28" y1="22.56" x2="45.23" y2="22.56"/>
<path class="st1" d="M26.56,7.75c0,0-11.84-1.37-12.91,2.35c-1.4,4.83,5.87,9.18,5.87,9.18s16.14,10.19-7.04,7.94"/>
<polyline class="st1" points="50.42,7.54 59.03,25.29 67.93,7.54 "/>
<polyline class="st1" points="86.66,27.57 75.02,28.23 75.02,7.54 85.78,7.54 "/>
<line class="st1" x1="75.9" y1="17.5" x2="83.63" y2="17.56"/>
</svg>
