<?xml version="1.0" encoding="utf-8"?>
<!-- Generator: Adobe Illustrator 27.3.1, SVG Export Plug-In . SVG Version: 6.00 Build 0)  -->
<svg version="1.1" id="Calque_1" xmlns="http://www.w3.org/2000/svg" xmlns:xlink="http://www.w3.org/1999/xlink" x="0px" y="0px"
	 viewBox="0 0 100 35" style="enable-background:new 0 0 100 35;" xml:space="preserve">
<style type="text/css">
	.st0{fill:#4DC0DD;stroke:#000000;stroke-width:4;stroke-miterlimit:10;}
</style>
<path class="st0" d="M88.84,32.7H11.02c-4.74,0-8.59-3.84-8.59-8.59V10.89c0-4.74,3.84-8.59,8.59-8.59h77.82
	c4.74,0,8.59,3.84,8.59,8.59v13.22C97.42,28.85,93.58,32.7,88.84,32.7z"/>
<polyline class="st0" points="13.95,7.39 13.95,26.76 25.92,26.76 "/>
<path class="st0" d="M29.74,18.78c0-4.8,2.25-8.7,7.86-8.7s7.71,3.89,7.71,8.7s-2.1,8.7-7.71,8.7S29.74,23.58,29.74,18.78z"/>
<polyline class="st0" points="51.41,28.88 58.97,11.01 68.66,28.45 "/>
<line class="st0" x1="55.43" y1="22.56" x2="65.39" y2="22.56"/>
<path class="st0" d="M75.98,8.75v17.89c0,0,11.54,1.86,11.52-8.94C87.48,7.35,75.98,8.75,75.98,8.75z"/>
</svg>
