<?xml version="1.0" encoding="utf-8"?>
<!-- Generator: Adobe Illustrator 27.3.1, SVG Export Plug-In . SVG Version: 6.00 Build 0)  -->
<svg version="1.1" id="Calque_1" xmlns="http://www.w3.org/2000/svg" xmlns:xlink="http://www.w3.org/1999/xlink" x="0px" y="0px"
	 viewBox="0 0 50 60" style="enable-background:new 0 0 50 60;" xml:space="preserve">
<style type="text/css">
	.st0{fill:#EADA00;stroke:#000000;stroke-miterlimit:10;}
	.st1{fill:#D97321;stroke:#000000;stroke-miterlimit:10;}
	.st2{fill:#BF2918;stroke:#000000;stroke-miterlimit:10;}
	.st3{stroke:#000000;stroke-miterlimit:10;}
	.st4{fill:#E52620;stroke:#000000;stroke-miterlimit:10;}
	.st5{fill:#34A936;stroke:#000000;stroke-miterlimit:10;}
	.st6{fill:#1F5527;stroke:#000000;stroke-miterlimit:10;}
</style>
<g>
	<path class="st0" d="M10.1,15.8l0.6-5.3l2.6-4.3l4.4-3.3L20,2l3.2-1c0,0,2.1-0.1,2.4,0C26,1,27.9,2.3,28.2,2.2
		c0.3-0.2,2.2-0.7,2.4-0.8c0.2-0.1,2-0.7,2.3-0.7c0.3-0.1,2.1,0,2.1,0L35.9,2l2.3,1.3l2.1,1L40.9,5c0,0,0.6,1.3,0.6,1.6
		c0.1,0.2,0.9,2.3,1.1,2.5s0.6,0.6,0.7,1.2c0.1,0.6,0.4,2,0.4,2l0.7,1.9c0,0-0.2,1.1,0,1.4c0.2,0.4,0.3,1.1,0.3,1.1L10.1,15.8z"/>
	<line class="st0" x1="1.2" y1="15.8" x2="10.9" y2="15.8"/>
</g>
<path class="st1" d="M12,16.2l-1.9,4.4c0,0,1.3,2.5,1.9,2.9c0.6,0.4,3.9,4,3.9,4l4.7,1.6l2.9,0.5h3.3h4.2h1.2l2.6-0.5l1.2-0.4
	l0.7-0.6l0.6-0.8l0.3-0.5c0,0,0.7-0.7,1.1-1c0.3-0.3,1.3-0.8,1.6-1.2c0.2-0.4,0.5-1.1,0.7-1.4s0.4-0.7,0.5-1.1
	c0.1-0.4,0.2-0.6,0.4-1.1c0.1-0.5-0.1-0.6,0-1.1c0.1-0.5-0.2-1-0.2-1.4c-0.1-0.4-0.3-0.7-0.3-1.2c0-0.5-0.1-0.8-0.1-0.8L12,16.2z"/>
<path class="st2" d="M37.9,19.2l-5.4-0.5C32.5,18.7,37.5,23.1,37.9,19.2z"/>
<polyline class="st3" points="37.8,26.5 33.9,26.1 33.1,25.2 32.5,24.6 32.1,23.9 31.8,22.9 31.8,22.4 "/>
<path class="st4" d="M14.2,32.1l-5.1,6.4c0,0-3.3,7-3.3,7.6c-0.1,0.6,0,2.5,0,3.7c0,1.1,3.5,3.6,3.5,3.6l5,0.3c0,0,5.6-0.1,5.8,0
	c0.2,0.1,6.8,0,6.8,0l4.5,0.1l5.8-0.5l5.6-1.6l4-3.7l-2.1-5l-2.7-5.4l-2.4-3.4l-1.7-2.5L14.2,32.1z"/>
<g>
	<path class="st5" d="M6.3,35.9L9,35.5l4.4,0.4c0,0,4.3-0.3,5.2-0.2c0.8,0.1,5.4-0.1,5.7,0.2c0.3,0.3,2.9,1.1,2.9,1.1h4.3l2-0.4
		l5.1-0.4c0,0,2.2,0.1,2.5,0c0.4-0.1,4.2-0.4,4.2-0.4h1h0.9c0,0,0.9-0.1,1.3-0.4s0.6-0.6,0.9-1s0-1.5,0-1.5s-0.2-1.1-0.4-1.6
		s-0.5-2.1-0.5-2.1l-1-0.5l-0.9-0.2c-0.8-0.1-2-0.2-3.5-0.4c-2.6-0.4-3-0.5-4-0.4c-1.8,0.1-1.8,0.7-3.9,1c-1,0.1-1.3,0-3.5,0
		c-2.9-0.1-2.8,0.1-4.6,0c-2.5-0.1-2.7-0.3-6.1-0.6c-2.6-0.2-2.3,0-4.4-0.2c-1.8-0.2-2.6-0.3-6.2-0.8c-1.1-0.2-2.7-0.4-4.6-0.6
		L4.6,27"/>
	<path class="st6" d="M4.6,27l-2.8,1.5c0,0,0.1,1.3,0,1.6c-0.1,0.3-0.7,2-0.7,2.4S1.7,33.7,2,34c0.3,0.3,1.1,0.8,1.3,0.9
		c0.2,0.1,3,1,3,1s1.1-0.6,1.1-1.2s-0.6-2.7-0.6-2.7s-0.1-1-0.3-1.4c-0.1-0.4-0.7-1.1-1-1.8C5.2,28.2,4.6,27,4.6,27z"/>
</g>
<path class="st1" d="M16.2,37.5v-7.4c0,0,1.2-1.4,1.7,0s0,6.5,0,6.5l0.9,0.4l0.6-6.9c0,0,1.1-2.7,1.4-0.1s0,7.6,0,7.6h0.7l0.5-7
	c0,0,0.9-1.9,1.1-0.1c0.2,1.8,0,6.8,0,6.8l1.3,0.1v-6.8c0,0,1-2.9,1.3-0.5s0,7.5,0,7.5l3.4-2.9c0,0,1.7,0.8,0.8,1.9
	c-0.9,1.1-4.7,4-4.7,4s-6.3,5.5-8.9-0.3S16.2,37.5,16.2,37.5z"/>
<polyline class="st1" points="15.6,54.1 13.7,58.4 14.7,59.4 18.4,59.4 21.5,57.7 19.7,53.8 "/>
<polyline class="st1" points="32.8,54.1 30.9,58.4 31.8,59.4 35.6,59.4 38.7,57.7 36.9,53.8 "/>
</svg>
