<?xml version="1.0" encoding="utf-8"?>
<!-- Generator: Adobe Illustrator 27.3.1, SVG Export Plug-In . SVG Version: 6.00 Build 0)  -->
<svg version="1.1" id="Calque_1" xmlns="http://www.w3.org/2000/svg" xmlns:xlink="http://www.w3.org/1999/xlink" x="0px" y="0px"
	 viewBox="0 0 50 140" style="enable-background:new 0 0 50 140;" xml:space="preserve">
<style type="text/css">
	.st0{fill:#7F5026;}
	.st1{fill:none;stroke:#714B29;stroke-width:4;stroke-miterlimit:10;}
	.st2{fill:#7D6C5A;}
	.st3{fill:#945422;}
	.st4{fill:none;stroke:#AA6834;stroke-width:2;stroke-miterlimit:10;}
	.st5{fill:#9D9D9C;stroke:#000000;stroke-miterlimit:10;}
	.st6{fill:#F39208;stroke:#020203;stroke-miterlimit:10;}
	.st7{fill:#E94F1D;stroke:#020203;stroke-miterlimit:10;}
	.st8{fill:#EE7385;stroke:#020203;stroke-miterlimit:10;}
	.st9{fill:#020203;stroke:#020203;stroke-miterlimit:10;}
	.st10{fill:#FBEA1F;stroke:#020203;stroke-miterlimit:10;}
	.st11{fill:#575756;stroke:#000000;stroke-miterlimit:10;}
	.st12{fill:#F39208;stroke:#020203;stroke-width:0.25;stroke-miterlimit:10;}
	.st13{fill:#E94F1D;stroke:#020203;stroke-width:0.25;stroke-miterlimit:10;}
</style>
<rect x="0" y="90" class="st0" width="50" height="50"/>
<path class="st1" d="M27,104.5c-4,2.2-16.2,3.5-17.7,6.9s-5.5,4.6-4.2,7.1"/>
<polygon class="st2" points="27.4,114.5 23.1,113.5 20.7,115.4 25.1,118.1 29.3,116.7 "/>
<path class="st3" d="M30.3,99c0,0,0.7,16.7,4.1,11.5S31.1,96.6,30.3,99z"/>
<polygon class="st2" points="45.4,103.3 40.7,103.3 41.5,107.8 45.4,107.8 "/>
<path class="st4" d="M7.8,127c0,0-0.6-2,14.7,1.4c12.9,2.9,7.8-4.6,14.1-11.6c4.1-4.6,9.5,2.4,9.5,2.4"/>
<rect y="90" class="st5" width="50" height="14.7"/>
<path class="st6" d="M8.5,90c0,0-8.1-33.4-1.2-63.3l3.9-14.9c0,0,4.7,4.8,6.1,18s5.7-1.2,5.7-1.2s0.8-8.9-3.3-12.6s1.6-9.9,1.6-9.9
	s12.9,18.6,11.5,26.4c-1.4,7.8,2.8-9.3,2.8-9.3s-3-13.7-0.7-14c2.3-0.3,2.9,4.7,6.2,20c3.3,15.4,5.8,31.5,4.4,45
	C44,87.8,41.6,90,41.6,90H8.5z"/>
<path class="st7" d="M15.5,90c0,0-7.6-32-4-46.2c0,0,7.5,5.3,11,12.7s3.3-17.7,3.3-17.7s8.9,10.4,8.2,16c-0.6,5.6,5.2-12.6,5.2-12.6
	s9.7,31.5-2.4,46.6L35.7,90H15.5z"/>
<path class="st6" d="M-14.9,58.7C-21.3,70-54.5,69.3-60,58.6c-4.1-8,7-22.2,10.2-21.6c1.7,0.4,1.6,4.8,2.9,4.8
	c2,0,2.6-12.5,5.3-12.7c3.1-0.3,5.7,13.5,9.7,13.3c2.9-0.1,3.2-7.2,6.1-7.5C-21.1,34.2-9.9,49.9-14.9,58.7z"/>
<path class="st7" d="M-57.1,58.3c-2.9-3-1.1-9.2,1.1-12.9c0.7-1.1,2.2-3.7,3.8-3.5c1.4,0.2,1.6,2.2,3.5,2.6c1.4,0.3,2.8-0.6,3.2-1
	c1.4-1,2.6-2.8,2.6-4.6c0-1.7-1-2.3-0.7-4.1c0.2-1,0.8-2.2,1.2-2.2c0.7,0,0.7,2.1,2.4,4.8c0.6,1,0.7,0.8,1.8,2.4
	c2.3,3.1,2.1,3.7,3.2,4.6c0.3,0.2,2.4,1.6,4.6,0.9s3-3.2,3.1-3.2c0.5-1.6-0.2-2.7,0.4-3.1c1-0.7,3.6,1.7,3.9,2.1
	c1,0.9,1.5,1.6,1.9,2.1c1,1.4,1.4,2.8,2.3,5.3c0.6,1.7,0.8,2.7,0.9,3.7c0,0.7,0.1,1.2-0.1,2.1c-0.1,0.6-0.5,1.8-2,3.2
	c-1.5,1.6-3.4,2.4-7.1,4c-1.7,0.8-2.7,1.1-3.3,1.2c-2.4,0.6-3.2-0.1-6.6,0.2c-2.3,0.2-2.3,0.5-4.1,0.4c-1.8,0-3.3-0.3-4.5-0.6
	c-1.5-0.5-1.3-0.7-3.4-1.4c-3-1-3.8-0.7-6-1.7C-55.9,59.2-56.5,58.9-57.1,58.3z"/>
<path class="st8" d="M30.6,69.2c0.6-1.3,1.9-2.3,3.3-2.4c1.2-0.1,2.1,0.6,3.3,1.4c1.1,0.8,2.3,1.6,2.2,2.8c-0.1,0.7-0.6,1.1-1.4,1.7
	c-0.9,0.7-1.7,1.4-3.2,1.5c-1.3,0.1-3.2-0.4-4-1.7c-0.2-0.2-0.6-1-0.6-1.9C30.3,69.9,30.5,69.4,30.6,69.2z"/>
<path class="st9" d="M33.2,69.9c0.4-0.2,1-0.1,1.1,0.3c0.2,0.4,0,0.8-0.1,1c0,0.1-0.3,0.8-0.8,0.8s-0.8-0.7-0.8-1.2
	C32.9,70.6,32.9,70.1,33.2,69.9z"/>
<g>
	<path class="st10" d="M14.6,70.3c-0.3-2.2,2.1-3.7,2.3-3.8c2.2-1.3,5.7-1.1,7,1.3c0.7,1.2,0.7,3.1-0.1,4.3c-1.3,2.2-4.4,2-6,1.3
		C17.3,73.3,14.8,72.4,14.6,70.3z"/>
	<path class="st9" d="M20.9,69.5c0.4-0.3,1.1-0.1,1.2,0.3c0.2,0.4,0,0.9-0.1,1.1c0,0.1-0.4,0.8-0.8,0.8c-0.5,0-0.9-0.8-0.8-1.3
		C20.4,70.2,20.5,69.7,20.9,69.5z"/>
</g>
<polygon class="st11" points="0,104.7 14.4,90.3 0,90 "/>
<polygon class="st11" points="50,104.7 35.5,90.2 50,90 "/>
<path class="st12" d="M6.9,13.8c-0.7,2.9-4.2,2.8-4.8,0C1.7,11.7,2.9,8,3.2,8.2c0.2,0.1,0.2,1.3,0.3,1.3c0.2,0,0.3-3.3,0.6-3.3
	c0.3-0.1,0.6,3.5,1,3.5c0.3,0,0.3-1.9,0.6-2C6.3,7.4,7.4,11.5,6.9,13.8z"/>
<path class="st13" d="M3.2,13.7c-0.2-0.5-0.1-1.6,0.1-2.2c0-0.2,0.2-0.6,0.3-0.6c0.1,0,0.1,0.4,0.2,0.5C3.9,11.3,4,11.2,4,11.1
	c0.1-0.2,0.2-0.5,0.2-0.8c0-0.3-0.1-0.4,0-0.7c0-0.2,0.1-0.4,0.1-0.4c0,0,0,0.4,0.2,0.8c0,0.2,0,0.1,0.1,0.4
	c0.2,0.5,0.1,0.6,0.2,0.8c0,0,0.2,0.3,0.3,0.2c0.2-0.1,0.2-0.6,0.2-0.6c0-0.3,0-0.5,0-0.5c0.1-0.1,0.3,0.3,0.3,0.4
	c0.1,0.2,0.1,0.3,0.1,0.4c0.1,0.2,0.1,0.5,0.2,0.9C6,12.2,6,12.4,6,12.6c0,0.1,0,0.2,0,0.4c0,0.1,0,0.3-0.1,0.6
	c-0.1,0.3-0.2,0.4-0.5,0.7c-0.1,0.1-0.2,0.2-0.2,0.2c-0.2,0.1-0.2,0-0.5,0c-0.2,0-0.2,0.1-0.3,0.1c-0.1,0-0.2-0.1-0.3-0.1
	c-0.1-0.1-0.1-0.1-0.2-0.2c-0.2-0.2-0.3-0.1-0.4-0.3C3.3,13.8,3.3,13.8,3.2,13.7z"/>
<path class="st12" d="M48.5,30.9c-0.7,2.9-4.2,2.8-4.8,0c-0.4-2.1,0.7-5.8,1.1-5.6c0.2,0.1,0.2,1.3,0.3,1.3c0.2,0,0.3-3.3,0.6-3.3
	c0.3-0.1,0.6,3.5,1,3.5c0.3,0,0.3-1.9,0.6-2C47.8,24.5,49,28.6,48.5,30.9z"/>
<path class="st13" d="M44.8,30.7c-0.2-0.5-0.1-1.6,0.1-2.2c0-0.2,0.2-0.6,0.3-0.6c0.1,0,0.1,0.4,0.2,0.5c0.1,0.1,0.2-0.1,0.2-0.2
	c0.1-0.2,0.2-0.5,0.2-0.8c0-0.3-0.1-0.4,0-0.7c0-0.2,0.1-0.4,0.1-0.4c0,0,0,0.4,0.2,0.8c0,0.2,0,0.1,0.1,0.4
	c0.2,0.5,0.1,0.6,0.2,0.8c0,0,0.2,0.3,0.3,0.2c0.2-0.1,0.2-0.6,0.2-0.6c0-0.3,0-0.5,0-0.5c0.1-0.1,0.3,0.3,0.3,0.4
	c0.1,0.2,0.1,0.3,0.1,0.4c0.1,0.2,0.1,0.5,0.2,0.9c0,0.3,0.1,0.5,0.1,0.6c0,0.1,0,0.2,0,0.4c0,0.1,0,0.3-0.1,0.6
	c-0.1,0.3-0.2,0.4-0.5,0.7c-0.1,0.1-0.2,0.2-0.2,0.2c-0.2,0.1-0.2,0-0.5,0c-0.2,0-0.2,0.1-0.3,0.1c-0.1,0-0.2-0.1-0.3-0.1
	c-0.1-0.1-0.1-0.1-0.2-0.2c-0.2-0.2-0.3-0.1-0.4-0.3C44.9,30.9,44.8,30.9,44.8,30.7z"/>
<path class="st12" d="M44.4,8.9c-0.7,2.9-4.2,2.8-4.8,0c-0.4-2.1,0.7-5.8,1.1-5.6c0.2,0.1,0.2,1.3,0.3,1.3c0.2,0,0.3-3.3,0.6-3.3
	c0.3-0.1,0.6,3.5,1,3.5c0.3,0,0.3-1.9,0.6-2C43.8,2.5,44.9,6.6,44.4,8.9z"/>
<path class="st13" d="M40.7,8.7c-0.2-0.5-0.1-1.6,0.1-2.2c0-0.2,0.2-0.6,0.3-0.6c0.1,0,0.1,0.4,0.2,0.5c0.1,0.1,0.2-0.1,0.2-0.2
	c0.1-0.2,0.2-0.5,0.2-0.8c0-0.3-0.1-0.4,0-0.7c0-0.2,0.1-0.4,0.1-0.4c0,0,0,0.4,0.2,0.8c0,0.2,0,0.1,0.1,0.4
	c0.2,0.5,0.1,0.6,0.2,0.8c0,0,0.2,0.3,0.3,0.2s0.2-0.6,0.2-0.6c0-0.3,0-0.5,0-0.5c0.1-0.1,0.3,0.3,0.3,0.4c0.1,0.2,0.1,0.3,0.1,0.4
	c0.1,0.2,0.1,0.5,0.2,0.9c0,0.3,0.1,0.5,0.1,0.6c0,0.1,0,0.2,0,0.4c0,0.1,0,0.3-0.1,0.6c-0.1,0.3-0.2,0.4-0.5,0.7
	c-0.1,0.1-0.2,0.2-0.2,0.2c-0.2,0.1-0.2,0-0.5,0c-0.2,0-0.2,0.1-0.3,0.1c-0.1,0-0.2-0.1-0.3-0.1c-0.1-0.1-0.1-0.1-0.2-0.2
	c-0.2-0.2-0.3-0.1-0.4-0.3C40.8,8.9,40.8,8.8,40.7,8.7z"/>
<g>
</g>
<g>
</g>
<g>
</g>
<g>
</g>
<g>
</g>
<g>
</g>
</svg>
