<?xml version="1.0" encoding="utf-8"?>
<!-- Generator: Adobe Illustrator 27.3.1, SVG Export Plug-In . SVG Version: 6.00 Build 0)  -->
<svg version="1.1" id="Calque_1" xmlns="http://www.w3.org/2000/svg" xmlns:xlink="http://www.w3.org/1999/xlink" x="0px" y="0px"
	 viewBox="0 0 50 140" style="enable-background:new 0 0 50 140;" xml:space="preserve">
<style type="text/css">
	.st0{fill:#7F5026;}
	.st1{fill:none;stroke:#714B29;stroke-width:4;stroke-miterlimit:10;}
	.st2{fill:#7D6C5A;}
	.st3{fill:#945422;}
	.st4{fill:none;stroke:#AA6834;stroke-width:2;stroke-miterlimit:10;}
	.st5{fill:#9D9D9C;stroke:#000000;stroke-miterlimit:10;}
	.st6{fill:#F39208;stroke:#020203;stroke-miterlimit:10;}
	.st7{fill:#E94F1D;stroke:#020203;stroke-miterlimit:10;}
	.st8{fill:#EE7385;stroke:#020203;stroke-miterlimit:10;}
	.st9{fill:#020203;stroke:#020203;stroke-miterlimit:10;}
	.st10{fill:#FBEA1F;stroke:#020203;stroke-miterlimit:10;}
	.st11{fill:#575756;stroke:#000000;stroke-miterlimit:10;}
	.st12{fill:#F39208;stroke:#020203;stroke-width:0.25;stroke-miterlimit:10;}
	.st13{fill:#E94F1D;stroke:#020203;stroke-width:0.25;stroke-miterlimit:10;}
</style>
<rect x="0" y="90" class="st0" width="50" height="50"/>
<path class="st1" d="M27,104.5c-4,2.2-16.2,3.5-17.7,6.9s-5.5,4.6-4.2,7.1"/>
<polygon class="st2" points="27.4,114.5 23.1,113.5 20.7,115.4 25.1,118.1 29.3,116.7 "/>
<path class="st3" d="M30.3,99c0,0,0.7,16.7,4.1,11.5S31.1,96.6,30.3,99z"/>
<polygon class="st2" points="45.4,103.3 40.7,103.3 41.5,107.8 45.4,107.8 "/>
<path class="st4" d="M7.8,127c0,0-0.6-2,14.7,1.4c12.9,2.9,7.8-4.6,14.1-11.6c4.1-4.6,9.5,2.4,9.5,2.4"/>
<rect y="90" class="st5" width="50" height="14.7"/>
<path class="st6" d="M9.5,90c0,0-9-33.4-2.2-63.3l4.5-13.5c0,0,4,3.4,5.4,16.6s4-2.5,4-2.5s0-6.1-1.6-11.3
	c-0.9-3.1,2.5-11.8,2.5-11.8s9.6,17.1,8.2,24.9c-1.4,7.8,4-6.6,4-6.6s-0.9-9,0.4-13.4c0.9-3,3.2,3.6,6.2,20
	c2.8,15.5,6.7,32.1,5.3,45.7S41.6,90,41.6,90H9.5z"/>
<path class="st7" d="M15.5,90c0,0-6.5-32.8-3-47c0,0,6.4,6.1,9.9,13.5S25,39.5,25,39.5s9.6,9.8,9,15.4c-0.6,5.6,5.8-10.4,5.8-10.4
	s9.1,29.4-3,44.5L35.7,90H15.5z"/>
<path class="st6" d="M-14.9,58.7C-21.3,70-54.5,69.3-60,58.6c-4.1-8,7-22.2,10.2-21.6c1.7,0.4,1.6,4.8,2.9,4.8
	c2,0,2.6-12.5,5.3-12.7c3.1-0.3,5.7,13.5,9.7,13.3c2.9-0.1,3.2-7.2,6.1-7.5C-21.1,34.2-9.9,49.9-14.9,58.7z"/>
<path class="st7" d="M-57.1,58.3c-2.9-3-1.1-9.2,1.1-12.9c0.7-1.1,2.2-3.7,3.8-3.5c1.4,0.2,1.6,2.2,3.5,2.6c1.4,0.3,2.8-0.6,3.2-1
	c1.4-1,2.6-2.8,2.6-4.6c0-1.7-1-2.3-0.7-4.1c0.2-1,0.8-2.2,1.2-2.2c0.7,0,0.7,2.1,2.4,4.8c0.6,1,0.7,0.8,1.8,2.4
	c2.3,3.1,2.1,3.7,3.2,4.6c0.3,0.2,2.4,1.6,4.6,0.9s3-3.2,3.1-3.2c0.5-1.6-0.2-2.7,0.4-3.1c1-0.7,3.6,1.7,3.9,2.1
	c1,0.9,1.5,1.6,1.9,2.1c1,1.4,1.4,2.8,2.3,5.3c0.6,1.7,0.8,2.7,0.9,3.7c0,0.7,0.1,1.2-0.1,2.1c-0.1,0.6-0.5,1.8-2,3.2
	c-1.5,1.6-3.4,2.4-7.1,4c-1.7,0.8-2.7,1.1-3.3,1.2c-2.4,0.6-3.2-0.1-6.6,0.2c-2.3,0.2-2.3,0.5-4.1,0.4c-1.8,0-3.3-0.3-4.5-0.6
	c-1.5-0.5-1.3-0.7-3.4-1.4c-3-1-3.8-0.7-6-1.7C-55.9,59.2-56.5,58.9-57.1,58.3z"/>
<path class="st8" d="M32,71c0.6-1.3,1.9-2.3,3.3-2.4c1.2-0.1,2.1,0.6,3.3,1.4c1.1,0.8,2.3,1.6,2.2,2.8c-0.1,0.7-0.6,1.1-1.4,1.7
	c-0.9,0.7-1.7,1.4-3.2,1.5c-1.3,0.1-3.2-0.4-4-1.7c-0.2-0.2-0.6-1-0.6-1.9C31.7,71.7,31.9,71.2,32,71z"/>
<path class="st9" d="M34.6,71.7c0.4-0.2,1-0.1,1.1,0.3c0.2,0.4,0,0.8-0.1,1c0,0.1-0.3,0.8-0.8,0.8S34,73.1,34,72.6
	C34.3,72.4,34.3,71.9,34.6,71.7z"/>
<g>
	<path class="st10" d="M16,72.1c-0.3-2.2,2.1-3.7,2.3-3.8c2.2-1.3,5.7-1.1,7,1.3c0.7,1.2,0.7,3.1-0.1,4.3c-1.3,2.2-4.4,2-6,1.3
		C18.7,75.1,16.2,74.2,16,72.1z"/>
	<path class="st9" d="M22.3,71.3c0.4-0.3,1.1-0.1,1.2,0.3c0.2,0.4,0,0.9-0.1,1.1c0,0.1-0.4,0.8-0.8,0.8c-0.5,0-0.9-0.8-0.8-1.3
		C21.8,72,21.9,71.5,22.3,71.3z"/>
</g>
<polygon class="st11" points="0,104.7 14.4,90.3 0,90 "/>
<polygon class="st11" points="50,104.7 35.5,90.2 50,90 "/>
<path class="st12" d="M8.2,12.2c-0.7,2.9-4.2,2.8-4.8,0C3,10.1,4.2,6.4,4.5,6.5c0.2,0.1,0.2,1.3,0.3,1.3c0.2,0,0.3-3.3,0.6-3.3
	C5.7,4.4,6,8,6.4,7.9c0.3,0,0.3-1.9,0.6-2C7.6,5.8,8.7,9.9,8.2,12.2z"/>
<path class="st13" d="M4.5,12c-0.2-0.5-0.1-1.6,0.1-2.2c0-0.2,0.2-0.6,0.3-0.6C5,9.2,5,9.5,5.1,9.6c0.1,0.1,0.2-0.1,0.2-0.2
	c0.1-0.2,0.2-0.5,0.2-0.8c0-0.3-0.1-0.4,0-0.7c0-0.2,0.1-0.4,0.1-0.4c0,0,0,0.4,0.2,0.8c0,0.2,0,0.1,0.1,0.4C6,9.3,6,9.4,6.1,9.6
	c0,0,0.2,0.3,0.3,0.2c0.2-0.1,0.2-0.6,0.2-0.6c0-0.3,0-0.5,0-0.5C6.7,8.5,6.9,8.9,6.9,9C7,9.2,7,9.3,7.1,9.4
	c0.1,0.2,0.1,0.5,0.2,0.9c0,0.3,0.1,0.5,0.1,0.6c0,0.1,0,0.2,0,0.4c0,0.1,0,0.3-0.1,0.6c-0.1,0.3-0.2,0.4-0.5,0.7
	c-0.1,0.1-0.2,0.2-0.2,0.2c-0.2,0.1-0.2,0-0.5,0c-0.2,0-0.2,0.1-0.3,0.1c-0.1,0-0.2-0.1-0.3-0.1c-0.1-0.1-0.1-0.1-0.2-0.2
	c-0.2-0.2-0.3-0.1-0.4-0.3C4.6,12.1,4.6,12.1,4.5,12z"/>
<path class="st12" d="M48.7,28.9c-0.7,2.9-4.2,2.8-4.8,0c-0.4-2.1,0.7-5.8,1.1-5.6c0.2,0.1,0.2,1.3,0.3,1.3c0.2,0,0.3-3.3,0.6-3.3
	c0.3-0.1,0.6,3.5,1,3.5c0.3,0,0.3-1.9,0.6-2C48,22.5,49.2,26.6,48.7,28.9z"/>
<path class="st13" d="M45,28.7c-0.2-0.5-0.1-1.6,0.1-2.2c0-0.2,0.2-0.6,0.3-0.6c0.1,0,0.1,0.4,0.2,0.5c0.1,0.1,0.2-0.1,0.2-0.2
	c0.1-0.2,0.2-0.5,0.2-0.8c0-0.3-0.1-0.4,0-0.7c0-0.2,0.1-0.4,0.1-0.4c0,0,0,0.4,0.2,0.8c0,0.2,0,0.1,0.1,0.4
	c0.2,0.5,0.1,0.6,0.2,0.8c0,0,0.2,0.3,0.3,0.2c0.2-0.1,0.2-0.6,0.2-0.6c0-0.3,0-0.5,0-0.5c0.1-0.1,0.3,0.3,0.3,0.4
	c0.1,0.2,0.1,0.3,0.1,0.4c0.1,0.2,0.1,0.5,0.2,0.9c0,0.3,0.1,0.5,0.1,0.6c0,0.1,0,0.2,0,0.4c0,0.1,0,0.3-0.1,0.6
	c-0.1,0.3-0.2,0.4-0.5,0.7c-0.1,0.1-0.2,0.2-0.2,0.2c-0.2,0.1-0.2,0-0.5,0c-0.2,0-0.2,0.1-0.3,0.1c-0.1,0-0.2-0.1-0.3-0.1
	c-0.1-0.1-0.1-0.1-0.2-0.2c-0.2-0.2-0.3-0.1-0.4-0.3C45.1,28.9,45,28.9,45,28.7z"/>
<path class="st12" d="M46,11.5c-0.7,2.9-4.2,2.8-4.8,0c-0.4-2.1,0.7-5.8,1.1-5.6c0.2,0.1,0.2,1.3,0.3,1.3c0.2,0,0.3-3.3,0.6-3.3
	c0.3-0.1,0.6,3.5,1,3.5c0.3,0,0.3-1.9,0.6-2C45.3,5.1,46.5,9.2,46,11.5z"/>
<path class="st13" d="M42.3,11.3c-0.2-0.5-0.1-1.6,0.1-2.2c0-0.2,0.2-0.6,0.3-0.6c0.1,0,0.1,0.4,0.2,0.5c0.1,0.1,0.2-0.1,0.2-0.2
	c0.1-0.2,0.2-0.5,0.2-0.8c0-0.3-0.1-0.4,0-0.7c0-0.2,0.1-0.4,0.1-0.4c0,0,0,0.4,0.2,0.8c0,0.2,0,0.1,0.1,0.4
	c0.2,0.5,0.1,0.6,0.2,0.8c0,0,0.2,0.3,0.3,0.2c0.2-0.1,0.2-0.6,0.2-0.6c0-0.3,0-0.5,0-0.5c0.1-0.1,0.3,0.3,0.3,0.4
	c0.1,0.2,0.1,0.3,0.1,0.4c0.1,0.2,0.1,0.5,0.2,0.9c0,0.3,0.1,0.5,0.1,0.6c0,0.1,0,0.2,0,0.4c0,0.1,0,0.3-0.1,0.6
	c-0.1,0.3-0.2,0.4-0.5,0.7c-0.1,0.1-0.2,0.2-0.2,0.2c-0.2,0.1-0.2,0-0.5,0c-0.2,0-0.2,0.1-0.3,0.1c-0.1,0-0.2-0.1-0.3-0.1
	C43,12,43,11.9,42.9,11.8c-0.2-0.2-0.3-0.1-0.4-0.3C42.4,11.4,42.4,11.4,42.3,11.3z"/>
<g>
</g>
<g>
</g>
<g>
</g>
<g>
</g>
<g>
</g>
<g>
</g>
</svg>
