<?xml version="1.0" encoding="utf-8"?>
<!-- Generator: Adobe Illustrator 27.3.1, SVG Export Plug-In . SVG Version: 6.00 Build 0)  -->
<svg version="1.1" id="Calque_1" xmlns="http://www.w3.org/2000/svg" xmlns:xlink="http://www.w3.org/1999/xlink" x="0px" y="0px"
	 viewBox="0 0 150 300" style="enable-background:new 0 0 150 300;" xml:space="preserve">
<style type="text/css">
	.st0{fill:#4B5A64;stroke:#030304;stroke-width:3;stroke-miterlimit:10;}
	.st1{fill:#944E45;stroke:#030304;stroke-width:3;stroke-miterlimit:10;}
	.st2{fill:#F1AF0E;stroke:#030304;stroke-width:3;stroke-miterlimit:10;}
	.st3{fill:#DFA508;}
	.st4{fill:#FEEB27;}
	.st5{fill:#F0D627;}
	.st6{fill:none;stroke:#030304;stroke-width:3;stroke-miterlimit:10;}
	.st7{fill:#B47314;}
	.st8{fill:#FFEB1F;stroke:#030304;stroke-width:12;stroke-miterlimit:10;}
	.st9{fill:#FEEB27;stroke:#030304;stroke-width:3;stroke-miterlimit:10;}
</style>
<rect x="80.62" y="261.95" class="st0" width="34.67" height="30.41"/>
<polygon class="st1" points="80.62,281.94 114.65,281.94 114.65,287.3 127.93,287.3 127.93,298.7 80.62,298.7 "/>
<rect x="37.57" y="263.9" class="st0" width="34.67" height="28.47"/>
<polygon class="st1" points="37.57,281.94 71.56,281.94 71.56,287.3 85.18,287.3 85.18,298.7 37.57,298.7 "/>
<circle class="st2" cx="76.46" cy="57.53" r="56.23"/>
<path class="st3" d="M120.05,51.89c-14.05,6.57-19.21,10.29-22.5,7.98c-6.57-4.22-7.98-3.76-14.05-5.63
	c-3.76-1.41-6.1-11.23-7.98-12.64s-1.41-11.7,3.76-16.4c4.69-4.22,9.86-15.46,16.4-16.4c7.51-0.47,9.86,1.88,13.11,4.69
	c10.29,7.98,11.23,11.23,15.93,18.74c2.35,3.29,3.29,6.1,2.82,10.29c1.41,5.16-1.41,6.1-1.41,7.98
	C125.65,52.36,124.24,50.02,120.05,51.89z"/>
<ellipse class="st4" cx="76.46" cy="57.53" rx="38.42" ry="38.42"/>
<path class="st5" d="M45.04,51.89c14.52-6.1,19.68-9.39,22.97-7.04c6.57,4.69,7.98,3.76,13.58,6.1c3.76,1.41,5.63,11.7,7.51,13.11
	c1.88,1.88,0.94,11.7-4.22,16.4c-5.16,4.22-10.29,14.99-17.33,15.46c-7.51,0.47-7.98-1.88-11.23-5.16
	c-7.98-7.98-8.45-9.39-14.99-20.15c-1.88-3.76-2.35-7.51-3.29-9.86c-0.94-5.16,0.94-6.1,0.94-7.98
	C39.44,51.43,40.82,53.77,45.04,51.89z"/>
<ellipse class="st6" cx="75.99" cy="58" rx="38.42" ry="38.42"/>
<polygon class="st7" points="45.98,24.27 40.82,25.21 38.04,23.33 43.17,20.04 48.33,21.45 "/>
<polygon class="st7" points="119.58,86.13 114.41,87.07 113.48,83.78 119.58,80.03 121.89,83.31 "/>
<polygon class="st7" points="52.55,96.89 56.31,95.95 59.6,96.89 57.25,100.18 51.15,102.05 "/>
<path class="st8" d="M90.01,72.38c0,9.35,0-36.65,0-29.24"/>
<path class="st0" d="M133.49,113.02l-22.1-7.88c-0.57-0.2-1.17-0.3-1.74-0.3H39.95c-0.7,0-1.41,0.17-2.08,0.44l-19.25,8.65
	c-1.98,0.87-3.25,2.98-3.25,5.33v129.86c0,0,0.4,14.02,1.64,14.55s116.48,0,116.48,0s4.9-2.15,4.9-4.86l-1.74-141.16
	C136.58,115.53,135.34,113.69,133.49,113.02z"/>
<g>
	<polygon class="st0" points="86.65,237.24 60.43,236.87 54.33,138.47 80.55,138.83 	"/>
	<polygon class="st9" points="58.66,210.65 84.88,210.32 86.65,237.24 60.43,236.87 	"/>
</g>
</svg>
