<?xml version="1.0" encoding="utf-8"?>
<!-- Generator: Adobe Illustrator 27.3.1, SVG Export Plug-In . SVG Version: 6.00 Build 0)  -->
<svg version="1.1" id="Calque_1" xmlns="http://www.w3.org/2000/svg" xmlns:xlink="http://www.w3.org/1999/xlink" x="0px" y="0px"
	 viewBox="0 0 150 300" style="enable-background:new 0 0 150 300;" xml:space="preserve">
<style type="text/css">
	.st0{fill:#0EA038;stroke:#030304;stroke-width:3;stroke-miterlimit:10;}
	.st1{fill:#EB5885;stroke:#030304;stroke-width:3;stroke-miterlimit:10;}
	.st2{fill:#020203;stroke:#030304;stroke-width:3;stroke-miterlimit:10;}
	.st3{fill:#C5B084;stroke:#030405;stroke-width:3;stroke-miterlimit:10;}
	.st4{fill:#4D5B65;stroke:#030405;stroke-width:3;stroke-miterlimit:10;}
</style>
<path class="st0" d="M130.9,52.6c0.7-26.2-13.8-46.3-36.6-49.7L58.3,1.2c-21.2,1-37.6,20.2-38.3,47v1c-0.3,21.2,10.1,40,25.5,46.7
	v31.9h59.8V98.9c5.4-1.7,10.1-5.7,14.1-12.4c1-1.3-18.8-19.8-17.8-21.5c1-1.7,27.2,3.7,27.9,1.7c1.7-5.7,1.3-6.7,1.7-13.4
	L130.9,52.6z"/>
<path class="st0" d="M114.7,281.7v-21.8H78.1V281v11.4v6.4h46c2,0,4-1.7,4-4v-4.4c0-2.4-1.7-4-4-4L114.7,281.7z"/>
<path class="st0" d="M69.4,281.3v-19.5H32.8V281v11.4v6.4h46c2.4,0,4-2,4-4v-3.7c0-2.4-2-4-4-4L69.4,281.3z"/>
<path class="st1" d="M76.4,36.1c-1-7.7,7.4-13.1,8.1-13.4c7.7-4.7,20.2-4,24.9,4.7c2.4,4.4,2.4,11.1-0.3,15.1
	c-4.7,7.7-15.4,7.1-21.2,4.7C85.9,46.9,77.1,43.9,76.4,36.1z"/>
<path class="st2" d="M98.6,33.5c1.3-1,4-0.3,4.4,1c0.7,1.3,0,3-0.3,4c0,0.3-1.3,2.7-2.7,2.7c-1.7,0-3-2.7-2.7-4.7
	C96.9,35.8,97.3,34.1,98.6,33.5z"/>
<path class="st3" d="M134.2,102.6l-23.5-8.4c-0.7-0.3-1.3-0.3-1.7-0.3l-10.1,2.4l-25.9,11.4L50.6,94.2H35.5c-0.7,0,0.7-0.3,0,0
	l-22.2,9.4c-2,1-3.7,3-3.7,5.7v137c0,0,20.2,15.4,21.5,16.1c1.3,0.7,88.3-2,88.3-2s20.2-0.7,20.2-3.7l-1.7-149.1
	C137.2,105,136.2,103.3,134.2,102.6z"/>
<polygon class="st4" points="84.5,233.6 57,233.3 50.6,129.5 78.1,129.8 "/>
<polygon class="st0" points="55.3,205.8 82.8,205.4 84.5,233.6 57,233.3 "/>
</svg>
