<?xml version="1.0" encoding="utf-8"?>
<!-- Generator: Adobe Illustrator 27.3.1, SVG Export Plug-In . SVG Version: 6.00 Build 0)  -->
<svg version="1.1" id="Calque_1" xmlns="http://www.w3.org/2000/svg" xmlns:xlink="http://www.w3.org/1999/xlink" x="0px" y="0px"
	 viewBox="0 0 50 60" style="enable-background:new 0 0 50 60;" xml:space="preserve">
<style type="text/css">
	.st0{fill:url(#SVGID_1_);stroke:#000000;stroke-miterlimit:10;}
	.st1{fill:#B2B2B2;stroke:#000000;stroke-miterlimit:10;}
	.st2{fill:none;stroke:#000000;stroke-miterlimit:10;}
	.st3{fill:none;stroke:#020203;stroke-miterlimit:10;}
</style>
<linearGradient id="SVGID_1_" gradientUnits="userSpaceOnUse" x1="24.5977" y1="60.663" x2="25.0952" y2="0.7">
	<stop  offset="0" style="stop-color:#575756"/>
	<stop  offset="0.2936" style="stop-color:#6D6D6C"/>
	<stop  offset="0.6043" style="stop-color:#878787"/>
	<stop  offset="1" style="stop-color:#C6C6C6"/>
</linearGradient>
<path class="st0" d="M3.4,48.6h4.7V18.1c0,0,0.1-3.2,1.6-6.8L14,8.6l-2.2-1.2c2.5-3.6,6.6-6.7,13.6-6.7c15.8,0,16.9,17.2,16.9,17.2
	v12.8l-2.6,3l2.6,0.9v14l3.6,0v10.6l-42.5,0l-0.1-2.7l2.9-2.5l-2.9-1.9V48.6"/>
<line class="st1" x1="42.3" y1="48.7" x2="8.2" y2="48.6"/>
<path class="st2" d="M13.2,32.2V14.6c0,0,8.9-0.4,8.2,4.7s-7.7,2.9-7.7,2.9l6.9,9.4"/>
<line class="st1" x1="26.1" y1="16" x2="26.1" y2="32.2"/>
<path class="st2" d="M31.8,32.2l0.3-16.1c0,0,9.1-0.3,7.4,4.4c-1.7,4.6-7.1,2.4-7.1,2.4"/>
<polyline class="st3" points="14.3,48.6 16,53.6 21.7,53.6 22,57 "/>
<path class="st3" d="M27.2,44.3l1.5-4.6l9.5,3.5l-3.9-5.6c0,0,7.5,0.4,8,0.3"/>
<g>
</g>
<g>
</g>
<g>
</g>
<g>
</g>
<g>
</g>
<g>
</g>
</svg>
