<?xml version="1.0" encoding="utf-8"?>
<!-- Generator: Adobe Illustrator 27.3.1, SVG Export Plug-In . SVG Version: 6.00 Build 0)  -->
<svg version="1.1" id="Calque_1" xmlns="http://www.w3.org/2000/svg" xmlns:xlink="http://www.w3.org/1999/xlink" x="0px" y="0px"
	 viewBox="0 0 90 90" style="enable-background:new 0 0 90 90;" xml:space="preserve">
<style type="text/css">
	.st0{fill:#755237;stroke:#000000;stroke-width:2;stroke-miterlimit:10;}
	.st1{fill:#FDDFC1;stroke:#000000;stroke-width:2;stroke-miterlimit:10;}
	.st2{fill:#F0A3B7;stroke:#000000;stroke-width:2;stroke-miterlimit:10;}
	.st3{fill:#FCC55F;stroke:#000000;stroke-width:2;stroke-miterlimit:10;}
	.st4{opacity:0.1;fill:#FCC55F;stroke:#000000;stroke-width:2;stroke-miterlimit:10;}
</style>
<path class="st0" d="M59.1,17.5c0,7.8-6.4,14.1-14.3,14.1s-14.3-6.3-14.3-14.1c0-3.3,1.1-6.3,3.1-8.7c0.8-1,2.1,1.7,3.2,0.9
	c1-0.7,4.3,1.7,5.4,1.2c0.8-0.3,2.6-5.2,3.5-5.3c0.8-0.1,1.6-1.2,2.4-1.2C56.1,4.5,59.1,9.8,59.1,17.5z"/>
<path class="st1" d="M48.6,31.6c0,7.8-6.4,14.1-14.3,14.1c-3.1,0-3.9-3.7-6.2-5.4c-3.6-2.6-8.1-4-8.1-8.7c0-1.7,0.3-3.3,0.8-4.8
	c0.4-1,5.6,0.8,6.2-0.1c0.9-1.3-0.8-6,0.5-6.9c2.4-1.9,3.4-2.3,6.8-2.3C42.2,17.5,48.6,23.8,48.6,31.6z"/>
<path class="st2" d="M72.7,31.6c0,7.8-6.4,14.1-14.3,14.1s-14.3-6.3-14.3-14.1s6.4-14.1,14.3-14.1c1.5,0,2.4,0.5,3.8,0.9
	c1.3,0.4,0.4,3.8,1.5,4.6c1,0.6,1.9,3.7,2.7,4.6c1,1.1,4.7-0.7,5.4,0.6C72.6,29.9,72.7,29.5,72.7,31.6z"/>
<path class="st3" d="M18.6,33.7c0,3.7,1.5,7,3.9,9.5c0.3,0.4,4.2-2.4,4.6-2.1c0.4,0.3-0.8,4.7-0.4,5c2,1.3,2.5,1,5,1.1l4.1,12.3
	l3.4,3.6c0.6,0.6,1.3,1.2,2.1,1.6l1.7,0.9c1.8,0.9,2.5,3.1,1.7,4.9L41.5,77l3.2,9.6l15-39.2c0.1,0,0.1,0,0.2,0
	c7.6,0,13.8-6.1,13.8-13.6H18.6z"/>
<line class="st4" x1="27.1" y1="34.2" x2="22.7" y2="43.4"/>
<line class="st4" x1="34.6" y1="34.2" x2="29.3" y2="46.2"/>
<line class="st4" x1="43.4" y1="34" x2="33.8" y2="56.2"/>
<line class="st4" x1="51.6" y1="34.8" x2="37.9" y2="66.1"/>
<path class="st4" d="M59.1,34.8c0.7,0.8-17.4,40.4-17.4,40.4"/>
<line class="st4" x1="66.4" y1="34.8" x2="62.2" y2="46.8"/>
</svg>
