<?xml version="1.0" encoding="utf-8"?>
<!-- Generator: Adobe Illustrator 27.3.1, SVG Export Plug-In . SVG Version: 6.00 Build 0)  -->
<svg version="1.1" id="Calque_1" xmlns="http://www.w3.org/2000/svg" xmlns:xlink="http://www.w3.org/1999/xlink" x="0px" y="0px"
	 viewBox="0 0 50 50" style="enable-background:new 0 0 50 50;" xml:space="preserve">
<style type="text/css">
	.st0{fill:url(#SVGID_1_);stroke:#323230;stroke-width:2;stroke-miterlimit:10;}
	.st1{fill:url(#SVGID_00000016045526885394545900000002620110209912139696_);}
	.st2{fill:none;stroke:#323230;stroke-miterlimit:10;}
	.st3{fill:none;stroke:#323230;stroke-width:2;stroke-miterlimit:10;}
	.st4{opacity:0.65;fill:url(#SVGID_00000160162656165999906760000018369519855074511036_);}
	.st5{opacity:0.65;fill:url(#SVGID_00000065754010335700771880000004216700108911871639_);}
	.st6{opacity:0.65;fill:url(#SVGID_00000168090393329973026130000002907109828681834919_);}
	.st7{opacity:0.65;fill:url(#SVGID_00000130625935943363388920000012019501534464493226_);}
</style>
<linearGradient id="SVGID_1_" gradientUnits="userSpaceOnUse" x1="25.1206" y1="1.9653" x2="24.8696" y2="49.913">
	<stop  offset="0" style="stop-color:#D8AE78"/>
	<stop  offset="0.1172" style="stop-color:#CA9E67"/>
	<stop  offset="0.9913" style="stop-color:#8B653A"/>
</linearGradient>
<path class="st0" d="M40.1,49H9.9C5,49,1,45,1,40.1V9.9C1,5,5,1,9.9,1h30.3C45,1,49,5,49,9.9v30.3C49,45,45,49,40.1,49z"/>
<linearGradient id="SVGID_00000045609495196955874050000012100149069805833365_" gradientUnits="userSpaceOnUse" x1="24.9993" y1="41.9692" x2="25.0013" y2="48.8027">
	<stop  offset="0" style="stop-color:#806456"/>
	<stop  offset="0.3976" style="stop-color:#74583F"/>
	<stop  offset="0.8063" style="stop-color:#5C4427"/>
	<stop  offset="1" style="stop-color:#4F391D"/>
</linearGradient>
<path style="fill:url(#SVGID_00000045609495196955874050000012100149069805833365_);" d="M1.5,40.2l7.6,3.7l4.8-1.9
	c0,0,7.6,1.1,8,1.1s7.6-2.4,7.6-2.4l5.6,5.8l5.2-3.9l5.2,1.9l3.5-1.1l-1.8,5L3.7,48.8L1,45.1L1.5,40.2z"/>
<path class="st2" d="M1,5.2L8.5,11l5.9-3.8c0,0,5.2,7.2,5.7,7.8"/>
<polyline class="st2" points="0.5,38.6 7.9,29.5 15.9,33.7 21.7,31.8 29.7,35 41.6,24.3 49,26 "/>
<polyline class="st2" points="34.1,31 29.5,26.1 34.1,21.8 28.4,17.7 "/>
<path class="st3" d="M43.2,49H6.8C3.6,49,1,46.4,1,43.2V6.8C1,3.6,3.6,1,6.8,1h36.3C46.4,1,49,3.6,49,6.8v36.3
	C49,46.4,46.4,49,43.2,49z"/>
<linearGradient id="SVGID_00000121984941494366516370000007665113473291213498_" gradientUnits="userSpaceOnUse" x1="7.0106" y1="16.3273" x2="7.0114" y2="18.9814">
	<stop  offset="0" style="stop-color:#806456"/>
	<stop  offset="0.3976" style="stop-color:#74583F"/>
	<stop  offset="0.8063" style="stop-color:#5C4427"/>
	<stop  offset="1" style="stop-color:#4F391D"/>
</linearGradient>
<polygon style="opacity:0.65;fill:url(#SVGID_00000121984941494366516370000007665113473291213498_);" points="6.1,16.4 5.5,19 
	8.5,18.3 8.5,15.7 "/>
<linearGradient id="SVGID_00000068667277560211130680000007142734129560909721_" gradientUnits="userSpaceOnUse" x1="29.7124" y1="25.8868" x2="29.7132" y2="28.5409" gradientTransform="matrix(-1.2333 0 0 -1.1176 74.0641 64.6343)">
	<stop  offset="0" style="stop-color:#806456"/>
	<stop  offset="0.3976" style="stop-color:#74583F"/>
	<stop  offset="0.8063" style="stop-color:#5C4427"/>
	<stop  offset="1" style="stop-color:#4F391D"/>
</linearGradient>
<polygon style="opacity:0.65;fill:url(#SVGID_00000068667277560211130680000007142734129560909721_);" points="38.5,35.6 39.2,32.7 
	35.6,33.5 35.6,36.5 "/>
<linearGradient id="SVGID_00000096750535847218927010000001014585217744580527_" gradientUnits="userSpaceOnUse" x1="39.2283" y1="12.5429" x2="39.229" y2="14.6765">
	<stop  offset="0" style="stop-color:#806456"/>
	<stop  offset="0.3976" style="stop-color:#74583F"/>
	<stop  offset="0.8063" style="stop-color:#5C4427"/>
	<stop  offset="1" style="stop-color:#4F391D"/>
</linearGradient>
<polygon style="opacity:0.65;fill:url(#SVGID_00000096750535847218927010000001014585217744580527_);" points="37.3,12.5 38.3,14.7 
	41.1,14.7 41.1,12 "/>
<linearGradient id="SVGID_00000091726191812286348340000012563255547388158087_" gradientUnits="userSpaceOnUse" x1="21.0338" y1="5.853" x2="21.0345" y2="8.3259">
	<stop  offset="0" style="stop-color:#806456"/>
	<stop  offset="0.3976" style="stop-color:#74583F"/>
	<stop  offset="0.8063" style="stop-color:#5C4427"/>
	<stop  offset="1" style="stop-color:#4F391D"/>
</linearGradient>
<polygon style="opacity:0.65;fill:url(#SVGID_00000091726191812286348340000012563255547388158087_);" points="20.4,5.2 19.4,6.7 
	21.9,8.3 22.7,5.6 "/>
<g>
</g>
<g>
</g>
<g>
</g>
<g>
</g>
<g>
</g>
<g>
</g>
</svg>
