<?xml version="1.0" encoding="utf-8"?>
<!-- Generator: Adobe Illustrator 27.3.1, SVG Export Plug-In . SVG Version: 6.00 Build 0)  -->
<svg version="1.1" id="Calque_1" xmlns="http://www.w3.org/2000/svg" xmlns:xlink="http://www.w3.org/1999/xlink" x="0px" y="0px"
	 viewBox="0 0 260 100" style="enable-background:new 0 0 260 100;" xml:space="preserve">
<style type="text/css">
	.st0{fill:#00A439;stroke:#020203;stroke-width:7;stroke-miterlimit:10;}
	.st1{fill:none;stroke:#020203;stroke-width:7;stroke-miterlimit:10;}
</style>
<path class="st0" d="M242,3.6H18.4c-8,0-14.6,7.5-14.6,16.8v59.3c0,9.3,6.5,16.8,14.5,16.8h223.5c8,0,14.5-7.5,14.5-16.8V20.4
	C256.5,11.1,250,3.6,242,3.6z"/>
<polyline class="st1" points="106.2,87.1 120.4,26.7 137.9,86.5 "/>
<line class="st1" x1="129.5" y1="57.7" x2="112.5" y2="59"/>
<path class="st1" d="M53.7,22.1c0,0-25.9-12.3-29.8,0s17.7,31.3,17.7,31.3s25.9,19.7,2,28.8c-5.1,1.9-20.2-4.1-20.2-4.1"/>
<line class="st1" x1="61.6" y1="19.4" x2="104.2" y2="19.4"/>
<line class="st1" x1="83.1" y1="22.3" x2="80.7" y2="85.1"/>
<path class="st1" d="M154.8,87.1V19.4c0,0,30.1-1.2,29.7,18.6c-0.4,19.8-23.1,16.1-23.1,16.1l20.5,31.6"/>
<line class="st1" x1="193.8" y1="24.1" x2="236.9" y2="24.1"/>
<line class="st1" x1="216.1" y1="26.7" x2="213.8" y2="87.1"/>
</svg>
