<?xml version="1.0" encoding="utf-8"?>
<!-- Generator: Adobe Illustrator 27.3.1, SVG Export Plug-In . SVG Version: 6.00 Build 0)  -->
<svg version="1.1" id="Calque_1" xmlns="http://www.w3.org/2000/svg" xmlns:xlink="http://www.w3.org/1999/xlink" x="0px" y="0px"
	 viewBox="0 0 90 90" style="enable-background:new 0 0 90 90;" xml:space="preserve">
<style type="text/css">
	.st0{fill:#FFED00;stroke:#000000;stroke-width:2;stroke-miterlimit:10.0001;}
	.st1{fill:#FFFFFF;stroke:#000000;stroke-width:2;stroke-miterlimit:10;}
	.st2{fill:#E30613;stroke:#000000;stroke-width:2;stroke-miterlimit:10;}
	.st3{stroke:#000000;stroke-width:2;stroke-miterlimit:10;}
	.st4{fill:#FFF37C;stroke:#000000;stroke-width:2;stroke-miterlimit:10;}
</style>
<ellipse transform="matrix(0.712 -0.7022 0.7022 0.712 -18.5702 43.5592)" class="st0" cx="43.8" cy="44.4" rx="32.2" ry="29.1"/>
<path class="st1" d="M71.2,20.4c0,0-9.1-11-21.3-1.8s-2,22.4-2,22.4S61.3,52.2,69,43.7S71.2,20.4,71.2,20.4z"/>
<path class="st2" d="M72.8,58.3c9-2.8,15.6-2.6,15.1-4.9s-9.8-5.3-18.6-3c-2.7,0.7-3.7,1.1-5.8,2.1l5.9-2.5
	c8.9-2.1,16.6-10.6,16.1-13c-0.5-2.3-9.4,2.3-18.3,4.4S51.5,47.2,52,49.5v0.3c-0.1,2.5,0.6,5.2,2,7.1c0.8,1.1,2.1,1.8,3.4,1.9
	C60.7,59.2,68.5,59.6,72.8,58.3z"/>
<path class="st3" d="M63.3,25.5c0.7,5.2,0.3,8.7-2.5,8.2c0,0-3.1-1.4-2.5-6.3S63.1,23.9,63.3,25.5z"/>
<path class="st4" d="M41.5,51.6c0,0-1.8-14.7-18.9-14.6C5.5,37.1,7,40,7,40S1.3,69.8,20.6,67.2C39.8,64.6,41.5,51.6,41.5,51.6z"/>
</svg>
