<?xml version="1.0" encoding="utf-8"?>
<!-- Generator: Adobe Illustrator 27.3.1, SVG Export Plug-In . SVG Version: 6.00 Build 0)  -->
<svg version="1.1" id="Calque_1" xmlns="http://www.w3.org/2000/svg" xmlns:xlink="http://www.w3.org/1999/xlink" x="0px" y="0px"
	 viewBox="0 0 226 100" style="enable-background:new 0 0 226 100;" xml:space="preserve">
<style type="text/css">
	.st0{fill:#E4BC00;stroke:#020203;stroke-width:7;stroke-miterlimit:10;}
	.st1{fill:none;stroke:#030304;stroke-width:7;stroke-miterlimit:10;}
	.st2{fill:none;stroke:#020203;stroke-width:7;stroke-miterlimit:10;}
</style>
<path class="st0" d="M209.61,3.55H16.54c-6.93,0-12.6,7.5-12.6,16.8v59.3c0,9.3,5.59,16.8,12.52,16.8h193.08
	c6.93,0,12.52-7.5,12.52-16.8v-59.3C222.14,11.05,216.55,3.55,209.61,3.55z"/>
<path class="st1" d="M51.92,20.51c0,0-24.93-8.48-28.83,4.19s16.73,28.06,16.73,28.06s25.69,17.94,1.79,27.31
	c-5.1,1.96-19.99-1.86-19.99-1.86"/>
<polyline class="st2" points="134.13,83.45 134.13,27.91 160.36,72.28 160.14,18.07 "/>
<line class="st2" x1="113.4" y1="86.09" x2="113.4" y2="15.98"/>
<path class="st1" d="M204.38,22.73c0,0-25.52-8.71-29.2,3.14s16.01,27.75,16.01,27.75s26.01,20.52,1.89,27.75
	c-4.82,1.83-19.87-1.96-19.87-1.96"/>
<line class="st1" x1="67.08" y1="13.91" x2="67.08" y2="83.56"/>
<polyline class="st1" points="96.79,15.94 70.68,51.9 98.14,81.66 "/>
</svg>
