<?xml version="1.0" encoding="utf-8"?>
<!-- Generator: Adobe Illustrator 27.3.1, SVG Export Plug-In . SVG Version: 6.00 Build 0)  -->
<svg version="1.1" id="Calque_1" xmlns="http://www.w3.org/2000/svg" xmlns:xlink="http://www.w3.org/1999/xlink" x="0px" y="0px"
	 viewBox="0 0 50 35" style="enable-background:new 0 0 50 35;" xml:space="preserve">
<style type="text/css">
	.st0{fill:#B2B2B2;stroke:#000000;stroke-miterlimit:10;}
	.st1{fill:#F9B233;stroke:#000000;stroke-miterlimit:10;}
	.st2{fill:#E71D73;stroke:#000000;stroke-miterlimit:10;}
	.st3{fill:none;stroke:#000000;stroke-miterlimit:10;}
</style>
<ellipse transform="matrix(0.98 -0.1989 0.1989 0.98 -3.1401 7.5927)" class="st0" cx="36.2" cy="19.4" rx="13" ry="8"/>
<ellipse transform="matrix(0.9131 -0.4078 0.4078 0.9131 -1.2848 13.9901)" class="st0" cx="32.2" cy="10" rx="12.3" ry="7.5"/>
<path class="st1" d="M21.8,11.6c0,0-1.7-14.8-9.8-9.5s-15.1,6.3-9.3,8.2S9.1,13,9.1,15S-1.2,34.5,9.8,32.4c11-2.1,19.7,8.1,16.8-4.3
	S21.8,11.6,21.8,11.6z"/>
<path class="st2" d="M14.6,3.7l-4,2.2c0,0,3.7,3.2,3.8,1.1S14.6,3.7,14.6,3.7z"/>
<path class="st3" d="M6.5,11.5c0,0,6.8-3.4,7-1.1"/>
</svg>
