<?xml version="1.0" encoding="utf-8"?>
<!-- Generator: Adobe Illustrator 27.3.1, SVG Export Plug-In . SVG Version: 6.00 Build 0)  -->
<svg version="1.1" id="Calque_1" xmlns="http://www.w3.org/2000/svg" xmlns:xlink="http://www.w3.org/1999/xlink" x="0px" y="0px"
	 viewBox="0 0 100 100" style="enable-background:new 0 0 100 100;" xml:space="preserve">
<style type="text/css">
	.st0{opacity:0.7;fill:#946137;stroke:#020203;stroke-width:1.5;stroke-miterlimit:10;}
	.st1{opacity:0.7;fill:#E62F24;stroke:#020203;stroke-width:1.5;stroke-miterlimit:10;}
	.st2{opacity:0.7;fill:none;stroke:#020203;stroke-width:1.5;stroke-miterlimit:10;}
	.st3{opacity:0.7;fill:#C74827;stroke:#020203;stroke-width:1.5;stroke-miterlimit:10;}
</style>
<path class="st0" d="M44.2,12.7c0,0-29.5,23.7-33.2,20.7c-3.7-3,111.1,24.2,71.8,1.9S43.5,13.4,43.5,13.4"/>
<path class="st1" d="M55.7,46c0,0,16.9,0,13.8,4c-2.7,4-2.7,4-2.7,4L55.7,46z"/>
<path class="st2" d="M72.2,69.7c0,0-11.1,3.7-12.3-6.1"/>
<path class="st0" d="M38.2,21.1c5.8,5.6,27.4,11.2,27.4,11.2"/>
<path class="st0" d="M35.6,29.2c0,0,21.4,9.5,29.7,8.6"/>
<polygon class="st3" points="56.6,109.5 43.8,109.5 40.8,90.9 53.6,91 "/>
</svg>
