<?xml version="1.0" encoding="utf-8"?>
<!-- Generator: Adobe Illustrator 27.3.1, SVG Export Plug-In . SVG Version: 6.00 Build 0)  -->
<svg version="1.1" id="Calque_1" xmlns="http://www.w3.org/2000/svg" xmlns:xlink="http://www.w3.org/1999/xlink" x="0px" y="0px"
	 viewBox="0 0 45 90" style="enable-background:new 0 0 45 90;" xml:space="preserve">
<style type="text/css">
	.st0{fill:#944700;stroke:#020203;stroke-miterlimit:10;}
	.st1{fill:#84A982;stroke:#020203;stroke-miterlimit:10;}
	.st2{fill:#FEC902;stroke:#020203;stroke-miterlimit:10;}
	.st3{fill:#FFD700;stroke:#020203;stroke-miterlimit:10;}
	.st4{fill:#FF2F24;stroke:#020203;stroke-miterlimit:10;}
	.st5{fill:none;stroke:#020203;stroke-miterlimit:10;}
	.st6{fill:#946137;stroke:#020203;stroke-miterlimit:10;}
</style>
<path class="st0" d="M25.4,38.8L14.2,38C7.8,37.5,3,31.1,3.4,23.7v-0.3c0.4-7.6,5.8-13.3,12.1-13l11.1,0.8
	c6.3,0.5,11.2,6.9,10.8,14.3v0.3C37,33.4,31.6,39.1,25.4,38.8z"/>
<rect x="22.8" y="78.7" class="st1" width="10.7" height="7.1"/>
<path class="st2" d="M16.4,1c0,0-14.6,15.9-16.9,14.5s64.7,4.2,40.6-5s-24-9-24-9"/>
<polygon class="st3" points="22.8,82.7 33.3,82.7 33.3,84.3 37.4,84.3 37.4,87.7 22.8,87.7 "/>
<path class="st1" d="M37.3,80H5.9c-1.3,0-2.5-1.4-2.5-3V40.2c0-1.6,1.1-3,2.5-3h31.4c1.3,0,2.5,1.4,2.5,3v36.7
	C39.7,78.6,38.6,80,37.3,80z"/>
<path class="st4" d="M26.3,20.3c0,0,8.1,0,6.6,1.9c-1.3,1.9-1.3,1.9-1.3,1.9L26.3,20.3z"/>
<path class="st5" d="M33.7,32.2c0,0-6.7,2.1-7.4-3.5"/>
<path class="st6" d="M13.7,6.2c3.7,2.7,16.4,4,16.4,4"/>
<path class="st6" d="M12.9,11c0,0,12.9,3.5,17.4,2.3"/>
<g>
	<polygon class="st1" points="2.9,30.5 9.2,26.7 25.2,49 19,52.8 	"/>
	<polygon class="st0" points="13.5,32.6 7.4,36.6 2.9,30.5 9.2,26.7 	"/>
</g>
<rect x="9.5" y="80.5" class="st1" width="10.7" height="7.1"/>
<polygon class="st3" points="9.5,84.5 20,84.5 20,86.1 24.2,86.1 24.2,89.5 9.5,89.5 "/>
</svg>
