<?xml version="1.0" encoding="utf-8"?>
<!-- Generator: Adobe Illustrator 27.3.1, SVG Export Plug-In . SVG Version: 6.00 Build 0)  -->
<svg version="1.1" id="Calque_1" xmlns="http://www.w3.org/2000/svg" xmlns:xlink="http://www.w3.org/1999/xlink" x="0px" y="0px"
	 viewBox="0 0 38 90" style="enable-background:new 0 0 38 90;" xml:space="preserve">
<style type="text/css">
	.st0{fill:#009F00;stroke:#020203;stroke-miterlimit:10;}
	.st1{fill:#4B5A64;stroke:#030304;stroke-miterlimit:10;}
	.st2{fill:#944E45;stroke:#030304;stroke-miterlimit:10;}
	.st3{fill:#FEEB27;stroke:#030304;stroke-miterlimit:10;}
	.st4{fill:#A9A9A9;stroke:#000000;stroke-miterlimit:10;}
	.st5{fill:#777776;stroke:#000000;stroke-width:0.5;stroke-miterlimit:10;}
	.st6{fill:#EA861A;stroke:#030304;stroke-miterlimit:10;}
	.st7{fill:#D97E17;}
	.st8{fill:#B26815;}
	.st9{fill:#E45F1D;stroke:#030304;stroke-miterlimit:10;}
	.st10{fill:#EDD630;}
	.st11{fill:#D7B131;}
	.st12{fill:none;stroke:#030304;stroke-miterlimit:10;}
	.st13{fill:#FFEB1F;stroke:#030304;stroke-width:2;stroke-miterlimit:10;}
	.st14{fill:#7F5026;}
	.st15{fill:none;stroke:#714B29;stroke-width:4;stroke-miterlimit:10;}
	.st16{fill:#7D6C5A;}
	.st17{fill:#945422;}
	.st18{fill:none;stroke:#AA6834;stroke-width:2;stroke-miterlimit:10;}
	.st19{fill:#9D9D9C;stroke:#000000;stroke-miterlimit:10;}
	.st20{fill:#F39208;stroke:#020203;stroke-miterlimit:10;}
	.st21{fill:#E94F1D;stroke:#020203;stroke-miterlimit:10;}
	.st22{fill:#EE7385;stroke:#020203;stroke-miterlimit:10;}
	.st23{fill:#020203;stroke:#020203;stroke-miterlimit:10;}
	.st24{fill:#EE5885;stroke:#020203;stroke-miterlimit:10;}
	.st25{stroke:#020203;stroke-miterlimit:10;}
	.st26{fill:#575756;stroke:#000000;stroke-miterlimit:10;}
	.st27{fill:#F39208;stroke:#020203;stroke-width:0.25;stroke-miterlimit:10;}
	.st28{fill:#E94F1D;stroke:#020203;stroke-width:0.25;stroke-miterlimit:10;}
	.st29{fill:#C74827;stroke:#020203;stroke-miterlimit:10;}
	.st30{fill:#946137;stroke:#020203;stroke-miterlimit:10;}
	.st31{fill:#E62F24;stroke:#020203;stroke-miterlimit:10;}
	.st32{fill:#F9B006;stroke:#020203;stroke-miterlimit:10;}
</style>
<path class="st0" d="M24,33.6l-11.2-0.8C6.4,32.3,1.6,25.9,2,18.5v-0.3c0.4-7.6,5.9-12.5,12.1-13L25.2,6c7,1.1,11.2,6.9,10.8,14.3
	v0.3c-0.1,1.9,0,2.2-0.6,3.8c-0.2,0.6-8.2-1.2-8.5-0.7c-0.3,0.5,5.6,5.8,5.3,6.2C30,33,27.6,33.8,24,33.6z"/>
<rect x="20.1" y="78.4" class="st1" width="10.3" height="9.1"/>
<polygon class="st2" points="20.1,84.3 30.3,84.3 30.3,85.9 34.2,85.9 34.2,89.3 20.1,89.3 "/>
<rect x="7.3" y="79" class="st1" width="10.3" height="8.5"/>
<polygon class="st2" points="7.3,84.3 17.4,84.3 17.4,85.9 21.5,85.9 21.5,89.3 7.3,89.3 "/>
<path class="st1" d="M35.9,34l-6.6-2.4c-0.2-0.1-0.4-0.1-0.5-0.1H8c-0.2,0-0.4,0-0.6,0.1l-5.7,2.6c-0.6,0.3-1,0.9-1,1.6v38.7
	c0,0,0.1,4.2,0.5,4.3s34.7,0,34.7,0s1.5-0.6,1.5-1.4l-0.5-42.1C36.8,34.7,36.5,34.2,35.9,34z"/>
<g>
	<polygon class="st1" points="21.9,71 14.1,70.9 12.3,41.6 20.1,41.7 	"/>
	<polygon class="st3" points="13.6,63.1 21.4,63 21.9,71 14.1,70.9 	"/>
</g>
<polyline class="st4" points="-141.5,24.8 -140.7,18.7 -138.1,21.8 -138.1,6.1 -133.4,17.4 -129.1,4.5 -129.1,15.4 -124.4,-1.7 
	-123.5,14.1 -120.4,17.8 -121.4,0.6 -114.4,16.2 -112.5,10.5 -110.9,17.2 -108.4,-3.7 -108.5,17.6 -105.9,11.1 -102.4,15.9 
	-96.4,-1.8 -95.5,16.9 -92.1,11.1 -92.1,24.8 "/>
<polyline class="st5" points="-140.5,24.8 -140.2,22.6 -138,24.8 -136.6,24.8 -137,13.3 -133.6,21.6 -131.1,15.4 -130.6,22 
	-129.7,23.9 -125.8,10.2 -124.6,16.7 -120.5,22.4 -118.9,22.3 -119.2,11.5 -115.2,19.6 -113.7,20.7 -112.7,18.2 -111.6,21.6 
	-110.2,22.3 -109.7,19.8 -109.4,22.9 -107.6,22.3 -104.7,16.4 -103.3,18.6 -101.4,20.7 -97.7,13.2 -97,22.4 -93.9,19.2 -93.9,24.8 
	"/>
<path class="st6" d="M-42.9,12.4c13.4,0,24.3,10.9,24.3,24.3c0,2-0.2,4-0.7,5.9l-3.9,2.8l2,2.3c-4,7.9-12.2,13.3-21.7,13.3
	c-13.4,0-24.3-10.9-24.3-24.3c0-5.2,1.6-10,4.4-14h3.6l0.5-4.4C-54.5,14.6-48.9,12.4-42.9,12.4z"/>
<path class="st7" d="M-24,34.3c-6.1,2.8-8.3,4.5-9.7,3.4c-2.8-1.8-3.4-1.6-6.1-2.4c-1.6-0.6-2.6-4.9-3.4-5.5s-0.6-5.1,1.6-7.1
	c2-1.8,4.3-6.7,7.1-7.1c3.2-0.2,4.3,0.8,5.7,2c4.5,3.4,4.9,4.9,6.9,8.1c1,1.4,1.4,2.6,1.2,4.5c0.6,2.2-0.6,2.6-0.6,3.4
	C-21.6,34.5-22.2,33.5-24,34.3z"/>
<polygon class="st8" points="-24.2,49.1 -26.5,49.5 -26.9,48.1 -24.2,46.4 -23.2,47.9 "/>
<polygon class="st8" points="-53.2,53.7 -51.6,53.3 -50.2,53.7 -51.2,55.1 -53.8,56 "/>
<polygon class="st8" points="-56.9,25.8 -59.1,26.2 -60.3,25.4 -58.1,24 -55.9,24.6 "/>
<polygon class="st9" points="-41.2,12.8 -36.2,21.6 -25.4,20.4 -27.4,31.5 -19.3,38 -27.2,42.8 -26.9,54.2 -35,51.7 -44.2,60.3 
	-45.6,58 -46.6,56.4 -47.6,54.9 -48.9,52.7 -57.2,55.8 -57.6,45.8 -66,42.4 -59.8,35.5 -64.9,28.2 -57,27.4 -55.5,16.6 -48.1,20.5 
	"/>
<ellipse class="st10" cx="-42.9" cy="36.7" rx="16.6" ry="16.6"/>
<path class="st11" d="M-56.4,34.3c6.3-2.6,8.5-4,9.9-3c2.8,2,3.4,1.6,5.9,2.6c1.6,0.6,2.4,5.1,3.2,5.7c0.8,0.8,0.4,5.1-1.8,7.1
	c-2.2,1.8-4.5,6-7.6,6.2c-3.2,0.2-3-0.8-4.8-1.8c-4.1-2.3-5.3-3.6-6.9-8.7c-0.8-1.6-0.6-3.3-1-4.3c-0.4-2.2,0.4-2.6,0.4-3.4
	C-58.9,34.1-58.3,35.1-56.4,34.3z"/>
<ellipse class="st12" cx="-43.1" cy="36.9" rx="16.6" ry="16.6"/>
<path class="st13" d="M-47.8,44.2c-3.2,5,12.7-19.8,10.1-15.8"/>
<path class="st13" d="M-47.7,28.6c-3-5.1,11.8,19.8,9.4,15.8"/>
<path class="st13" d="M-53,45.4"/>
<rect x="-68.6" y="-50" class="st14" width="50" height="50"/>
<path class="st15" d="M-41.6-35.5c-4,2.2-16.2,3.5-17.7,6.9s-5.5,4.6-4.2,7.1"/>
<polygon class="st16" points="-41.2,-25.5 -45.5,-26.5 -47.9,-24.6 -43.5,-21.9 -39.3,-23.3 "/>
<path class="st17" d="M-38.3-41c0,0,0.7,16.7,4.1,11.5S-37.5-43.4-38.3-41z"/>
<polygon class="st16" points="-23.2,-36.7 -27.9,-36.7 -27.1,-32.2 -23.2,-32.2 "/>
<path class="st18" d="M-60.8-13c0,0-0.6-2,14.7,1.4c12.9,2.9,7.8-4.6,14.1-11.6c4.1-4.6,9.5,2.4,9.5,2.4"/>
<rect x="-68.6" y="-50" class="st19" width="50" height="14.7"/>
<path class="st20" d="M-60.3-50c0,0-7.9-33.4-1-63.3l3.7-11c0,0,4.8,0.2,6.2,13.4c1.4,13.2,4.4,0.5,4.4,0.5s1.7-7.9,0.2-13.1
	c-0.9-3.1,3.3-11,3.3-11s6.7,13.7,5.3,21.5c-1.4,7.8,4-4.4,4-4.4s0.5-6.7,1.8-11c0.9-3,1.9,1.3,4.8,17.7c2.8,15.5,6.7,32.1,5.3,45.7
	S-27-50-27-50H-60.3z"/>
<path class="st21" d="M-53.1-50c0,0-8.9-31.2-5.3-45.4c0,0,6.9,4.5,10.5,12s1-17.1,1-17.1s9.2,10.4,8.6,16c-0.6,5.6,7.1-13,7.1-13
	s11.5,31.4-0.6,46.4l-1.1,1.1H-53.1z"/>
<path class="st20" d="M-83.5-81.3c-6.4,11.3-39.6,10.6-45.1-0.1c-4.1-8,7-22.2,10.2-21.6c1.7,0.4,1.6,4.8,2.9,4.8
	c2,0,2.6-12.5,5.3-12.7c3.1-0.3,5.7,13.5,9.7,13.3c2.9-0.1,3.2-7.2,6.1-7.5C-89.7-105.8-78.5-90.1-83.5-81.3z"/>
<path class="st21" d="M-125.7-81.7c-2.9-3-1.1-9.2,1.1-12.9c0.7-1.1,2.2-3.7,3.8-3.5c1.4,0.2,1.6,2.2,3.5,2.6c1.4,0.3,2.8-0.6,3.2-1
	c1.4-1,2.6-2.8,2.6-4.6c0-1.7-1-2.3-0.7-4.1c0.2-1,0.8-2.2,1.2-2.2c0.7,0,0.7,2.1,2.4,4.8c0.6,1,0.7,0.8,1.8,2.4
	c2.3,3.1,2.1,3.7,3.2,4.6c0.3,0.2,2.4,1.6,4.6,0.9s3-3.2,3.1-3.2c0.5-1.6-0.2-2.7,0.4-3.1c1-0.7,3.6,1.7,3.9,2.1
	c1,0.9,1.5,1.6,1.9,2.1c1,1.4,1.4,2.8,2.3,5.3c0.6,1.7,0.8,2.7,0.9,3.7c0,0.7,0.1,1.2-0.1,2.1c-0.1,0.6-0.5,1.8-2,3.2
	c-1.5,1.6-3.4,2.4-7.1,4c-1.7,0.8-2.7,1.1-3.3,1.2c-2.4,0.6-3.2-0.1-6.6,0.2c-2.3,0.2-2.3,0.5-4.1,0.4c-1.8,0-3.3-0.3-4.5-0.6
	c-1.5-0.5-1.3-0.7-3.4-1.4c-3-1-3.8-0.7-6-1.7C-124.5-80.8-125.1-81.1-125.7-81.7z"/>
<path class="st22" d="M-45.9-60.3c0.6-1.3,1.9-2.3,3.3-2.4c1.2-0.1,2.1,0.6,3.3,1.4c1.1,0.8,2.3,1.6,2.2,2.8
	c-0.1,0.7-0.6,1.1-1.4,1.7c-0.9,0.7-1.7,1.4-3.2,1.5c-1.3,0.1-3.2-0.4-4-1.7c-0.2-0.2-0.6-1-0.6-1.9C-46.2-59.6-46-60.1-45.9-60.3z"
	/>
<path class="st23" d="M-37.4-70.1c0.4-0.2,1-0.1,1.1,0.3c0.2,0.4,0,0.8-0.1,1c0,0.1-0.3,0.8-0.8,0.8s-0.8-0.7-0.8-1.2
	C-37.7-69.4-37.7-69.9-37.4-70.1z"/>
<path class="st24" d="M21.2,16.1c-0.3-2.2,2.1-3.7,2.3-3.8c2.2-1.3,5.7-1.1,7,1.3c0.7,1.2,0.7,3.1-0.1,4.3c-1.3,2.2-4.4,2-6,1.3
	C23.9,19.1,21.4,18.2,21.2,16.1z"/>
<path class="st25" d="M27.5,15.3c0.4-0.3,1.1-0.1,1.2,0.3c0.2,0.4,0,0.9-0.1,1.1c0,0.1-0.4,0.8-0.8,0.8c-0.5,0-0.9-0.8-0.8-1.3
	C27,16,27.1,15.5,27.5,15.3z"/>
<polygon class="st26" points="-68.6,-35.3 -54.2,-49.7 -68.6,-50 "/>
<polygon class="st26" points="-18.6,-35.3 -33.1,-49.8 -18.6,-50 "/>
<path class="st27" d="M-61.7-123.6c-0.7,2.9-4.2,2.8-4.8,0c-0.4-2.1,0.7-5.8,1.1-5.6c0.2,0,0.2,1.2,0.3,1.2c0.2,0,0.3-3.3,0.6-3.3
	c0.3-0.1,0.6,3.5,1,3.5c0.3,0,0.3-1.9,0.6-2C-62.4-130-61.2-125.9-61.7-123.6z"/>
<path class="st28" d="M-65.4-123.8c-0.2-0.5-0.1-1.6,0.1-2.2c0-0.2,0.2-0.6,0.3-0.6s0.1,0.4,0.2,0.5c0.1-0.1,0.2-0.2,0.2-0.3
	c0.1-0.2,0.2-0.5,0.2-0.8c0-0.3-0.1-0.4,0-0.7c0-0.2,0.1-0.4,0.1-0.4s0,0.4,0.2,0.8c0,0.2,0,0.1,0.1,0.4c0.2,0.5,0.1,0.6,0.2,0.8
	c0,0,0.2,0.3,0.3,0.2c0.2-0.1,0.2-0.6,0.2-0.6c0-0.3,0-0.5,0-0.5c0.1-0.1,0.3,0.3,0.3,0.4c0.1,0.2,0.1,0.3,0.1,0.4
	c0.1,0.2,0.1,0.5,0.2,0.9c0,0.3,0.1,0.5,0.1,0.6s0,0.2,0,0.4c0,0.1,0,0.3-0.1,0.6c-0.1,0.3-0.2,0.4-0.5,0.7
	c-0.1,0.1-0.2,0.2-0.2,0.2c-0.2,0.1-0.2,0-0.5,0c-0.2,0-0.2,0.1-0.3,0.1c-0.2-0.1-0.3-0.1-0.4-0.2s-0.1-0.1-0.2-0.2
	c-0.2-0.2-0.3-0.1-0.4-0.3C-65.3-123.7-65.4-123.7-65.4-123.8z"/>
<path class="st27" d="M-19.7-108.1c-0.7,2.9-4.2,2.8-4.8,0c-0.4-2.1,0.7-5.8,1.1-5.6c0.2,0.1,0.2,1.3,0.3,1.3c0.2,0,0.3-3.3,0.6-3.3
	c0.3-0.1,0.6,3.5,1,3.5c0.3,0,0.3-1.9,0.6-2C-20.3-114.5-19.1-110.4-19.7-108.1z"/>
<path class="st28" d="M-23.3-108.3c-0.2-0.5-0.1-1.6,0.1-2.2c0-0.2,0.2-0.6,0.3-0.6s0.1,0.4,0.2,0.5c0.1,0.1,0.2-0.1,0.2-0.2
	c0.1-0.2,0.2-0.5,0.2-0.8c0-0.3-0.1-0.4,0-0.7c0-0.2,0.1-0.4,0.1-0.4s0,0.4,0.2,0.8c0,0.2,0,0.1,0.1,0.4c0.2,0.5,0.1,0.6,0.2,0.8
	c0,0,0.2,0.3,0.3,0.2s0.2-0.6,0.2-0.6c0-0.3,0-0.5,0-0.5c0.1-0.1,0.3,0.3,0.3,0.4c0.1,0.2,0.1,0.3,0.1,0.4c0.1,0.2,0.1,0.5,0.2,0.9
	c0,0.3,0.1,0.5,0.1,0.6s0,0.2,0,0.4c0,0.1,0,0.3-0.1,0.6s-0.2,0.4-0.5,0.7c-0.1,0.1-0.2,0.2-0.2,0.2c-0.2,0.1-0.2,0-0.5,0
	c-0.2,0-0.2,0.1-0.3,0.1s-0.2-0.1-0.3-0.1c-0.1-0.1-0.1-0.1-0.2-0.2c-0.2-0.2-0.3-0.1-0.4-0.3C-23.3-108.2-23.3-108.2-23.3-108.3z"
	/>
<path class="st27" d="M-23.8-130.1c-0.7,2.9-4.2,2.8-4.8,0c-0.4-2.1,0.7-5.8,1.1-5.6c0.2,0.1,0.2,1.3,0.3,1.3c0.2,0,0.3-3.3,0.6-3.3
	c0.3-0.1,0.6,3.5,1,3.5c0.3,0,0.3-1.9,0.6-2C-24.5-136.5-23.3-132.4-23.8-130.1z"/>
<path class="st28" d="M-27.5-130.3c-0.2-0.5-0.1-1.6,0.1-2.2c0-0.2,0.2-0.6,0.3-0.6s0.1,0.4,0.2,0.5c0.1,0.1,0.2-0.1,0.2-0.2
	c0.1-0.2,0.2-0.5,0.2-0.8c0-0.3-0.1-0.4,0-0.7c0-0.2,0.1-0.4,0.1-0.4s0,0.4,0.2,0.8c0,0.2,0,0.1,0.1,0.4c0.2,0.5,0.1,0.6,0.2,0.8
	c0,0,0.2,0.3,0.3,0.2c0.2-0.1,0.2-0.6,0.2-0.6c0-0.3,0-0.5,0-0.5c0.1-0.1,0.3,0.3,0.3,0.4c0.1,0.2,0.1,0.3,0.1,0.4
	c0.1,0.2,0.1,0.5,0.2,0.9c0,0.3,0.1,0.5,0.1,0.6c0,0.1,0,0.2,0,0.4c0,0.1,0,0.3-0.1,0.6s-0.2,0.4-0.5,0.7c-0.1,0.1-0.2,0.2-0.2,0.2
	c-0.2,0.1-0.2,0-0.5,0c-0.2,0-0.2,0.1-0.3,0.1s-0.2-0.1-0.3-0.1c-0.1-0.1-0.1-0.1-0.2-0.2c-0.2-0.2-0.3-0.1-0.4-0.3
	C-27.4-130.1-27.5-130.1-27.5-130.3z"/>
<rect x="77.8" y="54.8" class="st29" width="10.7" height="7.1"/>
<polygon class="st30" points="77.8,58.8 88.3,58.8 88.3,60.4 92.4,60.4 92.4,63.8 77.8,63.8 "/>
<rect x="64.5" y="54.8" class="st29" width="10.7" height="7.1"/>
<path class="st30" d="M72.6-25.1c0,0-16.8,13.5-18.9,11.8C51.6-15,117,0.5,94.6-12.2S72.2-24.7,72.2-24.7"/>
<path class="st29" d="M92.2,54.4H60.8c-1.3,0-2.5-1.4-2.5-3V14.6c0-1.6,1.1-3,2.5-3h31.4c1.3,0,2.5,1.4,2.5,3v36.7
	C94.6,53,93.5,54.4,92.2,54.4z"/>
<path class="st31" d="M80.5-6.1c0,0,8.1,0,6.6,1.9c-1.3,1.9-1.3,1.9-1.3,1.9L80.5-6.1z"/>
<path class="st32" d="M88.6,7.4c0,0-6.3,2.1-7-3.5"/>
<path class="st30" d="M69.2-20.3c3.3,3.2,15.6,6.4,15.6,6.4"/>
<path class="st30" d="M67.7-15.7c0,0,12.2,5.4,16.9,4.9"/>
<g>
	<polygon class="st29" points="79.7,47 72.4,46.9 70.7,19.5 78,19.6 	"/>
	<polygon class="st32" points="71.9,39.6 79.2,39.5 79.7,47 72.4,46.9 	"/>
</g>
<polygon class="st30" points="64.5,58.8 75,58.8 75,60.4 79.2,60.4 79.2,63.8 64.5,63.8 "/>
<path class="st23" d="M-47.3-70.1c0.4-0.2,1-0.1,1.1,0.3c0.2,0.4,0,0.8-0.1,1c0,0.1-0.3,0.8-0.8,0.8s-0.8-0.7-0.8-1.2
	C-47.6-69.4-47.6-69.9-47.3-70.1z"/>
</svg>
