<?xml version="1.0" encoding="utf-8"?>
<!-- Generator: Adobe Illustrator 27.3.1, SVG Export Plug-In . SVG Version: 6.00 Build 0)  -->
<svg version="1.1" id="Calque_1" xmlns="http://www.w3.org/2000/svg" xmlns:xlink="http://www.w3.org/1999/xlink" x="0px" y="0px"
	 viewBox="0 0 90 90" style="enable-background:new 0 0 90 90;" xml:space="preserve">
<style type="text/css">
	.st0{fill:#E4DBDB;stroke:#1D1D1B;stroke-width:2;stroke-miterlimit:10;}
	.st1{fill:#62564F;stroke:#020203;stroke-width:2;stroke-miterlimit:10;}
	.st2{fill:#E3BB94;stroke:#020203;stroke-width:2;stroke-miterlimit:10;}
	.st3{fill:#FFFFFF;stroke:#020203;stroke-width:2;stroke-miterlimit:10;}
	.st4{fill:#BF9B54;stroke:#020203;stroke-width:2;stroke-miterlimit:10;}
	.st5{fill:none;stroke:#020203;stroke-width:2;stroke-miterlimit:10;}
	.st6{fill:#92C025;stroke:#020203;stroke-width:2;stroke-miterlimit:10;}
	.st7{fill:#9F8F19;stroke:#020203;stroke-width:2;stroke-miterlimit:10;}
	.st8{fill:#C6C6C6;stroke:#020203;stroke-width:2;stroke-miterlimit:10;}
	.st9{fill:#531A0C;stroke:#691A0B;stroke-width:2;stroke-miterlimit:10;}
	.st10{fill:none;stroke:#E00914;stroke-width:2;stroke-miterlimit:10;}
	.st11{fill:#744710;stroke:#1D1D1B;stroke-width:2;stroke-miterlimit:10;}
</style>
<path class="st0" d="M77.5,26.8c0,0-0.1-20.7-25.1-20.7s-26.5,11.6-29.5,20c-5.1,14.5,12,34.1,12,34.1s9.1,15.2,15.4,15.2
	c4.9,0,16.8-15.3,16.8-15.3S80.7,48,77.5,26.8z"/>
<polyline class="st1" points="36.4,48.7 49.4,67.6 65.1,49.3 "/>
<polygon class="st2" points="54.1,62.1 54.3,53.7 45.7,53.2 45.7,62.3 49.4,67.6 "/>
<path class="st2" d="M72.2,27c0,0,1.4,27.1-19.5,27.2S29.1,37,28.9,28.2C28.8,19.4,72,20.1,72.2,27z"/>
<path class="st3" d="M43.3,33.9c0,2.3-1.9,0-4.2,0s-4.2,2.3-4.2,0s1.9-4.2,4.2-4.2S43.3,31.6,43.3,33.9z"/>
<path class="st3" d="M65.7,33.9c0,2.3-2.2,0-4.6,0c-2.3,0-3.9,2.3-3.9,0s1.9-4.2,4.2-4.2C63.8,29.7,65.7,31.5,65.7,33.9z"/>
<path class="st4" d="M60.3,43.7c-5.1,14-19.1,0-19.1,0H60.3z"/>
<path class="st5" d="M48.5,39.3c0,0,4-1.7,5.6,0"/>
<g>
	<polygon class="st6" points="40.2,72.5 31.6,81.9 14.1,65.3 17.8,61.7 23.9,55.8 	"/>
	<polygon class="st7" points="10.3,55.8 17.2,61.8 20.8,58.8 14.3,52.3 	"/>
	<line class="st8" x1="16.3" y1="55.1" x2="15.2" y2="56"/>
</g>
<path class="st9" d="M57.6,27.5c0,0,4.8-2.3,8.8,0"/>
<path class="st9" d="M34.2,27.2c0,0,4.8-2.3,8.8,0"/>
<path class="st0" d="M71.8,27l-20.6-5.3l-21.8,5l1.4-15c0,0,17.6-13.5,38.4-0.8L71.8,27z"/>
<path class="st1" d="M46.1,62.2"/>
<path class="st5" d="M65.1,49.3"/>
<line class="st5" x1="36.4" y1="48.7" x2="49.4" y2="67.6"/>
<polyline class="st10" points="29.5,26.7 51.3,21.7 71.8,27 "/>
<polyline class="st11" points="29.7,29 26.9,32.3 29.6,35.2 28.3,39.3 31.1,39.8 "/>
<polyline class="st11" points="69.8,39.6 73.5,37.4 71.9,33.8 74.4,30.3 72,28.9 "/>
</svg>
