<?xml version="1.0" encoding="utf-8"?>
<!-- Generator: Adobe Illustrator 27.3.1, SVG Export Plug-In . SVG Version: 6.00 Build 0)  -->
<svg version="1.1" id="Calque_1" xmlns="http://www.w3.org/2000/svg" xmlns:xlink="http://www.w3.org/1999/xlink" x="0px" y="0px"
	 viewBox="0 0 50 60" style="enable-background:new 0 0 50 60;" xml:space="preserve">
<style type="text/css">
	.st0{fill:#FCF8CD;stroke:#020203;stroke-miterlimit:10;}
	.st1{fill:#FBCB9A;stroke:#020203;stroke-miterlimit:10;}
	.st2{fill:#E62F24;stroke:#020203;stroke-miterlimit:10;}
	.st3{fill:#FFFFFF;stroke:#020203;stroke-miterlimit:10;}
	.st4{fill:#946137;stroke:#020203;stroke-miterlimit:10;}
</style>
<path class="st0" d="M8.8,56.9c-8,2.7-3.6-2.8-3.6-2.8s6.8-9,8.2-11.8c1.4-2.7-6.3-18.9-6.3-18.9V23c0.4-7.6,5.8-13.3,12.1-13
	l11.1,0.8c6.3,0.5,11.2,6.9,10.8,14.3l-0.6,6.1C48.1,62.8,8.8,56.9,8.8,56.9z"/>
<path class="st1" d="M21.7,0.6c0,0-16.8,13.5-18.9,11.8s63.3,13.8,40.9,1.1S21.2,1,21.2,1"/>
<path class="st2" d="M21.5,23.7c0,0,6.7,1.2,5.8-0.8c-0.8-2-0.8-2-0.8-2L21.5,23.7z"/>
<path class="st3" d="M35.7,34.3c0,0-6.3,2.1-7-3.5c0,0,3.2-6,6.3-1.7S35.7,34.3,35.7,34.3z"/>
<path class="st4" d="M18.2,4.8c3.3,3.2,15.6,6.4,15.6,6.4"/>
<path class="st4" d="M16.7,9.4c0,0,12.2,5.4,16.9,4.9"/>
</svg>
