<?xml version="1.0" encoding="utf-8"?>
<!-- Generator: Adobe Illustrator 27.3.1, SVG Export Plug-In . SVG Version: 6.00 Build 0)  -->
<svg version="1.1" id="Calque_1" xmlns="http://www.w3.org/2000/svg" xmlns:xlink="http://www.w3.org/1999/xlink" x="0px" y="0px"
	 viewBox="0 0 150 300" style="enable-background:new 0 0 150 300;" xml:space="preserve">
<style type="text/css">
	.st0{opacity:0.7;fill:#C74827;stroke:#020203;stroke-width:3;stroke-miterlimit:10;}
	.st1{opacity:0.7;fill:#946137;stroke:#020203;stroke-width:3;stroke-miterlimit:10;}
	.st2{opacity:0.7;fill:#E62F24;stroke:#020203;stroke-width:3;stroke-miterlimit:10;}
	.st3{opacity:0.7;fill:none;stroke:#020203;stroke-width:3;stroke-miterlimit:10;}
	.st4{opacity:0.7;}
	.st5{fill:#C74827;stroke:#020203;stroke-width:3;stroke-miterlimit:10;}
	.st6{fill:#F9B006;stroke:#020203;stroke-width:3;stroke-miterlimit:10;}
</style>
<rect x="79.4" y="265.7" class="st0" width="34.9" height="23.2"/>
<polygon class="st1" points="79.4,278.8 113.6,278.8 113.6,284 127,284 127,295.1 79.4,295.1 "/>
<rect x="35.9" y="265.7" class="st0" width="34.9" height="23.2"/>
<path class="st1" d="M62.4,4.9c0,0-54.8,44.1-61.7,38.5s206.6,45,133.5,3.6S61.1,6.2,61.1,6.2"/>
<path class="st2" d="M88.2,66.9c0,0,26.4,0,21.5,6.2c-4.2,6.2-4.2,6.2-4.2,6.2L88.2,66.9z"/>
<path class="st3" d="M117.3,108.6c0,0-20.6,6.9-22.8-11.4"/>
<path class="st1" d="M51.3,20.6c10.8,10.4,50.9,20.9,50.9,20.9"/>
<path class="st1" d="M46.4,35.6c0,0,39.8,17.6,55.2,16"/>
<g class="st4">
	<polygon class="st5" points="85.6,240.2 61.7,239.9 56.2,150.5 80,150.8 	"/>
	<polygon class="st6" points="60.1,216.1 83.9,215.8 85.6,240.2 61.7,239.9 	"/>
</g>
<polygon class="st1" points="35.9,278.8 70.2,278.8 70.2,284 83.9,284 83.9,295.1 35.9,295.1 "/>
</svg>
