<?xml version="1.0" encoding="utf-8"?>
<!-- Generator: Adobe Illustrator 27.3.1, SVG Export Plug-In . SVG Version: 6.00 Build 0)  -->
<svg version="1.1" id="Calque_1" xmlns="http://www.w3.org/2000/svg" xmlns:xlink="http://www.w3.org/1999/xlink" x="0px" y="0px"
	 viewBox="0 0 50 100" style="enable-background:new 0 0 50 100;" xml:space="preserve">
<style type="text/css">
	.st0{fill:#42AC3A;stroke:#030304;stroke-miterlimit:10;}
</style>
<path class="st0" d="M22,100c0,0-24.5-56.3-13.3-73.9C8.7,26.1,39.7,91.4,22,100"/>
<path class="st0" d="M34.3,100.5c0,0-16.2-62.5,3.8-98.5c0,0,16.3,89.3-1.4,98"/>
<path class="st0" d="M42.6,16.2c-6.5,2.1-10.1,52.9-10.1,52.9c-3-6.7-3.6-51.5-3.2-66.9c0.2-10.1-8.9,40.9-8.9,40.9
	C16.5,7.3,6.7,7.5,6.7,7.5c7.2,2.1,2.4,56.2,2.4,56.2C4,25.7,2.2,24.3,2.2,24.3c-0.1,2.2-0.7,31.5-0.2,38c0.1,1.4,0.2,2.9,0.3,4.4
	C2.9,81.3,0.9,100,0.9,100h48.5l-1.3-56.1c-3.3,12.4-8.2,28.3-7.9,29.3L42.6,16.2z"/>
<path class="st0" d="M19.3,100c0,0-5.5-5.6-2.5-49.6l3.6-23.6c0,0,21.7,57.9,9.2,73.2C29.2,100.5,19.7,99.6,19.3,100z"/>
<path class="st0" d="M40.4,37c0,0,12,53-4.2,63.1c-1.3,0.8-9.7,0-9.7,0S18.2,72.7,40.4,37z"/>
<path class="st0" d="M9.1,100c0,0-7.3-15.8-8.2-56.3c0,0,30.7,40.9,18.4,56.3"/>
</svg>
