<?xml version="1.0" encoding="utf-8"?>
<!-- Generator: Adobe Illustrator 27.3.1, SVG Export Plug-In . SVG Version: 6.00 Build 0)  -->
<svg version="1.1" id="Calque_1" xmlns="http://www.w3.org/2000/svg" xmlns:xlink="http://www.w3.org/1999/xlink" x="0px" y="0px"
	 viewBox="0 0 50 60" style="enable-background:new 0 0 50 60;" xml:space="preserve">
<style type="text/css">
	.st0{fill:#EADA00;stroke:#000000;stroke-miterlimit:10;}
	.st1{fill:#D97321;stroke:#000000;stroke-miterlimit:10;}
	.st2{fill:#BF2918;stroke:#000000;stroke-miterlimit:10;}
	.st3{stroke:#000000;stroke-miterlimit:10;}
	.st4{fill:#E52620;stroke:#000000;stroke-miterlimit:10;}
	.st5{fill:#34A936;stroke:#000000;stroke-miterlimit:10;}
	.st6{fill:#1F5527;stroke:#000000;stroke-miterlimit:10;}
</style>
<g>
	<path class="st0" d="M10.1,15.8l1-4.5c0,0,15.3-24.6,32.1,0.6c2.6,3.9,1.3,4.7,1.3,4.7L10.1,15.8"/>
	<path class="st0" d="M10.1,15.8"/>
	<line class="st0" x1="1.2" y1="15.8" x2="10.9" y2="15.8"/>
</g>
<path class="st1" d="M12,16.6L10.1,21c0,0,1.3,2.5,1.9,2.9c0.6,0.4,3.9,4,3.9,4l4.7,1.6l2.9,0.5h3.3h4.2h1.2l2.6-0.5l1.2-0.4
	l0.7-0.6l0.6-0.8l0.3-0.5c0,0,0.7-0.7,1.1-1c0.3-0.3,1.3-0.8,1.6-1.2c0.2-0.4,0.5-1.1,0.7-1.4c0.2-0.2,0.4-0.7,0.5-1.1
	c0.1-0.4,0.2-0.6,0.4-1.1c0.1-0.5-0.1-0.6,0-1.1c0.1-0.5-0.2-1-0.2-1.4c-0.1-0.4-0.3-0.7-0.3-1.2S40.9,17,40.9,17L12,16.6z"/>
<path class="st2" d="M37.9,19.2l-5.4-0.5C32.5,18.7,37.5,23.1,37.9,19.2z"/>
<polyline class="st3" points="37.8,26.5 33.9,26.1 33.1,25.2 32.5,24.6 32.1,23.9 31.8,22.9 31.8,22.4 "/>
<path class="st4" d="M9.2,53.5l5,0.3c0,0,5.6-0.1,5.8,0c0.2,0.1,6.8,0,6.8,0l4.5,0.1l5.8-0.5l5.6-1.6c0,0,3.9-3.6,1.9-8.7l-2.7-5.4
	l-2.4-3.4l-1.7-2.5l-23.6,0.4l-5.1,6.4c0,0-3.3,7-3.3,7.6C5.7,46.2,3.7,52,9.2,53.5z"/>
<g>
	<path class="st5" d="M4.6,27l1.1-0.5c1.9,0.3,3.5,0.5,4.6,0.6c3.6,0.5,4.4,0.7,6.2,0.8L43,28.2c1.5,0.2,2.7,0.3,3.5,0.4l0.9,0.2
		l1,0.5c0,0,0.4,1.7,0.5,2.1s0.4,1.6,0.4,1.6s0.3,1.1,0,1.5s-0.5,0.7-0.9,1s-1.3,0.4-1.3,0.4h-0.9h-1c0,0-3.8,0.3-4.2,0.4L31.4,37
		h-4.3c0,0-2.6-0.8-2.9-1.1c-0.3-0.3-4.9-0.1-5.7-0.2c-0.8-0.1-5.2,0.2-5.2,0.2L9,35.5l-2.6,0.4"/>
	<path class="st6" d="M7.5,34.7c0,0.6-1.1,1.2-1.1,1.2s-2.8-0.8-3-1C-2,30.4,4.6,27,4.6,27S9.5,30.3,7.5,34.7z"/>
</g>
<path class="st1" d="M16.2,37.5v-7.4c0,0,1.2-1.4,1.7,0s0,6.5,0,6.5l0.9,0.4l0.6-6.9c0,0,1.1-2.7,1.4-0.1s0,7.6,0,7.6h0.7l0.5-7
	c0,0,0.9-1.9,1.1-0.1c0.2,1.8,0,6.8,0,6.8l1.3,0.1v-6.8c0,0,1-2.9,1.3-0.5s0,7.5,0,7.5l3.4-2.9c0,0,1.7,0.8,0.8,1.9
	c-0.9,1.1-4.7,4-4.7,4s-6.3,5.5-8.9-0.3S16.2,37.5,16.2,37.5z"/>
<polyline class="st1" points="14.7,54.1 12.8,58.4 13.7,59.4 17.5,59.4 20.6,57.7 18.8,53.8 "/>
<polyline class="st1" points="31.4,54.1 29.4,58.4 30.4,59.4 34.2,59.4 37.3,57.7 35.5,53.8 "/>
</svg>
