<?xml version="1.0" encoding="utf-8"?>
<!-- Generator: Adobe Illustrator 27.3.1, SVG Export Plug-In . SVG Version: 6.00 Build 0)  -->
<svg version="1.1" id="Calque_1" xmlns="http://www.w3.org/2000/svg" xmlns:xlink="http://www.w3.org/1999/xlink" x="0px" y="0px"
	 viewBox="0 0 120 120" style="enable-background:new 0 0 120 120;" xml:space="preserve">
<style type="text/css">
	.st0{opacity:0.4;fill:#EC6646;stroke:#000000;stroke-width:7;stroke-miterlimit:10;}
	.st1{fill:none;stroke:#000000;stroke-width:7;stroke-miterlimit:10;}
</style>
<path class="st0" d="M109.51,116.55H10.49c-3.8,0-6.87-3.08-6.87-6.87V10.65c0-3.8,3.08-6.87,6.87-6.87h99.02
	c3.8,0,6.87,3.08,6.87,6.87v99.02C116.38,113.47,113.31,116.55,109.51,116.55z"/>
<path class="st1" d="M109.51,116.55H10.49c-3.8,0-6.87-3.08-6.87-6.87V10.65c0-3.8,3.08-6.87,6.87-6.87h99.02
	c3.8,0,6.87,3.08,6.87,6.87v99.02C116.38,113.47,113.31,116.55,109.51,116.55z"/>
</svg>
