<?xml version="1.0" encoding="utf-8"?>
<!-- Generator: Adobe Illustrator 27.3.1, SVG Export Plug-In . SVG Version: 6.00 Build 0)  -->
<svg version="1.1" id="Calque_1" xmlns="http://www.w3.org/2000/svg" xmlns:xlink="http://www.w3.org/1999/xlink" x="0px" y="0px"
	 viewBox="0 0 20 20" style="enable-background:new 0 0 20 20;" xml:space="preserve">
<style type="text/css">
	.st0{fill:#350D04;stroke:#000000;stroke-miterlimit:10;}
	.st1{fill:#4C2F11;}
	.st2{fill:#512F0D;}
	.st3{fill:none;stroke:#523619;stroke-width:4;stroke-miterlimit:10;}
	.st4{fill:#5B340E;}
	.st5{fill:#3E362B;}
	.st6{fill:#3B3429;}
	.st7{fill:none;stroke:#573614;stroke-width:2;stroke-miterlimit:10;}
</style>
<path class="st0" d="M15.3,10c-0.5,1-2.2,5.6-2.2,5.6c-0.6-0.7-0.8-3.7-1.3-7.1c-0.3-1.8,0.5-2.4,0.5-3.3c-1-1-3.5,8.5-3.5,8.5
	C7.7,6.8,3.5,9.3,3.5,9.3c2.5,0.3,1.7,6.2,1.7,6.2c-1.8-6.3-4-0.5-4-0.5c2.9,0.4,1.2,5.7,1.2,5.7H19c0,0,0.3-8.4-0.5-6.5
	c-1.2,2.8-2.6,2.1-2.6,2.1S18.1,4.6,15.3,10z"/>
<rect x="23.1" y="-14.2" class="st1" width="50" height="50"/>
<path class="st2" d="M53.4-5.2c0,0,0.7,16.7,4.1,11.5S54.2-7.6,53.4-5.2z"/>
<path class="st3" d="M50.1,0.3c-4,2.2-16.2,3.5-17.7,6.9c-1.5,3.4-5.5,4.6-4.2,7.1"/>
<path class="st4" d="M51.5,31.5c0,0,18-6.2,17,1.1"/>
<polygon class="st5" points="50.5,10.3 46.2,9.3 43.8,11.2 48.2,13.9 52.4,12.5 "/>
<polygon class="st6" points="36.7,32.3 33.8,26.6 30.9,30.1 33.8,32.3 "/>
<polygon class="st5" points="68.5,-0.9 63.8,-0.9 64.6,3.6 68.5,3.6 "/>
<path class="st7" d="M30.9,22.8c0,0-0.6-2,14.7,1.4c12.9,2.9,7.8-4.6,14.1-11.6C63.8,8,69.2,15,69.2,15"/>
<g>
	<path class="st0" d="M69.5-5.7c1.3-0.8,2.8-1.6,4.2-2.2V-14H22.6v6.8c4.4-3.2,6.6,0.8,9.5,3c4.3,3,7.8-1.3,7.8-5.4
		c0.3,1.2,0.6,2.3,1.2,3.4l0.1-0.3c0.1-0.5,0.6-0.6,0.9-1.2c1,1,2,2,3.1,3c1.9-2.9,4.6-3.7,7.5-1.5h0.1c3.5-3.1,6.5-1.1,8.9,2.3
		c0.6-1.4,0.9-5.6,2.7-6.1c1.3-0.4,4.1,3.4,5.2,4.5"/>
</g>
</svg>
