<?xml version="1.0" encoding="utf-8"?>
<!-- Generator: Adobe Illustrator 27.3.1, SVG Export Plug-In . SVG Version: 6.00 Build 0)  -->
<svg version="1.1" id="Calque_1" xmlns="http://www.w3.org/2000/svg" xmlns:xlink="http://www.w3.org/1999/xlink" x="0px" y="0px"
	 viewBox="0 0 100 100" style="enable-background:new 0 0 100 100;" xml:space="preserve">
<style type="text/css">
	.st0{fill:#878787;stroke:#000000;stroke-width:2;stroke-miterlimit:10;}
	.st1{fill:#838382;stroke:#000000;stroke-width:2;stroke-miterlimit:10;}
</style>
<path class="st0" d="M88.4,43.9l9.3-7.4l-14.1-7.1l5.8-14.7l-18.1,2.2L70.9,3.6l-15.1,7L45.6,1L35.3,13.4L21.1,7.9L21.3,23L7.7,20.7
	l5.8,14.6L0.9,38l10.4,11.9L0.7,58.5l12.5,5.7l-9.5,9.5l15.6,1l-3.6,11.5l14.1-2.3l0.9,11.8L42,89.4l8,10.6l11.1-11.5L74.8,96
	l1.6-17.2l13.8,2.9l-3.5-18.3l11-5.5L88.4,43.9z M61.2,59.5l-7.3-1.8l-3.8,7l-0.4,0L45,57.4l-6.5,1.1l3-6.6l-6.1-4l7.1-2.6l0.3-8.1
	l7.5,5l8.3-4.1l-0.3,7.4l6.4,3.2L59,53.5L61.2,59.5z"/>
<line class="st1" x1="58.7" y1="12.3" x2="67.4" y2="16.5"/>
<line class="st1" x1="74.3" y1="19.9" x2="80.6" y2="27.5"/>
<line class="st1" x1="85.5" y1="33.6" x2="87.1" y2="41"/>
<line class="st1" x1="87.1" y1="47.4" x2="86.3" y2="59.6"/>
<line class="st1" x1="85.5" y1="64.7" x2="77.4" y2="76.4"/>
<line class="st1" x1="73.3" y1="79.9" x2="63" y2="87.2"/>
<line class="st1" x1="57.6" y1="89" x2="45.2" y2="89"/>
<line class="st1" x1="39.3" y1="88" x2="31.3" y2="84.1"/>
<line class="st1" x1="27" y1="81.5" x2="21.6" y2="75.6"/>
<line class="st1" x1="16.9" y1="71.6" x2="14.7" y2="66"/>
<line class="st1" x1="13.9" y1="60.6" x2="12.5" y2="51.9"/>
<line class="st1" x1="12.5" y1="46" x2="13.9" y2="37.3"/>
<line class="st1" x1="15.8" y1="33.1" x2="20.4" y2="25.5"/>
<line class="st1" x1="23.2" y1="21.2" x2="32.3" y2="15.9"/>
<line class="st1" x1="39.3" y1="12.3" x2="52.1" y2="11.2"/>
</svg>
