<?xml version="1.0" encoding="utf-8"?>
<!-- Generator: Adobe Illustrator 27.3.1, SVG Export Plug-In . SVG Version: 6.00 Build 0)  -->
<svg version="1.1" id="Calque_1" xmlns="http://www.w3.org/2000/svg" xmlns:xlink="http://www.w3.org/1999/xlink" x="0px" y="0px"
	 viewBox="0 0 90 90" style="enable-background:new 0 0 90 90;" xml:space="preserve">
<style type="text/css">
	.st0{enable-background:new    ;}
	.st1{fill:#67160E;stroke:#000000;stroke-miterlimit:10;}
	.st2{fill:#55130C;stroke:#000000;stroke-miterlimit:10;}
	.st3{fill:#63160D;stroke:#000000;stroke-miterlimit:10;}
	.st4{fill:#9B2215;stroke:#000000;stroke-miterlimit:10;}
	.st5{fill:#0A4B1C;stroke:#000000;stroke-miterlimit:10;}
	.st6{fill:#0B531F;stroke:#000000;stroke-miterlimit:10;}
	.st7{fill:#0C5A22;stroke:#000000;stroke-miterlimit:10;}
	.st8{fill:#128833;stroke:#000000;stroke-miterlimit:10;}
</style>
<g>
	<g>
		<g class="st0">
			<g>
				<polygon class="st1" points="42.7,55.5 23,50.9 56.1,46.3 75.7,50.8 				"/>
			</g>
			<g>
				<polygon class="st2" points="44.6,78.8 25,74.2 2.9,61 22.6,65.6 				"/>
			</g>
			<g>
				<polygon class="st3" points="22.6,65.6 2.9,61 22.4,43.3 42,47.9 				"/>
			</g>
			<g>
				<polygon class="st4" points="42,47.9 42.7,55.5 75.7,50.8 69.4,59.6 77,66.2 43.9,70.8 44.6,78.8 22.6,65.6 				"/>
			</g>
		</g>
	</g>
</g>
<g>
	<g>
		<g class="st0">
			<g>
				<polygon class="st5" points="65.3,44.3 45.6,39.7 44.9,32.2 64.6,36.7 				"/>
			</g>
			<g>
				<polygon class="st5" points="63.2,21.4 43.6,16.8 42.9,8.9 62.5,13.5 				"/>
			</g>
			<g>
				<polygon class="st6" points="31.5,41.5 11.9,37 18,28.1 37.6,32.7 				"/>
			</g>
			<g>
				<polygon class="st7" points="30.2,26.2 10.5,21.6 43.6,16.8 63.2,21.4 				"/>
			</g>
			<g>
				<polygon class="st5" points="37.6,32.7 18,28.1 10.5,21.6 30.2,26.2 				"/>
			</g>
			<g>
				<polygon class="st8" points="62.5,13.5 84.6,26.5 65.3,44.3 64.6,36.7 31.5,41.5 37.6,32.7 30.2,26.2 63.2,21.4 				"/>
			</g>
		</g>
	</g>
</g>
</svg>
