<?xml version="1.0" encoding="utf-8"?>
<!-- Generator: Adobe Illustrator 27.3.1, SVG Export Plug-In . SVG Version: 6.00 Build 0)  -->
<svg version="1.1" id="Calque_1" xmlns="http://www.w3.org/2000/svg" xmlns:xlink="http://www.w3.org/1999/xlink" x="0px" y="0px"
	 viewBox="0 0 50 30" style="enable-background:new 0 0 50 30;" xml:space="preserve">
<style type="text/css">
	.st0{fill:none;stroke:#3AAA35;stroke-width:2;stroke-miterlimit:10;}
	.st1{fill:url(#SVGID_1_);stroke:#372111;stroke-miterlimit:10;}
	.st2{fill:#65430C;stroke:#372111;stroke-miterlimit:10;}
	.st3{fill:#884B10;stroke:#372111;stroke-miterlimit:10;}
	.st4{fill:#937104;stroke:#372111;stroke-miterlimit:10;}
	.st5{fill:#9F5616;stroke:#432918;stroke-miterlimit:10;}
	.st6{fill:none;stroke:#372111;stroke-miterlimit:10;}
	.st7{fill:#3EAB37;}
	.st8{fill:#7F5026;}
	.st9{fill:#945422;}
	.st10{fill:none;stroke:#714B29;stroke-width:4;stroke-miterlimit:10;}
	.st11{fill:#7D6C5A;}
	.st12{fill:none;stroke:#AA6834;stroke-width:2;stroke-miterlimit:10;}
	.st13{fill:#3EAB37;stroke:#020203;stroke-miterlimit:10;}
</style>
<line class="st0" x1="-1.6" y1="29.8" x2="1.6" y2="28.2"/>
<line class="st0" x1="47" y1="29.3" x2="50.6" y2="29.7"/>
<linearGradient id="SVGID_1_" gradientUnits="userSpaceOnUse" x1="25.7838" y1="25.2991" x2="25.3074" y2="0.1914" gradientTransform="matrix(1 0 0 -1 0 30)">
	<stop  offset="0" style="stop-color:#C28700"/>
	<stop  offset="1" style="stop-color:#5E410F"/>
</linearGradient>
<path class="st1" d="M0.4,30.2c0,0,4.3-19.4,4-28.9c5.3,1.5,23.2,4.2,40.8,0c0,0,0.3,29.4,4.5,29.1c0.2,0,0.3-0.1,0.5-0.2"/>
<path class="st2" d="M17.9,10.8c0,0-6.6-0.9-6.3,4.6c0,0-0.6,5.7,5.3,4.6c0,0,5.1-0.4,4.4-4.6C21.3,15.5,22,10.3,17.9,10.8z"/>
<path class="st3" d="M2.3,30.2c0,0,4.5-12.9,3.8-14.3"/>
<path class="st3" d="M45.8,30.7c0,0-3.1-9.7-3.3-13.6"/>
<path class="st4" d="M6,1c0,0,26.9-1.2,36.9-0.2C42.9,0.8,20.2,7.1,6,1z"/>
<path class="st5" d="M15.6-3.8"/>
<path class="st6" d="M36.2,12.1c0,0,2.4,0.8-5,7.6"/>
<path class="st6" d="M12.8,21.2c0,0,6.5,2,9.6-2.3"/>
<polyline class="st7" points="-0.5,30 10.6,28.6 15,29.5 20,28 27.5,29.2 31.4,28.4 36.5,28.9 39.9,29.1 43.7,28.5 50,30 "/>
<rect x="-30.1" y="5.3" class="st8" width="17.8" height="17.8"/>
<path class="st9" d="M-19.3,8.5c0,0,0.2,6,1.5,4.1C-16.6,10.8-19,7.7-19.3,8.5z"/>
<path class="st10" d="M-20.5,10.5c-1.4,0.8-5.8,1.2-6.3,2.5c-0.5,1.2-2,1.6-1.5,2.5"/>
<path class="st9" d="M-20,21.6c0,0,6.4-2.2,6.1,0.4"/>
<polygon class="st11" points="-20.3,14.1 -21.9,13.7 -22.7,14.4 -21.2,15.3 -19.7,14.8 "/>
<polygon class="st11" points="-25.3,21.9 -26.3,19.9 -27.3,21.1 -26.3,21.9 "/>
<polygon class="st11" points="-13.9,10.1 -15.6,10.1 -15.3,11.7 -13.9,11.7 "/>
<path class="st12" d="M-27.3,18.5c0,0-0.2-0.7,5.2,0.5c4.6,1,2.8-1.6,5-4.1c1.5-1.6,3.4,0.9,3.4,0.9"/>
<g>
	<path class="st13" d="M-13.6,8.4c0.5-0.3,1-0.6,1.5-0.8V5.4h-18.2v2.4c1.6-1.1,2.4,0.3,3.4,1.1c1.5,1.1,2.8-0.5,2.8-1.9
		c0.1,0.4,0.2,0.8,0.4,1.2V8.1c0-0.2,0.2-0.2,0.3-0.4c0.4,0.4,0.7,0.7,1.1,1.1c0.7-1,1.6-1.3,2.7-0.5l0,0c1.2-1.1,2.3-0.4,3.2,0.8
		c0.2-0.5,0.3-2,1-2.2C-14.9,6.7-13.9,8-13.6,8.4"/>
</g>
</svg>
