<?xml version="1.0" encoding="utf-8"?>
<!-- Generator: Adobe Illustrator 27.3.1, SVG Export Plug-In . SVG Version: 6.00 Build 0)  -->
<svg version="1.1" id="Calque_1" xmlns="http://www.w3.org/2000/svg" xmlns:xlink="http://www.w3.org/1999/xlink" x="0px" y="0px"
	 viewBox="0 0 50 50" style="enable-background:new 0 0 50 50;" xml:space="preserve">
<style type="text/css">
	.st0{fill:none;stroke:#432918;stroke-width:0.5;stroke-miterlimit:10;}
	.st1{fill:url(#SVGID_1_);stroke:#432918;stroke-width:0.5;stroke-miterlimit:10;}
	.st2{fill:#66440F;stroke:#432918;stroke-width:0.5;stroke-miterlimit:10;}
	.st3{fill:#894D14;stroke:#432918;stroke-width:0.5;stroke-miterlimit:10;}
	.st4{fill:#937314;stroke:#432918;stroke-width:0.5;stroke-miterlimit:10;}
	.st5{fill:#A05716;stroke:#634E42;stroke-width:0.5;stroke-miterlimit:10;}
	.st6{fill:#42AC3A;stroke:#432918;stroke-width:0.5;stroke-miterlimit:10;}
	.st7{fill:url(#SVGID_00000149351970411196378310000018173730457853127565_);stroke:#432918;stroke-miterlimit:10;}
	.st8{fill:url(#SVGID_00000082334374827909974720000001469498301337875844_);stroke:#432918;stroke-miterlimit:10;}
	.st9{fill:#683C11;stroke:#432918;stroke-miterlimit:10;}
	.st10{fill:#7D2C2A;}
	.st11{fill:none;stroke:#432918;stroke-miterlimit:10;}
</style>
<line class="st0" x1="-35.9" y1="8.2" x2="-34.2" y2="7.3"/>
<line class="st0" x1="-10.1" y1="7.9" x2="-8.2" y2="8.1"/>
<linearGradient id="SVGID_1_" gradientUnits="userSpaceOnUse" x1="-21.3929" y1="42.848" x2="-21.646" y2="56.1904" gradientTransform="matrix(1 0 0 1 0 -48)">
	<stop  offset="0" style="stop-color:#C1880E"/>
	<stop  offset="1" style="stop-color:#5E4214"/>
</linearGradient>
<path class="st1" d="M-34.9,8.4c0,0,2.3-10.3,2.1-15.4c2.8,0.8,12.3,2.2,21.7,0c0,0,0.2,15.6,2.4,15.5c0.1,0,0.2-0.1,0.3-0.1"/>
<path class="st2" d="M-25.6-1.9c0,0-3.5-0.5-3.3,2.4c0,0-0.3,3,2.8,2.4c0,0,2.7-0.2,2.3-2.4C-23.8,0.6-23.4-2.2-25.6-1.9z"/>
<path class="st3" d="M-33.9,8.4c0,0,2.4-6.9,2-7.6"/>
<path class="st3" d="M-10.7,8.7c0,0-1.6-5.2-1.8-7.2"/>
<path class="st4" d="M-31.9-7.1c0,0,14.3-0.6,19.6-0.1C-12.3-7.2-24.3-3.9-31.9-7.1z"/>
<path class="st5" d="M-26.8-9.7"/>
<path class="st0" d="M-28.3,3.6c0,0,3.5,1.1,5.1-1.2"/>
<polyline class="st6" points="-35.3,8.3 -29.4,7.5 -27.1,8 -24.4,7.2 -20.5,7.9 -18.4,7.4 -15.7,7.7 -13.9,7.8 -11.9,7.5 -8.5,8.3 
	"/>
<linearGradient id="SVGID_00000181057515762688485710000000685918521480590519_" gradientUnits="userSpaceOnUse" x1="24.4542" y1="46.2384" x2="23.692" y2="1.4224" gradientTransform="matrix(1 0 0 -1 0 52)">
	<stop  offset="0" style="stop-color:#C1880E"/>
	<stop  offset="1" style="stop-color:#5E4214"/>
</linearGradient>
<polygon style="fill:url(#SVGID_00000181057515762688485710000000685918521480590519_);stroke:#432918;stroke-miterlimit:10;" points="
	19,50 19,39.1 19.9,37 19,35.2 19,6.8 21.4,6.8 22.3,8.2 23.9,6.8 28.7,6.8 28.7,8.5 26.5,10.9 28.7,13.6 28.7,37.2 29.3,40.5 
	28.7,42.7 28.7,50 "/>
<linearGradient id="SVGID_00000023280419846186368200000013228572288252214188_" gradientUnits="userSpaceOnUse" x1="18.7061" y1="45.5716" x2="18.0907" y2="10.0349" gradientTransform="matrix(0.9825 -0.1866 -0.1866 -0.9825 6.625 58.4601)">
	<stop  offset="0" style="stop-color:#C1880E"/>
	<stop  offset="1" style="stop-color:#5E4214"/>
</linearGradient>
<path style="fill:url(#SVGID_00000023280419846186368200000013228572288252214188_);stroke:#432918;stroke-miterlimit:10;" d="
	M4,13.9l12.9-3l2.7,1.4l-0.2,2.1l2.5-1l2.8,1.4l5.5,8.8l-0.5,2.3l2.6,0.9l1.1,1.7l-21.8,5.1c-0.5,0.1-1-0.3-0.9-0.8l0,0
	c0-0.4-0.3-0.8-0.6-0.8l-2.2-0.2c-0.3,0-0.6-0.3-0.6-0.6L3.5,14.8C3.4,14.4,3.6,14,4,13.9z"/>
<polygon class="st9" points="14.9,19.8 16.3,24.8 22.3,23.3 22.7,22.6 23.4,23 28,21.8 28.4,23.9 29.7,22.6 26.3,17.1 18.1,19 
	17.5,19.8 16.7,19.3 "/>
<path class="st10" d="M12.8,50c0,0-0.2-5-0.8-4.1c0,0,2-0.5,2.4,1.7L15,50l2.5-5.2c0,0,0.3,2.7,0,4C17.2,50,17.2,50,17.2,50l2.7-5.3
	l1.4,5.2l2.5-1.9l1.3,1.9c0,0,2.1-3.3,2.3-2.7s1.2,2.7,1.2,2.7s1.8-6.6,2.3-4.7s0.7,4.7,0.7,4.7l2.3-0.9l1,0.9L12.8,50z"/>
<polyline class="st11" points="4.1,17.3 6.2,19.1 8.6,17.3 "/>
</svg>
