<?xml version="1.0" encoding="utf-8"?>
<!-- Generator: Adobe Illustrator 27.3.1, SVG Export Plug-In . SVG Version: 6.00 Build 0)  -->
<svg version="1.1" id="Calque_1" xmlns="http://www.w3.org/2000/svg" xmlns:xlink="http://www.w3.org/1999/xlink" x="0px" y="0px"
	 viewBox="0 0 90 90" style="enable-background:new 0 0 90 90;" xml:space="preserve">
<style type="text/css">
	.st0{fill:#755237;stroke:#000000;stroke-width:2;stroke-miterlimit:10;}
	.st1{fill:#FDDFC1;stroke:#000000;stroke-width:2;stroke-miterlimit:10;}
	.st2{fill:#F0A3B7;stroke:#000000;stroke-width:2;stroke-miterlimit:10;}
	.st3{fill:#FCC55F;stroke:#000000;stroke-width:2;stroke-miterlimit:10;}
	.st4{opacity:0.1;fill:#FCC55F;stroke:#000000;stroke-width:2;stroke-miterlimit:10;}
</style>
<ellipse class="st0" cx="45.1" cy="20.4" rx="12.4" ry="12.2"/>
<ellipse class="st1" cx="36" cy="32.6" rx="12.4" ry="12.2"/>
<ellipse class="st2" cx="56.9" cy="32.6" rx="12.4" ry="12.2"/>
<path class="st3" d="M22.3,34.4c0,6.3,5,11.4,11.3,11.7l11.3,34l13-34c0,0,0.1,0,0.1,0c6.6,0,11.9-5.3,11.9-11.8H22.3z"/>
<line class="st4" x1="29.7" y1="34.8" x2="25.9" y2="42.8"/>
<line class="st4" x1="36.2" y1="34.8" x2="31.6" y2="45.2"/>
<line class="st4" x1="43.8" y1="34.6" x2="35.5" y2="53.9"/>
<line class="st4" x1="51" y1="35.3" x2="39.1" y2="62.4"/>
<path class="st4" d="M57.4,35.3c0.6,0.7-15.1,35-15.1,35"/>
<line class="st4" x1="63.7" y1="35.3" x2="60.1" y2="45.7"/>
</svg>
