<?xml version="1.0" encoding="utf-8"?>
<!-- Generator: Adobe Illustrator 27.3.1, SVG Export Plug-In . SVG Version: 6.00 Build 0)  -->
<svg version="1.1" id="Calque_1" xmlns="http://www.w3.org/2000/svg" xmlns:xlink="http://www.w3.org/1999/xlink" x="0px" y="0px"
	 viewBox="0 0 40 35" style="enable-background:new 0 0 40 35;" xml:space="preserve">
<style type="text/css">
	.st0{fill:#350D04;stroke:#000000;stroke-miterlimit:10;}
	.st1{fill:#4C2F11;}
	.st2{fill:#512F0D;}
	.st3{fill:none;stroke:#523619;stroke-width:4;stroke-miterlimit:10;}
	.st4{fill:#5B340E;}
	.st5{fill:#3E362B;}
	.st6{fill:#3B3429;}
	.st7{fill:none;stroke:#573614;stroke-width:2;stroke-miterlimit:10;}
</style>
<path class="st0" d="M32.5,21.8c-0.4,0-0.8,0.1-1.2,0.3c0.1-0.6,0.1-1.2,0.1-1.8l-4.8-1.7l4.1-4.1c-0.2-0.9-0.5-1.8-0.9-2.6l-6-2.4
	l2.6-2.6c-1.4-1.2-3-1.9-4.7-1.9c-1.8,0-7.8,6.1-9,9.5c-0.5-0.2-0.9-0.3-1.4-0.3c-1.7,0-1.5-0.1-2.7,1.5l4.9,8.1l-7.8-5
	c-0.4,1-0.7,1.9-0.9,3.1c-2.3,0.1-4.3,3.2-4.3,6.8s1.9,6.7,4.1,6.8l0,0h27.8c2.4,0,3-2.7,3-6.6S35,21.8,32.5,21.8z"/>
<rect x="-73.7" y="-9.7" class="st1" width="50" height="50"/>
<path class="st2" d="M-43.4-0.7c0,0,0.7,16.7,4.1,11.5S-42.6-3.1-43.4-0.7z"/>
<path class="st3" d="M-46.7,4.8c-4,2.2-16.2,3.5-17.7,6.9s-5.5,4.6-4.2,7.1"/>
<path class="st4" d="M-45.3,36c0,0,18-6.2,17,1.1"/>
<polygon class="st5" points="-46.3,14.8 -50.6,13.8 -53,15.7 -48.6,18.4 -44.4,17 "/>
<polygon class="st6" points="-60.1,36.8 -63,31.1 -65.9,34.6 -63,36.8 "/>
<polygon class="st5" points="-28.3,3.6 -33,3.6 -32.2,8.1 -28.3,8.1 "/>
<path class="st7" d="M-65.9,27.3c0,0-0.6-2,14.7,1.4c12.9,2.9,7.8-4.6,14.1-11.6c4.1-4.6,9.5,2.4,9.5,2.4"/>
<g>
	<path class="st0" d="M-27.3-1.2c1.3-0.8,2.8-1.6,4.2-2.2v-6.1h-51.1v6.8c4.4-3.2,6.6,0.8,9.5,3c4.3,3,7.8-1.3,7.8-5.4
		c0.3,1.2,0.6,2.3,1.2,3.4l0.1-0.3c0.1-0.5,0.6-0.6,0.9-1.2c1,1,2,2,3.1,3c1.9-2.9,4.6-3.7,7.5-1.5h0.1c3.5-3.1,6.5-1.1,8.9,2.3
		c0.6-1.4,0.9-5.6,2.7-6.1c1.3-0.4,4.1,3.4,5.2,4.5"/>
</g>
</svg>
