<?xml version="1.0" encoding="utf-8"?>
<!-- Generator: Adobe Illustrator 27.3.1, SVG Export Plug-In . SVG Version: 6.00 Build 0)  -->
<svg version="1.1" id="Calque_1" xmlns="http://www.w3.org/2000/svg" xmlns:xlink="http://www.w3.org/1999/xlink" x="0px" y="0px"
	 viewBox="0 0 50 30" style="enable-background:new 0 0 50 30;" xml:space="preserve">
<style type="text/css">
	.st0{fill:url(#SVGID_1_);stroke:#341F0F;stroke-miterlimit:10;}
	.st1{fill:#583B0A;stroke:#341F0F;stroke-miterlimit:10;}
	.st2{fill:#884B10;stroke:#341F0F;stroke-miterlimit:10;}
	.st3{fill:#937104;stroke:#341F0F;stroke-miterlimit:10;}
	.st4{fill:#9F5616;stroke:#432918;stroke-miterlimit:10;}
	.st5{fill:none;stroke:#341F0F;stroke-miterlimit:10;}
	.st6{fill:#7D2C2A;}
	.st7{fill:#6C441F;}
	.st8{fill:#7C471A;}
	.st9{fill:none;stroke:#614021;stroke-width:4;stroke-miterlimit:10;}
	.st10{fill:#7D481B;}
	.st11{fill:#6F6050;}
	.st12{fill:#655849;}
	.st13{fill:none;stroke:#895528;stroke-width:2;stroke-miterlimit:10;}
	.st14{fill:#7D2C2A;stroke:#000000;stroke-miterlimit:10;}
	.st15{fill:none;stroke:#3AAA35;stroke-width:2;stroke-miterlimit:10;}
</style>
<linearGradient id="SVGID_1_" gradientUnits="userSpaceOnUse" x1="25.771" y1="75.3767" x2="25.307" y2="99.8311" gradientTransform="matrix(1 0 0 1 0 -70)">
	<stop  offset="4.136038e-03" style="stop-color:#A5740A"/>
	<stop  offset="1" style="stop-color:#463109"/>
</linearGradient>
<path class="st0" d="M0.4,30.2c0,0,1.7-7.7,2.9-15.8l3.9-2.3L4.3,6c0.1-1.7,0.2-3.3,0.1-4.7C8.7,2.5,21.5,4.6,35.6,3l2.5,2.3
	l-2.5,2.4L41,7.9l2.2,2.1l2.3,0.6c0.5,8.6,1.6,20,4.2,19.8c0.2,0,0.3-0.1,0.5-0.2"/>
<path class="st1" d="M17.9,10.8c0,0-6.6-0.9-6.3,4.6c0,0-0.6,5.7,5.3,4.6c0,0,5.1-0.4,4.4-4.6c0,0,0.2-1.1-0.1-2.2
	c-0.1-0.6-2.5,0-2.9-0.5c-0.3-0.3,1.4-1.7,0.9-1.8C18.8,10.8,18.4,10.7,17.9,10.8z"/>
<path class="st2" d="M2.3,30.2c0,0,4.5-12.9,3.8-14.3"/>
<path class="st2" d="M45.8,30.7c0,0-3.1-9.7-3.3-13.6"/>
<path class="st3" d="M6,1c0,0,15.5-0.5,27.2-0.4l2.3,2.2C27.6,4.1,14.6,4.7,6,1z"/>
<path class="st4" d="M15.6-3.8"/>
<path class="st5" d="M36.6,12.7c0,0,2.4,0.8-5,7.6"/>
<path class="st5" d="M12.8,21.2c0,0,6.5,2,9.6-2.3"/>
<polyline class="st6" points="-0.5,30 10.6,28.2 15,29.4 20,27.5 27.5,29 31.4,28 36.5,28.6 39.9,28.9 43.7,28.1 50,30 "/>
<rect x="55.9" y="14.4" class="st7" width="12.8" height="16.1"/>
<path class="st8" d="M63.7,17.3c0,0,0.2,5.4,1.1,3.7C65.6,19.3,63.9,16.5,63.7,17.3z"/>
<path class="st9" d="M62.8,19c-1,0.7-4.2,1.1-4.5,2.2c-0.4,1.1-1.4,1.5-1.1,2.3"/>
<path class="st10" d="M63.2,29c0,0,4.6-2,4.4,0.4"/>
<polygon class="st11" points="62.9,22.2 61.8,21.9 61.2,22.5 62.3,23.4 63.4,22.9 "/>
<polygon class="st12" points="59.4,29.3 58.6,27.5 57.9,28.6 58.6,29.3 "/>
<polygon class="st11" points="67.5,18.6 66.3,18.6 66.5,20.1 67.5,20.1 "/>
<path class="st13" d="M57.9,26.3c0,0-0.2-0.6,3.8,0.4c3.3,0.9,2-1.5,3.6-3.7c1.1-1.5,2.4,0.8,2.4,0.8"/>
<g>
	<path class="st14" d="M67.8,17.1c0.3-0.3,0.7-0.5,1.1-0.7v-2H55.8v2.2c1.1-1,1.7,0.3,2.4,1c1.1,1,2-0.4,2-1.7
		c0.1,0.4,0.2,0.7,0.3,1.1l0-0.1c0-0.2,0.2-0.2,0.2-0.4c0.3,0.3,0.5,0.6,0.8,1c0.5-0.9,1.2-1.2,1.9-0.5h0c0.9-1,1.7-0.4,2.3,0.7
		c0.2-0.4,0.2-1.8,0.7-2C66.8,15.6,67.5,16.8,67.8,17.1"/>
</g>
<path class="st15" d="M42.9,29.7"/>
</svg>
