<?xml version="1.0" encoding="utf-8"?>
<!-- Generator: Adobe Illustrator 27.3.1, SVG Export Plug-In . SVG Version: 6.00 Build 0)  -->
<svg version="1.1" id="Calque_1" xmlns="http://www.w3.org/2000/svg" xmlns:xlink="http://www.w3.org/1999/xlink" x="0px" y="0px"
	 viewBox="0 0 50 50" style="enable-background:new 0 0 50 50;" xml:space="preserve">
<style type="text/css">
	.st0{fill:url(#SVGID_1_);stroke:#2D1F00;stroke-miterlimit:10;}
	.st1{fill:url(#SVGID_00000060721282337867757910000007160144787076316037_);stroke:#2D1F00;stroke-miterlimit:10;}
	.st2{fill:#683C11;stroke:#2D1F00;stroke-miterlimit:10;}
	.st3{fill:#80BA27;}
	.st4{fill:#AC6530;}
	.st5{fill:#A75C23;}
	.st6{fill:#AD5D21;}
	.st7{fill:#A57F65;}
	.st8{fill:#A07D64;}
	.st9{fill:none;stroke:#B66E38;stroke-width:2;stroke-miterlimit:10;}
	.st10{fill:#80BA27;stroke:#000000;stroke-miterlimit:10;}
</style>
<linearGradient id="SVGID_1_" gradientUnits="userSpaceOnUse" x1="24.2351" y1="153.7579" x2="23.4729" y2="198.5739" gradientTransform="matrix(1 0 0 1 0 -148)">
	<stop  offset="0" style="stop-color:#C78A08"/>
	<stop  offset="1" style="stop-color:#5E4214"/>
</linearGradient>
<polygon class="st0" points="19,50 19,39.1 19,35.2 19,6.8 21.4,6.8 23.9,6.8 28.7,6.8 28.7,37.2 28.7,42.7 28.7,50 "/>
<linearGradient id="SVGID_00000074427775770326106520000003979771823534213003_" gradientUnits="userSpaceOnUse" x1="26.8882" y1="153.3172" x2="26.2316" y2="191.2375" gradientTransform="matrix(0.9998 2.090431e-02 -2.090431e-02 0.9998 1.4423 -146.1461)">
	<stop  offset="0" style="stop-color:#D78E00"/>
	<stop  offset="1" style="stop-color:#5E4214"/>
</linearGradient>
<path style="fill:url(#SVGID_00000074427775770326106520000003979771823534213003_);stroke:#2D1F00;stroke-miterlimit:10;" d="
	M5.9,20.8c0,0,0-0.1,0-0.1l-1.1-10c0-0.4,0.3-0.8,0.7-0.8l37.7-0.7c0.4,0,0.7,0.3,0.7,0.7l-0.5,10.2c0,0,0,0.1,0,0.1l1.1,9.1
	c0,0.4-0.3,0.7-0.7,0.7l-35,0.8l-2.9-0.1c-0.4,0-0.7-0.3-0.6-0.7L5.9,20.8z"/>
<polygon class="st2" points="14.9,17.9 15.2,23.1 21.4,22.9 22.6,22.8 27.3,22.6 27.3,24.8 33.7,20.3 27,15.5 27.3,17.7 18.2,17.8 
	16.8,17.8 "/>
<path class="st3" d="M11.9,50.3c0,0-0.2-7.5-0.9-6.1c0,0,2.2-0.7,2.7,2.5l0.7,3.6l2.8-7.8c0,0,0.3,4,0,6c-0.3,1.8-0.3,1.8-0.3,1.8
	l3-7.9l1.6,7.8l2.8-2.8l1.5,2.8c0,0,2.4-4.9,2.6-4s1.3,4,1.3,4s2-9.9,2.6-7c0.6,2.9,0.8,7,0.8,7l2.6-1.3l1.1,1.3L11.9,50.3z"/>
<rect x="-55.3" class="st4" width="50" height="50"/>
<path class="st5" d="M-25,9c0,0,0.7,16.7,4.1,11.5S-24.2,6.6-25,9z"/>
<path class="st6" d="M-26.9,45.7c0,0,18-6.2,17,1.1"/>
<polygon class="st7" points="-40.8,24.7 -43.7,19 -46.6,22.5 -43.7,24.7 "/>
<polygon class="st8" points="-9.9,13.3 -14.6,13.3 -13.8,17.8 -9.9,17.8 "/>
<path class="st9" d="M-47.5,37c0,0-0.6-2,14.7,1.4c12.9,2.9,7.8-4.6,14.1-11.6c4.1-4.6,9.5,2.4,9.5,2.4"/>
<g>
	<path class="st10" d="M-8.9,8.5c1.3-0.8,2.8-1.6,4.2-2.2V0.2h-51.1V7c4.4-3.2,6.6,0.8,9.5,3c4.3,3,7.8-1.3,7.8-5.4
		c0.3,1.2,0.6,2.3,1.2,3.4l0.1-0.3c0.1-0.5,0.6-0.6,0.9-1.2c1,1,2,2,3.1,3c1.9-2.9,4.6-3.7,7.5-1.5h0.1c3.5-3.1,6.5-1.1,8.9,2.3
		c0.6-1.4,0.9-5.6,2.7-6.1c1.3-0.4,4.1,3.4,5.2,4.5"/>
</g>
</svg>
