<?xml version="1.0" encoding="utf-8"?>
<!-- Generator: Adobe Illustrator 27.3.1, SVG Export Plug-In . SVG Version: 6.00 Build 0)  -->
<svg version="1.1" id="Calque_1" xmlns="http://www.w3.org/2000/svg" xmlns:xlink="http://www.w3.org/1999/xlink" x="0px" y="0px"
	 viewBox="0 0 50 30" style="enable-background:new 0 0 50 30;" xml:space="preserve">
<style type="text/css">
	.st0{fill:none;stroke:#3AAA35;stroke-width:2;stroke-miterlimit:10;}
	.st1{fill:url(#SVGID_1_);stroke:#513400;stroke-miterlimit:10;}
	.st2{fill:#795116;stroke:#533423;stroke-miterlimit:10;}
	.st3{fill:#884B10;stroke:#513422;stroke-miterlimit:10;}
	.st4{fill:#884B10;stroke:#513400;stroke-miterlimit:10;}
	.st5{fill:#937104;stroke:#513400;stroke-miterlimit:10;}
	.st6{fill:#9F5616;stroke:#432918;stroke-miterlimit:10;}
	.st7{fill:none;stroke:#513400;stroke-miterlimit:10;}
	.st8{fill:#80BA27;}
	.st9{fill:#AC6530;}
	.st10{fill:#A75C23;}
	.st11{fill:#AD5D21;}
	.st12{fill:#A57F65;}
	.st13{fill:#A07D64;}
	.st14{fill:none;stroke:#B66E38;stroke-width:2;stroke-miterlimit:10;}
	.st15{fill:#80BA27;stroke:#000000;stroke-miterlimit:10;}
</style>
<line class="st0" x1="-1.6" y1="29.8" x2="1.6" y2="28.2"/>
<line class="st0" x1="47" y1="29.3" x2="50.6" y2="29.7"/>
<linearGradient id="SVGID_1_" gradientUnits="userSpaceOnUse" x1="26.034" y1="-42.6934" x2="25.5572" y2="-67.8203" gradientTransform="matrix(1 0 0 -1 0 -38)">
	<stop  offset="0" style="stop-color:#DF9809"/>
	<stop  offset="1" style="stop-color:#7F5920"/>
</linearGradient>
<path class="st1" d="M0,30.2c0,0,4.4-19.4,4.1-28.9c5.4,1.5,23.8,4.2,41.9,0c0,0,0.3,29.4,4.6,29.1c0.2,0,0.3-0.1,0.5-0.2"/>
<path class="st2" d="M17.9,10.8c0,0-6.6-0.9-6.3,4.6c0,0-0.6,5.7,5.3,4.6c0,0,5.1-0.4,4.4-4.6C21.3,15.5,22,10.3,17.9,10.8z"/>
<path class="st3" d="M2.3,30.2c0,0,4.5-12.9,3.8-14.3"/>
<path class="st4" d="M45.8,30.7c0,0-3.1-9.7-3.3-13.6"/>
<path class="st5" d="M6,1c0,0,27.8-1.2,38.2-0.2C44.2,0.8,20.7,7.1,6,1z"/>
<path class="st6" d="M15.6-3.8"/>
<path class="st7" d="M37.3,13.3c0,0,2.4,0.8-5,7.6"/>
<polyline class="st8" points="-0.5,30 10.6,26.6 15,28.8 20,25.1 27.5,28.1 31.4,26.1 36.5,27.3 39.9,27.8 43.7,26.3 50,30 "/>
<rect x="-52.2" y="-4.1" class="st9" width="50" height="50"/>
<path class="st10" d="M-21.9,4.9c0,0,0.7,16.7,4.1,11.5S-21.1,2.5-21.9,4.9z"/>
<path class="st11" d="M-23.8,41.6c0,0,18-6.2,17,1.1"/>
<polygon class="st12" points="-37.7,20.6 -40.6,14.9 -43.5,18.4 -40.6,20.6 "/>
<polygon class="st13" points="-6.8,9.2 -11.5,9.2 -10.7,13.7 -6.8,13.7 "/>
<path class="st14" d="M-44.4,32.9c0,0-0.6-2,14.7,1.4c12.9,2.9,7.8-4.6,14.1-11.6c4.1-4.6,9.5,2.4,9.5,2.4"/>
<g>
	<path class="st15" d="M-5.8,4.4C-4.5,3.6-3,2.8-1.6,2.2v-6.1h-51.1v6.8c4.4-3.2,6.6,0.8,9.5,3c4.3,3,7.8-1.3,7.8-5.4
		c0.3,1.2,0.6,2.3,1.2,3.4l0.1-0.3c0.1-0.5,0.6-0.6,0.9-1.2c1,1,2,2,3.1,3c1.9-2.9,4.6-3.7,7.5-1.5h0.1c3.5-3.1,6.5-1.1,8.9,2.3
		c0.6-1.4,0.9-5.6,2.7-6.1c1.3-0.4,4.1,3.4,5.2,4.5"/>
</g>
</svg>
