<?xml version="1.0" encoding="utf-8"?>
<!-- Generator: Adobe Illustrator 27.3.1, SVG Export Plug-In . SVG Version: 6.00 Build 0)  -->
<svg version="1.1" id="Calque_1" xmlns="http://www.w3.org/2000/svg" xmlns:xlink="http://www.w3.org/1999/xlink" x="0px" y="0px"
	 viewBox="0 0 45 90" style="enable-background:new 0 0 45 90;" xml:space="preserve">
<style type="text/css">
	.st0{opacity:0.7;fill:#C74827;stroke:#020203;stroke-miterlimit:10;}
	.st1{opacity:0.7;fill:#946137;stroke:#020203;stroke-miterlimit:10;}
	.st2{opacity:0.7;fill:#E62F24;stroke:#020203;stroke-miterlimit:10;}
	.st3{opacity:0.7;fill:none;stroke:#020203;stroke-miterlimit:10;}
	.st4{opacity:0.7;}
	.st5{fill:#C74827;stroke:#020203;stroke-miterlimit:10;}
	.st6{fill:#F9B006;stroke:#020203;stroke-miterlimit:10;}
</style>
<rect x="24.9" y="75.9" class="st0" width="10.7" height="7.1"/>
<polygon class="st1" points="24.9,79.9 35.4,79.9 35.4,81.5 39.5,81.5 39.5,84.9 24.9,84.9 "/>
<rect x="7.6" y="79.4" class="st0" width="10.7" height="7.1"/>
<path class="st1" d="M17.6,2.7c0,0-16.8,13.5-18.9,11.8S62,28.3,39.6,15.6S17.2,3.1,17.2,3.1"/>
<path class="st2" d="M26.2,20.8c0,0,8.1,0,6.6,1.9c-1.3,1.9-1.3,1.9-1.3,1.9L26.2,20.8z"/>
<path class="st3" d="M34.3,30.2c0,0-6.3,2.1-7-3.5"/>
<path class="st1" d="M14.2,7.5c3.3,3.2,15.6,6.4,15.6,6.4"/>
<path class="st1" d="M12.7,12.1c0,0,12.2,5.4,16.9,4.9"/>
<g class="st4">
	<polygon class="st5" points="16.3,72.6 9.5,70 17.2,43.7 24,46.3 	"/>
	<polygon class="st6" points="11.5,63 18.4,65.4 16.3,72.6 9.5,70 	"/>
</g>
<polygon class="st1" points="7.6,83.4 18.1,83.4 18.1,85.1 22.3,85.1 22.3,88.4 7.6,88.4 "/>
</svg>
