<?xml version="1.0" encoding="utf-8"?>
<!-- Generator: Adobe Illustrator 27.3.1, SVG Export Plug-In . SVG Version: 6.00 Build 0)  -->
<svg version="1.1" id="Calque_1" xmlns="http://www.w3.org/2000/svg" xmlns:xlink="http://www.w3.org/1999/xlink" x="0px" y="0px"
	 viewBox="0 0 90 90" style="enable-background:new 0 0 90 90;" xml:space="preserve">
<style type="text/css">
	.st0{fill:#5E101F;stroke:#000000;stroke-width:2;stroke-miterlimit:10;}
	.st1{fill:#FFFFFF;stroke:#000000;stroke-width:2;stroke-miterlimit:10;}
</style>
<path class="st0" d="M43.9,80.5l6.3-1.8l-1.4-4.7l30.4-2.9c0,0,21.9-8.5-9.5-13.9l-4.4-5.6L54,12.1l-27.3,7.7L43.9,80.5z"/>
<path class="st1" d="M55.4,65l-31.7,3c0,0-7.2-2-4-5.2c3.1-3.2,7.2-5.5,7.2-5.5s-13.8,0.4-14-2.2c-0.1-2.6-3.1-5.5,2.8-6.4
	s10.7-3.5,10.7-3.5L9.9,42.7c0,0-11.8-5.6-3.7-8.4s23.9-0.2,23.9-0.2S61.2,56.5,55.4,65z"/>
<path class="st0" d="M39.4,76.7"/>
</svg>
