<?xml version="1.0" encoding="utf-8"?>
<!-- Generator: Adobe Illustrator 27.3.1, SVG Export Plug-In . SVG Version: 6.00 Build 0)  -->
<svg version="1.1" id="Calque_1" xmlns="http://www.w3.org/2000/svg" xmlns:xlink="http://www.w3.org/1999/xlink" x="0px" y="0px"
	 viewBox="0 0 20 20" style="enable-background:new 0 0 20 20;" xml:space="preserve">
<style type="text/css">
	.st0{fill:#CBBBA0;stroke:#000000;stroke-miterlimit:10;}
	.st1{fill:#E82E89;stroke:#000000;stroke-miterlimit:10;}
	.st2{stroke:#000000;stroke-width:0.5;stroke-miterlimit:10;}
</style>
<path class="st0" d="M13.9,20.1c1.1-1.3-1.9-8.5-1.9-8.5l-4.3,1.8c1.2,1.5,1.8,6.8,1.8,6.8H13.9z"/>
<path class="st1" d="M3.2,14.6c0.3,0.2,0.6,0.2,0.9,0.2c2.2-0.4,12.4-3.9,13.3-5.8c0,0,3.4-5.3-4.1-4.4c0,0-9.9,1.8-11.1,5.6
	C1.3,12.9,2.5,14.1,3.2,14.6z"/>
<path class="st2" d="M14.4,6.5c0,0-1.8-0.2-1.5,0.5C13.1,7.8,15.5,7.2,14.4,6.5z"/>
<path class="st2" d="M12.7,9.6c0,0-1.8-0.2-1.5,0.5C11.5,10.9,13.8,10.2,12.7,9.6z"/>
<path class="st2" d="M8.2,8.3c0,0-1.8-0.2-1.5,0.5C7,9.6,9.3,9,8.2,8.3z"/>
<path class="st2" d="M5.9,11.2c0,0-1.8-0.2-1.5,0.5C4.7,12.5,7,11.9,5.9,11.2z"/>
<g>
</g>
<g>
</g>
<g>
</g>
<g>
</g>
<g>
</g>
<g>
</g>
</svg>
