<?xml version="1.0" encoding="utf-8"?>
<!-- Generator: Adobe Illustrator 27.3.1, SVG Export Plug-In . SVG Version: 6.00 Build 0)  -->
<svg version="1.1" id="Calque_1" xmlns="http://www.w3.org/2000/svg" xmlns:xlink="http://www.w3.org/1999/xlink" x="0px" y="0px"
	 viewBox="0 0 50 25" style="enable-background:new 0 0 50 25;" xml:space="preserve">
<style type="text/css">
	.st0{fill:#6F7593;stroke:#000000;stroke-miterlimit:10;}
	.st1{fill:#A1A8D5;stroke:#000000;stroke-miterlimit:10;}
	.st2{fill:#7E4F25;}
	.st3{fill:#5D5571;stroke:#000000;stroke-width:2;stroke-miterlimit:10;}
	.st4{fill:#324C9C;stroke:#000000;stroke-miterlimit:10;}
	.st5{fill:#1D1D1B;stroke:#000000;stroke-miterlimit:10;}
	.st6{fill:#5D5571;}
	.st7{fill:#5D5571;stroke:#000000;stroke-miterlimit:10;}
</style>
<path class="st0" d="M2.3,15.7h45.3c0.6,0,1.1,0.5,1.1,1.1V23c0,0.6-0.5,1.1-1.1,1.1H2.3c-0.6,0-1.1-0.5-1.1-1.1v-6.2
	C1.3,16.2,1.7,15.7,2.3,15.7z"/>
<polygon class="st1" points="11.8,24.1 5.5,15.7 3.3,15.7 9.6,24.1 "/>
<polygon class="st1" points="46.7,15.7 40.1,24.1 37.8,24.1 44.4,15.7 "/>
<path class="st2" d="M14,8"/>
<path class="st0" d="M2.3,8.9h45.3c0.6,0,1.1-0.5,1.1-1.1V1.6c0-0.6-0.5-1.1-1.1-1.1H2.3C1.8,0.5,1.3,1,1.3,1.6v6.2
	C1.3,8.4,1.8,8.9,2.3,8.9z"/>
<polygon class="st1" points="46.7,8.9 40.7,0.5 38.7,0.5 44.6,8.9 "/>
<polygon class="st1" points="11.8,0.5 5.5,8.9 3.4,8.9 9.6,0.5 "/>
<line class="st3" x1="25" y1="0.5" x2="25" y2="24.1"/>
<path class="st4" d="M31.5,20h-13c-1.4,0-2.6-1.1-2.6-2.6V7.3c0-1.4,1.1-2.6,2.6-2.6h13c1.4,0,2.6,1.1,2.6,2.6v10.1
	C34,18.9,32.9,20,31.5,20z"/>
<polygon class="st5" points="20.7,10.7 29.2,10.6 24.9,6.6 "/>
<polygon class="st5" points="29.2,13.9 20.8,13.9 25,17.9 "/>
<rect x="6.5" y="8.9" class="st4" width="2.9" height="6.8"/>
<rect x="40.6" y="8.9" class="st4" width="2.9" height="6.8"/>
<polygon class="st6" points="14,4.5 11.4,4.5 11.8,7 14,7 "/>
<polygon class="st6" points="11.6,16.9 14.8,18 13.9,20.5 10.5,19.9 "/>
<polygon class="st6" points="34.8,19.9 33.7,20.8 35.1,23.2 37.4,21.1 "/>
<polygon class="st6" points="32.3,2.2 34,4.2 37,4.2 35.5,2.2 "/>
<line class="st7" x1="3.4" y1="0.5" x2="1.3" y2="2.2"/>
<line class="st7" x1="3.3" y1="15.6" x2="1.3" y2="17.3"/>
<line class="st7" x1="48.8" y1="7" x2="46.7" y2="8.7"/>
<line class="st7" x1="48.7" y1="22.4" x2="46.7" y2="24.1"/>
<line class="st7" x1="3.3" y1="24.1" x2="1.3" y2="22.4"/>
<line class="st7" x1="3.4" y1="8.7" x2="1.3" y2="7"/>
<line class="st7" x1="48.8" y1="2.2" x2="46.7" y2="0.5"/>
<line class="st7" x1="48.7" y1="17.3" x2="46.7" y2="15.6"/>
</svg>
