<?xml version="1.0" encoding="utf-8"?>
<!-- Generator: Adobe Illustrator 27.3.1, SVG Export Plug-In . SVG Version: 6.00 Build 0)  -->
<svg version="1.1" id="Calque_1" xmlns="http://www.w3.org/2000/svg" xmlns:xlink="http://www.w3.org/1999/xlink" x="0px" y="0px"
	 viewBox="0 0 280 100" style="enable-background:new 0 0 280 100;" xml:space="preserve">
<style type="text/css">
	.st0{fill:#C7431B;stroke:#020203;stroke-width:7;stroke-miterlimit:10;}
	.st1{fill:none;stroke:#020203;stroke-width:7;stroke-miterlimit:10;}
	.st2{fill:none;stroke:#030304;stroke-width:7;stroke-miterlimit:10;}
</style>
<path class="st0" d="M260.75,3.55H19.43c-8.67,0-15.75,7.5-15.75,16.8v59.3c0,9.3,6.99,16.8,15.65,16.8h241.32
	c8.67,0,15.65-7.5,15.65-16.8v-59.3C276.41,11.05,269.42,3.55,260.75,3.55z"/>
<polyline class="st1" points="136.28,83.29 111.68,83.29 112.58,50.39 113.38,19.57 137.88,19.57 "/>
<line class="st1" x1="137.88" y1="52.89" x2="113.38" y2="52.89"/>
<polyline class="st1" points="150.22,87.04 164.42,26.64 181.92,86.44 "/>
<line class="st1" x1="172.17" y1="57.64" x2="155.17" y2="58.94"/>
<line class="st2" x1="183.24" y1="20.04" x2="225.84" y2="20.04"/>
<line class="st2" x1="204.74" y1="22.94" x2="202.34" y2="85.74"/>
<polyline class="st1" points="261.11,84.5 236.51,84.5 237.41,51.83 238.21,21.22 262.71,21.22 "/>
<line class="st1" x1="262.71" y1="54.32" x2="238.21" y2="54.32"/>
<path class="st2" d="M66.75,85.29v-67.7c0,0,30.1-1.2,29.7,18.6c-0.4,19.8-23.1,16.1-23.1,16.1l20.5,31.6"/>
<path class="st2" d="M51.53,17.54h-5.27c-27.07,0-27.01,25.62-26.78,32.18c0.12,3.5-2.54,32.18,25.86,32.18h6.19"/>
</svg>
