<?xml version="1.0" encoding="utf-8"?>
<!-- Generator: Adobe Illustrator 27.3.1, SVG Export Plug-In . SVG Version: 6.00 Build 0)  -->
<svg version="1.1" id="Calque_1" xmlns="http://www.w3.org/2000/svg" xmlns:xlink="http://www.w3.org/1999/xlink" x="0px" y="0px"
	 viewBox="0 0 90 90" style="enable-background:new 0 0 90 90;" xml:space="preserve">
<style type="text/css">
	.st0{fill:#F9B006;stroke:#020203;stroke-width:2;stroke-miterlimit:10;}
	.st1{fill:#E62F24;stroke:#020203;stroke-width:2;stroke-miterlimit:10;}
	.st2{fill:none;stroke:#020203;stroke-width:2;stroke-miterlimit:10;}
	.st3{fill:#946137;stroke:#020203;stroke-width:2;stroke-miterlimit:10;}
	.st4{fill:none;stroke:#20150D;stroke-width:2;stroke-miterlimit:10;}
	.st5{fill:#63952F;stroke:#020203;stroke-width:2;stroke-miterlimit:10;}
</style>
<path class="st0" d="M48.5,67.2l-12.7-0.9c-7.2-0.6-12.7-7.8-12.2-16.2v-0.3c0.5-8.6,6.6-15,13.7-14.7L49.8,36
	c7.1,0.6,12.7,7.8,12.2,16.2v0.3C61.7,61.1,55.6,67.6,48.5,67.2z"/>
<path class="st1" d="M46.9,50.2c0,0,10.1-7,9.6-3C56.3,51,56.3,51,56.3,51L46.9,50.2z"/>
<g>
	<line class="st2" x1="81" y1="55.2" x2="65.7" y2="55.2"/>
	<polyline class="st2" points="71.6,51 65.7,55.2 70.7,59.5 	"/>
</g>
<g>
	<line class="st2" x1="6.6" y1="53.9" x2="20.3" y2="53.9"/>
	<polyline class="st2" points="15,49.7 20.3,53.9 15.8,58.2 	"/>
</g>
<path class="st0" d="M57,57.8c0,0-10.9-2.9-12,4.9"/>
<path class="st3" d="M32.9,21.2c5.2,5,24.5,10.1,24.5,10.1"/>
<path class="st3" d="M30.6,28.4c0,0,19.2,8.5,26.6,7.7"/>
<path class="st3" d="M35.8,19.1c0,0-21.2,26.4-25,24.5C7,41.9,112.7,43.5,74.1,31.5S35.3,19.9,35.3,19.9"/>
<path class="st3" d="M32.1,27.6c6.2,3.8,26.1,4.6,26.1,4.6"/>
<path class="st3" d="M31.4,35.2c0,0,20.6,4.2,27.6,1.8"/>
<polyline class="st4" points="75.5,65.7 63.8,76.3 68.1,82.1 82.8,74.4 "/>
<polyline class="st5" points="63.8,76.3 63.8,76.3 68.1,82.1 76,78 "/>
</svg>
