<?xml version="1.0" encoding="utf-8"?>
<!-- Generator: Adobe Illustrator 27.3.1, SVG Export Plug-In . SVG Version: 6.00 Build 0)  -->
<svg version="1.1" id="Calque_1" xmlns="http://www.w3.org/2000/svg" xmlns:xlink="http://www.w3.org/1999/xlink" x="0px" y="0px"
	 viewBox="0 0 90 90" style="enable-background:new 0 0 90 90;" xml:space="preserve">
<style type="text/css">
	.st0{fill:#FBBC25;stroke:#1D1D1B;stroke-width:2;stroke-miterlimit:10;}
	.st1{fill:#1D1D1B;stroke:#1D1D1B;stroke-width:2;stroke-miterlimit:10;}
</style>
<path class="st0" d="M49.2,53.3L47,63.2c0,0,8.2-0.7,10.5,4.9l-18,3.5l-1.6-4.9l3.6-9.8c0,0-3.4,3-7.3-1.5
	c-3.5-4-10.8,19.2-10.8,19.2s-4.3,9.1-8.1,7.9s-6.6-4.4-6.6-4.4s3.4,0,6.7-1.6c3.3-1.6,4.2-7.8,11-24.8c0,0-1.2-23.5,24.7-34.1
	c0,0,12.7-1.9,13-7.5c0,0-5.8-6-4.2-7.7s8.3,3.8,8.3,3.8L81,10c0,0-2.5,6.7-6.3,6.8C74.7,16.8,58.1,46.8,49.2,53.3z"/>
<path class="st0" d="M63.2,29.1l11.9,7c0,0-0.5,5-4.9,6.4c-4.4,1.3-1.2-4.4-1.2-4.4l-9.5-7"/>
<ellipse transform="matrix(0.3278 -0.9448 0.9448 0.3278 36.8486 72.935)" class="st1" cx="69.7" cy="10.6" rx="1" ry="1"/>
<line class="st0" x1="32.5" y1="82.1" x2="38.5" y2="74.2"/>
<line class="st0" x1="38.9" y1="82.1" x2="45.8" y2="73.7"/>
<line class="st0" x1="46.6" y1="82.6" x2="51.6" y2="73.7"/>
<line class="st0" x1="53" y1="82.1" x2="55.1" y2="73.7"/>
</svg>
