<?xml version="1.0" encoding="utf-8"?>
<!-- Generator: Adobe Illustrator 27.3.1, SVG Export Plug-In . SVG Version: 6.00 Build 0)  -->
<svg version="1.1" id="Calque_1" xmlns="http://www.w3.org/2000/svg" xmlns:xlink="http://www.w3.org/1999/xlink" x="0px" y="0px"
	 viewBox="0 0 50 50" style="enable-background:new 0 0 50 50;" xml:space="preserve">
<style type="text/css">
	.st0{opacity:0.9;fill:#AC6530;}
	.st1{opacity:0.9;fill:#A75C23;}
	.st2{opacity:0.9;fill:#AD5D21;}
	.st3{opacity:0.9;fill:#A57F65;}
	.st4{opacity:0.9;fill:#A07D64;}
	.st5{opacity:0.9;fill:none;stroke:#B66E38;stroke-width:2;stroke-miterlimit:10;}
	.st6{opacity:0.9;}
	.st7{fill:#80BA27;stroke:#000000;stroke-miterlimit:10;}
</style>
<rect class="st0" width="50" height="50"/>
<path class="st1" d="M30.3,9c0,0,0.7,16.7,4.1,11.5S31.1,6.6,30.3,9z"/>
<path class="st2" d="M28.4,45.7c0,0,18-6.2,17,1.1"/>
<polygon class="st3" points="14.5,24.7 11.6,19 8.7,22.5 11.6,24.7 "/>
<polygon class="st4" points="45.4,13.3 40.7,13.3 41.5,17.8 45.4,17.8 "/>
<path class="st5" d="M7.8,37c0,0-0.6-2,14.7,1.4c12.9,2.9,7.8-4.6,14.1-11.6c4.1-4.6,9.5,2.4,9.5,2.4"/>
<g class="st6">
	<path class="st7" d="M46.4,8.5c1.3-0.8,2.8-1.6,4.2-2.2V0.2H-0.5V7C3.9,3.8,6.1,7.8,9,10c4.3,3,7.8-1.3,7.8-5.4
		C17.1,5.8,17.4,6.9,18,8l0.1-0.3c0.1-0.5,0.6-0.6,0.9-1.2c1,1,2,2,3.1,3C24,6.6,26.7,5.8,29.6,8h0.1c3.5-3.1,6.5-1.1,8.9,2.3
		c0.6-1.4,0.9-5.6,2.7-6.1c1.3-0.4,4.1,3.4,5.2,4.5"/>
</g>
</svg>
