<?xml version="1.0" encoding="utf-8"?>
<!-- Generator: Adobe Illustrator 27.3.1, SVG Export Plug-In . SVG Version: 6.00 Build 0)  -->
<svg version="1.1" id="Calque_1" xmlns="http://www.w3.org/2000/svg" xmlns:xlink="http://www.w3.org/1999/xlink" x="0px" y="0px"
	 viewBox="0 0 50 30" style="enable-background:new 0 0 50 30;" xml:space="preserve">
<style type="text/css">
	.st0{fill:url(#SVGID_1_);stroke:#1D1D1B;stroke-miterlimit:10;}
	.st1{fill:#3D2905;stroke:#1D1D1B;stroke-miterlimit:10;}
	.st2{fill:#884B10;stroke:#1D1D1B;stroke-miterlimit:10;}
	.st3{fill:#634E09;stroke:#1D1D1B;stroke-miterlimit:10;}
	.st4{fill:#9F5616;stroke:#1D1D1B;stroke-miterlimit:10;}
	.st5{fill:none;stroke:#1D1D1B;stroke-miterlimit:10;}
	.st6{fill:#350D04;}
	.st7{fill:none;stroke:#3AAA35;stroke-width:2;stroke-miterlimit:10;}
	.st8{fill:#4C2F11;}
	.st9{fill:#512F0D;}
	.st10{fill:none;stroke:#523619;stroke-width:4;stroke-miterlimit:10;}
	.st11{fill:#5B340E;}
	.st12{fill:#3E362B;}
	.st13{fill:#3B3429;}
	.st14{fill:none;stroke:#573614;stroke-width:2;stroke-miterlimit:10;}
	.st15{fill:#350D04;stroke:#000000;stroke-miterlimit:10;}
</style>
<linearGradient id="SVGID_1_" gradientUnits="userSpaceOnUse" x1="25.771" y1="-43.3767" x2="25.307" y2="-67.8311" gradientTransform="matrix(1 0 0 -1 0 -38)">
	<stop  offset="4.136038e-03" style="stop-color:#654805"/>
	<stop  offset="1" style="stop-color:#2B1E04"/>
</linearGradient>
<path class="st0" d="M0.4,30.2c0,0,1.7-7.7,2.9-15.8l3.9-2.3L4.3,6c0.1-1.7,0.2-3.3,0.1-4.7C8.7,2.5,21.5,4.6,35.6,3l2.5,2.3
	l-2.5,2.4L41,7.9l2.2,2.1l2.3,0.6c0.1,1.6,0.2,3.2,0.3,4.8c0.1,1.3-14.4,8.2-14.2,9.5l15.1-1.9c0.7,4.3,1.6,7.5,3,7.3
	c0.2,0,0.3-0.1,0.5-0.2"/>
<path class="st1" d="M17.9,12.2c0,0-6.6-0.8-6.3,3.9c0,0-0.6,4.8,5.3,3.9c0,0,5.1-0.3,4.4-3.9c0,0,0.2-0.9-0.1-1.9
	c-0.1-0.5-2.5,0-2.9-0.4c-0.3-0.3,1.4-1.4,0.9-1.5C18.8,12.2,18.4,12.1,17.9,12.2z"/>
<path class="st2" d="M2.3,30.2c0,0,4.5-12.9,3.8-14.3"/>
<path class="st3" d="M6,1c0,0,15.5-0.5,27.2-0.4l2.3,2.2C27.6,4.1,14.6,4.7,6,1z"/>
<path class="st4" d="M15.6-3.8"/>
<path class="st5" d="M36.6,12.7c0,0,2.4,0.8-5,7.6"/>
<path class="st5" d="M12.8,21.2c0,0,6.5,2,9.6-2.3"/>
<polyline class="st6" points="-0.5,30 10.6,28.2 15,29.4 20,27.5 27.5,29 31.4,28 36.5,28.6 39.9,28.9 43.7,28.1 50,30 "/>
<path class="st7" d="M42.9,29.7"/>
<rect x="-68.9" y="-5.6" class="st8" width="50" height="50"/>
<path class="st9" d="M-38.7,3.4c0,0,0.7,16.7,4.1,11.5S-37.8,1-38.7,3.4z"/>
<path class="st10" d="M-42,8.9c-4,2.2-16.2,3.5-17.7,6.9s-5.5,4.6-4.2,7.1"/>
<path class="st11" d="M-40.6,40.1c0,0,18-6.2,17,1.1"/>
<polygon class="st12" points="-41.6,18.9 -45.8,17.9 -48.2,19.8 -43.8,22.5 -39.7,21.1 "/>
<polygon class="st13" points="-55.3,40.8 -58.2,35.2 -61.2,38.7 -58.2,40.8 "/>
<polygon class="st12" points="-23.5,7.7 -28.2,7.7 -27.5,12.1 -23.5,12.1 "/>
<path class="st14" d="M-61.2,31.4c0,0-0.6-2,14.7,1.4c12.9,2.9,7.8-4.6,14.1-11.6c4.1-4.6,9.5,2.4,9.5,2.4"/>
<g>
	<path class="st15" d="M-22.5,2.9c1.3-0.8,2.8-1.6,4.2-2.2v-6.1h-51.1v6.8c4.4-3.2,6.6,0.8,9.5,3c4.3,3,7.8-1.3,7.8-5.4
		c0.3,1.2,0.6,2.3,1.2,3.4l0.1-0.3c0.1-0.5,0.6-0.6,0.9-1.2c1,1,2,2,3.1,3c1.9-2.9,4.6-3.7,7.5-1.5h0.1c3.5-3.1,6.5-1.1,8.9,2.3
		c0.6-1.4,0.9-5.6,2.7-6.1c1.3-0.4,4.1,3.4,5.2,4.5"/>
</g>
</svg>
