<?xml version="1.0" encoding="utf-8"?>
<!-- Generator: Adobe Illustrator 27.3.1, SVG Export Plug-In . SVG Version: 6.00 Build 0)  -->
<svg version="1.1" id="Calque_1" xmlns="http://www.w3.org/2000/svg" xmlns:xlink="http://www.w3.org/1999/xlink" x="0px" y="0px"
	 viewBox="0 0 90 90" style="enable-background:new 0 0 90 90;" xml:space="preserve">
<style type="text/css">
	.st0{fill:#E52916;stroke:#1D1D1B;stroke-width:2;stroke-miterlimit:10;}
	.st1{fill:#FFFFFF;stroke:#1D1D1B;stroke-width:2;stroke-miterlimit:10;}
	.st2{fill:#9B9F91;stroke:#1D1D1B;stroke-width:2;stroke-miterlimit:10;}
	.st3{fill:#0C100A;stroke:#1D1D1B;stroke-width:2;stroke-miterlimit:10;}
	.st4{fill:#36A9E1;stroke:#1D1D1B;stroke-width:2;stroke-miterlimit:10;}
</style>
<path class="st0" d="M59.6,26.1c0,0,14.1-7.4,16.2-5.3C77.8,23,84,32.7,83.8,40S22.5,68.5,18.6,69.1c-3.9,0.6-12.8-16.5-9.3-22.4
	c0,0,6-3.4,7.6-3c0,0-11-22.2,10.4-32S57.6,22.3,59.6,26.1z"/>
<path class="st1" d="M54.1,28.2C45.7,6.4,31.2,15.7,31.2,15.7L40,34.2L54.1,28.2z"/>
<path class="st1" d="M28.3,17.2c-15.8,4.5-5.9,24.4-5.9,24.4l13.7-5.8L28.3,17.2z"/>
<path class="st2" d="M41.1,59.2c0,0-3.7-11.6-13.1-7.3S22,67.3,22,67.3s4.7,7.8,13.1,4.3C43.4,68,41.1,59.2,41.1,59.2z"/>
<path class="st2" d="M65.7,36.4c0,0-9.9,5.9-4.5,16.7c0,0,3.1,5.3,11.5,2.1c8.4-3.2,6.2-12.6,6.2-12.6S75.3,32.4,65.7,36.4z"/>
<path class="st3" d="M69.4,44.3c0,0-1.6,1-0.7,2.8c0,0,0.5,0.9,1.9,0.3c1.4-0.5,1-2.1,1-2.1S71,43.7,69.4,44.3z"/>
<path class="st3" d="M31.2,60.9c0,0-1.6,1-0.7,2.8c0,0,0.5,0.9,1.9,0.3c1.4-0.5,1-2.1,1-2.1S32.8,60.3,31.2,60.9z"/>
<path class="st3" d="M14.9,73.3"/>
<path class="st3" d="M8.1,73.1c1.1,0.3,76.2,0,76.2,0"/>
<line class="st4" x1="60.6" y1="56.8" x2="53.4" y2="61.8"/>
<line class="st4" x1="63.4" y1="59.3" x2="57.5" y2="64.2"/>
<line class="st4" x1="66.6" y1="61.2" x2="61.3" y2="67.3"/>
</svg>
