<?xml version="1.0" encoding="utf-8"?>
<!-- Generator: Adobe Illustrator 27.3.1, SVG Export Plug-In . SVG Version: 6.00 Build 0)  -->
<svg version="1.1" id="Calque_1" xmlns="http://www.w3.org/2000/svg" xmlns:xlink="http://www.w3.org/1999/xlink" x="0px" y="0px"
	 viewBox="0 0 50 40" style="enable-background:new 0 0 50 40;" xml:space="preserve">
<style type="text/css">
	.st0{fill:#7FCCE1;stroke:#000000;stroke-miterlimit:10;}
	.st1{fill:#0394D3;stroke:#000000;stroke-miterlimit:10;}
	.st2{fill:#95C45F;stroke:#000000;stroke-miterlimit:10;}
	.st3{stroke:#000000;stroke-width:0.5;stroke-miterlimit:10;}
	.st4{fill:#375BA6;stroke:#000000;stroke-miterlimit:10;}
	.st5{stroke:#000000;stroke-width:0.75;stroke-miterlimit:10;}
	.st6{fill:#FFFFFF;stroke:#000000;stroke-miterlimit:10;}
</style>
<path class="st0" d="M48.5,31.2C41.8,43.1,7,42.3,1.2,31.1c-4.3-8.4,6.3-23.2,9.7-22.5c1.8,0.4,2.1,5.3,3.4,5.3
	c2.1,0,4.7-13.2,7.6-13.4c3.2-0.3,4.6,13.8,8.8,13.6c3-0.1,3.4-8,6.5-8.4C42.1,5,53.7,22,48.5,31.2z"/>
<path class="st1" d="M4.3,30.8c-3-3.1-1.2-9.6,1.1-13.5c0.7-1.1,2.7-5.3,4.4-5.1c1.5,0.2,1.3,3.7,3.3,4.1c1.5,0.3,2.9-0.6,3.4-1
	c1.5-1,2.7-2.9,2.7-4.8c0-1.8,0-2.5,0.3-4.4c0.2-1,1.6-2.2,2.1-2.2c0.7,0,0.2,0.9,2,3.7c0.6,1,0.3,1.5,1.5,3.2
	c2.4,3.2,1.4,4.5,2.6,5.4c0.3,0.2,2.5,1.7,4.8,0.9c2.3-0.8,3.2-4.2,3.3-4.3c0.5-1.7,1-2.8,1.6-3.2c1-0.7,2.9,2.5,3.2,2.9
	c1,0.9,1.2,1.9,1.6,2.4c1,1.5,1.5,2.9,2.4,5.6c0.6,1.8,0.8,2.8,0.9,3.9c0,0.7,0.1,1.3-0.1,2.2c-0.1,0.6-0.5,1.9-2.1,3.4
	c-1.6,1.7-3.6,2.5-7.4,4.2C34,35,33,35.4,32.3,35.5c-2.5,0.6-3.3-0.1-6.9,0.2c-2.4,0.2-2.4,0.5-4.3,0.4c-1.9,0-3.5-0.3-4.7-0.6
	C14.8,35,15,34.8,12.8,34c-3.1-1-4-0.7-6.3-1.8C5.5,31.7,4.9,31.4,4.3,30.8z"/>
<path class="st2" d="M27.8,23.2c0.6-1.4,1.6-2.7,3.1-2.8c1.3-0.1,2.2,0.6,3.5,1.5c1.1,0.8,2.4,1.7,2.3,2.9c-0.1,0.7-0.6,1.1-1.5,1.8
	c-0.9,0.7-1.8,1.5-3.3,1.6c-1.4,0.1-3.3-0.4-4.2-1.8c-0.2-0.2-0.6-1-0.6-2C27.1,23.7,27.7,23.4,27.8,23.2z"/>
<path class="st3" d="M30.2,23.7c0.4-0.2,1-0.1,1.2,0.3s0,0.8-0.1,1c0,0.1-0.3,0.8-0.8,0.8s-0.8-0.7-0.8-1.3
	C29.8,24.4,29.9,23.9,30.2,23.7z"/>
<path class="st4" d="M10.7,24.1c-0.3-2.3,2.2-3.9,2.4-4c2.3-1.4,5.1-0.3,6.4,2.2c0.7,1.3,1.6,2.4,0.8,3.7c-1.4,2.3-4.6,2.1-6.3,1.4
	C13.5,27.2,10.9,26.3,10.7,24.1z"/>
<path class="st5" d="M17.3,23.3c0.4-0.3,1.1-0.1,1.3,0.3c0.2,0.4,0,0.9-0.1,1.1c0,0.1-0.4,0.8-0.8,0.8c-0.5,0-0.9-0.8-0.8-1.4
	C16.8,24,16.9,23.5,17.3,23.3z"/>
<path class="st6" d="M27,32.5c0.4-0.7-0.6-2.1-1.8-2.8c-2.3-1.3-5.7,0.6-5.7,1.4C19.5,32.5,26.3,33.7,27,32.5z"/>
</svg>
