<?xml version="1.0" encoding="utf-8"?>
<!-- Generator: Adobe Illustrator 27.3.1, SVG Export Plug-In . SVG Version: 6.00 Build 0)  -->
<svg version="1.1" id="Calque_1" xmlns="http://www.w3.org/2000/svg" xmlns:xlink="http://www.w3.org/1999/xlink" x="0px" y="0px"
	 viewBox="0 0 45 90" style="enable-background:new 0 0 45 90;" xml:space="preserve">
<style type="text/css">
	.st0{fill:#C74827;stroke:#020203;stroke-miterlimit:10;}
	.st1{fill:#946137;stroke:#020203;stroke-miterlimit:10;}
	.st2{fill:#F9B006;stroke:#020203;stroke-miterlimit:10;}
	.st3{fill:#E62F24;stroke:#020203;stroke-miterlimit:10;}
</style>
<rect x="22.9" y="79.6" class="st0" width="10.7" height="6.1"/>
<polygon class="st1" points="22.9,83 33.4,83 33.4,84.4 37.5,84.4 37.5,87.3 22.9,87.3 "/>
<rect x="9.6" y="80.4" class="st0" width="10.7" height="7.1"/>
<path class="st2" d="M25.4,38.8L14.2,38C7.8,37.5,3,31.1,3.4,23.7v-0.3c0.4-7.6,5.8-13.3,12.1-13l11.1,0.8
	c6.3,0.5,11.2,6.9,10.8,14.3v0.3C37,33.4,31.6,39.1,25.4,38.8z"/>
<path class="st1" d="M14.3,3.3c0,0-11.5,17.6-13.9,16.5s61.8-3.6,37.7-9.9S14,3.8,14,3.8"/>
<path class="st0" d="M37.3,80H5.9c-1.3,0-2.5-1.4-2.5-3V40.2c0-1.6,1.1-3,2.5-3h31.4c1.3,0,2.5,1.4,2.5,3v36.7
	C39.7,78.6,38.6,80,37.3,80z"/>
<path class="st3" d="M25.6,19.7c0,0,8.1,0,6.6,1.8c-1.3,1.8-1.3,1.8-1.3,1.8L25.6,19.7z"/>
<path class="st2" d="M33.2,31.8c0,0-6.3,2.1-7-3.5"/>
<path class="st1" d="M12.5,8.8c3.9,2.2,16.1,2,16.1,2"/>
<path class="st1" d="M12.5,13.7c0,0,12.7,2,16.8,0.2"/>
<g>
	<polygon class="st0" points="0.8,28.6 6.9,24.7 23.4,46.7 17.2,50.6 	"/>
	<polygon class="st2" points="11.4,30.5 5.3,34.6 0.8,28.6 6.9,24.7 	"/>
</g>
<polygon class="st1" points="9.6,84.4 20.1,84.4 20.1,86 24.3,86 24.3,89.4 9.6,89.4 "/>
</svg>
