<?xml version="1.0" encoding="utf-8"?>
<!-- Generator: Adobe Illustrator 27.3.1, SVG Export Plug-In . SVG Version: 6.00 Build 0)  -->
<svg version="1.1" id="Calque_1" xmlns="http://www.w3.org/2000/svg" xmlns:xlink="http://www.w3.org/1999/xlink" x="0px" y="0px"
	 viewBox="0 0 50 15" style="enable-background:new 0 0 50 15;" xml:space="preserve">
<style type="text/css">
	.st0{fill:#DEB887;stroke:#000000;stroke-miterlimit:10;}
	.st1{fill:#DEB887;stroke:#000000;stroke-width:2;stroke-miterlimit:10;}
	.st2{opacity:0.5;fill:none;stroke:#000000;stroke-miterlimit:10;}
	.st3{opacity:0.5;fill:#DEB887;stroke:#000000;stroke-miterlimit:10;}
</style>
<path class="st0" d="M42.5,14.5h-5.4l-3.9-3.8l-1.5,3.8H17.4L14,10.8l-0.1,3.7H7.5c-3.9,0-7-3.1-7-7v0c0-3.9,3.1-7,7-7h11.9l1.7,3.8
	l2.4-3.8h19c3.9,0,7,3.1,7,7v0C49.5,11.4,46.4,14.5,42.5,14.5z"/>
<polyline class="st0" points="11,2.4 12.5,7.1 17.7,7.1 18,10.3 "/>
<path class="st0" d="M26.6,10.8l1.4-4.3l8.7,3.3l-3.6-5.2c0,0,6.9,0.4,7.3,0.3"/>
<line class="st1" x1="18.3" y1="4.7" x2="20.1" y2="4.7"/>
<line class="st1" x1="42.3" y1="10.7" x2="41" y2="10.7"/>
<line class="st1" x1="3.9" y1="4.1" x2="5.3" y2="4.1"/>
<polyline class="st2" points="0.4,8.7 5.5,10.3 7.4,7.5 13.1,14.2 "/>
<polyline class="st3" points="36.6,0.5 42.5,2.8 44.9,2.5 47.2,7.7 49,9.2 "/>
<g>
</g>
<g>
</g>
<g>
</g>
<g>
</g>
<g>
</g>
<g>
</g>
</svg>
