<?xml version="1.0" encoding="utf-8"?>
<!-- Generator: Adobe Illustrator 27.3.1, SVG Export Plug-In . SVG Version: 6.00 Build 0)  -->
<svg version="1.1" id="Calque_1" xmlns="http://www.w3.org/2000/svg" xmlns:xlink="http://www.w3.org/1999/xlink" x="0px" y="0px"
	 viewBox="0 0 100 100" style="enable-background:new 0 0 100 100;" xml:space="preserve">
<style type="text/css">
	.st0{fill:#570F08;stroke:#221100;stroke-width:7;stroke-miterlimit:10;}
	.st1{opacity:0.6;fill:none;stroke:#000000;stroke-width:7;stroke-miterlimit:10;enable-background:new    ;}
	.st2{fill:#751514;stroke:#221100;stroke-width:7;stroke-miterlimit:10;}
</style>
<path class="st0" d="M75.2,96.5H24.8C13.1,96.5,3.5,87,3.5,75.2V24.8C3.5,13,13.1,3.5,24.8,3.5h50.3c11.8,0,21.3,9.6,21.3,21.3v50.3
	C96.5,87,87,96.5,75.2,96.5z"/>
<line class="st1" x1="10.3" y1="90.8" x2="90.8" y2="10.3"/>
<line class="st1" x1="10.3" y1="10.3" x2="48.1" y2="48.1"/>
<line class="st1" x1="53" y1="53" x2="90" y2="90"/>
<path class="st2" d="M-68.8,103.3h-50.4c-11.7,0-21.3-9.5-21.3-21.3V31.6c0-11.8,9.6-21.3,21.3-21.3h50.3c11.8,0,21.3,9.6,21.3,21.3
	v50.3C-47.5,93.8-57,103.3-68.8,103.3z"/>
</svg>
