<?xml version="1.0" encoding="utf-8"?>
<!-- Generator: Adobe Illustrator 27.3.1, SVG Export Plug-In . SVG Version: 6.00 Build 0)  -->
<svg version="1.1" id="Calque_1" xmlns="http://www.w3.org/2000/svg" xmlns:xlink="http://www.w3.org/1999/xlink" x="0px" y="0px"
	 viewBox="0 0 100 100" style="enable-background:new 0 0 100 100;" xml:space="preserve">
<style type="text/css">
	.st0{fill:#0EA038;stroke:#030304;stroke-miterlimit:10;}
	.st1{fill:#EB5885;stroke:#030304;stroke-miterlimit:10;}
	.st2{fill:#020203;stroke:#030304;stroke-miterlimit:10;}
	.st3{fill:#C5B084;stroke:#030405;stroke-miterlimit:10;}
	.st4{fill:#4D5B65;stroke:#030405;stroke-miterlimit:10;}
</style>
<path class="st0" d="M77.6,42.9c0.3-12.9-6.8-22.8-18-24.4L42,17.6c-10.4,0.5-18.5,9.9-18.8,23.1v0.5c-0.2,10.4,5,19.6,12.5,22.9
	v15.7h29.4V65.6c2.6-0.8,5-2.8,6.9-6.1c0.5-0.7-9.2-9.7-8.7-10.6c0.5-0.8,13.4,1.8,13.7,0.8c0.8-2.8,0.7-3.3,0.8-6.6L77.6,42.9z"/>
<path class="st1" d="M50.9,34.8c-0.5-3.8,3.6-6.4,4-6.6c3.8-2.3,9.9-2,12.2,2.3c1.2,2.1,1.2,5.4-0.2,7.4c-2.3,3.8-7.6,3.5-10.4,2.3
	C55.5,40.1,51.2,38.6,50.9,34.8z"/>
<path class="st2" d="M61.8,33.5c0.7-0.5,2-0.2,2.1,0.5c0.3,0.7,0,1.5-0.2,2c0,0.2-0.7,1.3-1.3,1.3c-0.8,0-1.5-1.3-1.3-2.3
	C61,34.6,61.1,33.8,61.8,33.5z"/>
<path class="st3" d="M79.3,65.2l-11.6-2c-0.3-0.1-0.7-0.1-0.8-0.1l-5,0.6l-12.7,2.7l-11.1-3.2h-7.4c-0.3,0,0.3-0.1,0,0l-10.9,2.2
	c-1,0.2-1.8,0.7-1.8,1.3v32.4c0,0,9.9,3.7,10.6,3.8s43.4-0.5,43.4-0.5s9.9-0.2,9.9-0.9l-0.8-35.2C80.8,65.8,80.3,65.4,79.3,65.2z"/>
<polygon class="st4" points="54.9,104.6 41.3,104.5 38.2,80.7 51.7,80.7 "/>
</svg>
