<?xml version="1.0" encoding="utf-8"?>
<!-- Generator: Adobe Illustrator 27.3.1, SVG Export Plug-In . SVG Version: 6.00 Build 0)  -->
<svg version="1.1" id="Calque_1" xmlns="http://www.w3.org/2000/svg" xmlns:xlink="http://www.w3.org/1999/xlink" x="0px" y="0px"
	 viewBox="0 0 20 20" style="enable-background:new 0 0 20 20;" xml:space="preserve">
<style type="text/css">
	.st0{fill:#6A2C2C;stroke:#000000;stroke-miterlimit:10;}
</style>
<path class="st0" d="M14.8,9c-0.5,1-1.7,6.6-1.7,6.6c-1-1.1-1.2-8.5-1.1-11c0.1-1.7-3.2,9.1-3.2,9.1C7.7,6.8,4,6.3,4,6.3
	c2.5,0.3,1.2,9.2,1.2,9.2c-1.8-6.3-4-3-4-3c2.9,0.4,1.2,8.2,1.2,8.2H19c0,0,0.3-8.4-0.5-6.5c-1.2,2.8-2.6,2.1-2.6,2.1
	S17.6,3.6,14.8,9z"/>
</svg>
