<?xml version="1.0" encoding="utf-8"?>
<!-- Generator: Adobe Illustrator 27.3.1, SVG Export Plug-In . SVG Version: 6.00 Build 0)  -->
<svg version="1.1" id="Calque_1" xmlns="http://www.w3.org/2000/svg" xmlns:xlink="http://www.w3.org/1999/xlink" x="0px" y="0px"
	 viewBox="0 0 50 50" style="enable-background:new 0 0 50 50;" xml:space="preserve">
<style type="text/css">
	.st0{fill:#6C441F;}
	.st1{fill:#7C471A;}
	.st2{fill:#7D481B;}
	.st3{fill:none;stroke:#614021;stroke-width:4;stroke-miterlimit:10;}
	.st4{fill:#6F6050;}
	.st5{fill:none;stroke:#895528;stroke-width:2;stroke-miterlimit:10;}
	.st6{fill:#655849;}
	.st7{fill:#7D2C2A;stroke:#000000;stroke-miterlimit:10;}
</style>
<rect class="st0" width="50" height="50"/>
<path class="st1" d="M15,23.2c0,0,7,5.3,5.6,7.5s-7.9,0.4-8,0s3.3-5.5,0-6.1S15,23.2,15,23.2z"/>
<path class="st2" d="M30.3,9c0,0,0.7,16.7,4.1,11.5S31.1,6.6,30.3,9z"/>
<path class="st3" d="M25.8,4.5C21.8,6.7,9.6,8,8.1,11.4S2.7,16,3.9,18.5"/>
<path class="st2" d="M27.5,44.9c0,0,18-6.2,17,1.1"/>
<polygon class="st4" points="21.1,15.8 16.8,14.8 14.4,16.6 18.8,19.3 22.9,18 "/>
<polygon class="st4" points="15.2,46 12.2,40.4 9.4,43.9 12.3,46 "/>
<polygon class="st4" points="45,5.1 40.3,5.1 41.1,9.7 45,9.7 "/>
<path class="st5" d="M5.2,35.6c0,0-0.6-2.3,16.8,1.6C36.6,40.5,30.9,32,38,24c4.7-5.3,10.8,2.7,10.8,2.7"/>
<rect x="-56.6" y="-1" class="st0" width="50" height="50"/>
<path class="st1" d="M-26.3,8c0,0,0.7,16.7,4.1,11.5S-25.5,5.6-26.3,8z"/>
<path class="st3" d="M-29.6,13.5c-4,2.2-16.2,3.5-17.7,6.9s-5.5,4.6-4.2,7.1"/>
<path class="st2" d="M-28.2,44.7c0,0,18-6.2,17,1.1"/>
<polygon class="st4" points="-29.2,23.5 -33.5,22.5 -35.9,24.4 -31.5,27.1 -27.3,25.7 "/>
<polygon class="st6" points="-43,45.5 -45.9,39.8 -48.8,43.3 -45.9,45.5 "/>
<polygon class="st4" points="-11.2,12.3 -15.9,12.3 -15.1,16.8 -11.2,16.8 "/>
<path class="st5" d="M-48.8,36c0,0-0.6-2,14.7,1.4c12.9,2.9,7.8-4.6,14.1-11.6c4.1-4.6,9.5,2.4,9.5,2.4"/>
<g>
	<path class="st7" d="M-10.2,7.5C-8.9,6.7-7.4,5.9-6,5.3v-6.1h-51.1V6c4.4-3.2,6.6,0.8,9.5,3c4.3,3,7.8-1.3,7.8-5.4
		c0.3,1.2,0.6,2.3,1.2,3.4l0.1-0.3c0.1-0.5,0.6-0.6,0.9-1.2c1,1,2,2,3.1,3c1.9-2.9,4.6-3.7,7.5-1.5h0.1c3.5-3.1,6.5-1.1,8.9,2.3
		c0.6-1.4,0.9-5.6,2.7-6.1c1.3-0.4,4.1,3.4,5.2,4.5"/>
</g>
</svg>
