<?xml version="1.0" encoding="utf-8"?>
<!-- Generator: Adobe Illustrator 27.3.1, SVG Export Plug-In . SVG Version: 6.00 Build 0)  -->
<svg version="1.1" id="Calque_1" xmlns="http://www.w3.org/2000/svg" xmlns:xlink="http://www.w3.org/1999/xlink" x="0px" y="0px"
	 viewBox="0 0 50 25" style="enable-background:new 0 0 50 25;" xml:space="preserve">
<style type="text/css">
	.st0{fill:#7E4F25;}
	.st1{fill:#7C6B59;}
	.st2{fill:none;}
	.st3{fill:none;stroke:#B1804A;stroke-width:0.25;stroke-miterlimit:10;}
	.st4{fill:none;stroke:#008E39;stroke-width:1.2;stroke-miterlimit:10;}
</style>
<g id="Calque_1_00000036213535252293871030000004976878014782463652_">
	<path class="st0" d="M50,50.2H0c0-12.5,0-25,0-38c0-4,0-8,0-12c16.5,0,33.5,0,50.1,0V50.2z"/>
	<path class="st0" d="M14,8.2"/>
	<rect x="7" y="8.7" class="st1" width="2.5" height="2.5"/>
	<path class="st1" d="M34.5,13.2H33c0,0-0.5,0-0.5-0.5v-1.5c0,0,0-0.5,0.5-0.5h1.5c0,0,0.5,0,0.5,0.5L34.5,13.2
		C35,13.2,35,13.2,34.5,13.2z"/>
	<rect x="12.5" y="21.2" class="st1" width="2.5" height="2.5"/>
	<rect x="34.5" y="35.2" class="st1" width="2.5" height="2.5"/>
	<rect x="14" y="34.7" class="st1" width="2.5" height="2.5"/>
</g>
<g id="Calque_2_00000174587967821294935010000006202428511011110550_">
	<g>
		<g>
			<g>
				<g>
					<line class="st2" x1="-6" y1="25.2" x2="56" y2="25.2"/>
				</g>
				<g>
					<line class="st2" x1="56" y1="25.2" x2="-6" y2="25.2"/>
				</g>
			</g>
			<path class="st3" d="M50.5,30.2c-2-2-4-2.5-5.5-2.5c-2,0-2.5,1.5-5,1.5s-3.5-1-6-1.5c-2-0.5-5-0.5-9,1.5"/>
			<path class="st3" d="M50.5,5.7c-2,0.5-4,0.5-5.5,0.5c-2,0,2.5-1.5,0-1.5c-2.5,0-11-2-13.5-1.5c-2,0-2.5,3.5-6.5,3"/>
		</g>
	</g>
	<g>
		<g>
			<g>
				<g>
					<line class="st2" x1="56" y1="25.2" x2="-6" y2="25.2"/>
				</g>
				<g>
					<line class="st2" x1="-6" y1="25.2" x2="56" y2="25.2"/>
				</g>
			</g>
			<path class="st3" d="M-0.5,30.2c2-2,4-2.5,5.5-2.5c2,0,2.5,1.5,5,1.5s3.5-1,6-1.5c2-0.5,5-0.5,9,1.5"/>
			<path class="st3" d="M-0.5,5.7c2,0.5,4,0.5,5.5,0.5c2,0-2.5-1.5,0-1.5s11-2,13.5-1.5c2,0,2.5,3.5,6.5,3"/>
		</g>
	</g>
</g>
<path class="st0" d="M50,50.1H0c0-12.5,0-25,0-38C0,8,0,4,0,0C16.5,0,33.5,0,50,0V50.1z"/>
<path class="st0" d="M14,8"/>
<rect x="2" y="15" class="st1" width="2.5" height="2.5"/>
<rect x="35.5" y="13.5" class="st1" width="2.5" height="2.5"/>
<rect x="20" y="10" class="st1" width="2.5" height="2.5"/>
<rect x="33" y="30" class="st1" width="2.5" height="2.5"/>
<rect x="24" y="41.6" class="st1" width="2.5" height="2.5"/>
<path class="st4" d="M5,0C5.5,0,5.5,0.5,5,0c0.5,0.5-3.5,0.5-4,0.5c-1,0-2,0-2,0l0,0c2,0,4.5-0.5,7,0C7,0.5,7.5,1,8,1
	c6.5,3,16.5,0,16-0.5l0,0c-5,0-6.5,0-6.5,0s33-1,33,0.5c0,0.5-2,0.5-2.5,1c-1.5,0-3,0.5-4.5,0c0,0-0.5-0.5-1,0C42,2,42,2,42,2.5
	c-1,0.5-4-1-4-1c-3.5-2-9.5-1-11.5,0C26,1.5,25.5,2,25,2c-1,0-2,0-4.5-0.5S17,1,16.5,1C15,1,14,1,14,1c-1,0-2.5,0.5-2.5,1
	C11.5,3,23,2.5,23,2.5s-14.5,0-16,0c0,0-0.5,0-1,0s-1.5,0-2.5,0S0,2,0,2c0-0.5,5.5-1,11-0.5C21,1.5,28,3,28.5,3c0,0,0.5,0,1.5,0.5
	c0,0,0,0,0.5,0c0.5,0,1,0,2.5,0c0.5,0,0.5,0,1,0c0,0,0.5,0,1,0c0.5,0,1,0,1.5,0c0,0,0.5,0,1,0c1.5,0,1.5,0,2,0c1,0,1-0.5,2-0.5
	c1.5-0.5,3,0.5,5,1c1.5,0.5,2,1,2,1s-2.5-1.5-4-0.5C44,4.5,44,5,43.5,5c-1,0.5-2,0-2,0c-4-1-5,0-8.5,0c-0.5,0-1.5,0-1.5,0
	c-1,0-2-0.5-2-0.5c-2-0.5-4.5,0-6,0c-0.5,0,0,0-9.5-0.5C9.5,4,7,3.5,6.5,4C5,4,4,4.5,2,4C0.5,4-1,3-1,3.5c0,0,0.5,0.5,1,1
	S1.5,5,1.5,5c2,0,4,0.5,4,0.5c1,0,3,0,5.5-0.5c1-0.5,1-0.5,2-0.5c1-0.5,3-1,5-0.5c1.5,0,2.5,0.5,3,0.5c0,0,0,0,1,0.5
	c2,1,3,1.5,4.5,1.5l0,0C28,6,29,5,29.5,4.5c2-2,3-2.5,3.5-2.5c2,0,2.5,4,5.5,4c0.5,0,0.5,0,1,0c0,0,0.5,0,1,0c1-1,3.5-5,5-4.5
	c1,0,2,2.5,1,4c-0.5,0.5-1,1-2,1C44,6.5,43,6.5,43,6c0-0.5,1-0.5,1-1s-5-1-10.5,0.5c0,0,0,0-1.5,0.5c-5,1-6,1-7,1.5
	c-0.5,0-1.5,0-2.5,0c-3,0-4,0-9-0.5c-1,0-2,0-3.5,0C8,7,6.5,7,5.5,7l0,0C2.5,7,1,7.5,1,7.5s17-2,17-1.5C18,6,0.5,7,0.5,8.5
	s11,4.5,18,0C19,7,19,7,20.5,6C27,1,34.5,1,35,1.5c0,0-2.5,1-7,3C18,8,8.5,10,8.5,9.5s2-1,2-2c-1-1-6-0.5-6.5,0C4,8,14.5,10,22,8.5
	c0.5,0,3-0.5,6.5-1C31,7,32.5,7,33.5,7c1.5,0,3.5,0.5,6,0c0.5,0,0.5,0,1,0c2.5-0.5,4-2.5,4.5-2c0.5,0.5-0.5,2.5,0,3
	c0.5,0.5,3-1,3-1.5c0,0,0-0.5-0.5-0.5C45.5,5,36,4,36,6c0,1.5,5.5,3.5,8,3c1,0,2-0.5,3-1.5c0.5-0.5,0.5-0.5,1-1c0,0,0.5-0.5,0.5-1.5
	c0,0,0-1-0.5-1.5C46.5,1,39.5,1,39.5,1c-8.5-0.5-22-2-31,3C8.5,4,2,7.5,0,5.5L-0.5,5c0,0,0,0.5,0,1c0,1-0.5,2,0,2.5
	C0,10.5,44-5,49,2.5c0.5,0.5,1,2-0.5,5"/>
<g id="Calque_2_00000026164000034152055810000006181191352516161185_">
	<g>
		<g>
			<g>
				<g>
					<line class="st2" x1="-6" y1="25" x2="56" y2="25"/>
				</g>
				<g>
					<line class="st2" x1="56" y1="25" x2="-6" y2="25"/>
				</g>
			</g>
			<path class="st3" d="M50.5,30c-2-2-5-3.5-7-3.5c-2,0-0.5,4-3,4s-9,1-11.5,0.5c-2-0.5-0.5,0-5,2"/>
		</g>
	</g>
	<g>
		<g>
			<g>
				<g>
					<line class="st2" x1="56" y1="25" x2="-6" y2="25"/>
				</g>
				<g>
					<line class="st2" x1="-6" y1="25" x2="56" y2="25"/>
				</g>
			</g>
			<path class="st3" d="M-0.5,30c2-2,5.5-3.5,7-3.5c2,0,0.5,4,3,4s9,1,11.5,0.5c2-0.5,0.5,0,5,2"/>
		</g>
	</g>
</g>
</svg>
