<?xml version="1.0" encoding="utf-8"?>
<!-- Generator: Adobe Illustrator 27.3.1, SVG Export Plug-In . SVG Version: 6.00 Build 0)  -->
<svg version="1.1" id="Calque_1" xmlns="http://www.w3.org/2000/svg" xmlns:xlink="http://www.w3.org/1999/xlink" x="0px" y="0px"
	 viewBox="0 0 150 300" style="enable-background:new 0 0 150 300;" xml:space="preserve">
<style type="text/css">
	.st0{fill:#039EB2;stroke:#000000;stroke-width:3;stroke-miterlimit:10;}
	.st1{fill:#3D35AC;stroke:#000000;stroke-width:3;stroke-miterlimit:10;}
	.st2{fill:#A98881;stroke:#000000;stroke-width:3;stroke-miterlimit:10;}
	.st3{fill:#7C563F;}
	.st4{fill:#F3987F;stroke:#000000;stroke-width:6;stroke-miterlimit:10;}
	.st5{fill:#03A4B8;stroke:#030304;stroke-width:3;stroke-miterlimit:10;}
	.st6{fill:#937269;stroke:#030304;stroke-width:3;stroke-miterlimit:10;}
	.st7{fill:#5C626E;stroke:#000000;stroke-width:3;stroke-miterlimit:10;}
	.st8{fill:#EFF4F8;stroke:#000000;stroke-width:3;stroke-miterlimit:10;}
	.st9{fill:#48398E;stroke:#000000;stroke-width:3;stroke-miterlimit:10;}
	.st10{fill:#271B0F;stroke:#000000;stroke-width:3;stroke-miterlimit:10;}
	.st11{fill:#038698;}
	.st12{fill:#332D8D;}
</style>
<rect x="9.1" y="86.2" class="st0" width="131.8" height="163.9"/>
<rect x="31.3" y="250.1" class="st1" width="44.4" height="40.2"/>
<rect x="82" y="250.1" class="st1" width="44.5" height="40.2"/>
<rect x="31.3" y="2.6" class="st2" width="87" height="83.5"/>
<polygon class="st3" points="114.8,68.9 92.7,68.9 92.7,60.4 79.7,60.4 79.7,76.5 88.7,76.5 88.7,79.5 116.4,79.5 116.4,68.5 "/>
<line class="st4" x1="118.3" y1="67.1" x2="92.6" y2="67.1"/>
<g>
	<rect x="46.7" y="119.8" class="st5" width="29.4" height="100.3"/>
	<rect x="46.7" y="161.7" class="st6" width="29.4" height="58.4"/>
</g>
<rect x="31.3" y="283.9" class="st7" width="44.4" height="13.4"/>
<rect x="82" y="283.9" class="st7" width="44.5" height="13.4"/>
<rect x="89.7" y="31.9" class="st8" width="21.4" height="12.1"/>
<rect x="98.7" y="31.9" class="st9" width="12.4" height="12.1"/>
<polygon class="st10" points="31.3,25.2 44.2,25.2 44.2,15.6 57.4,15.6 57.4,10 103.1,10 103.1,17.6 118.3,17.6 118.3,2.6 31.3,2.6 
	"/>
<polygon class="st11" points="101.3,133.2 101.3,149.3 108.1,149.3 108.1,166.3 122.9,166.3 122.9,138.6 122.9,129.6 101.3,129.6 
	"/>
<polygon class="st11" points="96,208.6 96,219.8 87.6,219.8 87.6,226.3 93.6,226.3 105.9,226.3 105.9,208.6 "/>
<polygon class="st11" points="30.9,100.1 49.1,100.1 49.1,106.3 60.3,106.3 60.3,112.2 35.8,112.2 36.3,122.5 24.4,122.5 
	24.4,100.1 "/>
<polygon class="st11" points="20,217 20,230.6 38.7,230.6 38.7,212.9 30.9,212.9 30.9,203.1 20,203.1 "/>
<polygon class="st11" points="125,190.9 130.8,190.9 130.8,209.8 122.2,209.8 122.2,190.9 "/>
<rect x="91.7" y="268.3" class="st12" width="25.6" height="5.2"/>
<rect x="40.7" y="268.3" class="st12" width="25.6" height="5.2"/>
</svg>
