<?xml version="1.0" encoding="utf-8"?>
<!-- Generator: Adobe Illustrator 27.3.1, SVG Export Plug-In . SVG Version: 6.00 Build 0)  -->
<svg version="1.1" id="Calque_1" xmlns="http://www.w3.org/2000/svg" xmlns:xlink="http://www.w3.org/1999/xlink" x="0px" y="0px"
	 viewBox="0 0 312 142" style="enable-background:new 0 0 312 142;" xml:space="preserve">
<style type="text/css">
	.st0{fill:#90411E;stroke:#432918;stroke-width:12;stroke-miterlimit:10;}
	.st1{fill:none;stroke:#432918;stroke-width:10;stroke-miterlimit:10;}
</style>
<g>
	<path class="st0" d="M266.1,135.8H45.4c-21.9,0-39.6-17.7-39.6-39.6V45.5c0-21.9,17.7-39.6,39.6-39.6h220.7
		c21.9,0,39.6,17.7,39.6,39.6v50.7C305.8,118.1,288,135.8,266.1,135.8z"/>
	<polyline class="st1" points="58.2,114.5 52.4,41.5 76.8,71.9 98.4,46.4 93.6,114.5 	"/>
	<polyline class="st1" points="152.4,109.9 122.2,114.5 115.7,41.5 147.8,35.6 	"/>
	<line class="st1" x1="149.1" y1="78" x2="123.5" y2="78"/>
	<path class="st1" d="M170.2,114.5l0.1-69.8c0,0,28.2,60,27.5,63.5l7.2-77.3"/>
	<path class="st1" d="M230.7,35.6c0,0-9.9,78.9,13.2,74.3s23-68.4,23-68.4"/>
</g>
<g>
</g>
<g>
</g>
<g>
</g>
<g>
</g>
<g>
</g>
<g>
</g>
</svg>
