<?xml version="1.0" encoding="utf-8"?>
<!-- Generator: Adobe Illustrator 27.3.1, SVG Export Plug-In . SVG Version: 6.00 Build 0)  -->
<svg version="1.1" id="Calque_1" xmlns="http://www.w3.org/2000/svg" xmlns:xlink="http://www.w3.org/1999/xlink" x="0px" y="0px"
	 viewBox="0 0 20 25" style="enable-background:new 0 0 20 25;" xml:space="preserve">
<style type="text/css">
	.st0{fill:none;stroke:#008E39;stroke-miterlimit:10;}
	.st1{fill:#3EAB37;stroke:#008E39;stroke-miterlimit:10;}
	.st2{fill:#E20E18;stroke:#782D2B;stroke-width:0.25;stroke-miterlimit:10;}
	.st3{fill:#FEEB1A;}
</style>
<path class="st0" d="M10.3,25.1c0,0,1.3-12-1.2-13.1"/>
<path class="st1" d="M10.9,24.1c0,0,0.9-7.8,6.8-6.5c0,0-0.1,8.1-6.7,6.5"/>
<path class="st1" d="M10,23.8c0,0-1.7-7.7-7.8-5.6c0,0,0.8,8.1,7.6,5.7"/>
<path class="st2" d="M9.1,5.3c0,0-4.7-6.2-6.7-3c-2.3,3.7,3,7,3,7c-0.4,0-5.4,4.2-3,6.4c2.3,2.1,7.1-4,7.1-4s4.6,5.2,6.8,3.2
	c3-2.6-2.5-6.4-2.5-6.4s4.7-5.6,2.7-7.8C14.2-1.6,9.1,5.3,9.1,5.3z"/>
<path class="st3" d="M10.8,6.9C9.6,6.2,7.6,7.3,7.6,8.6c0,0.8,0.7,1.6,1.5,1.9c0.8,0.3,1.7,0.1,2.4-0.5C12.2,9,11.8,7.4,10.8,6.9z"
	/>
<g>
</g>
<g>
</g>
<g>
</g>
<g>
</g>
<g>
</g>
<g>
</g>
</svg>
