<?xml version="1.0" encoding="utf-8"?>
<!-- Generator: Adobe Illustrator 27.3.1, SVG Export Plug-In . SVG Version: 6.00 Build 0)  -->
<svg version="1.1" id="Calque_1" xmlns="http://www.w3.org/2000/svg" xmlns:xlink="http://www.w3.org/1999/xlink" x="0px" y="0px"
	 viewBox="0 0 20 20" style="enable-background:new 0 0 20 20;" xml:space="preserve">
<style type="text/css">
	.st0{fill:#42AC3A;stroke:#030304;stroke-miterlimit:10;}
	.st1{fill:#805127;}
	.st2{fill:#955522;}
	.st3{fill:none;stroke:#724C2A;stroke-width:4;stroke-miterlimit:10;}
	.st4{fill:#7E6D5B;}
	.st5{fill:none;stroke:#AB6934;stroke-width:2;stroke-miterlimit:10;}
</style>
<path class="st0" d="M14.8,9c-0.5,1-1.7,6.6-1.7,6.6c-1-1.1-1.2-8.5-1.1-11c0.1-1.7-3.2,9.1-3.2,9.1C7.7,6.8,4,6.3,4,6.3
	c2.5,0.3,1.2,9.2,1.2,9.2c-1.8-6.3-4-3-4-3c2.9,0.4,1.2,8.2,1.2,8.2h16.6c0,0,0.3-8.4-0.5-6.5c-1.2,2.8-2.6,2.1-2.6,2.1
	S17.6,3.6,14.8,9z"/>
<polyline class="st1" points="-25.5,-11 -7.7,-11 -7.7,6.8 -25.5,6.8 "/>
<path class="st2" d="M-14.7-7.8c0,0,0.2,6,1.5,4.1C-12-5.5-14.4-8.6-14.7-7.8z"/>
<path class="st3" d="M-15.9-5.8c-1.4,0.8-5.8,1.2-6.3,2.5c-0.5,1.2-2,1.6-1.5,2.5"/>
<path class="st2" d="M-15.4,5.3c0,0,6.4-2.2,6.1,0.4"/>
<polygon class="st4" points="-15.7,-2.2 -17.3,-2.6 -18.1,-1.9 -16.6,-1 -15.1,-1.5 "/>
<polygon class="st4" points="-20.7,5.6 -21.7,3.6 -22.7,4.8 -21.7,5.6 "/>
<polygon class="st4" points="-9.3,-6.2 -11,-6.2 -10.7,-4.6 -9.3,-4.6 "/>
<path class="st5" d="M-22.7,2.2c0,0-0.2-0.7,5.2,0.5c4.6,1,2.8-1.6,5-4.1C-11-3-9.1-0.5-9.1-0.5"/>
<path class="st0" d="M7.1-11.2c1.6-1.1,2.4,0.3,3.4,1.1C12-9,13.3-10.6,13.3-12c0.1,0.4,0.2,0.8,0.4,1.2v-0.1c0-0.2,0.2-0.2,0.3-0.4
	c0.4,0.4,0.7,0.7,1.1,1.1c0.7-1,1.6-1.3,2.7-0.5l0,0c1.2-1.1,2.3-0.4,3.2,0.8c0.2-0.5,0.3-2,1-2.2c0.5-0.2,1.5,1.1,1.8,1.5"/>
<path class="st0" d="M-7.5-10.9h-18.2"/>
<path class="st0" d="M-9-7.9c0.5-0.3,1-0.6,1.5-0.8"/>
<g>
</g>
<g>
</g>
<g>
</g>
<g>
</g>
<g>
</g>
<g>
</g>
</svg>
