<?xml version="1.0" encoding="utf-8"?>
<!-- Generator: Adobe Illustrator 27.3.1, SVG Export Plug-In . SVG Version: 6.00 Build 0)  -->
<svg version="1.1" id="Calque_1" xmlns="http://www.w3.org/2000/svg" xmlns:xlink="http://www.w3.org/1999/xlink" x="0px" y="0px"
	 viewBox="0 0 40 35" style="enable-background:new 0 0 40 35;" xml:space="preserve">
<style type="text/css">
	.st0{fill:url(#SVGID_1_);stroke:#000000;stroke-miterlimit:10;}
</style>
<linearGradient id="SVGID_1_" gradientUnits="userSpaceOnUse" x1="19.4725" y1="32.8651" x2="20.0595" y2="2.7346" gradientTransform="matrix(1 0 0 -1 0 36)">
	<stop  offset="0" style="stop-color:#8E1D19"/>
	<stop  offset="1" style="stop-color:#69140B"/>
</linearGradient>
<path class="st0" d="M34.8,19.9c-0.4,0-0.9,0.1-1.3,0.3c0.1-0.7,0.1-1.4,0.1-2.1c0-3.6-0.6-6.9-1.7-9.7l-6.4-2.7l2.8-3
	c-1.5-1.4-3.2-2.2-5-2.2c-4.4,0-8.1,4.5-9.6,10.9c-0.5-0.2-1-0.3-1.5-0.3c-1.8,0-3.5,1.1-4.8,3l3,5.6l-4.2-3.4
	c-0.4,1.1-0.8,2.2-1,3.5c-2.5,0.1-4.6,3.6-4.6,7.8s2,7.6,4.4,7.8l0,0h29.8c2.6,0,4.7-3.5,4.7-7.9S37.4,19.9,34.8,19.9z"/>
</svg>
