<?xml version="1.0" encoding="utf-8"?>
<!-- Generator: Adobe Illustrator 27.3.1, SVG Export Plug-In . SVG Version: 6.00 Build 0)  -->
<svg version="1.1" id="Calque_1" xmlns="http://www.w3.org/2000/svg" xmlns:xlink="http://www.w3.org/1999/xlink" x="0px" y="0px"
	 viewBox="0 0 50 40" style="enable-background:new 0 0 50 40;" xml:space="preserve">
<style type="text/css">
	.st0{fill:#7FCCE1;stroke:#000000;stroke-miterlimit:10;}
	.st1{fill:#0394D3;stroke:#000000;stroke-miterlimit:10;}
	.st2{fill:#95C45F;stroke:#000000;stroke-miterlimit:10;}
	.st3{stroke:#000000;stroke-miterlimit:10;}
	.st4{fill:#375BA6;stroke:#000000;stroke-miterlimit:10;}
	.st5{fill:#FFFFFF;stroke:#000000;stroke-miterlimit:10;}
</style>
<path class="st0" d="M47.5,30.8C41.1,42.2,7.7,41.4,2.1,30.7C-2,22.6,9.1,8.3,12.4,8.9c1.7,0.4,1.6,4.8,2.9,4.8
	c2,0,2.6-12.6,5.4-12.8c3.1-0.3,5.8,13.5,9.8,13.4c2.9-0.1,3.2-7.2,6.1-7.6C41.3,6.1,52.5,21.9,47.5,30.8z"/>
<path class="st1" d="M5.1,30.4c-2.9-3-1.2-9.2,1.1-13c0.7-1.1,2.2-3.7,3.8-3.6c1.4,0.2,1.6,2.2,3.6,2.6c1.4,0.3,2.8-0.6,3.3-1
	c1.4-1,2.6-2.8,2.6-4.6c0-1.7-1-2.3-0.7-4.1c0.2-1,0.8-2.2,1.2-2.2c0.7,0,0.7,2.1,2.4,4.8c0.6,1,0.7,0.8,1.8,2.4
	c2.3,3.1,2.1,3.7,3.3,4.6c0.3,0.2,2.4,1.6,4.6,0.9c2.2-0.8,3-3.2,3.1-3.3c0.5-1.6-0.2-2.7,0.4-3.1c1-0.7,3.6,1.7,3.9,2.1
	c1,0.9,1.5,1.6,1.9,2.1c1,1.4,1.4,2.8,2.3,5.4c0.6,1.7,0.8,2.7,0.9,3.7c0,0.7,0.1,1.2-0.1,2.1c-0.1,0.6-0.5,1.8-2,3.3
	c-1.5,1.6-3.5,2.4-7.1,4c-1.7,0.8-2.7,1.2-3.4,1.2c-2.4,0.6-3.2-0.1-6.6,0.2c-2.3,0.2-2.3,0.5-4.1,0.4c-1.8,0-3.4-0.3-4.5-0.6
	c-1.5-0.5-1.3-0.7-3.5-1.4c-3-1-3.8-0.7-6.1-1.7C6.2,31.2,5.7,30.9,5.1,30.4z"/>
<path class="st2" d="M27.3,22.8c0.6-1.3,1.9-2.3,3.4-2.4c1.2-0.1,2.1,0.6,3.4,1.4c1.1,0.8,2.3,1.6,2.2,2.8c-0.1,0.7-0.6,1.1-1.4,1.7
	s-1.7,1.4-3.2,1.5c-1.3,0.1-3.2-0.4-4-1.7c-0.2-0.2-0.6-1-0.6-1.9C27,23.5,27.2,23,27.3,22.8z"/>
<path class="st3" d="M30,23.5c0.4-0.2,1-0.1,1.2,0.3c0.2,0.4,0,0.8-0.1,1c0,0.1-0.3,0.8-0.8,0.8s-0.8-0.7-0.8-1.2
	C29.6,24.2,29.7,23.7,30,23.5z"/>
<path class="st4" d="M11.2,23.9c-0.3-2.2,2.1-3.7,2.3-3.8c2.2-1.3,5.8-1.1,7,1.3c0.7,1.2,0.7,3.1-0.1,4.3c-1.3,2.2-4.4,2-6.1,1.3
	C13.9,26.9,11.4,26,11.2,23.9z"/>
<path class="st3" d="M17.6,23.2c0.4-0.3,1.1-0.1,1.2,0.3s0,0.9-0.1,1.1c0,0.1-0.4,0.8-0.8,0.8c-0.5,0-0.9-0.8-0.8-1.3
	C17.1,23.8,17.2,23.4,17.6,23.2z"/>
<path class="st5" d="M26.9,32c0.4-0.7-0.6-2-1.7-2.7c-2.2-1.2-5,0.4-5,1.2C20.2,31.8,26.2,33.2,26.9,32z"/>
</svg>
