<?xml version="1.0" encoding="utf-8"?>
<!-- Generator: Adobe Illustrator 27.3.1, SVG Export Plug-In . SVG Version: 6.00 Build 0)  -->
<svg version="1.1" xmlns="http://www.w3.org/2000/svg" xmlns:xlink="http://www.w3.org/1999/xlink" x="0px" y="0px"
	 viewBox="0 0 50 30" style="enable-background:new 0 0 50 30;" xml:space="preserve">
<style type="text/css">
	.st0{fill:#E4670D;stroke:#000000;stroke-miterlimit:10;}
	.st1{fill:#E4670D;}
	.st2{fill:#8E3F25;}
	.st3{fill:#E63712;}
</style>
<g id="Calque_1">
	<path class="st0" d="M20.8,10c0,0,0.5-7.8,2.4-3.9s1.3,3.3,2.1,1.9c0.8-1.4,4.5,2,4.5,2"/>
	<rect y="10" class="st1" width="50" height="20"/>
</g>
<g id="Calque_2">
	<g>
		<g>
			<line class="st2" x1="55.4" y1="15" x2="-5.9" y2="15"/>
			<path class="st0" d="M50.5,10.9c0,0-9.9-11.2-7.6-5.7c2.3,5.5-1,5.5-3.1,4.8s2.1-4.2-0.9-3.3c-3,0.9-3.8,5.1-4.5,3.5
				c-0.7-1.6,0.8-8.6-1-5.4c-0.6,1-2.8,3.1-4.9,5.2"/>
			<path class="st3" d="M49.5,12.1c-1.3-2.3-3-2.8-3.6-2.7c-0.8,0.1-0.7,1.4-2.1,1.9c-0.4,0.2-1.1,0.2-2.5,0.1c-1.1,0-1.7,0-2.3-0.2
				c-0.9-0.3-1-0.6-1.5-0.5c-0.5,0.1-0.6,0.3-1.9,1C35.2,12,35.1,12,34.8,12c-0.8,0-1.3-0.6-1.4-0.6c-0.6-0.7-0.2-1.3-0.7-1.6
				c-0.5-0.3-1.5,0.2-1.9,0.4c-1,0.5-1,0.9-2,1.4c-0.4,0.2-1.2,0.6-1.7,0.3c-0.4-0.2-0.2-0.8-0.6-1c-0.3-0.2-3.5,0-4.5,0.5"/>
			<rect x="-0.5" y="11.4" class="st3" width="25.7" height="18.6"/>
		</g>
	</g>
	<g>
		<g>
			<line class="st2" x1="-5.9" y1="15" x2="55.4" y2="15"/>
			<path class="st0" d="M-1,10.9c0,0,9.9-11.2,7.6-5.7s1,5.5,3.1,4.8s-2.1-4.2,0.9-3.3c3,0.9,3.8,5.1,4.5,3.5c0.7-1.6-0.8-8.6,1-5.4
				c0.6,1,2.8,3.1,4.9,5.2"/>
			<path class="st3" d="M0,12.1c1.3-2.3,3-2.8,3.6-2.7c0.8,0.1,0.7,1.4,2.1,1.9c0.4,0.2,1.1,0.2,2.5,0.1c1.1,0,1.7,0,2.3-0.2
				c0.9-0.3,1-0.6,1.5-0.5c0.5,0.1,0.6,0.3,1.9,1c0.4,0.2,0.6,0.3,0.8,0.3c0.8,0,1.3-0.6,1.4-0.6c0.6-0.7,0.2-1.3,0.7-1.6
				c0.5-0.3,1.5,0.2,1.9,0.4c1,0.5,1,0.9,2,1.4c0.4,0.2,1.2,0.6,1.7,0.3c0.4-0.2,0.2-0.8,0.6-1c0.3-0.2,3.5,0,4.5,0.5"/>
			<rect x="24.3" y="11.4" class="st3" width="25.7" height="18.6"/>
		</g>
	</g>
</g>
</svg>
