<?xml version="1.0" encoding="utf-8"?>
<!-- Generator: Adobe Illustrator 27.3.1, SVG Export Plug-In . SVG Version: 6.00 Build 0)  -->
<svg version="1.1" id="Calque_1" xmlns="http://www.w3.org/2000/svg" xmlns:xlink="http://www.w3.org/1999/xlink" x="0px" y="0px"
	 viewBox="0 0 90 90" style="enable-background:new 0 0 90 90;" xml:space="preserve">
<style type="text/css">
	.st0{fill:#EC7843;stroke:#000000;stroke-width:0.75;stroke-miterlimit:10;}
	.st1{fill:#FFFFFF;stroke:#000000;stroke-width:0.75;stroke-miterlimit:10;}
	.st2{stroke:#000000;stroke-width:0.75;stroke-miterlimit:10;}
	.st3{fill:#FFFFFF;}
</style>
<polygon class="st0" points="41.5,81.9 50.8,79.6 50.4,77.1 48.9,76.1 41.9,78.2 "/>
<polygon class="st0" points="27.5,75.8 36.5,73.6 35.4,70.3 27.9,72.4 "/>
<polygon class="st1" points="41.3,67.4 70.5,59.4 70.5,41.7 61.9,44 61.8,15.5 41.3,21.4 "/>
<polygon class="st1" points="41.3,67.4 26.4,61.5 26.4,15.5 41.3,21.4 "/>
<polygon class="st1" points="41.3,21.4 61.8,15.5 46.8,9.3 26.4,15.5 "/>
<polygon class="st0" points="39.8,18.8 52.8,15.5 52.8,7.7 39.8,11.5 "/>
<polygon class="st0" points="39.8,11.5 34.8,8.8 34.8,16.7 39.8,18.8 "/>
<polygon class="st0" points="39.8,11.5 52.8,7.7 47.8,5.1 34.8,8.8 "/>
<polygon class="st0" points="37.3,43.4 30.3,45.3 30.3,36.7 26.7,37.8 26.7,29.3 37.3,26.4 "/>
<polygon class="st0" points="30.3,45.3 24.6,43 24.6,36.7 26.7,37.8 30.3,36.7 "/>
<polygon class="st0" points="26.7,37.8 21.1,34.8 21.1,26.4 26.7,29.3 "/>
<polygon class="st0" points="32,23.8 21.1,26.4 26.7,29.3 37.3,26.4 "/>
<polygon class="st1" points="56,51.7 56,59 67.9,55.7 67.9,48.1 "/>
<polygon class="st1" points="67.9,48.1 64.9,46.6 52.4,50.4 56,51.7 "/>
<polygon class="st1" points="56,51.7 52.4,50.4 52.4,57.7 56,59 "/>
<polygon class="st2" points="45.4,24.8 45.4,33.1 51.5,31.7 51.5,23.5 "/>
<polygon class="st0" points="62.8,76.1 46.8,80.3 45.3,79.2 50.4,77.1 48.9,76.1 41.9,78.2 38.8,77.1 55.1,72.2 "/>
<polygon class="st0" points="48.9,70.3 33.8,75 31.7,73.7 36.3,72.2 35.4,70.3 27.9,72.2 26.2,71.6 39.4,67.3 41.1,67.9 42.7,67.8 
	"/>
<polygon class="st0" points="62.8,76.1 62.8,80.3 47.5,84.1 46.8,80.3 "/>
<polygon class="st0" points="48.9,70.3 48.9,74 33.8,78.7 33.8,75 "/>
<polygon class="st0" points="31.5,73.9 31.7,77.6 33.8,78.7 33.8,75 "/>
<polygon class="st0" points="27.9,72.4 27.5,75.8 25.3,74.7 26,71.7 "/>
<polygon class="st0" points="46.8,80.3 47.5,84.1 44.4,83.1 45.2,79.3 "/>
<polygon class="st0" points="41.9,78.2 41.5,81.9 38.8,81.4 39.1,77.4 "/>
<polygon class="st0" points="57.6,63.3 57.6,75.4 54.4,76.1 54.4,64.2 "/>
<polygon class="st0" points="54.4,76.1 51.8,75 51.8,64.9 54.4,64.2 "/>
<polygon class="st0" points="44.4,66.9 44.4,69.7 41.2,70.3 41.2,67.8 "/>
<polygon class="st0" points="41.2,70.3 38,69.7 38,66.6 41.2,67.8 "/>
<polygon class="st1" points="70.5,41.7 61.9,36 61.9,44 "/>
<polygon class="st3" points="50,25.6 48.1,25.9 48.5,28.3 50.3,27.9 "/>
</svg>
