<?xml version="1.0" encoding="utf-8"?>
<!-- Generator: Adobe Illustrator 27.3.1, SVG Export Plug-In . SVG Version: 6.00 Build 0)  -->
<svg version="1.1" id="Calque_1" xmlns="http://www.w3.org/2000/svg" xmlns:xlink="http://www.w3.org/1999/xlink" x="0px" y="0px"
	 viewBox="0 0 50 40" style="enable-background:new 0 0 50 40;" xml:space="preserve">
<style type="text/css">
	.st0{fill:#F39200;stroke:#000000;stroke-miterlimit:10;}
	.st1{fill:#E94E1B;stroke:#000000;stroke-miterlimit:10;}
	.st2{fill:#EE7184;stroke:#000000;stroke-miterlimit:10;}
	.st3{stroke:#000000;stroke-miterlimit:10;}
	.st4{fill:#FCEA10;stroke:#000000;stroke-miterlimit:10;}
	.st5{fill:#FFFFFF;stroke:#000000;stroke-miterlimit:10;}
</style>
<path class="st0" d="M47.8,30.7C41.3,42.2,7.7,41.4,2.1,30.6C-2.1,22.5,8.2,8.3,11.4,9c1.7,0.4,2,5.1,3.2,5.1c2,0,4.6-12.7,7.4-12.9
	c3.1-0.3,4.5,13.3,8.5,13.1c2.9-0.1,3.2-7.7,6.2-8.1C41.5,5.5,52.8,21.9,47.8,30.7z"/>
<path class="st1" d="M5.1,30.3c-2.9-3-1.2-9.2,1.1-13c0.7-1.1,2.6-5.2,4.3-5c1.4,0.2,1.2,3.6,3.2,4c1.4,0.3,2.8-0.6,3.3-1
	c1.4-1,2.6-2.8,2.6-4.6c0-1.7,0-2.4,0.3-4.3c0.2-1,1.5-2.1,2-2.1c0.7,0,0.2,0.9,1.9,3.6c0.6,1,0.3,1.4,1.4,3.1
	c2.3,3.1,1.4,4.4,2.5,5.2c0.3,0.2,2.4,1.6,4.6,0.9c2.2-0.8,3.1-4,3.2-4.1c0.5-1.6,0.9-2.7,1.5-3.1c1-0.7,2.8,2.4,3.1,2.8
	c1,0.9,1.2,1.9,1.6,2.3c1,1.4,1.4,2.8,2.3,5.4c0.6,1.7,0.8,2.7,0.9,3.8c0,0.7,0.1,1.3-0.1,2.1c-0.1,0.6-0.5,1.8-2,3.3
	c-1.5,1.6-3.5,2.4-7.1,4c-1.7,0.8-2.7,1.2-3.4,1.3c-2.4,0.6-3.2-0.1-6.7,0.2c-2.3,0.2-2.3,0.5-4.2,0.4c-1.8,0-3.4-0.3-4.5-0.6
	c-1.5-0.5-1.4-0.7-3.5-1.4c-3-1-3.9-0.7-6.1-1.7C6.2,31.2,5.6,30.9,5.1,30.3z"/>
<path class="st2" d="M27.8,23c0.6-1.3,1.5-2.6,3-2.7c1.3-0.1,2.1,0.6,3.4,1.4c1.1,0.8,2.3,1.6,2.2,2.8c-0.1,0.7-0.6,1.1-1.4,1.7
	c-0.9,0.7-1.7,1.4-3.2,1.5c-1.4,0.1-3.2-0.4-4.1-1.7c-0.2-0.2-0.6-1-0.6-1.9C27.1,23.5,27.7,23.2,27.8,23z"/>
<path class="st3" d="M30.1,23.5c0.4-0.2,1-0.1,1.2,0.3s0,0.8-0.1,1c0,0.1-0.3,0.8-0.8,0.8s-0.8-0.7-0.8-1.3
	C29.7,24.2,29.8,23.7,30.1,23.5z"/>
<path class="st4" d="M11.2,23.9c-0.3-2.2,2.1-3.8,2.3-3.9c2.2-1.3,4.9-0.3,6.2,2.1c0.7,1.3,1.6,2.3,0.8,3.6c-1.4,2.2-4.4,2-6.1,1.3
	C13.9,26.9,11.4,26,11.2,23.9z"/>
<path class="st3" d="M17.6,23.1c0.4-0.3,1.1-0.1,1.3,0.3s0,0.9-0.1,1.1c0,0.1-0.4,0.8-0.8,0.8c-0.5,0-0.9-0.8-0.8-1.3
	C17.1,23.8,17.2,23.3,17.6,23.1z"/>
<path class="st5" d="M19.9,29.2c-0.4,0.6,0.5,2.1,1.6,2.7c2.1,1.3,5.5-0.3,5.6-1.1C27.1,29.5,20.6,28,19.9,29.2z"/>
</svg>
