<?xml version="1.0" encoding="utf-8"?>
<!-- Generator: Adobe Illustrator 27.3.1, SVG Export Plug-In . SVG Version: 6.00 Build 0)  -->
<svg version="1.1" id="Calque_1" xmlns="http://www.w3.org/2000/svg" xmlns:xlink="http://www.w3.org/1999/xlink" x="0px" y="0px"
	 viewBox="0 0 100 100" style="enable-background:new 0 0 100 100;" xml:space="preserve">
<style type="text/css">
	.st0{fill:#944700;stroke:#020203;stroke-miterlimit:10;}
	.st1{fill:#FEC902;stroke:#020203;stroke-miterlimit:10;}
	.st2{fill:#84A982;stroke:#020203;stroke-miterlimit:10;}
	.st3{fill:#FF2F24;stroke:#020203;stroke-miterlimit:10;}
	.st4{fill:none;stroke:#020203;stroke-miterlimit:10;}
	.st5{fill:#946137;stroke:#020203;stroke-miterlimit:10;}
</style>
<path class="st0" d="M57,67.6l-16.8-1.2C30.7,65.7,23.5,56.1,24.1,45v-0.4c0.6-11.4,8.7-19.9,18.1-19.4l16.6,1.2
	c9.4,0.7,16.8,10.3,16.2,21.4v0.4C74.4,59.5,66.3,68.1,57,67.6z"/>
<path class="st1" d="M45.5,10.3c0,0-25.1,20.2-28.3,17.6s94.7,20.6,61.2,1.6S44.9,10.9,44.9,10.9"/>
<path class="st2" d="M74.8,104.1h-47c-1.9,0-3.7-1.3-3.7-2.7V68c0-1.5,1.6-2.7,3.7-2.7h47c1.9,0,3.7,1.3,3.7,2.7v33.3
	C78.4,102.8,76.8,104.1,74.8,104.1z"/>
<path class="st3" d="M57.3,38.8c0,0,12.1,0,9.9,2.8c-1.9,2.8-1.9,2.8-1.9,2.8L57.3,38.8z"/>
<path class="st4" d="M69.4,58.9c0,0-9.4,3.1-10.5-5.2"/>
<path class="st5" d="M40.4,17.5c4.9,4.8,23.3,9.6,23.3,9.6"/>
<path class="st5" d="M38.2,24.4c0,0,18.2,8.1,25.3,7.3"/>
<polygon class="st2" points="56.1,104.1 45.2,104 42.7,77 53.6,77.1 "/>
</svg>
