<?xml version="1.0" encoding="utf-8"?>
<!-- Generator: Adobe Illustrator 27.3.1, SVG Export Plug-In . SVG Version: 6.00 Build 0)  -->
<svg version="1.1" id="Calque_1" xmlns="http://www.w3.org/2000/svg" xmlns:xlink="http://www.w3.org/1999/xlink" x="0px" y="0px"
	 viewBox="0 0 100 100" style="enable-background:new 0 0 100 100;" xml:space="preserve">
<style type="text/css">
	.st0{fill:#FFE10E;stroke:#030405;stroke-miterlimit:10;}
	.st1{fill:#D289B9;stroke:#030405;stroke-miterlimit:10;}
	.st2{fill:#CF398D;stroke:#030405;stroke-miterlimit:10;}
	.st3{fill:#52B4E7;stroke:#030405;stroke-miterlimit:10;}
	.st4{fill:#E2141F;stroke:#030405;stroke-miterlimit:10;}
</style>
<path class="st0" d="M77.59,57.66v-0.52c0.7-11.88-7.34-22.18-17.99-22.88l-18.34-1.22c-10.48-0.52-19.56,8.73-20.09,20.79v0.52
	c-0.87,11.88,7.16,22.18,17.82,22.88l18.52,1.22C67.99,78.97,76.89,69.72,77.59,57.66z"/>
<path class="st1" d="M41.96,13.12c0,0,0,0,38.08,24.63s-72.67-5.59-69.17-2.27c3.49,3.32,31.97-23.23,31.97-23.23"/>
<path class="st2" d="M70.61,102.25V76.56c0-1.13-1.22-2.12-2.79-2.12H32.18c-1.57,0-2.79,0.99-2.79,2.12v25.69
	c0,1.13,1.22,2.12,2.79,2.12h35.81C69.38,104.37,70.61,103.38,70.61,102.25z"/>
<path class="st3" d="M65.19,55.39c0,0,0,0,2.1-2.45c2.27-2.45-10.48-2.45-10.48-2.45L65.19,55.39z"/>
<path class="st4" d="M59.08,63.43c1.05,6.64,11.18,4.19,11.18,4.19"/>
<polygon class="st2" points="43.18,105.66 54.36,105.74 52.96,87.25 41.78,87.01 "/>
</svg>
