<?xml version="1.0" encoding="utf-8"?>
<!-- Generator: Adobe Illustrator 27.3.1, SVG Export Plug-In . SVG Version: 6.00 Build 0)  -->
<svg version="1.1" id="Calque_1" xmlns="http://www.w3.org/2000/svg" xmlns:xlink="http://www.w3.org/1999/xlink" x="0px" y="0px"
	 viewBox="0 0 100 100" style="enable-background:new 0 0 100 100;" xml:space="preserve">
<style type="text/css">
	.st0{fill:#039EB2;stroke:#000000;stroke-miterlimit:10;}
	.st1{fill:#A98881;stroke:#000000;stroke-miterlimit:10;}
	.st2{fill:#7C563F;}
	.st3{fill:#F3987F;stroke:#000000;stroke-width:2;stroke-miterlimit:10;}
	.st4{fill:#03A4B8;stroke:#030304;stroke-miterlimit:10;}
	.st5{fill:#EFF4F8;stroke:#000000;stroke-miterlimit:10;}
	.st6{fill:#48398E;stroke:#000000;stroke-miterlimit:10;}
	.st7{fill:#271B0F;stroke:#000000;stroke-miterlimit:10;}
	.st8{fill:#038698;}
</style>
<rect x="14.2" y="61.6" class="st0" width="71.6" height="41"/>
<rect x="26.2" y="16.2" class="st1" width="47.3" height="45.4"/>
<polygon class="st2" points="71.7,52.3 59.6,52.3 59.6,47.6 52.6,47.6 52.6,56.4 57.4,56.4 57.4,58 72.5,58 72.5,52 "/>
<line class="st3" x1="73.5" y1="51.3" x2="59.6" y2="51.3"/>
<rect x="34.6" y="79.9" class="st4" width="16" height="23.4"/>
<rect x="58" y="32.1" class="st5" width="11.6" height="6.6"/>
<rect x="62.9" y="32.1" class="st6" width="6.8" height="6.6"/>
<polygon class="st7" points="26.2,28.5 33.2,28.5 33.2,23.3 40.5,23.3 40.5,20.2 65.3,20.2 65.3,24.3 73.5,24.3 73.5,16.2 
	26.2,16.2 "/>
<polygon class="st8" points="64.3,87 64.3,94.9 68,94.9 68,103.3 76,103.3 76,89.7 76,85.3 64.3,85.3 "/>
<polygon class="st8" points="26,69.2 35.9,69.2 35.9,72.6 42,72.6 42,75.8 28.7,75.8 28.9,81.4 22.5,81.4 22.5,69.2 "/>
</svg>
