<?xml version="1.0" encoding="utf-8"?>
<!-- Generator: Adobe Illustrator 27.3.1, SVG Export Plug-In . SVG Version: 6.00 Build 0)  -->
<svg version="1.1" id="Calque_1" xmlns="http://www.w3.org/2000/svg" xmlns:xlink="http://www.w3.org/1999/xlink" x="0px" y="0px"
	 viewBox="0 0 250 100" style="enable-background:new 0 0 250 100;" xml:space="preserve">
<style type="text/css">
	.st0{fill:#EC6568;stroke:#000000;stroke-width:6;stroke-miterlimit:10;}
	.st1{fill:none;stroke:#000000;stroke-width:6;stroke-miterlimit:10;}
</style>
<path class="st0" d="M199.9,96.9H50.2c-25.9,0-47-21-47-47l0,0c0-25.9,21-47,47-47h149.7c25.9,0,47,21,47,47l0,0
	C246.9,75.9,225.8,96.9,199.9,96.9z"/>
<path class="st1" d="M34.8,86.2l-1.2-62.7l18.8,22.1l15-22.1c0,0,5,56.3,0.9,60.8"/>
<polyline class="st1" points="115.7,84.2 90.9,84.2 90.9,18.3 115.7,20 "/>
<line class="st1" x1="94" y1="47.9" x2="114.4" y2="47.9"/>
<polyline class="st1" points="133.6,84.6 131.8,27.7 161.3,75.3 161.3,13.7 "/>
<path class="st1" d="M183.2,17.9c0,0-9.4,69.9,12.3,61.8s20.9-58.4,20.9-58.4"/>
</svg>
