<?xml version="1.0" encoding="utf-8"?>
<!-- Generator: Adobe Illustrator 27.3.1, SVG Export Plug-In . SVG Version: 6.00 Build 0)  -->
<svg version="1.1" id="Calque_1" xmlns="http://www.w3.org/2000/svg" xmlns:xlink="http://www.w3.org/1999/xlink" x="0px" y="0px"
	 viewBox="0 0 100 100" style="enable-background:new 0 0 100 100;" xml:space="preserve">
<style type="text/css">
	.st0{fill:#F39208;stroke:#020203;stroke-miterlimit:10;}
	.st1{fill:#E94F1D;stroke:#020203;stroke-miterlimit:10;}
	.st2{fill:#EE7385;stroke:#020203;stroke-miterlimit:10;}
	.st3{fill:#020203;stroke:#020203;stroke-miterlimit:10;}
	.st4{fill:#FBEA1F;stroke:#020203;stroke-miterlimit:10;}
	.st5{fill:#FFFFFF;stroke:#020203;stroke-miterlimit:10;}
	.st6{fill:#8D7CA3;stroke:#030304;stroke-miterlimit:10;}
</style>
<path class="st0" d="M80.81,54.39c-8.6,14.72-53.24,13.8-60.62-0.13C14.67,43.83,29.6,25.34,33.9,26.11
	c2.28,0.52,2.15,6.26,3.9,6.26c2.68,0,3.1-15.4,6.73-15.67c4.17-0.39,8.07,16.71,13.43,16.44c3.9-0.13,4.3-9.38,8.2-9.77
	C72.48,22.46,87.53,42.92,80.81,54.39z"/>
<path class="st1" d="M24.17,53.87c-3.97-3.91-1.51-11.98,1.51-16.8c0.96-1.44,3.01-4.82,5.2-4.55c1.91,0.27,2.19,2.86,4.79,3.38
	c1.91,0.39,3.83-0.79,4.37-1.3c1.91-1.3,3.56-3.65,3.56-5.99c0-2.21-0.39-3.02,0.01-5.37c0.27-1.3,1.78-2.83,2.33-2.83
	c0.96,0-0.7,2.73,1.63,6.26c0.82,1.3,0.96,1.04,2.46,3.13c3.14,4.03,2.88,4.82,4.37,5.99c0.42,0.27,3.29,2.09,6.3,1.17
	c3.01-0.92,4.11-4.17,4.24-4.17c0.68-2.09-0.27-3.51,0.55-4.03c1.36-0.9,4.92,2.21,5.34,2.73c1.36,1.17,2.05,2.09,2.59,2.73
	c1.36,1.82,1.91,3.65,3.14,6.91c0.82,2.21,1.1,3.51,1.23,4.82c0,0.9,0.13,1.56-0.13,2.73C77.55,49.45,77,51,74.94,52.83
	c-2.05,2.09-4.66,3.13-9.71,5.2c-2.33,1.04-3.69,1.44-4.52,1.56c-3.29,0.79-4.37-0.13-9.03,0.27c-3.14,0.27-3.14,0.65-5.62,0.52
	c-2.46,0-4.52-0.39-6.15-0.79c-2.05-0.65-1.78-0.9-4.66-1.82c-4.11-1.3-5.2-0.9-8.21-2.21C25.82,55.04,24.99,54.64,24.17,53.87z"/>
<path class="st2" d="M54.42,44.1c0.82-1.69,2.59-2.99,4.52-3.13c1.65-0.13,2.88,0.79,4.52,1.82c1.51,1.04,3.14,2.09,3.01,3.65
	c-0.13,0.9-0.82,1.44-1.91,2.21c-1.23,0.9-2.33,1.82-4.37,1.96c-1.78,0.13-4.37-0.52-5.47-2.21c-0.27-0.27-0.82-1.3-0.82-2.48
	C54.02,45,54.28,44.35,54.42,44.1z"/>
<path class="st3" d="M59.77,45c0.55-0.27,1.36-0.13,1.51,0.39c0.27,0.52,0,1.04-0.13,1.3c0,0.13-0.42,1.04-1.1,1.04
	s-1.1-0.9-1.1-1.56C59.36,45.92,59.36,45.27,59.77,45z"/>
<g>
	<path class="st4" d="M32.52,45.52c-0.42-2.86,2.88-4.82,3.14-4.95c3.01-1.69,7.8-1.44,9.58,1.69c0.96,1.56,0.96,4.03-0.13,5.6
		c-1.78,2.86-6.02,2.61-8.21,1.69C36.21,49.43,32.8,48.26,32.52,45.52z"/>
	<path class="st3" d="M41.15,44.48c0.55-0.39,1.51-0.13,1.65,0.39c0.27,0.52,0,1.17-0.13,1.44c0,0.13-0.55,1.04-1.1,1.04
		c-0.68,0-1.23-1.04-1.1-1.69C40.47,45.4,40.6,44.75,41.15,44.48z"/>
</g>
<path class="st5" d="M43.77,52.56c-0.68,0.9,1.19,2.61,3.04,3.38c3.72,1.44,8.45-0.79,8.45-1.69C55.1,52.56,44.96,50.99,43.77,52.56
	z"/>
<path class="st6" d="M79.86,65.55l-11.37-1.97c-0.3-0.05-0.59-0.07-0.9-0.07H31.69c-0.37,0-0.73,0.04-1.07,0.11l-9.92,2.16
	c-1.02,0.22-1.68,0.75-1.68,1.33v18.95l-1.53,2.46l1.53,6.39v4.65c0,0,0.21,3.51,0.85,3.64c0.06,0.02,5.99-2.1,5.99-2.1l6.79,2.16
	l8.32-2.3l9.68,2.29l7.04-2.01l8.78,1.99l5.44-2.08l7.92,2.05c0,0,2.52-0.54,2.52-1.21L81.68,75.8l-4.7-2.69l4.58-2.14l-0.1-4.26
	C81.45,66.18,80.81,65.71,79.86,65.55z"/>
<path class="st6" d="M48.78,104.17l-4.17-0.03c-2.09-0.02-3.8-1.21-3.96-2.74l-2.24-22.24c-0.18-1.74,1.69-3.21,4.05-3.19l4.17,0.03
	c2.09,0.02,3.8,1.21,3.96,2.74l2.24,22.23C53.01,102.72,51.13,104.2,48.78,104.17z"/>
</svg>
