<?xml version="1.0" encoding="utf-8"?>
<!-- Generator: Adobe Illustrator 27.3.1, SVG Export Plug-In . SVG Version: 6.00 Build 0)  -->
<svg version="1.1" id="Calque_1" xmlns="http://www.w3.org/2000/svg" xmlns:xlink="http://www.w3.org/1999/xlink" x="0px" y="0px"
	 viewBox="0 0 180 330" style="enable-background:new 0 0 180 330;" xml:space="preserve">
<style type="text/css">
	.st0{opacity:0.5;fill:#60B233;stroke:#020203;stroke-width:4;stroke-miterlimit:10;}
	.st1{fill:none;stroke:#020203;stroke-width:4;stroke-miterlimit:10;}
</style>
<path class="st0" d="M154.6,327.2H25.4c-12.3,0-22.3-10-22.3-22.3V25c0-12.3,10-22.3,22.3-22.3h129.3c12.3,0,22.3,10,22.3,22.3
	v279.9C176.9,317.2,166.9,327.2,154.6,327.2z"/>
<path class="st1" d="M154.6,327.2H25.4c-12.3,0-22.3-10-22.3-22.3V25c0-12.3,10-22.3,22.3-22.3h129.3c12.3,0,22.3,10,22.3,22.3
	v279.9C176.9,317.2,166.9,327.2,154.6,327.2z"/>
</svg>
