<?xml version="1.0" encoding="utf-8"?>
<!-- Generator: Adobe Illustrator 27.3.1, SVG Export Plug-In . SVG Version: 6.00 Build 0)  -->
<svg version="1.1" id="Calque_1" xmlns="http://www.w3.org/2000/svg" xmlns:xlink="http://www.w3.org/1999/xlink" x="0px" y="0px"
	 viewBox="0 0 150 300" style="enable-background:new 0 0 150 300;" xml:space="preserve">
<style type="text/css">
	.st0{fill:#D68A95;stroke:#020203;stroke-width:3;stroke-miterlimit:10;}
	.st1{fill:#D54A30;stroke:#020203;stroke-width:3;stroke-miterlimit:10;}
	.st2{fill:#F3D1BB;stroke:#020203;stroke-width:3;stroke-miterlimit:10;}
	.st3{fill:#E73A30;stroke:#020203;stroke-width:3;stroke-miterlimit:10;}
	.st4{fill:none;stroke:#020203;stroke-width:3;stroke-miterlimit:10;}
	.st5{fill:#946137;stroke:#020203;stroke-width:3;stroke-miterlimit:10;}
	.st6{fill:#FCD3B5;stroke:#020203;stroke-width:3;stroke-miterlimit:10;}
</style>
<rect x="79.5" y="269.4" class="st0" width="36" height="23.9"/>
<polygon class="st1" points="79.5,282.9 114.9,282.9 114.9,288.3 128.7,288.3 128.7,299.7 79.5,299.7 "/>
<rect x="34.7" y="269.4" class="st0" width="36" height="23.9"/>
<path class="st2" d="M87.9,129.3l-37.7-2.7c-21.6-1.7-37.7-23.2-36.4-48.2v-1c1.3-25.6,19.5-44.8,40.8-43.8L92,36.3
	c21.2,1.7,37.7,23.2,36.4,48.2v1C127,111.1,108.8,130.3,87.9,129.3z"/>
<path class="st1" d="M62,0.3C62,0.3,5.4,45.7-1.7,40s213.2,46.5,137.8,3.7S60.6,1.6,60.6,1.6"/>
<path class="st0" d="M128,268.1H22.2c-4.4,0-8.4-4.7-8.4-10.1V134c0-5.4,3.7-10.1,8.4-10.1H128c4.4,0,8.4,4.7,8.4,10.1v123.6
	C136.1,263.4,132.4,268.1,128,268.1z"/>
<path class="st3" d="M88.6,64.3c0,0,27.3,0,22.2,6.4c-4.4,6.4-4.4,6.4-4.4,6.4L88.6,64.3z"/>
<path class="st4" d="M115.9,109.7c0,0-21.2,7.1-23.6-11.8"/>
<path class="st5" d="M50.5,16.4C61.6,27.2,103.1,38,103.1,38"/>
<path class="st4" d="M45.5,31.9c0,0,41.1,18.2,56.9,16.5"/>
<polygon class="st0" points="85.9,243.1 61.3,242.8 55.6,150.5 80.2,150.8 "/>
<polygon class="st6" points="59.6,218.2 84.2,217.9 85.9,243.1 61.3,242.8 "/>
<polygon class="st1" points="34.7,282.9 70.1,282.9 70.1,288.3 84.2,288.3 84.2,299.7 34.7,299.7 "/>
</svg>
