<?xml version="1.0" encoding="utf-8"?>
<!-- Generator: Adobe Illustrator 27.3.1, SVG Export Plug-In . SVG Version: 6.00 Build 0)  -->
<svg version="1.1" id="Calque_1" xmlns="http://www.w3.org/2000/svg" xmlns:xlink="http://www.w3.org/1999/xlink" x="0px" y="0px"
	 viewBox="0 0 100 100" style="enable-background:new 0 0 100 100;" xml:space="preserve">
<style type="text/css">
	.st0{fill:url(#SVGID_1_);stroke:#20150D;stroke-width:7;stroke-miterlimit:10;}
	.st1{opacity:0.6;fill:none;stroke:#000000;stroke-width:7;stroke-miterlimit:10;enable-background:new    ;}
	.st2{fill:url(#SVGID_00000053533942194129502470000005064954867616929945_);stroke:#20150D;stroke-width:7;stroke-miterlimit:10;}
	.st3{opacity:0.2;fill:#1D1D1B;stroke:#20150D;stroke-width:7;stroke-miterlimit:10;}
</style>
<linearGradient id="SVGID_1_" gradientUnits="userSpaceOnUse" x1="14.3337" y1="14.3837" x2="85.5722" y2="85.6222">
	<stop  offset="0" style="stop-color:#00A0DB"/>
	<stop  offset="0.2" style="stop-color:#362983"/>
	<stop  offset="0.4" style="stop-color:#E4007D"/>
	<stop  offset="0.6" style="stop-color:#E31F21"/>
	<stop  offset="0.8" style="stop-color:#FFE900"/>
	<stop  offset="1" style="stop-color:#009447"/>
</linearGradient>
<path class="st0" d="M75.2,96.5H24.8C13.1,96.5,3.5,87,3.5,75.2V24.8C3.5,13,13.1,3.5,24.8,3.5h50.3c11.8,0,21.3,9.6,21.3,21.3v50.3
	C96.5,87,87,96.5,75.2,96.5z"/>
<line class="st1" x1="10.3" y1="90.8" x2="90.8" y2="10.3"/>
<line class="st1" x1="10.3" y1="10.3" x2="48.1" y2="48.1"/>
<line class="st1" x1="53" y1="53" x2="90" y2="90"/>
<linearGradient id="SVGID_00000129171956732176361590000015260048201421158588_" gradientUnits="userSpaceOnUse" x1="-112.9675" y1="-4.8754" x2="-30.3317" y2="77.7604">
	<stop  offset="0" style="stop-color:#00A0DB"/>
	<stop  offset="0.2" style="stop-color:#362983"/>
	<stop  offset="0.4" style="stop-color:#E4007D"/>
	<stop  offset="0.6" style="stop-color:#E31F21"/>
	<stop  offset="0.8" style="stop-color:#FFE900"/>
	<stop  offset="1" style="stop-color:#009447"/>
</linearGradient>
<path style="fill:url(#SVGID_00000129171956732176361590000015260048201421158588_);stroke:#20150D;stroke-width:7;stroke-miterlimit:10;" d="
	M-44.2,87.2h-55.6c-12.9,0-23.5-10.5-23.5-23.4V8.3c0-13,10.6-23.4,23.5-23.4h55.5c13,0,23.5,10.6,23.5,23.4v55.3
	C-20.7,76.7-31.2,87.2-44.2,87.2z"/>
<path class="st3" d="M75.2,96.5H24.8C13.1,96.5,3.5,87,3.5,75.2V24.8C3.5,13,13.1,3.5,24.8,3.5h50.3c11.8,0,21.3,9.6,21.3,21.3v50.3
	C96.5,87,87,96.5,75.2,96.5z"/>
</svg>
