<?xml version="1.0" encoding="utf-8"?>
<!-- Generator: Adobe Illustrator 27.3.1, SVG Export Plug-In . SVG Version: 6.00 Build 0)  -->
<svg version="1.1" id="Calque_1" xmlns="http://www.w3.org/2000/svg" xmlns:xlink="http://www.w3.org/1999/xlink" x="0px" y="0px"
	 viewBox="0 0 3000 1000" style="enable-background:new 0 0 3000 1000;" xml:space="preserve">
<style type="text/css">
	.st0{fill:url(#SVGID_1_);stroke:#020203;stroke-miterlimit:10;}
	.st1{fill:#4CC1F0;stroke:#020203;stroke-miterlimit:10;}
	.st2{fill:#FEEB1A;stroke:#020203;stroke-width:4;stroke-miterlimit:10;}
	.st3{fill:#FFFFFF;stroke:#020203;stroke-width:4;stroke-miterlimit:10;}
	.st4{fill:#878787;stroke:#020203;stroke-width:4;stroke-miterlimit:10;}
	.st5{fill:#C6C6C6;stroke:#020203;stroke-width:4;stroke-miterlimit:10;}
</style>
<linearGradient id="SVGID_1_" gradientUnits="userSpaceOnUse" x1="0" y1="500" x2="3000" y2="500">
	<stop  offset="0.4157" style="stop-color:#36A9E1"/>
	<stop  offset="0.6473" style="stop-color:#29235C"/>
</linearGradient>
<rect class="st0" width="3000" height="1000"/>
<path class="st1" d="M280.9,215.7c-1.1,0.3-2.2,0.6-3.4,0.8c-1.4,0.3-2.8-0.3-3.4-1.5c-0.3-0.6-0.6-1.2-0.9-1.8
	c-1-2.3,1-4.8,3.5-4.3c1.3,0.2,2.6,0.5,3.9,0.7C283.9,210.1,284.2,214.9,280.9,215.7z"/>
<circle class="st2" cx="175.8" cy="111.2" r="77.5"/>
<path class="st1" d="M280.9,215.7c-1.1,0.3-2.2,0.6-3.4,0.8c-1.4,0.3-2.8-0.3-3.4-1.5c-0.3-0.6-0.6-1.2-0.9-1.8
	c-1-2.3,1-4.8,3.5-4.3c1.3,0.2,2.6,0.5,3.9,0.7C283.9,210.1,284.2,214.9,280.9,215.7z"/>
<path class="st3" d="M315.4,203.6c0.4,0.4,0.5,0.9,0.2,1.4c-7.2,13.8-35,24.1-68.2,24.1c-20.6,0-39.2-4-52-10.3
	c-0.4-0.2-0.9-0.1-1.2,0.1c-8.5,6.3-20.1,10.2-32.9,10.2c-26.1,0-47.2-16.2-47.2-36.1c0-16.7,14.9-30.8,35.1-34.9
	c0.6-0.1,1.1-0.8,0.9-1.4c-0.3-1.8-0.5-3.5-0.5-5.3c0-28.8,42.5-52.2,95-52.2c48.2,0,88,19.7,94.2,45.3c0.2,0.7,0.8,1.1,1.5,0.9
	c6.5-1.8,13.6-2.8,21-2.8c31,0,56.1,17.4,56.1,38.9s-25.1,38.9-56.1,38.9c-18.2,0-34.4-6-44.7-15.4c-0.4-0.3-0.5-0.9-0.3-1.4"/>
<path class="st3" d="M925.1,150.8c-0.5,0.4-0.6,0.9-0.3,1.4c9.5,13.8,46,24.1,89.6,24.1c27.1,0,51.5-4,68.4-10.3
	c0.5-0.2,1.1-0.1,1.6,0.1c11.2,6.3,26.4,10.2,43.2,10.2c34.3,0,62.1-16.2,62.1-36.1c0-16.7-19.6-30.8-46.1-34.9
	c-0.9-0.1-1.4-0.8-1.2-1.4c0.4-1.8,0.7-3.5,0.7-5.3c0-28.8-55.9-52.2-124.9-52.2c-63.3,0-115.6,19.7-123.8,45.3
	c-0.2,0.7-1.1,1.1-2,0.9c-8.5-1.8-17.9-2.8-27.6-2.8c-40.7,0-73.8,17.4-73.8,38.9s33,38.9,73.8,38.9c24,0,45.3-6,58.7-15.4
	c0.5-0.3,0.6-0.9,0.4-1.4"/>
<path class="st3" d="M689.8,284.1c0.3,0.2,0.4,0.4,0.2,0.6c-5.7,6-27.5,10.4-53.6,10.4c-16.2,0-30.8-1.7-40.9-4.4
	c-0.3-0.1-0.7-0.1-1,0c-6.7,2.7-15.8,4.4-25.8,4.4c-20.5,0-37.1-7-37.1-15.6c0-7.2,11.7-13.3,27.6-15.1c0.5-0.1,0.8-0.3,0.7-0.6
	c-0.3-0.8-0.4-1.5-0.4-2.3c0-12.4,33.5-22.5,74.7-22.5c37.9,0,69.2,8.5,74,19.5c0.1,0.3,0.7,0.5,1.2,0.4c5.1-0.8,10.7-1.2,16.5-1.2
	c24.4,0,44.1,7.5,44.1,16.8s-19.8,16.8-44.1,16.8c-14.3,0-27.1-2.6-35.1-6.6c-0.3-0.1-0.4-0.4-0.2-0.6"/>
<path class="st4" d="M2910.2,34.3c8,12.9-69.9,25.3-42.8,90.8c25.4,61.5,85.7,11.9,88.6,28.2c2.4,13.6-58.5,55-105.2,30.5
	c-24.2-12.7-40-40.6-40.1-68.2c-0.1-17.7,6.2-31,9.6-37C2843.6,36.6,2903.9,24.2,2910.2,34.3z"/>
<path class="st5" d="M2718.4,215.6c0.2,0.5,0.1,1-0.3,1.4c-10.2,9.3-26.5,15.4-44.7,15.4c-31,0-56.1-17.4-56.1-38.9
	s25.1-38.9,56.1-38.9c7.4,0,14.5,1,21,2.8c0.7,0.2,1.3-0.2,1.5-0.9c6.2-25.5,46-45.3,94.2-45.3c52.5,0,95,23.4,95,52.2
	c0,1.8-0.2,3.6-0.5,5.3c-0.1,0.7,0.3,1.3,0.9,1.4c20.2,4.1,35.1,18.2,35.1,34.9c0,19.9-21.1,36.1-47.2,36.1
	c-12.8,0-24.4-3.9-32.9-10.2c-0.4-0.3-0.8-0.3-1.2-0.1c-12.8,6.3-31.4,10.3-52,10.3c-33.2,0-61-10.3-68.2-24.1
	c-0.2-0.5-0.1-1,0.2-1.4"/>
<path class="st5" d="M2151,223.5c-0.2,0.4-0.1,0.8,0.3,1.1c11.2,7.6,28.8,12.5,48.7,12.5c33.8,0,61.2-14.2,61.2-31.7
	s-27.4-31.7-61.2-31.7c-8.1,0-15.8,0.8-22.9,2.3c-0.7,0.2-1.5-0.2-1.6-0.7c-6.7-20.8-50.1-36.9-102.7-36.9
	c-57.2,0-103.6,19.1-103.6,42.6c0,1.5,0.2,2.9,0.5,4.4c0.1,0.5-0.3,1.1-1,1.2c-22,3.3-38.3,14.8-38.3,28.5
	c0,16.3,23.1,29.4,51.5,29.4c13.9,0,26.6-3.2,35.8-8.3c0.4-0.2,0.9-0.3,1.3-0.1c14,5.2,34.2,8.4,56.7,8.4c36.2,0,66.5-8.4,74.4-19.6
	c0.3-0.4,0.1-0.8-0.3-1.1"/>
<path class="st5" d="M2491.5,368.5c0.1,0.2,0.1,0.4-0.2,0.6c-8.1,4-20.8,6.6-35.1,6.6c-24.4,0-44.1-7.5-44.1-16.8
	s19.8-16.8,44.1-16.8c5.8,0,11.4,0.4,16.5,1.2c0.5,0.1,1-0.1,1.2-0.4c4.9-11,36.1-19.5,74-19.5c41.3,0,74.7,10.1,74.7,22.5
	c0,0.8-0.1,1.5-0.4,2.3c-0.1,0.3,0.2,0.5,0.7,0.6c15.9,1.8,27.6,7.8,27.6,15.1c0,8.6-16.6,15.6-37.1,15.6c-10.1,0-19.2-1.7-25.8-4.4
	c-0.3-0.1-0.7-0.1-1,0c-10.1,2.7-24.7,4.4-40.9,4.4c-26.1,0-48-4.4-53.6-10.4c-0.2-0.2-0.1-0.4,0.2-0.6"/>
</svg>
